<svg xmlns="http://www.w3.org/2000/svg" width="166.616" height="99.635" viewBox="0 0 166.616 99.635"><g transform="translate(2343 4556)"><g transform="translate(-2344.668 -4557.1)"><path d="M54.165,37.286a16.767,16.767,0,0,0,.61,4.932,29.663,29.663,0,0,0,1.773,3.99,2.41,2.41,0,0,1,.388,1.275,2.194,2.194,0,0,1-1.053,1.662l-3.491,2.327a2.657,2.657,0,0,1-1.441.5,2.55,2.55,0,0,1-1.662-.776,17.144,17.144,0,0,1-1.995-2.6c-.554-.942-1.108-1.995-1.718-3.269a20.471,20.471,0,0,1-16.292,7.647c-4.655,0-8.368-1.33-11.083-3.99a14.235,14.235,0,0,1-4.1-10.64,14.265,14.265,0,0,1,5.043-11.415c3.38-2.882,7.869-4.322,13.577-4.322a43.875,43.875,0,0,1,5.874.443c2.05.277,4.156.72,6.373,1.219V20.218c0-4.212-.887-7.148-2.6-8.866C40.588,9.634,37.6,8.8,33.329,8.8a25.213,25.213,0,0,0-5.985.72,44.155,44.155,0,0,0-5.985,1.884,15.9,15.9,0,0,1-1.94.72,3.4,3.4,0,0,1-.887.166c-.776,0-1.164-.554-1.164-1.718V7.861a3.506,3.506,0,0,1,.388-1.94,4.149,4.149,0,0,1,1.552-1.164,31.9,31.9,0,0,1,6.982-2.494,33.6,33.6,0,0,1,8.645-1.053c6.594,0,11.415,1.5,14.519,4.489,3.048,2.992,4.6,7.536,4.6,13.632V37.286Zm-22.5,8.423a17.959,17.959,0,0,0,5.708-1,12.348,12.348,0,0,0,5.264-3.547,8.8,8.8,0,0,0,1.884-3.547,19.894,19.894,0,0,0,.554-4.821V30.47a46.278,46.278,0,0,0-5.1-.942A41.756,41.756,0,0,0,34.77,29.2c-3.713,0-6.428.72-8.257,2.217A7.724,7.724,0,0,0,23.8,37.784c0,2.6.665,4.544,2.05,5.874A7.684,7.684,0,0,0,31.666,45.709Zm44.5,5.985a3.094,3.094,0,0,1-2.106-.554,4.517,4.517,0,0,1-1.164-2.161L59.872,6.143a9.707,9.707,0,0,1-.5-2.217A1.216,1.216,0,0,1,60.7,2.541h5.431a3.072,3.072,0,0,1,2.161.554A4.534,4.534,0,0,1,69.4,5.256l9.31,36.684L87.358,5.256a3.887,3.887,0,0,1,1.053-2.161,3.812,3.812,0,0,1,2.217-.554h4.433a3.335,3.335,0,0,1,2.217.554A3.734,3.734,0,0,1,98.33,5.256l8.756,37.128,9.587-37.128a4.752,4.752,0,0,1,1.108-2.161,3.615,3.615,0,0,1,2.161-.554H125.1a1.232,1.232,0,0,1,1.385,1.385,5.527,5.527,0,0,1-.111.887,7.884,7.884,0,0,1-.388,1.385L112.627,49.034a4.249,4.249,0,0,1-1.164,2.161,3.545,3.545,0,0,1-2.106.554h-4.766a3.335,3.335,0,0,1-2.217-.554,3.929,3.929,0,0,1-1.053-2.217L92.733,13.236,84.2,48.923a4.325,4.325,0,0,1-1.053,2.217,3.435,3.435,0,0,1-2.217.554Zm71.208,1.5a36.671,36.671,0,0,1-8.534-1,25.209,25.209,0,0,1-6.373-2.217,3.993,3.993,0,0,1-1.718-1.552,3.912,3.912,0,0,1-.332-1.552V44.046c0-1.164.443-1.718,1.275-1.718a3.138,3.138,0,0,1,1,.166c.333.111.831.332,1.385.554a30.143,30.143,0,0,0,6.1,1.94,33.279,33.279,0,0,0,6.594.665c3.491,0,6.206-.61,8.091-1.829a5.967,5.967,0,0,0,2.882-5.264,5.4,5.4,0,0,0-1.5-3.879c-1-1.053-2.882-1.995-5.6-2.882l-8.035-2.494c-4.045-1.275-7.038-3.159-8.866-5.652a13.2,13.2,0,0,1-2.771-8.035,12.333,12.333,0,0,1,1.5-6.151,14.248,14.248,0,0,1,3.99-4.544,17.588,17.588,0,0,1,5.763-2.882A24.152,24.152,0,0,1,149.2,1.1a27.818,27.818,0,0,1,3.713.222c1.275.166,2.438.388,3.6.61,1.108.277,2.161.554,3.159.887a12.094,12.094,0,0,1,2.327,1A4.792,4.792,0,0,1,163.664,5.2a2.986,2.986,0,0,1,.5,1.829v2.6c0,1.164-.443,1.773-1.275,1.773a5.764,5.764,0,0,1-2.106-.665,25.351,25.351,0,0,0-10.64-2.161c-3.159,0-5.652.5-7.37,1.552a5.351,5.351,0,0,0-2.6,4.932A5.233,5.233,0,0,0,141.831,19a16.553,16.553,0,0,0,6.1,3.048L155.8,24.54c3.99,1.275,6.871,3.048,8.589,5.32a12.54,12.54,0,0,1,2.549,7.758,14.246,14.246,0,0,1-1.441,6.428,14.9,14.9,0,0,1-4.045,4.876,17.863,17.863,0,0,1-6.151,3.1A26.351,26.351,0,0,1,147.372,53.19Z" transform="translate(-5.543)" fill="#252f3e"/><g transform="translate(1.668 63.215)"><path d="M152.3,132.751c-18.231,13.466-44.72,20.614-67.495,20.614a122.106,122.106,0,0,1-82.4-31.42c-1.718-1.552-.166-3.657,1.884-2.438A166.181,166.181,0,0,0,86.747,141.4a164.545,164.545,0,0,0,62.9-12.856C152.691,127.154,155.3,130.535,152.3,132.751Z" transform="translate(-1.668 -115.845)" fill="#f90" fill-rule="evenodd"/><path d="M268.825,121.453c-2.327-2.992-15.405-1.441-21.335-.72-1.773.222-2.05-1.33-.443-2.494,10.418-7.315,27.541-5.209,29.536-2.771,1.995,2.494-.554,19.617-10.307,27.818-1.5,1.275-2.937.61-2.272-1.053C266.22,136.748,271.152,124.39,268.825,121.453Z" transform="translate(-110.598 -113.192)" fill="#f90" fill-rule="evenodd"/></g></g></g></svg>