<svg xmlns="http://www.w3.org/2000/svg" width="69.608" height="71.798" viewBox="0 0 69.608 71.798"><g transform="translate(-1186.93 1709)"><g transform="translate(1187.494 -1708.499)"><g transform="translate(0.506 0.499)"><path d="M45.993,47.542s1.927,5.377,9.636,5.377A11.929,11.929,0,0,0,67.635,42.4c.6-4.991,4.085-41.9-33.9-41.9A32.645,32.645,0,0,0,2.325,22.856C-2.242,38.408,1.458,58.142,17.26,66.563c9.385,4.972,18.192,5.223,30.2.809" transform="translate(-0.506 -0.499)" fill="none" stroke="#fd0" stroke-miterlimit="10" stroke-width="2"/><path d="M36.773,25.244c0,7.928-5.85,14.354-13.062,14.354S10.65,33.172,10.65,25.244,16.5,10.89,23.712,10.89,36.773,17.316,36.773,25.244Z" transform="translate(10.267 10.69)" fill="none" stroke="#fd0" stroke-miterlimit="10" stroke-width="2"/></g></g></g></svg>