<svg xmlns="http://www.w3.org/2000/svg" width="100" height="100" viewBox="0 0 100 100">
  <g id="gatsby-icon" transform="translate(-2024 -4252)">
    <path id="Path_50" data-name="Path 50" d="M50,0a50,50,0,1,0,50,50A50.147,50.147,0,0,0,50,0ZM22.143,77.857A38.767,38.767,0,0,1,10.714,50.714L49.643,89.286C39.643,88.928,29.643,85.357,22.143,77.857ZM58.571,88.214,11.786,41.429a39.261,39.261,0,0,1,70-14.643l-5.357,4.643A32.972,32.972,0,0,0,50,17.857,32.483,32.483,0,0,0,19.643,39.286L60.714,80.357A32.378,32.378,0,0,0,81.428,57.143H64.286V50h25A39.4,39.4,0,0,1,58.571,88.214Z" transform="translate(2024 4252)" fill="#639"/>
  </g>
</svg>
