<svg xmlns="http://www.w3.org/2000/svg" width="72.822" height="72.448" viewBox="0 0 72.822 72.448"><g transform="translate(0.495 0.525)"><g transform="translate(0.496 0.498)"><path d="M25.481,23.821v6.253l7.325-6.253H53.79V2.27H17.63V23.821Z" transform="translate(17.04 1.317)" fill="none" stroke="#fd0" stroke-miterlimit="10" stroke-width="2"/><path d="M17.865,27.173l-2.024-4.047,4.249-2.246a6.92,6.92,0,0,0,2.934-9.248h0L19.161,4.206h0A6.92,6.92,0,0,0,9.812,1.292h0C2.1,5.359.079,12.178.564,20.879A65.239,65.239,0,0,0,7.829,45.567" transform="translate(-0.496 -0.498)" fill="none" stroke="#fd0" stroke-miterlimit="10" stroke-width="2"/><path d="M12.143,11.68,26.429,40.8c.85-.283,4.958-2.914,4.958-2.914A6.9,6.9,0,0,1,40.715,40.8h0l3.865,7.325h0a6.92,6.92,0,0,1-2.894,9.349h0C34,61.52,27.238,59.354,20.338,54.032A64.429,64.429,0,0,1,4.15,34.121" transform="translate(3.243 10.948)" fill="none" stroke="#fd0" stroke-miterlimit="10" stroke-width="2"/></g></g></svg>