<svg xmlns="http://www.w3.org/2000/svg" viewBox="0 0 219.42 44.7"><defs><style>.cls-1{fill:#2578b8;}.cls-2{fill:#18609f;}.cls-3{fill:#2aaeff;}</style></defs><g id="Layer_2" data-name="Layer 2"><g id="Layer_1-2" data-name="Layer 1"><path d="M78.44,38.86a9.26,9.26,0,0,1-8.23-4.8A10.18,10.18,0,0,1,68.94,29a10.18,10.18,0,0,1,1.29-5.23,9,9,0,0,1,3.53-3.41,10.34,10.34,0,0,1,10,.2,8.44,8.44,0,0,1,3.53,3.64l-.38,1.06V2h2.25V38.48h-2.3V32.72l.48,1a9.37,9.37,0,0,1-3.6,3.68A10.3,10.3,0,0,1,78.44,38.86Zm.58-2a8.05,8.05,0,0,0,3.88-.93,7.52,7.52,0,0,0,4-6.17v-2.4a7.25,7.25,0,0,0-1.49-3.23,8.64,8.64,0,0,0-2.78-2.28A7.75,7.75,0,0,0,79,21a7.86,7.86,0,0,0-3.94,1,7.65,7.65,0,0,0-2.83,2.79,7.86,7.86,0,0,0-1.06,4.13,7.68,7.68,0,0,0,1.06,4,8,8,0,0,0,2.85,2.88A7.57,7.57,0,0,0,79,36.89Z"/><path d="M97.25,12.8a1.44,1.44,0,0,1,.53-1.17,1.76,1.76,0,0,1,1.15-.46,1.67,1.67,0,0,1,1.16.46,1.62,1.62,0,0,1,0,2.3,1.62,1.62,0,0,1-1.16.46,1.71,1.71,0,0,1-1.15-.48A1.49,1.49,0,0,1,97.25,12.8Zm.49,6.91H100V38.48H97.74Z"/><path d="M115.11,39.2l-9.5-19.49h2.64l7.82,17h-1.39l7.54-17h2.49L115.4,39.2Z"/><path d="M144.58,36.63a9.67,9.67,0,0,1-2.92,1.64,10.8,10.8,0,0,1-8.55-.7,9.41,9.41,0,0,1-3.55-3.48,9.85,9.85,0,0,1-1.3-5,9.46,9.46,0,0,1,1.35-5,9.76,9.76,0,0,1,3.57-3.48,9.61,9.61,0,0,1,4.88-1.27,11.22,11.22,0,0,1,3.64.57,9,9,0,0,1,2.93,1.64l-1.2,1.53a8.57,8.57,0,0,0-2.35-1.34,7.9,7.9,0,0,0-2.88-.53,7.35,7.35,0,0,0-3.87,1.06,7.94,7.94,0,0,0,6.75,14.28,8.79,8.79,0,0,0,2.25-1.23Z"/><path d="M152.84,19.71l.24,5.76-.29-.72a7.45,7.45,0,0,1,2-3,10.18,10.18,0,0,1,3-1.92,8.72,8.72,0,0,1,3.19-.67l-.09,2.21a8,8,0,0,0-3.92,1,7.62,7.62,0,0,0-2.78,2.57,6.51,6.51,0,0,0-1,3.62V38.5h-2.26V19.71Z"/><path d="M174.83,38.86A9.83,9.83,0,0,1,170,37.63a9,9,0,0,1-3.45-3.43,10.13,10.13,0,0,1-1.27-5.14,10.14,10.14,0,0,1,1.34-5.35,8.83,8.83,0,0,1,3.65-3.41,11.41,11.41,0,0,1,5.23-1.18,8.93,8.93,0,0,1,7.92,5.24l-.34.67.29-5.33h2V38.48h-2.26V32.63l.48.86a5.86,5.86,0,0,1-1.15,1.9,10.36,10.36,0,0,1-4.58,3A10,10,0,0,1,174.83,38.86Zm.48-1.92a8,8,0,0,0,3.81-.89,7.13,7.13,0,0,0,4-6.07V27.25a7.4,7.4,0,0,0-1.51-3.17,8.23,8.23,0,0,0-2.76-2.21,8.11,8.11,0,0,0-7.44.17,7.29,7.29,0,0,0-2.83,2.76A7.93,7.93,0,0,0,167.48,29a7.68,7.68,0,0,0,1.06,4,8,8,0,0,0,2.85,2.88A7.43,7.43,0,0,0,175.31,36.94Z"/><path d="M195.13,38.48V21.82h-3.27V19.76h3.27V10.3q0-4.5,1.56-6.5a5.49,5.49,0,0,1,4.63-2,7,7,0,0,1,1.44.16,4.66,4.66,0,0,1,1.39.56l-1,1.63a2.42,2.42,0,0,0-.74-.36,3.73,3.73,0,0,0-.94-.12,3.54,3.54,0,0,0-3.09,1.44q-1,1.44-1,5.13v9.51h6.28v2.06h-6.28V38.48Z"/><path d="M211.3,11.45h2.31V20h5.81v1.82h-5.81V38.48H211.3V21.77h-4V20h4Z"/><polygon class="cls-1" points="19.87 0 39.73 0 29.8 11.18 19.87 0"/><polygon class="cls-1" points="39.73 44.7 19.87 44.7 29.8 33.53 39.73 44.7"/><polygon class="cls-2" points="29.8 33.53 19.87 22.35 0 22.35 19.87 44.7 29.8 33.53"/><polygon class="cls-3" points="19.87 22.35 29.8 11.18 19.87 0 0 22.35 19.87 22.35"/><polygon class="cls-3" points="39.73 22.35 29.8 33.53 39.73 44.7 59.6 22.35 39.73 22.35"/><polygon class="cls-2" points="29.8 11.18 39.73 22.35 59.6 22.35 39.73 0 29.8 11.18"/></g></g></svg>