<svg xmlns="http://www.w3.org/2000/svg" viewBox="0 0 150.48 131.1"><defs><style>.cls-1{fill:#fff;}</style></defs><g id="Layer_2" data-name="Layer 2"><g id="Layer_1-2" data-name="Layer 1"><path class="cls-1" d="M9.5,130.76A9.26,9.26,0,0,1,1.27,126a11,11,0,0,1,0-10.32,9,9,0,0,1,3.53-3.41A10.2,10.2,0,0,1,9.74,111a10.09,10.09,0,0,1,5.11,1.4,8.38,8.38,0,0,1,3.53,3.64L18,117.13V93.9h2.25v36.48H18v-5.76l.48,1a9.37,9.37,0,0,1-3.6,3.68A10.3,10.3,0,0,1,9.5,130.76Zm.58-2a8.05,8.05,0,0,0,3.88-.93,7.6,7.6,0,0,0,2.79-2.55,7.43,7.43,0,0,0,1.2-3.62v-2.4A7.25,7.25,0,0,0,16.46,116a8.53,8.53,0,0,0-2.78-2.28,7.75,7.75,0,0,0-3.6-.84,7.88,7.88,0,0,0-3.94,1,7.65,7.65,0,0,0-2.83,2.79,8,8,0,0,0-1.06,4.13,7.8,7.8,0,0,0,1.06,4,8,8,0,0,0,2.85,2.88,7.57,7.57,0,0,0,3.9,1.08Z"/><path class="cls-1" d="M28.31,104.7a1.46,1.46,0,0,1,.53-1.17,1.78,1.78,0,0,1,1.15-.46,1.61,1.61,0,0,1,1.16.46,1.47,1.47,0,0,1,.48,1.13,1.52,1.52,0,0,1-.48,1.17,1.61,1.61,0,0,1-1.16.46,1.71,1.71,0,0,1-1.15-.48A1.53,1.53,0,0,1,28.31,104.7Zm.49,6.91h2.26v18.77H28.8Z"/><path class="cls-1" d="M46.17,131.1l-9.5-19.49h2.64l7.82,17H45.74l7.54-17h2.49L46.46,131.1Z"/><path class="cls-1" d="M75.64,128.53a9.67,9.67,0,0,1-2.92,1.64,10.8,10.8,0,0,1-8.55-.7A9.41,9.41,0,0,1,60.62,126a9.85,9.85,0,0,1-1.3-5,9.56,9.56,0,0,1,1.35-5,9.76,9.76,0,0,1,3.57-3.48,9.61,9.61,0,0,1,4.88-1.27,11.22,11.22,0,0,1,3.64.57,8.91,8.91,0,0,1,2.93,1.64L74.49,115a8.57,8.57,0,0,0-2.35-1.34,7.66,7.66,0,0,0-2.88-.53,7.26,7.26,0,0,0-3.87,1.06,7.94,7.94,0,0,0,6.75,14.28,8.63,8.63,0,0,0,2.25-1.23Z"/><path class="cls-1" d="M83.9,111.61l.24,5.76-.29-.72a7.55,7.55,0,0,1,2-3,10.1,10.1,0,0,1,3-1.92,8.76,8.76,0,0,1,3.19-.67L92,113.27a8,8,0,0,0-3.92,1,7.7,7.7,0,0,0-2.78,2.57,6.59,6.59,0,0,0-1,3.62v9.94H82V111.61Z"/><path class="cls-1" d="M105.89,130.76a9.83,9.83,0,0,1-4.83-1.23,9.09,9.09,0,0,1-3.45-3.43,11.19,11.19,0,0,1,.07-10.49,8.82,8.82,0,0,1,3.65-3.41,11.44,11.44,0,0,1,5.23-1.18,8.92,8.92,0,0,1,7.92,5.24l-.34.67.29-5.33h2v18.78h-2.26v-5.85l.48.86a5.69,5.69,0,0,1-1.15,1.9,10.36,10.36,0,0,1-4.58,3A10,10,0,0,1,105.89,130.76Zm.48-1.92a8,8,0,0,0,3.81-.89,7.13,7.13,0,0,0,4-6.07v-2.73a7.4,7.4,0,0,0-1.51-3.17,8.09,8.09,0,0,0-10.2-2,7.29,7.29,0,0,0-2.83,2.76,8,8,0,0,0-1.06,4.17,7.8,7.8,0,0,0,1.06,4,8,8,0,0,0,2.85,2.88A7.52,7.52,0,0,0,106.37,128.84Z"/><path class="cls-1" d="M126.19,130.38V113.72h-3.27v-2.06h3.27V102.2q0-4.5,1.56-6.5a5.51,5.51,0,0,1,4.63-2,6.91,6.91,0,0,1,1.44.16,4.66,4.66,0,0,1,1.39.56l-1,1.63a2.42,2.42,0,0,0-.74-.36,3.28,3.28,0,0,0-.94-.12A3.55,3.55,0,0,0,129.44,97c-.66,1-1,2.67-1,5.13v9.51h6.28v2.06h-6.28v16.67Z"/><path class="cls-1" d="M142.36,103.35h2.31v8.5h5.81v1.82h-5.81v16.71h-2.31V113.67h-4v-1.82h4Z"/><polygon class="cls-1" points="57.05 0 93.44 0 75.24 20.48 57.05 0"/><polygon class="cls-1" points="93.44 81.9 57.05 81.9 75.24 61.43 93.44 81.9"/><polygon class="cls-1" points="75.24 61.43 57.05 40.95 20.64 40.95 57.05 81.9 75.24 61.43"/><polygon class="cls-1" points="57.05 40.95 75.24 20.48 57.05 0 20.64 40.95 57.05 40.95"/><polygon class="cls-1" points="93.44 40.95 75.24 61.43 93.44 81.9 129.84 40.95 93.44 40.95"/><polygon class="cls-1" points="75.24 20.48 93.44 40.95 129.84 40.95 93.44 0 75.24 20.48"/></g></g></svg>