<svg xmlns="http://www.w3.org/2000/svg" xmlns:xlink="http://www.w3.org/1999/xlink" width="917.425" height="733.845" viewBox="0 0 917.425 733.845">
  <defs>
    <clipPath id="clip-path">
      <rect id="Rectangle_12" data-name="Rectangle 12" width="917.426" height="733.845" fill="none"/>
    </clipPath>
  </defs>
  <g id="hero-image" transform="translate(-18.12 -0.2)">
    <g id="Layer_1" data-name="Layer 1" transform="translate(18.12 0.2)">
      <path id="Path_1374" data-name="Path 1374" d="M389.438,471.027c-1.835-.56-11.093-3.257-11.258-2.8.826-2.376,1.642-4.762,2.468-7.138a24.691,24.691,0,0,1,5.826,1.642c1.835.734,3.606,1.587,5.505,2.248a62.966,62.966,0,0,0-2.331,6.111l-.211-.064Z" transform="translate(-31.296 -38.207)" fill="#f3aaa1"/>
      <path id="Path_1375" data-name="Path 1375" d="M333.239,456.756c-4.276-1.129-8.4-3.074-10.818-7.019-3.046-4.973-4.955-10.744-7.6-15.947-3.019-5.927-6.23-11.763-8.744-17.938a101.728,101.728,0,0,1-4.12-12.047c-.991-3.744-.358-5.67,2.386-8.533a21.305,21.305,0,0,1,14.2-6.643c7.726-.358,9.414,6.661,12.167,12.231,2.927,5.927,4.166,12.478,4.661,19.03.523,6.79,1.789,13.561,2.753,20.3.3,2.083,1.835,2.413,3.533,2.569,2.652.248,36.417,9.074,36.417,9.074l-2.8,12.378s-18.956-2.8-20.947-3.175q-9.469-1.835-18.929-3.78c-.725-.147-1.441-.312-2.165-.5" transform="translate(-24.975 -32.23)" fill="#ce7b13"/>
      <path id="Path_1376" data-name="Path 1376" d="M333.623,368.8a67.694,67.694,0,0,0-4.817-7.533,19.03,19.03,0,0,1-3.459-10.377,7.781,7.781,0,0,1,1.275-5.056c3.358-4.3,7.469,1.624,9.175,4.413,2.239,3.624,4.34,7.34,6.239,11.139s3.285,7.808,4.973,11.7c1.78,4.111,4.432,7.111,7.01,10.653a80.978,80.978,0,0,1,7.386,12.763c1.606,3.377,3.138,6.946,4.909,10.221a11.925,11.925,0,0,1-2.321,1.542,14.9,14.9,0,0,1-3.5.918c.1-2.459-2.606-5.028-2.7-5.147-4.725-5.817-8.4-9.57-12.552-15.8-3.009-4.523-5.762-9.175-8.5-13.9-1.064-1.835-2.092-3.67-3.147-5.56" transform="translate(-26.937 -28.577)" fill="#f3aaa1"/>
      <path id="Path_1377" data-name="Path 1377" d="M310.212,320.215c-.541,2.376-1.431,3.835.8,5.505a15.1,15.1,0,0,0,6.927,2.753c4.9.752,10.7-.073,14.736-3.138,5.936-4.505,5.689-13.286,1.6-18.938a16.283,16.283,0,0,0-1.6-1.835c-4.12-4.138-11.322-7.6-15.3-1.34a54.566,54.566,0,0,0-7.166,16.993" transform="translate(-25.639 -24.906)" fill="#f3aaa1"/>
      <path id="Path_1378" data-name="Path 1378" d="M325.308,516.532c-.055-1.881-.532-11.552-1.028-11.552h7.56a24.773,24.773,0,0,1,.34,6.047c-.083,1.991-.321,3.936-.33,5.946a59.778,59.778,0,0,0-6.542-.211v-.229" transform="translate(-26.852 -41.826)" fill="#f3aaa1"/>
      <path id="Path_1379" data-name="Path 1379" d="M316.6,468.928c-.661-5.028-1.358-10.047-2.312-15.02a93.494,93.494,0,0,0-4.147-15.194,199.577,199.577,0,0,1-7.9-24.718,101.582,101.582,0,0,1-2.193-12.543c-.4-3.845.523-5.652,3.67-8.056a21.333,21.333,0,0,1,15.057-4.4c9.469,1.028,9.432,11.8,10.267,18.91a220.367,220.367,0,0,1,1.441,24.6c0,4.111-.055,8.212-.22,12.322-.211,5.01.918,9.46,1.606,14.414a75.957,75.957,0,0,1,.477,11.377c-.092,10.194-.294,30.6-.294,30.6l-11.478.22c-.606-8.074-1.716-16.1-2.835-24.113-.395-2.808-.762-5.615-1.138-8.423" transform="translate(-24.846 -32.254)" fill="#fcc049"/>
      <path id="Path_1380" data-name="Path 1380" d="M307.291,521.578c-.349,0,.284-2.982.33-3.221A5.982,5.982,0,0,1,311.016,514a12.34,12.34,0,0,1,5.065-.762c4.744,0,9.386.982,14.047,1.78a1.7,1.7,0,0,1,1.532,1.229,16.626,16.626,0,0,1,.34,5.331c0,.193-19.773.064-24.709,0" transform="translate(-25.442 -42.506)" fill="#31316b"/>
      <path id="Path_1381" data-name="Path 1381" d="M315.217,338.341a.744.744,0,0,0,.064.376.789.789,0,0,0,.376.266,27.061,27.061,0,0,0,9.928,1.5q0-5.918-.339-11.845a.55.55,0,0,0-.1-.34.5.5,0,0,0-.395-.128c-1.725-.083-3.45-.147-5.166-.193-1.459,0-2.89-.2-4.349-.2a46.329,46.329,0,0,1,0,5.413c-.073,1.835-.055,3.432-.055,5.147Z" transform="translate(-26.101 -27.214)" fill="#f3aaa1"/>
      <path id="Path_1382" data-name="Path 1382" d="M260.324,267.659l-8.836-.055c-1.239,0-2.5-.064-3.789-.064h-.725a22.023,22.023,0,0,0-4.257.367l-.651.138-.064.661c-.339,3.092-.193,6.056-.321,9h0v.092a1.458,1.458,0,0,0,.064.422,1.119,1.119,0,0,0,.486.606l.147.092.321.055h1.652c3.67,0,7.258.138,10.928.138,1.229,0,2.459,0,3.67-.055h.184a1.717,1.717,0,0,1,.45.046h.064l.055-.055h-.064l.055-.055h-.064a2.584,2.584,0,0,1,0,.413v17.222h1.835q0-8.616-.046-17.231a4.281,4.281,0,0,0,0-.642,1.909,1.909,0,0,0-.321-.835,1.945,1.945,0,0,0-1.037-.716,3.824,3.824,0,0,0-.963-.119h-.248c-1.211.046-2.422.055-3.67.055-3.67,0-7.258-.138-10.928-.138h-1.514v.918l.147-.918h-.156l-.147.918.459-.789-.367.633.7-.229a.734.734,0,0,0-.33-.4l-.367.633.7-.229-.431.147h.459a.3.3,0,0,0,0-.147l-.431.147h.459c.128-3.055,0-5.973.312-8.882l-.918-.1.193.918a20.521,20.521,0,0,1,3.9-.321h.7c1.239,0,2.5.055,3.771.064l8.836.055v-1.835Z" transform="translate(-20.04 -22.246)" fill="#31316b"/>
      <path id="Path_1383" data-name="Path 1383" d="M300.19,399.631q8.35.615,16.736.78c1.193,0,15.552,0,15.552-.138,0-4.285-.229-8.533-.229-12.845,0-7.34.413-14.681.606-21.957.165-6.606.918-14.057-2.12-20.112s-10.68-9.084-16.708-7.5-9.4,7.616-10.854,13.479c-2.927,11.781-2.918,25.434-2.954,37.518v10.772" transform="translate(-24.865 -28.011)" fill="#81ccf1"/>
      <path id="Path_1384" data-name="Path 1384" d="M281.582,329.642c-1.633-1.064-2.56-2.615-3.523-4.845-3.5-8.139-8.1-15.736-11.763-23.737-1.119-2.45-3.753-2.129-4.083.56-.5,3.945,1.294,7.808,2.468,11.488,1.835,5.817,3.413,11.744,5.065,17.635a14.682,14.682,0,0,0,1.349,3.6c2.358,4,8.79,4.808,12.79,6.285,5.955,2.193,12,4.065,18.03,6.047,2.376.78,5.083,1.945,7.616,1.285,3-.789,4.817-4.487,2.642-7.047-2.753-3.211-8.258-4.725-12.157-5.808q-7.845-2.175-15.708-4.294a9.478,9.478,0,0,1-2.753-1.165" transform="translate(-21.726 -24.873)" fill="#f3aaa1"/>
      <path id="Path_1385" data-name="Path 1385" d="M246.85,263.814a2.56,2.56,0,0,0-.688.193c-1.211.523-.918,1.468-.918,2.514.083,1.56,0,3.156,0,4.725a1.661,1.661,0,0,0,2.009,2.046,228.048,228.048,0,0,0,26.508-.569,2.643,2.643,0,0,0,1.991-.817,2.468,2.468,0,0,0,.34-1.2,24.148,24.148,0,0,0,0-4.817c-.193-2.037-1.7-2.285-3.4-2.248-2.753.055-5.505,0-8.258,0l-16.451.064a8.327,8.327,0,0,0-1.174.073Z" transform="translate(-20.329 -21.924)" fill="#fcc049"/>
      <path id="Path_1386" data-name="Path 1386" d="M259.658,287.574c.22,3.945.193,7.992.193,11.928a1.028,1.028,0,0,0,.156.661.973.973,0,0,0,.541.284,7.4,7.4,0,0,0,2.753.147,1.1,1.1,0,0,0,.679-.275,1.257,1.257,0,0,0,.229-.835c.064-4.138.486-8.322.184-12.414a29.587,29.587,0,0,0-4.762.3v.184Z" transform="translate(-21.52 -23.856)" fill="#fcc049"/>
      <path id="Path_1387" data-name="Path 1387" d="M340.979,303.894a20.085,20.085,0,0,0-11.01-7.872,13.451,13.451,0,0,0-7.267-.468,7.34,7.34,0,0,0-5.285,4.67c-.284.963-.193,2.22.707,2.67a6.422,6.422,0,0,0,1.459.284,3,3,0,0,1,2.037,2.413c.321,1.661-.551,3.147-.147,4.744a7.615,7.615,0,0,0,1.22,2.753c.6.78,1.34.918,2.037,1.551a1.918,1.918,0,0,1,2.422-.844,2.89,2.89,0,0,1,1.624,2.2c.688,3.78-3.23,4.23-5.285,6.368a5.652,5.652,0,0,0-.918,6.579A8.414,8.414,0,0,0,325,342.192a7.4,7.4,0,0,0-.807,8.148,11.442,11.442,0,0,0,6.588,5.349,18.2,18.2,0,0,0,12.662-.541,11.854,11.854,0,0,0,5.276-3.808,9.368,9.368,0,0,0-.275-10.689,1.56,1.56,0,0,1-.376-.771,1.68,1.68,0,0,1,.147-.624,14.855,14.855,0,0,0-4.588-16.516c1.679-6.294,1.009-13.405-2.67-18.846" transform="translate(-26.274 -24.532)" fill="#31316b"/>
      <path id="Path_1388" data-name="Path 1388" d="M257.11,293.114l-.073.128a2.9,2.9,0,0,0-.248,1.486c0,1.193.092,2.395.2,3.588a4.469,4.469,0,0,0,.321,1.514c.817,1.707,3.294,1.734,4.34,3.3.073.1.147.22.257.257a.523.523,0,0,0,.312,0c1.229-.3,2.45-.633,3.67-.982a.918.918,0,0,0,.624-.367,1.009,1.009,0,0,0,0-.7,49.825,49.825,0,0,1-1-5.9,3.019,3.019,0,0,0-.918-2.129c-.752-.6-1.716-.431-2.6-.6a17.948,17.948,0,0,0-2.8-.44,2.459,2.459,0,0,0-2.11.853Z" transform="translate(-21.285 -24.285)" fill="#f3aaa1"/>
      <g id="Group_276" data-name="Group 276" clip-path="url(#clip-path)">
        <path id="Path_1389" data-name="Path 1389" d="M369.267,422.994c.2.229.4.459.615.679,1.083,1.11,2.441,2.441,4.065,2.523a2.037,2.037,0,0,0,1.964-.918,2.137,2.137,0,0,0,.193-.918,7.826,7.826,0,0,0-.918-3.395,32.636,32.636,0,0,0-3.276-5.505c-.918-1.257-2.028-3.276-3.477-3.936a4.642,4.642,0,0,0-2.074-.257,8.013,8.013,0,0,0-1.753.184,1.341,1.341,0,0,0-.468.2,1.184,1.184,0,0,0-.376.642,20.12,20.12,0,0,0-.11,6.423,9.387,9.387,0,0,0,1.285,4.689.808.808,0,0,0,.477.395c.45.092.716-.486.789-.918a35.612,35.612,0,0,0,.046-5.046,6.7,6.7,0,0,1,.771,1.56,13.837,13.837,0,0,0,2.248,3.578Z" transform="translate(-30.081 -34.096)" fill="#f3aaa1"/>
        <path id="Path_1390" data-name="Path 1390" d="M817.968,460.9c-14.451-28.444-40.491-51.382-47.528-82.486-10.919-48.354,27.866-99.626,11.166-146.31a66.6,66.6,0,0,0-44.253-41.041c-13.534-3.725-27.609-2.982-41.748-2.239-9.341.5-18.718.991-27.966.184-44.794-3.881-80.743-36.656-117.591-62.392-22.6-15.745-50.464-29.792-76.724-21.324-27.288,8.818-42.069,38.536-66.815,53.061-32.875,19.268-72.485,13.1-111.2,6.973-22.076-3.5-43.895-6.992-64.071-5.79-21.837,1.294-45.7,8.57-56.52,27.581-19.938,35.077,5.45,73.091-23.324,106.737-20.094,23.5-59.878,42.491-61.622,77.073-1.33,26.517,21.957,46.886,42.6,63.576s42.831,39.234,38.215,65.374c-2.266,12.845-10.735,23.507-16.727,35.059-26.517,51.153-.257,117.445,45.436,152.5s105.379,45.592,162.826,50.345a1069.29,1069.29,0,0,0,149.467,1.835c63.493-3.67,127.629-13.928,186.856-37.839,29.361-11.836,57.346-27.113,82.33-46.547,11.432-8.891,26.544-19.635,34.756-31.728s9.7-31.407,12.222-46.152c6.625-38.747,8.5-80.449-9.79-116.527" transform="translate(-7.509 -8.656)" fill="#cfe5f5"/>
      </g>
      <path id="Path_1391" data-name="Path 1391" d="M88.055,451.9l-.3-.064A22.053,22.053,0,0,0,65.585,462c-4.2,6.845-4.2,16.6-1.578,24.039,1.009,2.872,2.5,5.689,2.468,8.726-.055,4.23-3.1,7.854-6.524,10.331s-7.34,4.221-10.6,6.946c-5.193,4.377-7.992,14.277-4.248,20.342,7.065,11.469,20.727,17.14,26.9,29.691,3.432,6.982,5.771,15.772,13.02,18.589,6.927,2.688,14.46-1.743,20.25-6.423s12.13-10.038,19.544-9.487c4.8.367,8.983,3.2,13.121,5.661,5.285,3.129,11.13,5.826,17.268,5.643s12.524-4.019,13.864-10.01c1.606-7.184-4.147-15.121-.817-21.691,4.918-9.717,20.553-11.359,11.01-25.691-2.753-4.111-8-5.01-9.533-10.515-2.248-8.074,5.881-16.213,4.037-24.388-1.725-7.634-11.01-10.955-14.809-17.8-4.23-7.625-1.358-18.92-8.258-24.223-4.588-3.551-11.423-2.239-16.433.752s-9.056,7.4-14.121,10.267A28,28,0,0,1,99.5,455.464c-3.872-1.009-7.515-2.854-11.442-3.624Z" transform="translate(-3.688 -36.435)" fill="#05ae99"/>
      <path id="Path_1392" data-name="Path 1392" d="M153.506,490.97,119.19,515.257l2.12,3,34.325-24.3" transform="translate(-9.939 -40.671)" fill="#008f6c"/>
      <path id="Path_1393" data-name="Path 1393" d="M141.31,488.73l-3.01,14.543,3.588.743,3.019-14.543" transform="translate(-11.515 -40.486)" fill="#008f6c"/>
      <path id="Path_1394" data-name="Path 1394" d="M153.759,511.13,130.582,509.9l-.2,3.661,23.177,1.229" transform="translate(-10.862 -42.232)" fill="#008f6c"/>
      <path id="Path_1395" data-name="Path 1395" d="M166.31,534.29l-49.18,20.645,1.413,3.386,49.18-20.645" transform="translate(-9.769 -44.243)" fill="#008f6c"/>
      <path id="Path_1396" data-name="Path 1396" d="M142.313,529.58l-5.193,18.011,3.533,1.009,5.184-18" transform="translate(-11.418 -43.855)" fill="#008f6c"/>
      <path id="Path_1397" data-name="Path 1397" d="M163.033,553,151.5,543.44l-2.34,2.826,11.524,9.552" transform="translate(-12.41 -44.998)" fill="#008f6c"/>
      <path id="Path_1398" data-name="Path 1398" d="M116.894,532.472,81.477,507.01l-2.147,2.982,35.426,25.462" transform="translate(-6.652 -41.994)" fill="#008f6c"/>
      <path id="Path_1399" data-name="Path 1399" d="M89.06,488.808l8.083,31.306,3.551-.918L92.62,487.89" transform="translate(-7.454 -40.417)" fill="#008f6c"/>
      <path id="Path_1400" data-name="Path 1400" d="M103.33,524.98l-26.37,3.835.532,3.633,26.37-3.835" transform="translate(-6.457 -43.476)" fill="#008f6c"/>
      <path id="Path_1401" data-name="Path 1401" d="M117.11,482.38V663.144h3.67V482.38" transform="translate(-9.768 -39.963)" fill="#008f6c"/>
      <path id="Path_1402" data-name="Path 1402" d="M863.529,515.26c0-1.45-.4-8.9-.789-8.9h5.826a19.354,19.354,0,0,1,.266,4.661c-.073,1.523-.257,3.019-.266,4.588-1.67-.138-3.349-.193-5.028-.165v-.165Z" transform="translate(-71.255 -41.94)" fill="#f3aaa1"/>
      <path id="Path_1403" data-name="Path 1403" d="M849.653,519.141c-.266,0,.22-2.294.257-2.477a4.588,4.588,0,0,1,2.615-3.358,9.416,9.416,0,0,1,3.9-.587,67.212,67.212,0,0,1,10.818,1.367,1.312,1.312,0,0,1,1.184.918,12.715,12.715,0,0,1,.257,4.111c0,.147-15.222,0-19.03,0Z" transform="translate(-70.17 -42.463)" fill="#12100b"/>
      <path id="Path_1404" data-name="Path 1404" d="M859.613,477.3c-.073-.78-.156-1.56-.248-2.331-.2-1.835-.413-3.67-.541-5.505-.165-2.45-.174-4.918-.174-7.34,0-5.505,0-11.065.156-16.6.165-4.946,0-10.432,1.257-15.24.55-2.138,2.092-5.037,4.34-5.8a6.862,6.862,0,0,1,2.248-.211l6.423.119a5.617,5.617,0,0,1,3.67.918c2.23,1.964-.229,8.258-.752,10.616-.743,3.441-.422,7.175-1.312,10.487-.963,3.588-2.643,6.891-3.349,10.579-1.551,8.148-1.257,16.516-1.083,24.773,0,1.762-.578,21.489-.578,21.489l-8.258-.4s-.083-2.569-.11-3.5c-.055-1.642-.156-3.294-.248-4.936q-.5-8.533-1.376-17.02Z" transform="translate(-70.918 -35.17)" fill="#008f6c"/>
      <path id="Path_1405" data-name="Path 1405" d="M887.99,514.3c0-1.431-.4-8.808-.78-8.808h5.762a18.985,18.985,0,0,1,.266,4.588c-.073,1.514-.257,2.991-.257,4.533a45.189,45.189,0,0,0-4.991-.165v-.174Z" transform="translate(-73.273 -41.868)" fill="#f3aaa1"/>
      <path id="Path_1406" data-name="Path 1406" d="M882.287,477.893c-.349-4.588-.743-9.24-1.468-13.809a148.637,148.637,0,0,0-4.294-17.91,46.276,46.276,0,0,1-1.532-6.368c-.2-1.468-.257-2.945-.321-4.423l-.22-5.927a21.854,21.854,0,0,1,.523-7.258c1.275-4.175,4.4-5.615,8.533-5.166,7.221.789,7.2,9,7.827,14.433a166.272,166.272,0,0,1,1.1,18.754c0,3.138,0,6.267-.165,9.4-.156,3.817.688,7.212,1.229,11.01a59.572,59.572,0,0,1,.358,8.68c-.073,7.781-.229,23.342-.229,23.342l-8.753.165c-.367-4.982-1.3-9.919-1.78-14.9-.312-3.331-.551-6.67-.807-10.01Z" transform="translate(-72.213 -34.567)" fill="#05ae99"/>
      <path id="Path_1407" data-name="Path 1407" d="M874.173,519.141c-.266,0,.211-2.294.257-2.477a4.588,4.588,0,0,1,2.615-3.358,9.368,9.368,0,0,1,3.9-.587,67.206,67.206,0,0,1,10.818,1.367,1.294,1.294,0,0,1,1.174.918,12.725,12.725,0,0,1,.266,4.11c0,.147-15.231,0-19.03,0Z" transform="translate(-72.192 -42.463)" fill="#12100b"/>
      <path id="Path_1408" data-name="Path 1408" d="M874.648,378.426a.569.569,0,0,0,.11.266.6.6,0,0,0,.33.138,20.865,20.865,0,0,0,7.707-.578q-1.028-4.45-2.294-8.836a.431.431,0,0,0-.128-.239.386.386,0,0,0-.321,0c-1.312.229-2.615.477-3.918.743-1.092.22-2.2.349-3.294.6a40.262,40.262,0,0,1,.917,4.065c.275,1.294.551,2.578.853,3.872Z" transform="translate(-72.088 -30.625)" fill="#f3aaa1"/>
      <path id="Path_1409" data-name="Path 1409" d="M860.45,425.009q7.579.486,15.176.606c1.092,0,14.121,0,14.121-.11,0-4.845-.239-9.662-.147-14.506.092-5.221.367-10.442.661-15.653a42.67,42.67,0,0,0-.523-11.442,8.129,8.129,0,0,0-2.945-5.046c-1.89-1.294-4.4-1.2-6.588-1.294a31.4,31.4,0,0,0-8.5.569c-5.184,1.2-7.753,6.349-9.038,11.065-1.661,6.056-1.982,12.57-2.12,18.809,0,2.074-.055,4.147-.064,6.221v10.744Z" transform="translate(-71.067 -31.313)" fill="#db453d"/>
      <path id="Path_1410" data-name="Path 1410" d="M852.788,421.049l19.819.743L869.551,386.1H846.31l6.478,34.949Z" transform="translate(-69.901 -32.023)" fill="#c7e8fa"/>
      <path id="Path_1411" data-name="Path 1411" d="M848.569,410.991a17.068,17.068,0,0,0,.128,2.753,2.753,2.753,0,0,0,1.6,2.175,5.7,5.7,0,0,0,1.358.294,3.386,3.386,0,0,0,1.89-.174,3.461,3.461,0,0,0,1.835-3.936,2.827,2.827,0,0,0-.578-1.67c-1.092-1.22-2.753-1.3-4.248-1.285h-.138l-.312-1.367a3.89,3.89,0,0,0-1.229,1.119,4.22,4.22,0,0,0-.3,1.762v.358Z" transform="translate(-70.086 -33.811)" fill="#f3aaa1"/>
      <path id="Path_1412" data-name="Path 1412" d="M886.574,389.245c.918,3.533,2,7.028,3,10.533.092.33.743,3.523.844,3.542l-1.009-.165a43.822,43.822,0,0,1-4.4-.918c-1.991-.56-3.964-1.184-5.992-1.587a3.294,3.294,0,0,0-1.688,0,1.743,1.743,0,0,0-1.165,1.6,2.3,2.3,0,0,0,.918,1.753,6.746,6.746,0,0,0,1.835.918l10.432,3.973a23.746,23.746,0,0,0,5.881,1.67c3.367.34,2.688-4.753,2.45-6.817a85.666,85.666,0,0,0-4.11-19.232,11.646,11.646,0,0,0-2.4-4.019c-1.037-1.064-2.936-1.964-4.34-1.064-1.835,1.174-1.606,3.89-1.211,5.725.284,1.367.606,2.753.918,4.056Z" transform="translate(-72.362 -31.442)" fill="#f3aaa1"/>
      <path id="Path_1413" data-name="Path 1413" d="M868.7,400.4a5.268,5.268,0,0,1-1.156-.358,6.528,6.528,0,0,0-1.514-.606,1.257,1.257,0,0,0-1.385.624,1.881,1.881,0,0,0-.092.56,9.592,9.592,0,0,0,.11,2.615,3.22,3.22,0,0,0,1.413,2.119,3.534,3.534,0,0,0,.844.339,10.094,10.094,0,0,0,3.468.395c1.184-.064,2.211-.523,3.358-.688a12.176,12.176,0,0,1,2.844.44,22.465,22.465,0,0,1,.587-2.854l.4-.844a6.609,6.609,0,0,1-1.459-.826,15.6,15.6,0,0,0-1.835-1.78,9.175,9.175,0,0,0-2.23-1,10.189,10.189,0,0,1,.073,1.5,5.5,5.5,0,0,1-3.395.367Z" transform="translate(-71.402 -33.049)" fill="#f3aaa1"/>
      <path id="Path_1414" data-name="Path 1414" d="M867,374.828a6.578,6.578,0,0,0,3.266.807,7.267,7.267,0,0,0,4.753-2.257,17.616,17.616,0,0,0,3.872-7.285c.917-3.12,1.009-6.753-.963-9.5a10.735,10.735,0,0,0-6.588-3.982,13.7,13.7,0,0,0-6.992.376l-.56.211a8.478,8.478,0,0,0-4.312,3.45c-1.165,2.028-.661,4.771-.119,6.927a20.6,20.6,0,0,0,3.092,6.56,12.892,12.892,0,0,0,4.588,4.689Z" transform="translate(-70.928 -29.238)" fill="#f3aaa1"/>
      <path id="Path_1415" data-name="Path 1415" d="M874.556,347.7a16.676,16.676,0,0,0-2.514-.734,13.221,13.221,0,0,0-6.423.358,14.891,14.891,0,0,0-7.973,5.248,8.781,8.781,0,0,0-1.037,7.148,2.34,2.34,0,0,0,1.009,1.5c.294.193,1.248.5,1.34.918a5.082,5.082,0,0,1,.349-3.331,28.381,28.381,0,0,1,1.578-2.441,3.45,3.45,0,0,0,.578-2.193,4.863,4.863,0,0,0,2.927,3.184,19.425,19.425,0,0,0,3.725.257,12.185,12.185,0,0,1,6.6,3.046.725.725,0,0,0,.431.2.532.532,0,0,0,.45-.376,2.748,2.748,0,0,0,.092-.615,1.376,1.376,0,0,1,.5-.918c1.083-.789,1.688.734,1.835,1.523a6.927,6.927,0,0,1-.11,3.6,13.062,13.062,0,0,0-.587,2.046c-.055.395-.22,1.44.083,1.743s.679.138,1-.046a6.422,6.422,0,0,0,2.753-3.5,13.7,13.7,0,0,0-1.138-11.056c-1.248-2.285-3.01-4.588-5.505-5.505Z" transform="translate(-70.722 -28.776)" fill="#12100b"/>
      <path id="Path_1416" data-name="Path 1416" d="M881.815,351.774c-3.973,2.615-11.717-1.248-11.148-6.166.45-3.854,5.569-5.927,8.928-5.056a6.359,6.359,0,0,1,2.826,10.735,3.907,3.907,0,0,1-.605.486Z" transform="translate(-71.907 -28.251)" fill="#12100b"/>
      <path id="Path_1417" data-name="Path 1417" d="M191.535,655.179A29.933,29.933,0,0,0,202.71,658.4c7.671.3,14.231-4.221,20.81-8.735,6.423-4.4,12.845-8.808,20.305-8.753,11.68.083,21.223,11.212,32.9,10.955,12.5-.284,20.241-12.506,27.021-21.36,8.432-11.01,16.938-19.626,30.536-23.682a234.3,234.3,0,0,1,64.769-9.717h9.175c7.083.064,14.047.119,21.2-.5,11.01-.918,22.1-.45,33.123.128l84.019,4.395c23.186,1.211,48.538,3.312,65.273,19.415,9.964,9.579,18.02,24.471,31.848,24.507,8.34,0,15.112-5.625,21.847-11.267,7.065-5.909,14.075-11.827,22.81-11.212,15.782,1.11,23.636,22.883,39.362,24.645,8.065.918,15.827-3.67,23.333-8.34,9.506-5.854,18.589-11.708,27.352-6.322,8.524,5.248,10.442,19.177,20.186,21.259s17.3-10.093,27.324-11.533c8.028-1.129,15.6,5.331,18.442,12.91,22.021,57.8-92.176,63.393-123.115,63.393s-59.245-4.019-80.908-10.653c-33.5,22.544-100.562,37.922-177.837,37.922-77.633,0-144.971-15.516-178.369-38.225-21.782,6.817-50.464,10.955-81.89,10.955-25.581,0-51.621-2.4-76.321-9.313C111.7,705.295,81.449,698.432,82,678.879c.321-11.194,10.093-20.36,20.929-23.342a37.958,37.958,0,0,1,17.433-.661c11.533,2.276,24.223,9.634,33.949,3.01,3.771-2.578,6.166-6.9,10.093-9.175,8.57-4.835,17.608,2.037,27.095,6.423" transform="translate(-6.872 -49.339)" fill="#0c5093"/>
      <path id="Path_1418" data-name="Path 1418" d="M222.468,613.957H723.617a10.038,10.038,0,0,0,10.038-10.038V561.29H212.43v42.629a10.038,10.038,0,0,0,10.038,10.038" transform="translate(-17.628 -46.47)" fill="#fff"/>
      <path id="Path_1419" data-name="Path 1419" d="M437.04,664.769H544.016V618.69H437.04v46.079Z" transform="translate(-36.15 -51.203)" fill="#c7e8fa"/>
      <path id="Path_1420" data-name="Path 1420" d="M212.43,534.854H733.654V239.536a9.276,9.276,0,0,0-9.276-9.276H221.706a9.267,9.267,0,0,0-9.276,9.276V534.854" transform="translate(-17.628 -19.172)" fill="#0c5093"/>
      <path id="Path_1421" data-name="Path 1421" d="M221.24,536.071H726.288V249.506a9.276,9.276,0,0,0-9.276-9.276H230.525a9.285,9.285,0,0,0-9.285,9.276V536.071" transform="translate(-18.355 -19.994)" fill="#0c5093"/>
      <path id="Path_1422" data-name="Path 1422" d="M233.95,518.014H716.087V254.14H233.95V518.014" transform="translate(-19.403 -21.141)" fill="#c7e8fa"/>
      <path id="Path_1423" data-name="Path 1423" d="M252.5,519.251H700.56V269.14H252.5V519.251" transform="translate(-20.932 -22.378)" fill="#fff"/>
      <path id="Path_1424" data-name="Path 1424" d="M483.63,586.362A11.772,11.772,0,1,0,495.4,574.59a11.772,11.772,0,0,0-11.772,11.772Z" transform="translate(-39.992 -47.567)" fill="#c7e8fa"/>
      <path id="Path_1425" data-name="Path 1425" d="M387.17,684.334H587.606a15.433,15.433,0,0,0-15.424-15.424H402.612a15.424,15.424,0,0,0-15.424,15.424Z" transform="translate(-32.038 -55.345)" fill="#fff"/>
      <path id="Path_1426" data-name="Path 1426" d="M504,312.818H699.591V292.54H504v20.278Z" transform="translate(-41.672 -24.308)" fill="#c7e8fa"/>
      <path id="Path_1427" data-name="Path 1427" d="M276.41,446.318H471.992V426.04H276.41v20.278" transform="translate(-22.904 -35.317)" fill="#c7e8fa"/>
      <path id="Path_1428" data-name="Path 1428" d="M276.41,515.936H471.992V459.59H276.41v56.346" transform="translate(-22.904 -38.083)" fill="#c7e8fa"/>
      <path id="Path_1429" data-name="Path 1429" d="M471.992,405.947H276.41V292.54H471.992V405.947" transform="translate(-22.904 -24.308)" fill="#81ccf1"/>
      <path id="Path_1430" data-name="Path 1430" d="M504,513.826H699.591V434H504v79.826" transform="translate(-41.672 -35.973)" fill="#c7e8fa"/>
      <path id="Path_1431" data-name="Path 1431" d="M646.687,497.9H520.728a.918.918,0,0,0-.918.918v4.973a.918.918,0,0,0,.918.918H646.687a.918.918,0,0,0,.918-.918v-4.973A.918.918,0,0,0,646.687,497.9Z" transform="translate(-42.976 -41.243)" fill="#fff"/>
      <path id="Path_1432" data-name="Path 1432" d="M646.687,450.67H520.728a.918.918,0,0,0-.918.918v4.973a.918.918,0,0,0,.918.918H646.687a.918.918,0,0,0,.918-.918v-4.973A.918.918,0,0,0,646.687,450.67Z" transform="translate(-42.976 -37.348)" fill="#fff"/>
      <path id="Path_1433" data-name="Path 1433" d="M675.552,474.39H520.727a.918.918,0,0,0-.918.918v4.964a.918.918,0,0,0,.918.963H675.552a.918.918,0,0,0,.918-.963v-4.964a.918.918,0,0,0-.918-.918" transform="translate(-42.976 -39.304)" fill="#fff"/>
      <path id="Path_1434" data-name="Path 1434" d="M233.95,267.9H716.087V254.14H233.95V267.9Z" transform="translate(-19.403 -21.141)" fill="#54b4db"/>
      <path id="Path_1435" data-name="Path 1435" d="M746.17,261.028a3.042,3.042,0,1,1,0,.028Z" transform="translate(-61.643 -21.459)" fill="#fff"/>
      <path id="Path_1436" data-name="Path 1436" d="M734.17,261.028a3.042,3.042,0,1,1,0,.028Z" transform="translate(-60.653 -21.459)" fill="#fff"/>
      <path id="Path_1437" data-name="Path 1437" d="M722.17,261.028a3.042,3.042,0,1,1,0,.028Z" transform="translate(-59.663 -21.459)" fill="#fff"/>
      <path id="Path_1438" data-name="Path 1438" d="M436.632,402.562,373.79,324.893l-18.323,16.286L322.738,304.34,280.77,341.179v61.383H436.632" transform="translate(-23.264 -25.281)" fill="#fff"/>
      <path id="Path_1439" data-name="Path 1439" d="M440.75,323.2a16.057,16.057,0,1,0,16.057-16.057A16.057,16.057,0,0,0,440.75,323.2Z" transform="translate(-36.456 -25.512)" fill="#fff"/>
      <path id="Path_1440" data-name="Path 1440" d="M403.593,368.6H357.955a1.835,1.835,0,0,1-1.835-1.835V339.1a1.835,1.835,0,0,1,1.835-1.835h45.638a1.835,1.835,0,0,1,1.835,1.835v27.673A1.835,1.835,0,0,1,403.593,368.6Z" transform="translate(-29.477 -27.995)" fill="#ec6335"/>
      <path id="Path_1441" data-name="Path 1441" d="M393.6,351.781l-17.029-8.258a1.835,1.835,0,0,0-2.642,1.652V361.69a1.835,1.835,0,0,0,2.642,1.652l17.029-8.258a1.835,1.835,0,0,0,0-3.3Z" transform="translate(-30.946 -28.497)" fill="#fff"/>
      <path id="Path_1442" data-name="Path 1442" d="M342.138,614.065h-3.789l-3.89-15.378H293.169l3.982,15.378h-3.789l-5.221-20.278-5.248,20.278H279.1l3.982-15.378H272.139l.918-3.67h10.91l2.22-8.551-3.092-11.928H278.36l.918-3.67h2.835l-1.422-5.505.716-2.753h2.367l2.129,8.258h4.285l2.129-8.258h3.789l-2.129,8.258h33.362l-2.083-8.258h3.789l13.029,51.382m-49.051-39.518L289.94,586.4l2.211,8.551H333.44l-5.184-20.47H293.087m-6.166,0,1.184,4.588,1.193-4.588h-2.376M237.86,614.065h-3.78l13.029-51.382h3.78l-2.083,8.258h26.737l-.918,3.67H247.88l-5.193,20.47H269.3l-.918,3.67H241.769l-3.9,15.378" transform="translate(-19.413 -46.579)" fill="#dfdfeb"/>
      <path id="Path_1443" data-name="Path 1443" d="M330.278,560.934h-3.789l-3.1-12.249H300.513l-3.175,12.249h-3.789l3.175-12.249H285.814l.918-3.67h10.91l.853-3.285h3.789l-.853,3.285h21l-.835-3.285h3.78l4.872,19.2m-45.271,0h-2.367l1.184-4.588,1.184,4.588m-32.949,0h-3.78l4.863-19.2H256.9l-.835,3.285h20.993l-.853-3.285h3.8l.853,3.285h2.083l-.918,3.67h-.184l.092.358-1.89,7.34-1.991-7.68H255.168l-3.11,12.249" transform="translate(-20.582 -44.857)" fill="#13498b"/>
      <path id="Path_1444" data-name="Path 1444" d="M325.842,537.637h-3.78L317.7,520.452H307.179l-4.45,17.185h-3.808l4.487-17.185h1.018v-1.835h16.589l4.817,19.021m-45.372,0h-3.8l-4.441-17.185h3.762l4.45,17.185m-23.1,0H253.54l4.395-17.185h3.78l-4.349,17.185m17.158-20.856H258.862l6.258-24.673,1.78.45,1.771-.459,5.854,22.581v2.1m-7.606-16.828-4.267,16.828h8.625l-4.358-16.828" transform="translate(-21.018 -40.764)" fill="#dfdfeb"/>
      <path id="Path_1445" data-name="Path 1445" d="M322.915,518.617h-16.6v-1.835h-.073l6.423-24.682,1.78.459,1.78-.45,6.689,26.508M314.4,499.954l-4.358,16.828h8.625L314.4,499.954m-34.27,16.828h-3.67v-2.1l.5,2.1h3.175" transform="translate(-22.908 -40.764)" fill="#a9c8e4"/>
      <path id="Path_1446" data-name="Path 1446" d="M205.03,669.2l44.647-176.194-3.56-.9L201.47,668.3" transform="translate(-16.724 -40.765)" fill="#008f6c"/>
      <path id="Path_1447" data-name="Path 1447" d="M253.691,669.212,299.32,493.018l-3.551-.918L250.14,668.285l3.551.927" transform="translate(-20.738 -40.764)" fill="#008f6c"/>
      <path id="Path_1448" data-name="Path 1448" d="M244.88,522.67h45.482V519H244.88v3.67" transform="translate(-20.304 -42.983)" fill="#008f6c"/>
      <path id="Path_1449" data-name="Path 1449" d="M238.21,548.98h45.354v-3.67H238.21" transform="translate(-19.754 -45.152)" fill="#008f6c"/>
      <path id="Path_1450" data-name="Path 1450" d="M231.54,575.29h45.216v-3.67H231.54" transform="translate(-19.204 -47.322)" fill="#008f6c"/>
      <path id="Path_1451" data-name="Path 1451" d="M224.87,601.6h45.088v-3.67H224.87" transform="translate(-18.654 -49.491)" fill="#008f6c"/>
      <path id="Path_1452" data-name="Path 1452" d="M218.2,627.92h44.95v-3.67H218.2" transform="translate(-18.104 -51.662)" fill="#008f6c"/>
      <path id="Path_1453" data-name="Path 1453" d="M211.53,654.23h44.822v-3.67H211.53" transform="translate(-17.554 -53.832)" fill="#008f6c"/>
      <path id="Path_1454" data-name="Path 1454" d="M348.077,668.3,303.43,492.11l-3.56.9L344.526,669.2" transform="translate(-24.839 -40.765)" fill="#05ae99"/>
      <path id="Path_1455" data-name="Path 1455" d="M299.32,668.285,253.691,492.1l-3.551.918,45.629,176.194" transform="translate(-20.738 -40.764)" fill="#05ae99"/>
      <path id="Path_1456" data-name="Path 1456" d="M304.921,519H259.43v3.67h45.491V519" transform="translate(-21.504 -42.983)" fill="#05ae99"/>
      <path id="Path_1457" data-name="Path 1457" d="M311.595,545.31H266.25v3.67h45.345" transform="translate(-22.066 -45.152)" fill="#05ae99"/>
      <path id="Path_1458" data-name="Path 1458" d="M318.276,571.62H273.06v3.67h45.216" transform="translate(-22.628 -47.322)" fill="#05ae99"/>
      <path id="Path_1459" data-name="Path 1459" d="M324.958,597.93H279.87v3.67h45.088" transform="translate(-23.189 -49.491)" fill="#05ae99"/>
      <path id="Path_1460" data-name="Path 1460" d="M331.64,624.25H286.69v3.67h44.95" transform="translate(-23.752 -51.662)" fill="#05ae99"/>
      <path id="Path_1461" data-name="Path 1461" d="M338.322,650.56H293.5v3.67h44.822" transform="translate(-24.313 -53.832)" fill="#05ae99"/>
      <path id="Path_1462" data-name="Path 1462" d="M300.2,518.5H297l1.441-5.588a4.744,4.744,0,0,1,2.11,3.1c0,.183.523,2.477.248,2.477h-.633" transform="translate(-24.602 -42.48)" fill="#a9c8e4"/>
      <path id="Path_1463" data-name="Path 1463" d="M233.564,491.092c-.184,0-.294,0-.294-.083,0-3.8.055-19.03.2-19.03h.422v19.112h-.33" transform="translate(-19.347 -39.105)" fill="#13498b"/>
      <path id="Path_1464" data-name="Path 1464" d="M234,488V468.923h.918a9.606,9.606,0,0,1,2.753.33,1.275,1.275,0,0,1,.918,1.074l.624-.257c.743-.294,1.486-.56,2.257-.789l-.688-3.01,10.24-2.652v11.01l-8.056,1.193-.229-.991c-1.055.275-2.248.6-3.294.918a40.19,40.19,0,0,1,.431,5.56,9.533,9.533,0,0,1-.633,3.89,4.588,4.588,0,0,1-3.386,2.578c-.119,0-1.156.229-1.835.294m13.745-43a1.358,1.358,0,0,1-1.551-1.422,5.864,5.864,0,0,1,.706-2.606,41.3,41.3,0,0,1,4.046-6.349v8.46a5.162,5.162,0,0,1-3.1,1.918h-.1" transform="translate(-19.407 -36.03)" fill="#a9c8e4"/>
      <path id="Path_1465" data-name="Path 1465" d="M252.5,467.442v-11.01c7.524-1.927,16.635-4.221,17.809-4.331,1.34-.128,2.487-.376,2.753-1.982.5-3.4,1.083-6.817,1.541-10.231h23.2c-1.009,3.046-2.11,6.074-3.239,9.074q-.275.716-.523,1.431h-19.6v13.029q-6.927,1.431-13.864,2.753c-.725.147-4.413.706-8.074,1.257m3.4-31.334c-.3,0-.477-.4-.541-.725a28.826,28.826,0,0,1,0-3.881,5.651,5.651,0,0,0-.587,1.2,10.4,10.4,0,0,1-1.734,2.753c-.147.174-.312.349-.477.523h0v-8.46l.339-.358h0c1.367-2.523,2.551-5.267,3.789-7.872a61.636,61.636,0,0,1,5.625-9.79c1.991-2.753,4.028-5.037,5.4-8.2,1.3-3,2.367-6.083,3.835-9.01.174-.358.358-.707.541-1.064a15.248,15.248,0,0,1-2.11-.67,9.175,9.175,0,0,1-4.065-2.936,7.23,7.23,0,0,1,.211-8.258,1.23,1.23,0,0,0,.294-.587,1.11,1.11,0,0,0-.119-.477,11.451,11.451,0,0,1,3.514-12.708,17.925,17.925,0,0,1,2.055-14.515,14.5,14.5,0,0,1,2.569-2.872v56.08c-1.725,2.936-3.477,5.854-5.368,8.689-3.193,4.79-6.019,7.689-9.689,12.176a8.047,8.047,0,0,0-1.973,3.12,23.2,23.2,0,0,1-.1,3.927,7.221,7.221,0,0,1-.991,3.615.7.7,0,0,1-.367.3h-.073m46.436-16.516H277.365c0-2.285.138-4.588.138-6.882v-2.2h24.682v7.047a6.48,6.48,0,0,1,.156,2.037" transform="translate(-20.932 -28.897)" fill="#dfdfeb"/>
      <path id="Path_1466" data-name="Path 1466" d="M299.745,446.321h-23.2c.248-1.835.45-3.606.587-5.4a43.573,43.573,0,0,1,2.395-11.827h-.22v-3.01h24.975a3.159,3.159,0,0,1-.046.651c-.046.22-.064.5-.1.743s0,.743,0,1.119h-.147q-.532,3.936-1.45,7.79c-.8,3.367-1.771,6.68-2.844,9.964" transform="translate(-22.916 -35.32)" fill="#a9c8e4"/>
      <path id="Path_1467" data-name="Path 1467" d="M291.54,514.1H280.117a12.645,12.645,0,0,1,.257-4.1,1.229,1.229,0,0,1,.862-.872c-.064-.918-.138-1.743-.184-2.624v-.138h-1.441s-.156-15.717-.22-23.581a58.25,58.25,0,0,1,.358-8.762c.11-.78.239-1.541.367-2.294-.44.138-.918.275-1.321.385s-1.11.275-1.661.395l-.725.147V459.63h19.562a74.825,74.825,0,0,0-2.679,10.276c-.734,3.826-1.275,7.7-1.78,11.57-.294,2.165-.569,4.322-.872,6.487-.872,6.175-1.725,12.35-2.184,18.571h-1.881c-.046.6-.073,1.193-.11,1.752a41.118,41.118,0,0,1,5.909-.541h.835l-1.67,6.423" transform="translate(-22.904 -38.087)" fill="#a9c8e4"/>
      <path id="Path_1468" data-name="Path 1468" d="M304.138,408.194H279.456c-.046-3.67-.2-7.34-.33-11.01-.5.918-1.018,1.835-1.532,2.753l-1.184,2.019v-56.1a15.744,15.744,0,0,1,4-2.477v60.456h23.682c0,1.468,0,2.918.046,4.358m41.106-76.844-1.486-1.679h.174v-1.789c0-1.248,0-2.431-.119-3.67l-.78-.064v1.4a1.7,1.7,0,0,1-.3,1.22,1.578,1.578,0,0,1-1.156.358l-6.551-7.34h5.872a5.91,5.91,0,0,1,.918.046,1.781,1.781,0,0,1,.532.156c.918.4.725,1.129.679,1.936v.385a11.823,11.823,0,0,1,1.835.229l.642.138.073.661a44.12,44.12,0,0,1,.193,4.5c0,.817,0,1.633.055,2.45a1.092,1.092,0,0,1-.5,1.037" transform="translate(-22.904 -26.555)" fill="#6baedb"/>
      <path id="Path_1469" data-name="Path 1469" d="M304.452,403.823H280.77V343.367a18.347,18.347,0,0,1,1.918-.706,12.25,12.25,0,0,1,3.624-.606,7.957,7.957,0,0,1,1.973.239,5.625,5.625,0,0,1,4.074,3.6,1.771,1.771,0,0,1-.477,2.019h0A41.84,41.84,0,0,1,297.387,361c.413,1.835,1.1,2.954-.615,4.257a10.782,10.782,0,0,1-2.945,1.5v5.423a9.121,9.121,0,0,1,3.487,1.835,42.889,42.889,0,0,1,4.863-1.569c4.028-1.119,8.065-2.211,12.1-3.3a7.11,7.11,0,0,0,2.092-.918,7.643,7.643,0,0,0,2.753-3.725c2.532-5.9,5.808-11.423,8.533-17.176a.835.835,0,0,1,0-.45,40.637,40.637,0,0,0,.771-4.588,2.321,2.321,0,0,1,.716-1.633,1.963,1.963,0,0,1,.294-.183,39.046,39.046,0,0,1,0-4.276h.973v-4.588a2.065,2.065,0,0,1,.321-1.257,1.982,1.982,0,0,1,1.707-.725h.2c.918,0,1.835.046,2.753.046,1.413,0,2.817,0,4.193-.055s2.918-.055,4.4-.055h.11l1.486,1.679h0a1.129,1.129,0,0,1-.569.147h-1.156c-1.413,0-2.826,0-4.2.055s-2.808.055-4.23.055c-.918,0-1.9,0-2.844-.046h-.33v4.872a5.649,5.649,0,0,1,.918.092v.147q-.083,1.642-.11,3.3h.339a1.835,1.835,0,0,1,1.56.661l.055.1a2.184,2.184,0,0,1,.184,1.138c0,.918-.064,1.835-.147,2.753a3.4,3.4,0,0,1-.257,1.165c-.624,1.312-2.532,1.33-3.34,2.542l-.064.083c-.156,2.45-1.193,4.845-1.927,7.148-1.422,4.487-2.624,9.047-3.9,13.589a11.121,11.121,0,0,1-1.037,2.753c-1.835,3.083-6.771,3.67-9.854,4.845-4.257,1.569-8.57,2.927-12.846,4.331q.248.752.44,1.514c1.652,6.643,2.092,14.075,2.22,21.232m29.444-76.578a123.778,123.778,0,0,1-12.515-.532,2,2,0,0,1-1.532-.624,1.908,1.908,0,0,1-.266-.917,18.626,18.626,0,0,1,0-3.716c.138-1.477,1.174-1.725,2.4-1.725h13.359l6.551,7.34h-.092c-2.633.046-5.267.092-7.9.092" transform="translate(-23.264 -26.542)" fill="#dfdfeb"/>
      <path id="Path_1470" data-name="Path 1470" d="M296.662,518.423H292.9L294.57,512a8.184,8.184,0,0,1,3.065.578,3.255,3.255,0,0,1,.5.257l-1.477,5.588" transform="translate(-24.264 -42.405)" fill="#007e6f"/>
      <path id="Path_1471" data-name="Path 1471" d="M285.873,519.073c-2.945,0-5.212,0-5.413-.073h18.351c-2.753,0-8.588.073-12.965.073" transform="translate(-23.238 -42.983)" fill="#009893"/>
      <path id="Path_1472" data-name="Path 1472" d="M224.944,479.472c1.385-.431,8.542-2.5,8.671-2.147l-1.9-5.505a18.855,18.855,0,0,0-4.487,1.266c-1.431.56-2.753,1.229-4.248,1.734a45.586,45.586,0,0,1,1.835,4.707l.165-.055Z" transform="translate(-18.498 -39.092)" fill="#f3aaa1"/>
      <path id="Path_1473" data-name="Path 1473" d="M263.889,468.482c3.294-.862,6.478-2.367,8.331-5.4,2.349-3.835,3.817-8.258,5.854-12.286,2.321-4.588,4.8-9.065,6.735-13.818a78.443,78.443,0,0,0,3.156-9.285c.762-2.881.266-4.367-1.835-6.57A16.515,16.515,0,0,0,275.175,416c-5.955-.275-7.249,5.129-9.368,9.414a39.692,39.692,0,0,0-3.6,14.681c-.395,5.23-1.376,10.442-2.129,15.6-.229,1.606-1.376,1.835-2.753,1.982-2.037.184-28.049,6.982-28.049,6.982l2.184,9.542s14.6-2.156,16.13-2.45q7.34-1.395,14.58-2.9c.56-.119,1.11-.248,1.67-.395Z" transform="translate(-19.018 -34.488)" fill="#ce7b13"/>
      <path id="Path_1474" data-name="Path 1474" d="M266.056,400.755a52.231,52.231,0,0,1,3.67-5.8,14.68,14.68,0,0,0,2.661-8,5.983,5.983,0,0,0-.982-3.89c-2.578-3.312-5.753,1.257-7.074,3.395-1.725,2.753-3.349,5.652-4.817,8.588s-2.523,6.01-3.826,9.01c-1.367,3.166-3.413,5.505-5.4,8.2a61.631,61.631,0,0,0-5.634,9.827c-1.239,2.606-2.422,5.349-3.789,7.872a8.884,8.884,0,0,0,1.835,1.193,11.59,11.59,0,0,0,2.7.725c-.083-1.89,2-3.872,2.074-3.964,3.67-4.487,6.478-7.34,9.671-12.167,2.321-3.487,4.441-7.093,6.542-10.708.826-1.413,1.615-2.854,2.431-4.285Z" transform="translate(-19.973 -31.676)" fill="#f3aaa1"/>
      <path id="Path_1475" data-name="Path 1475" d="M285.008,363.307c.413,1.835,1.1,2.954-.615,4.257a11.726,11.726,0,0,1-5.331,2.129c-3.78.578-8.258-.064-11.359-2.422-4.588-3.468-4.377-10.231-1.229-14.58a12.28,12.28,0,0,1,1.23-1.441c3.175-3.184,8.726-5.854,11.781-1.037a42.058,42.058,0,0,1,5.505,13.093Z" transform="translate(-21.895 -28.846)" fill="#f3aaa1"/>
      <path id="Path_1476" data-name="Path 1476" d="M221.24,491.005c0,.266,2.3-.193,2.487-.229a4.588,4.588,0,0,0,3.386-2.578,9.689,9.689,0,0,0,.633-3.89,69.39,69.39,0,0,0-1.22-10.836,1.294,1.294,0,0,0-.918-1.184,12.452,12.452,0,0,0-4.1-.312c-.156,0-.22,15.231-.211,19.03Z" transform="translate(-18.355 -39.101)" fill="#31316b"/>
      <path id="Path_1477" data-name="Path 1477" d="M274.75,514.53c0-1.45.4-8.9.78-8.9h-5.817a19.357,19.357,0,0,0-.266,4.661c.073,1.523.257,3.028.257,4.588a48.544,48.544,0,0,1,5.037-.156v-.174Z" transform="translate(-22.327 -41.88)" fill="#f3aaa1"/>
      <path id="Path_1478" data-name="Path 1478" d="M279.746,477.861c.514-3.872,1.055-7.744,1.835-11.57a71.063,71.063,0,0,1,3.147-11.735,152.124,152.124,0,0,0,6.083-19.039,76.539,76.539,0,0,0,1.688-9.662c.312-2.954-.4-4.349-2.826-6.2a16.451,16.451,0,0,0-11.616-3.349c-7.294.8-7.267,9.093-7.909,14.57a171.939,171.939,0,0,0-1.11,18.947c0,3.165.046,6.331.174,9.487.156,3.863-.7,7.294-1.239,11.1a59.486,59.486,0,0,0-.367,8.762c.073,7.863.229,23.581.229,23.581l8.836.165c.468-6.221,1.321-12.4,2.193-18.571.3-2.165.578-4.322.862-6.487Z" transform="translate(-22.176 -34.508)" fill="#fcc049"/>
      <path id="Path_1479" data-name="Path 1479" d="M287.444,518.421c.275,0-.211-2.294-.248-2.477a4.588,4.588,0,0,0-2.615-3.358,9.726,9.726,0,0,0-3.9-.587,68.129,68.129,0,0,0-10.818,1.358,1.294,1.294,0,0,0-1.184.918,12.654,12.654,0,0,0-.266,4.1c0,.147,15.231,0,19.03,0Z" transform="translate(-22.24 -42.404)" fill="#31316b"/>
      <path id="Path_1480" data-name="Path 1480" d="M282.352,377.269a.588.588,0,0,1-.055.284.532.532,0,0,1-.294.211,20.829,20.829,0,0,1-7.643,1.156c0-3.037.092-6.083.266-9.12a.394.394,0,0,1,.073-.266.441.441,0,0,1,.312-.1c1.321-.064,2.652-.11,3.973-.147,1.119,0,2.23-.147,3.349-.147a35.052,35.052,0,0,0,0,4.166c.055,1.413.046,2.643.046,3.964Z" transform="translate(-22.735 -30.624)" fill="#f3aaa1"/>
      <path id="Path_1481" data-name="Path 1481" d="M323.99,324.441l6.808-.055c.991,0,1.954-.046,2.9-.046h.532a15.939,15.939,0,0,1,2.964.248l.2-.918-.918.1c.248,2.211.138,4.459.239,6.826l.918-.046-.881-.248-.073.22.918.284-.156-.918h-.119l.147.918v-.918h-1.174c-2.826,0-5.624.11-8.4.11-.918,0-1.835,0-2.8-.046h-.2a3,3,0,0,0-.8.092,1.707,1.707,0,0,0-.918.633,1.615,1.615,0,0,0-.284.734,2.935,2.935,0,0,0,0,.523V345.2h1.835V331.689h-.018l-.22-.1.193.147v-.046l-.22-.1.193.147-.2-.147.138.211.073-.064-.211-.147.138.211-.073-.11.055.119h0l-.073-.11.055.119h0a.825.825,0,0,1,.294,0h.138c.918,0,1.908.046,2.863.046,2.826,0,5.625-.11,8.4-.11h1.431l.551-.092.248-.752v-.321c-.092-2.257,0-4.542-.239-6.946l-.073-.661-.642-.138a17.432,17.432,0,0,0-3.321-.284h-.569c-1,0-1.964.046-2.918.046l-6.8.055V324.5Z" transform="translate(-26.736 -26.783)" fill="#31316b"/>
      <path id="Path_1482" data-name="Path 1482" d="M292.378,424.475q-6.423.486-12.845.606c-.918,0-11.992,0-11.992-.11,0-3.294.184-6.57.184-9.891,0-5.643-.321-11.277-.468-16.91-.128-5.092-.707-10.827,1.633-15.5a11.679,11.679,0,0,1,12.845-5.771c4.588,1.22,7.239,5.863,8.359,10.387,2.257,9.065,2.248,19.589,2.275,28.9v8.258Z" transform="translate(-22.136 -31.238)" fill="#ec6335"/>
      <path id="Path_1483" data-name="Path 1483" d="M305.449,370.566a7.643,7.643,0,0,0,2.753-3.725c2.688-6.276,6.239-12.13,9.056-18.286.862-1.89,2.89-1.642,3.147.422.385,3.046-1,6.019-1.9,8.854-1.422,4.487-2.633,9.047-3.9,13.589a11.5,11.5,0,0,1-1.037,2.753c-1.835,3.083-6.771,3.67-9.854,4.845-4.588,1.688-9.249,3.138-13.891,4.652-1.835.606-3.918,1.5-5.863,1-2.312-.606-3.716-3.459-2.037-5.432,2.1-2.468,6.349-3.67,9.368-4.478,4.028-1.119,8.065-2.211,12.1-3.3a7.11,7.11,0,0,0,2.092-.918Z" transform="translate(-23.298 -28.821)" fill="#f3aaa1"/>
      <path id="Path_1484" data-name="Path 1484" d="M333.565,319.862a2.212,2.212,0,0,1,.532.156c.918.4.725,1.129.679,1.936-.055,1.2,0,2.431,0,3.67a1.275,1.275,0,0,1-1.551,1.578,174.176,174.176,0,0,1-20.415-.44,2.037,2.037,0,0,1-1.541-.624,1.9,1.9,0,0,1-.257-.918,19.337,19.337,0,0,1,0-3.716c.147-1.569,1.312-1.753,2.624-1.725h6.34l12.671.055a5.96,5.96,0,0,1,.918.046Z" transform="translate(-25.75 -26.554)" fill="#fcc049"/>
      <path id="Path_1485" data-name="Path 1485" d="M325.524,338.164c-.174,3.037-.147,6.157-.147,9.175a.8.8,0,0,1-.119.5.707.707,0,0,1-.413.22,5.587,5.587,0,0,1-2.138.11.817.817,0,0,1-.523-.211.918.918,0,0,1-.174-.642c-.055-3.184-.376-6.423-.147-9.561a24.489,24.489,0,0,1,3.67.229v.147Z" transform="translate(-26.646 -28.036)" fill="#fcc049"/>
      <path id="Path_1486" data-name="Path 1486" d="M260.946,350.733a15.488,15.488,0,0,1,8.5-6.056,10.4,10.4,0,0,1,5.6-.367,5.625,5.625,0,0,1,4.074,3.6c.22.743.147,1.716-.551,2.055a4.488,4.488,0,0,1-1.119.22,2.312,2.312,0,0,0-1.569,1.835c-.248,1.275.431,2.422.119,3.67a6.046,6.046,0,0,1-.918,2.1c-.459.606-1.028.734-1.569,1.193a1.477,1.477,0,0,0-1.835-.651,2.23,2.23,0,0,0-1.257,1.7c-.532,2.909,2.487,3.257,4.074,4.9a4.358,4.358,0,0,1,.7,5.074,6.487,6.487,0,0,1-1.835,10.2,5.707,5.707,0,0,1,.624,6.276,8.808,8.808,0,0,1-5.074,4.12,14.038,14.038,0,0,1-9.763-.413,9.175,9.175,0,0,1-4.065-2.936,7.249,7.249,0,0,1,.22-8.258,1.138,1.138,0,0,0,.284-.587,1.1,1.1,0,0,0-.11-.477,11.442,11.442,0,0,1,3.514-12.708,17.922,17.922,0,0,1,2.046-14.515Z" transform="translate(-21.047 -28.558)" fill="#31316b"/>
      <path id="Path_1487" data-name="Path 1487" d="M327.143,342.43l.064.1a2.184,2.184,0,0,1,.184,1.138c0,.918-.064,1.835-.147,2.753a3.4,3.4,0,0,1-.257,1.165c-.624,1.312-2.532,1.33-3.34,2.542a.477.477,0,0,1-.2.2h-.239c-.918-.239-1.881-.486-2.826-.752a.569.569,0,0,1-.5-.817,40.819,40.819,0,0,0,.771-4.542,2.285,2.285,0,0,1,.716-1.642c.578-.468,1.312-.339,1.991-.468a14.254,14.254,0,0,1,2.156-.339,1.9,1.9,0,0,1,1.624.661Z" transform="translate(-26.485 -28.367)" fill="#f3aaa1"/>
      <path id="Path_1488" data-name="Path 1488" d="M240.527,442.477l-.477.523c-.826.853-1.835,1.881-3.129,1.945a1.578,1.578,0,0,1-1.514-.725,1.633,1.633,0,0,1-.138-.7,5.863,5.863,0,0,1,.706-2.606,25.361,25.361,0,0,1,2.514-4.248c.707-.917,1.56-2.514,2.679-3.028a3.478,3.478,0,0,1,1.6-.193,6.1,6.1,0,0,1,1.358.138.964.964,0,0,1,.358.156.844.844,0,0,1,.284.5,15.855,15.855,0,0,1,.092,4.973,7.248,7.248,0,0,1-.991,3.615.734.734,0,0,1-.367.3c-.349.064-.551-.376-.615-.725a28.833,28.833,0,0,1,0-3.881,5.652,5.652,0,0,0-.587,1.2,10.635,10.635,0,0,1-1.734,2.753Z" transform="translate(-19.511 -35.926)" fill="#f3aaa1"/>
      <path id="Path_1489" data-name="Path 1489" d="M819.13,548.593H931.491V521.92H819.13v26.673Z" transform="translate(-67.659 -43.223)" fill="#ec6335"/>
      <path id="Path_1490" data-name="Path 1490" d="M820.8,546.6H929.491V523.59H820.8Zm112.361,3.67H817.13V519.92H933.162Z" transform="translate(-67.494 -43.058)" fill="#ec6335"/>
      <path id="Path_1491" data-name="Path 1491" d="M907.146,668.753,846.02,631.987l1.9-3.147,61.117,36.766-1.89,3.147Z" transform="translate(-69.877 -52.04)" fill="#ec6335"/>
      <path id="Path_1492" data-name="Path 1492" d="M847.919,668.753l-1.9-3.147,61.126-36.766,1.89,3.147-61.117,36.766Z" transform="translate(-69.877 -52.04)" fill="#ec6335"/>
      <path id="Path_1493" data-name="Path 1493" d="M907.146,628.973,846.02,592.207l1.9-3.147,61.117,36.766-1.89,3.147Z" transform="translate(-69.877 -48.76)" fill="#ec6335"/>
      <path id="Path_1494" data-name="Path 1494" d="M847.919,628.973l-1.9-3.147,61.126-36.766,1.89,3.147-61.117,36.766Z" transform="translate(-69.877 -48.76)" fill="#ec6335"/>
      <path id="Path_1495" data-name="Path 1495" d="M907.146,589.054,846.02,552.3l1.9-3.147,61.117,36.766-1.89,3.138Z" transform="translate(-69.877 -45.469)" fill="#ec6335"/>
      <path id="Path_1496" data-name="Path 1496" d="M847.919,589.054l-1.9-3.138,61.126-36.766,1.89,3.147-61.117,36.756Z" transform="translate(-69.877 -45.469)" fill="#ec6335"/>
      <path id="Path_1497" data-name="Path 1497" d="M820.8,517.506H929.491V494.32H820.8Zm112.361,3.67H817.13V490.65H933.162Z" transform="translate(-67.494 -40.645)" fill="#ec6335"/>
      <path id="Path_1498" data-name="Path 1498" d="M819.13,683.026H931.491v-12.4H819.13v12.4Z" transform="translate(-67.659 -55.487)" fill="#ec6335"/>
      <path id="Path_1499" data-name="Path 1499" d="M820.8,681.025H929.491V672.29H820.8Zm112.361,3.67H817.13V668.62H933.162Z" transform="translate(-67.494 -55.321)" fill="#ec6335"/>
      <path id="Path_1500" data-name="Path 1500" d="M843.77,519.506H840.1V492.65h3.67v26.856Z" transform="translate(-69.388 -40.81)" fill="#ec6335"/>
      <path id="Path_1501" data-name="Path 1501" d="M920.29,519.506h-3.67V492.65h3.67v26.856Z" transform="translate(-75.699 -40.81)" fill="#ec6335"/>
      <path id="Path_1502" data-name="Path 1502" d="M614,281.207c-2.5-2.129-3.551-5.4-.523-8.194,2.165-2,5.413,1.239,3.239,3.248-.752.7.844,2.22,2.587,2.523" transform="translate(-50.547 -22.646)" fill="#008f6c"/>
      <path id="Path_1503" data-name="Path 1503" d="M611.158,278.944l94.2,34.151,1-4.267L611,274.98,511.11,320.3l.9,3.927,93.7-42.794" transform="translate(-42.258 -22.86)" fill="#05ae99"/>
      <g id="Group_277" data-name="Group 277" clip-path="url(#clip-path)">
        <line id="Line_6" data-name="Line 6" y1="2.487" x2="5.45" transform="translate(563.449 256.084)" fill="#05ae99"/>
        <path id="Path_1504" data-name="Path 1504" d="M0,684.63H917.536V790.486H0V684.63" transform="translate(-0.11 -56.641)" fill="#fff" opacity="0"/>
      </g>
      <path id="Path_1505" data-name="Path 1505" d="M643.629,744.35c-.046-1.45-.413-8.9-.789-8.9h5.817a18.5,18.5,0,0,1,.266,4.661c-.064,1.532-.248,3.028-.257,4.588a46.128,46.128,0,0,0-5.037-.165v-.174" transform="translate(-53.122 -60.832)" fill="#f3aaa1"/>
      <path id="Path_1506" data-name="Path 1506" d="M627.1,707.54c-1.45-2.991-2.854-6.019-4.065-9.12l-.055-.156c-4.294-11.065-6.973-22.672-9.414-34.261-.7-3.312-1.349-5.872-.266-9.175a11.112,11.112,0,0,1,4.505-6.092,16.433,16.433,0,0,1,11.845-2.349c7.184,1.459,6.45,9.717,6.616,15.222a172.1,172.1,0,0,1-.55,18.965c-.257,3.156-.6,6.3-1,9.451a8.845,8.845,0,0,0,0,3.863,14.294,14.294,0,0,0,1.679,3.551,86.25,86.25,0,0,1,7.34,15.772c1.9,5.313,3.835,11.01,4.588,16.6,0,.229.257,2.753.211,2.753l-9.175-.1a.734.734,0,0,1-.422-.092.688.688,0,0,1-.257-.358c-2.569-5.753-5.3-11.414-8.065-17.075-1.193-2.459-2.422-4.909-3.615-7.34Z" transform="translate(-50.638 -53.465)" fill="#ec6335"/>
      <path id="Path_1507" data-name="Path 1507" d="M629.753,748.231c-.266,0,.211-2.294.257-2.477a4.588,4.588,0,0,1,2.615-3.358,9.677,9.677,0,0,1,3.9-.587,68.285,68.285,0,0,1,10.818,1.376,1.294,1.294,0,0,1,1.174.918,12.413,12.413,0,0,1,.266,4.1c0,.156-15.231.055-19.03,0" transform="translate(-52.036 -61.355)" fill="#31316b"/>
      <path id="Path_1508" data-name="Path 1508" d="M595.338,743.342c.257-1.431,1.376-8.808,1.009-8.882l5.707,1.165a19.074,19.074,0,0,1-.67,4.588c-.376,1.486-.862,2.918-1.174,4.432a46.97,46.97,0,0,0-4.9-1.165v-.165" transform="translate(-49.202 -60.75)" fill="#f3aaa1"/>
      <path id="Path_1509" data-name="Path 1509" d="M596.716,705.96a214.3,214.3,0,0,1,3.175-21.892,74.038,74.038,0,0,1,3.4-10.855c1.67-4.661,3.376-9.331,5.257-13.937,2.092-5.129,4.138-11.01,10.093-12.6a16.515,16.515,0,0,1,12.02,1.3c5.147,2.817,4.413,9.175,2.532,13.846a48.361,48.361,0,0,1-10.653,15.461c-2.7,2.753-5.891,5.175-8.781,7.707-2.624,2.3-2.074,5.248-2.119,8.331-.092,5.955-1.707,11.827-3.083,17.589q-1.294,5.423-2.6,10.836l-1.294,5.423c-.339,1.413-1.165,4.716-1.165,4.716l-9.955-1.523s.918-4.588.918-4.918q.468-3.23.918-6.487c.55-4.239,1.028-8.579,1.385-12.772v-.229Z" transform="translate(-49.057 -53.463)" fill="#db453d"/>
      <path id="Path_1510" data-name="Path 1510" d="M572.72,602.79h41.207v33.1H572.72v-33.1Z" transform="translate(-47.339 -49.892)" fill="#ce7b13"/>
      <path id="Path_1511" data-name="Path 1511" d="M580.59,602.79h33.986v33.1H580.59v-33.1Z" transform="translate(-47.988 -49.892)" fill="#fcc049"/>
      <path id="Path_1512" data-name="Path 1512" d="M582.412,748.052c-.275,0,.174-2.3.211-2.487a4.588,4.588,0,0,1,2.569-3.395,9.5,9.5,0,0,1,3.89-.651,68.377,68.377,0,0,1,10.836,1.211,1.294,1.294,0,0,1,1.193.918,12.7,12.7,0,0,1,.33,4.1c0,.147-15.231.284-19.03.294" transform="translate(-48.131 -61.332)" fill="#31316b"/>
      <path id="Path_1513" data-name="Path 1513" d="M627.549,598.388c.055,1.835-.321,3.129,1.67,3.964a11.67,11.67,0,0,0,5.689.725c3.8-.385,7.973-2.12,10.387-5.184,3.56-4.5,1.679-11.01-2.459-14.424a11.107,11.107,0,0,0-1.542-1.083c-3.872-2.294-9.909-3.487-11.671,1.945a41.993,41.993,0,0,0-2.074,14.057Z" transform="translate(-51.86 -48.05)" fill="#f3aaa1"/>
      <path id="Path_1514" data-name="Path 1514" d="M632.24,608.428a.643.643,0,0,0,.055.294.568.568,0,0,0,.294.2,20.839,20.839,0,0,0,7.689,1.193q0-4.588-.266-9.175a.358.358,0,0,0-.073-.257.367.367,0,0,0-.3-.1c-1.33-.064-2.661-.119-3.982-.147-1.119,0-2.23-.156-3.349-.156a35.052,35.052,0,0,1,0,4.166c-.055,1.413,0,2.643,0,3.964Z" transform="translate(-52.247 -49.685)" fill="#f3aaa1"/>
      <path id="Path_1515" data-name="Path 1515" d="M610.867,652.67c4.377,1.257,25.452,1.909,25.48,1.78.688-3.23.5-3.248,1.184-6.5,1.174-5.505,2.67-10.955,4-16.442,1.193-4.946,2.982-10.432,1.532-15.516A9.8,9.8,0,0,0,637,609.17a12.075,12.075,0,0,0-9.964.918,23.467,23.467,0,0,0-4.716,4.083c-3.753,3.881-5.285,8.57-6.781,13.68s-2.643,10.46-3.78,15.745a43.737,43.737,0,0,0-.918,9.056Z" transform="translate(-50.483 -50.363)" fill="#81ccf1"/>
      <path id="Path_1516" data-name="Path 1516" d="M594.564,640.551l4.221.385a57.346,57.346,0,0,0,9.3.34c2.019-.147,3.413,0,5.184-1.184s3.156-2.587,4.762-3.844a84.866,84.866,0,0,0,14.213-13.479,5.44,5.44,0,0,0,1.376-2.422,4.79,4.79,0,0,0-1.018-3.45,2.862,2.862,0,0,0-1.193-.972,2.541,2.541,0,0,0-2.294.6,67.339,67.339,0,0,0-10.221,8.891c-1.358,1.386-2.661,2.753-3.955,4.166l-1.954,2.138a10.5,10.5,0,0,1-3.413,2.147,4.342,4.342,0,0,1-1.459.229l-21.305.835c-.44,0,.743,3.028.918,3.257A3.56,3.56,0,0,0,590,640.018c1.523.211,3.055.376,4.588.532Z" transform="translate(-48.493 -50.97)" fill="#f3aaa1"/>
      <path id="Path_1517" data-name="Path 1517" d="M646.686,577.023a11.018,11.018,0,0,0-1.349.321,2.347,2.347,0,0,0-4.588-.991,2.6,2.6,0,0,0-2.578-1.642,2.156,2.156,0,0,0-1.835,2.294c0-.321-1.064-.679-1.321-.762a3.67,3.67,0,0,0-1.679-.11,1.835,1.835,0,0,0-1.578,2.211,3.285,3.285,0,0,0-2.753,1.321,2.643,2.643,0,0,0,.33,2.853,6.037,6.037,0,0,0,4.588,2.028,2.578,2.578,0,0,1,1.211.229,1.633,1.633,0,0,1,.7,1.45,5.653,5.653,0,0,1-.385,1.633,18.349,18.349,0,0,0-.917,5.505,2.056,2.056,0,0,0,.165.973.734.734,0,0,0,.826.395,3.551,3.551,0,0,1,3.67-3.092c2.6.193,1.835,3.12.5,4.413a4.009,4.009,0,0,0-1.477,2.367,5.3,5.3,0,0,1,.055.835c-.046.229-.211.248-.385.459a2.267,2.267,0,0,0-.44,1.294,1.129,1.129,0,0,0,.394.982,1.3,1.3,0,0,0,.817.156,3.433,3.433,0,0,0,1.349-.294,1.679,1.679,0,0,0,.918-1,2.285,2.285,0,0,0,3.973-.918,2.67,2.67,0,0,0,2.184.862,2.275,2.275,0,0,0,1.835-1.367,4.138,4.138,0,0,0,.073-2.12,2.659,2.659,0,0,0,3.083-3.358,4.735,4.735,0,0,0-.844-1.532,4.064,4.064,0,0,0,1.5-.716,4.12,4.12,0,0,0,1.459-1.542,2.7,2.7,0,0,0,0-2.1,3.238,3.238,0,0,0-1.431-1.56,1.679,1.679,0,0,0,1.092-.918,2.75,2.75,0,0,0,.165-1.1,4.741,4.741,0,0,0-.138-1.294,2.753,2.753,0,0,0-2.578-1.936,3.8,3.8,0,0,0-1.743-3.67,3.716,3.716,0,0,0-2.826-.5Z" transform="translate(-51.958 -47.559)" fill="#12100b"/>
      <path id="Path_1518" data-name="Path 1518" d="M622.72,622.687l6.964,7.661a84.48,84.48,0,0,0,6.771-5.982,14.681,14.681,0,0,0,3.569-5.505,5.157,5.157,0,0,0-1.266-5.028,5.817,5.817,0,0,0-5.285-1.771c-3.065.606-4.918,3.753-6.744,5.992-.284.349-4.065,4.523-4.01,4.588Z" transform="translate(-51.462 -50.649)" fill="#54b4db"/>
      <path id="Path_1519" data-name="Path 1519" d="M578.565,637.743c-.918.193-1.734.395-2.615.578,0,0,.918,1.468,1.037,1.606a10.893,10.893,0,0,0,1.358,1.477,7.174,7.174,0,0,0,3.331,1.991,8.34,8.34,0,0,0,4.358-.734c1.376-.569,2.67-1.321,4.055-1.89-.477-1.413-1.468-2.4-2.129-3.67a9.431,9.431,0,0,0-2.312-2.587c-.918-.844-1.725-1.835-2.707-2.67a2.183,2.183,0,0,0-1.642-.633.624.624,0,0,0-.459.266.706.706,0,0,0-.074.312,4.781,4.781,0,0,0,.918,2.321,13.315,13.315,0,0,0,1.78,2.156s-2.11.918-2.331.918l-2.551.569Z" transform="translate(-47.605 -52.236)" fill="#f3aaa1"/>
      <path id="Path_1520" data-name="Path 1520" d="M584.279,595.97h33.986l-3.688,6.258H580.59l3.688-6.258Z" transform="translate(-47.988 -49.33)" fill="#ce7b13"/>
      <path id="Path_1521" data-name="Path 1521" d="M575.92,595.97h-7.23l3.7,6.258h7.221l-3.688-6.258Z" transform="translate(-47.007 -49.33)" fill="#ce7b13"/>
      <path id="Path_1522" data-name="Path 1522" d="M401.141,628.293c-1.9,2.954-4.725,6.9-3.239,10.295.991,2.257,2.826,4.065,4.459,5.872a38.538,38.538,0,0,0,7.817,6.606c1.119.716,6.909,3.936,6.726.367a2.661,2.661,0,0,0-.642-1.358q-5.2-6.992-11.01-13.515a52.982,52.982,0,0,1,3.762-5.046,55.168,55.168,0,0,1,4.276-5.4,14.681,14.681,0,0,0,3.505-7.661,5.973,5.973,0,0,0-.569-3.982c-2.211-3.569-5.845.633-7.4,2.624a111.021,111.021,0,0,0-7.2,10.4l-.5.8Z" transform="translate(-32.889 -50.741)" fill="#f3aaa1"/>
      <path id="Path_1523" data-name="Path 1523" d="M405.681,744.81c0-1.45.413-8.9.789-8.9h-5.817a19.266,19.266,0,0,0-.266,4.652c.073,1.532.257,3.028.257,4.588,1.67-.138,3.358-.193,5.037-.165v-.165" transform="translate(-33.124 -60.87)" fill="#f3aaa1"/>
      <path id="Path_1524" data-name="Path 1524" d="M419.552,708c1.45-3,2.844-6.019,4.056-9.12l.064-.165c4.285-11.065,6.964-22.663,9.4-34.252.706-3.321,1.349-5.881.275-9.175a11.121,11.121,0,0,0-4.514-6.092,16.424,16.424,0,0,0-11.845-2.34c-7.193,1.422-6.423,9.68-6.606,15.2a172.153,172.153,0,0,0,.541,18.965q.4,4.734,1,9.441a9.029,9.029,0,0,1,0,3.872,14.681,14.681,0,0,1-1.688,3.551,86.886,86.886,0,0,0-7.34,15.772c-1.9,5.3-3.835,11.01-4.588,16.6,0,.22-.257,2.753-.211,2.753l9.175-.1a.78.78,0,0,0,.431-.083.807.807,0,0,0,.257-.367c2.569-5.744,5.3-11.414,8.056-17.075,1.193-2.459,2.431-4.9,3.67-7.34Z" transform="translate(-32.939 -53.504)" fill="#54b4db"/>
      <path id="Path_1525" data-name="Path 1525" d="M418.384,748.691c.275,0-.211-2.294-.248-2.477a4.588,4.588,0,0,0-2.615-3.358,9.415,9.415,0,0,0-3.9-.587,67.082,67.082,0,0,0-10.818,1.367,1.294,1.294,0,0,0-1.184.918,12.726,12.726,0,0,0-.266,4.111c0,.147,15.231.046,19.03,0" transform="translate(-33.038 -61.393)" fill="#31316b"/>
      <path id="Path_1526" data-name="Path 1526" d="M437.57,744.81c.046-1.45.413-8.9.789-8.9h-5.817a18.858,18.858,0,0,0-.266,4.652c.064,1.532.257,3.028.257,4.588,1.67-.138,3.358-.193,5.037-.165v-.165" transform="translate(-35.754 -60.87)" fill="#f3aaa1"/>
      <path id="Path_1527" data-name="Path 1527" d="M443.11,706.6c1.468-5.955,3.9-12.13,3.67-18.3-.22-5.193-2.138-9.845-3.863-14.681s-3.422-9.276-5.257-13.892c-2.092-5.129-4.138-11.01-10.093-12.6a16.424,16.424,0,0,0-12,1.312c-5.147,2.808-4.413,9.175-2.542,13.836a48.262,48.262,0,0,0,10.653,15.461c3.386,3.441,9.432,6.6,10.231,11.781.468,2.991-.918,6.643-1.477,9.588-1.22,6.294-2.514,12.68-2.679,19.1,0,1.248-1.009,13.882-.3,13.9l7.827.211c1.294,0,5.092-22.59,5.68-25.067.046-.211.1-.413.156-.624Z" transform="translate(-34.054 -53.5)" fill="#81ccf1"/>
      <path id="Path_1528" data-name="Path 1528" d="M410.919,630.587c.064.055,4.028-5.166,4.377-5.643a13.643,13.643,0,0,0,2.753-5.762,10.379,10.379,0,0,0,0-3.725,4.523,4.523,0,0,0-7.478-2.918,12.615,12.615,0,0,0-3.037,3.487c-.991,1.5-1.918,3.065-2.753,4.652a34.622,34.622,0,0,0-2.22,4.588c3.175,1.074,5.826,3.239,8.414,5.368Z" transform="translate(-33.307 -50.604)" fill="#008f6c"/>
      <path id="Path_1529" data-name="Path 1529" d="M450.284,748.691c.275,0-.211-2.294-.257-2.477a4.588,4.588,0,0,0-2.606-3.358,9.415,9.415,0,0,0-3.9-.587,67.082,67.082,0,0,0-10.818,1.367,1.294,1.294,0,0,0-1.184.918,12.727,12.727,0,0,0-.266,4.111c0,.147,15.231.046,19.03,0" transform="translate(-35.668 -61.393)" fill="#31316b"/>
      <path id="Path_1530" data-name="Path 1530" d="M428.085,596.557c.11,1.835.587,3.1-1.321,4.092a11.643,11.643,0,0,1-5.615,1.211c-3.817-.073-8.111-1.45-10.781-4.294-3.927-4.193-2.6-10.827,1.239-14.589a12.208,12.208,0,0,1,1.45-1.211c3.67-2.606,9.579-4.3,11.79.917a41.8,41.8,0,0,1,3.239,13.827Z" transform="translate(-33.755 -47.954)" fill="#f3aaa1"/>
      <path id="Path_1531" data-name="Path 1531" d="M425.613,607.549a.578.578,0,0,1-.046.284.5.5,0,0,1-.294.2,20.673,20.673,0,0,1-7.643,1.165q0-4.569.266-9.12a.4.4,0,0,1,.073-.266.431.431,0,0,1,.3-.1c1.33-.064,2.652-.11,3.982-.147,1.119,0,2.22-.147,3.349-.156a35.206,35.206,0,0,0,0,4.175c.055,1.422,0,2.643,0,3.964Z" transform="translate(-34.55 -49.614)" fill="#f3aaa1"/>
      <path id="Path_1532" data-name="Path 1532" d="M437.121,654.755q-6.808.486-13.644.606c-.982,0-12.689,0-12.689-.11,0-3.3.184-6.57.184-9.891,0-5.643-.33-11.276-.486-16.919-.138-5.083-.752-10.827,1.725-15.488s8.707-7,13.625-5.771,7.661,5.863,8.845,10.387c2.395,9.065,2.386,19.589,2.413,28.893v8.258Z" transform="translate(-33.947 -50.228)" fill="#05ae99"/>
      <path id="Path_1533" data-name="Path 1533" d="M446.881,596.028q1.734,2.358,3.441,4.716a2.588,2.588,0,0,0,.872.918c.762.4,2.367-.789,3.092-1.119a.808.808,0,0,0,.33-.22c.284-.395-.587-1.835-.762-2.23-.385-.844-.8-1.679-1.2-2.514a33.675,33.675,0,0,1-2.074-5.01c-.239-.807-.459-1.615-1.413-1.679a6.01,6.01,0,0,0-4.505,2.064c-1.037,1.422.624,2.954,1.422,4.028l.8,1.083Z" transform="translate(-36.751 -48.746)" fill="#ce7b13"/>
      <path id="Path_1534" data-name="Path 1534" d="M450.93,616.146a44.4,44.4,0,0,0-.532-4.478c-.376-2.028-.817-4.046-1.037-6.1a3.376,3.376,0,0,1,.119-1.688,1.743,1.743,0,0,1,1.7-1.009,2.3,2.3,0,0,1,1.661,1.11,6.717,6.717,0,0,1,.743,1.908l3,10.754a23.711,23.711,0,0,1,1.119,6.01c0,3.377-4.982,2.239-7.01,1.835a85.12,85.12,0,0,1-18.672-5.9,5.405,5.405,0,0,1-2.312-1.578,4.835,4.835,0,0,1-.587-3.542,2.752,2.752,0,0,1,.642-1.395,2.523,2.523,0,0,1,2.321-.477,67.362,67.362,0,0,1,13.084,3.505c1.918.688,3.872,1.578,5.836,2.083,0-.339-.046-.688-.073-1.028Z" transform="translate(-35.488 -49.899)" fill="#f3aaa1"/>
      <path id="Path_1535" data-name="Path 1535" d="M406.891,580.175a12.68,12.68,0,0,1,6.423-3.551c2.753-.532,5.34.743,8.056.33a3.523,3.523,0,0,0,2.7-1.835c.119-.248.211-.532.459-.651a.661.661,0,0,1,.376,0c2.881.376,2.606,5.505.844,6.872a11.286,11.286,0,0,1-5.4,2.092,2.633,2.633,0,0,0-1.193.33,1.615,1.615,0,0,0-.569,1.5,5.616,5.616,0,0,0,.523,1.6,17.964,17.964,0,0,1,1.413,5.386,2.083,2.083,0,0,1-.083.982.752.752,0,0,1-.789.468,3.551,3.551,0,0,0-3.9-2.753c-2.569.413-1.541,3.257-.138,4.441a10.144,10.144,0,0,1,1.092.918c1.046,1.055,1.074,3.78,1.376,5.184-.073-.3-6.166-1.129-6.854-1.358-4.634-1.56-7.157-5.505-7.973-10.157-.615-3.5,1.028-7.1,3.67-9.717Z" transform="translate(-33.353 -47.554)" fill="#ce7b13"/>
      <path id="Path_1536" data-name="Path 1536" d="M450.015,589.406a14.928,14.928,0,0,1,9.909,0c.807.321,1.835.67,2.422,0a1.835,1.835,0,0,0,.339-.817,15.974,15.974,0,0,0-5.735-15.8c-1.138-.918-2.753-1.578-3.927-.725a3.78,3.78,0,0,0-.973,1.321,49.2,49.2,0,0,1-3.909,6.551,25.049,25.049,0,0,1-5.606,5.505c-1.624,1.174-4.79,2.165-5.239,4.423a2.752,2.752,0,0,0,.459,1.89,3.671,3.671,0,0,0,.982,1.147c1.762,1.294,3.927-.477,5.56-1.092,1.936-.725,3.734-1.771,5.716-2.413Z" transform="translate(-36.17 -47.326)" fill="#fcc049"/>
      <path id="Path_1537" data-name="Path 1537" d="M454.7,578.173v.119a25.893,25.893,0,0,0,3.4,6.79c1.174,1.7,3.055,4.459,5.313,4.588,1.532.1,1.982-1.441,2.037-2.753a20.378,20.378,0,0,0-4.955-14.139c-1.358-1.5-3.312-2.67-5.349-1.89-2.587.991-1.129,5.331-.5,7.239Z" transform="translate(-37.521 -47.241)" fill="#ce7b13"/>
      <path id="Path_1538" data-name="Path 1538" d="M452.88,594.285l.11.046a2.3,2.3,0,0,1,.817.835c.514.762,1.009,1.542,1.468,2.34a3.533,3.533,0,0,1,.468,1.1c.239,1.431-1.7,3.248-1,5.285,0,.092-2.34-.193-3.257.138a2.02,2.02,0,0,1-.56.046,1.735,1.735,0,0,1-.321-.431,42.154,42.154,0,0,0-1.991-4.156,2.3,2.3,0,0,1-.367-1.752c.211-.707.917-1.037,1.367-1.523a12.941,12.941,0,0,1,1.569-1.523,1.881,1.881,0,0,1,1.7-.4Z" transform="translate(-37.071 -49.186)" fill="#f3aaa1"/>
      <path id="Path_1539" data-name="Path 1539" d="M442.974,613.8l-2.9,9.937a83.664,83.664,0,0,1-8.707-2.4,14.726,14.726,0,0,1-5.606-3.349,5.147,5.147,0,0,1-1.064-5.074,5.808,5.808,0,0,1,3.973-3.9c3.019-.8,6.065,1.211,8.689,2.422C437.762,611.619,442.992,613.73,442.974,613.8Z" transform="translate(-35.111 -50.39)" fill="#008f6c"/>
      <path id="Path_1540" data-name="Path 1540" d="M699.221,560.559c-4.771,0-11.295,0-13.6-.073-.275,0,.211-2.294.248-2.477a4.588,4.588,0,0,1,2.615-3.358,9.175,9.175,0,0,1,3.67-.587h.239a41.012,41.012,0,0,1,5.909.541c0-.56-.064-1.156-.1-1.753h-1.835c-.284-3.734-.7-7.45-1.184-11.166h10.093c-.055,5.863-.11,11.01-.11,11.01h-1.441v.128c0,.918-.119,1.762-.174,2.633a1.229,1.229,0,0,1,.853.862,12.727,12.727,0,0,1,.266,4.111c0,.055-2.349.073-5.432.073m-20.03,0c-4.771,0-11.295,0-13.607-.073-.266,0,.211-2.294.257-2.477a4.588,4.588,0,0,1,2.615-3.358,9.175,9.175,0,0,1,3.67-.587h.239a40.992,40.992,0,0,1,5.9.541c0-.835-.1-1.752-.165-2.633H677c-.6,0-1.734-4.854-2.835-10.286h10.6c.248,4.138.551,10.093.064,10.093h-1.092v1.055c0,.918-.11,1.762-.174,2.633a1.211,1.211,0,0,1,.853.862,12.469,12.469,0,0,1,.266,4.11c0,.055-2.349.073-5.423.073" transform="translate(-54.992 -44.849)" fill="#13498b"/>
      <path id="Path_1541" data-name="Path 1541" d="M691.724,523.575H681.632c-.312-2.477-.661-4.945-1.009-7.4-.3-2.165-.578-4.331-.862-6.5-.229-1.707-.459-3.413-.716-5.12h12.717c.156,2.138.138,4.294.119,6.423,0,3.367-.083,8.175-.119,12.579m-20.525,0H660.6c-1.285-6.322-2.523-13.451-2.844-14.781a2.567,2.567,0,0,0-.147-.624c-.294-1.193-.633-2.4-.973-3.615h12.4a93.377,93.377,0,0,1,1.927,15.194c0,.395.119,1.918.239,3.826m20.782-98.828H665.373c.083-.395.174-.789.266-1.184-2.945-1.037-6.716-2.753-6.716-2.753s.294-.78.706-1.9c-1.78-.6-3.551-1.2-5.322-1.835-3.074-1.138-8.028-1.753-9.845-4.835a11.348,11.348,0,0,1-1.046-2.753l-1.3-4.716-136.034,7.983L501.4,333.049,696.652,321.58,699.4,369.1a2.248,2.248,0,0,1,1.4-.5,2.35,2.35,0,0,1,.358,0,2.23,2.23,0,0,1,1.661,1.459,4.725,4.725,0,0,1,.156,1.193,19.267,19.267,0,0,1-.22,4.588c-.376,1.771-1.734,3.129-2.569,4.679a14.956,14.956,0,0,1,.7,2.606q1.707,8.35,2.753,16.828c.294,2.367.532,4.661-.358,6.937a25.14,25.14,0,0,1-3.826,5.854c-.2.257-.395.5-.569.752-.551.743-1.119,1.486-1.688,2.22l.5.376s-3.459,5.56-3.789,6.056a21.016,21.016,0,0,1-1.982,2.542m3.789-23.14h-.358a11.212,11.212,0,0,1-6.615,5.927c-.477.156-3.487.587-5.358.918.064,1.578.1,3.138.119,4.716a12.389,12.389,0,0,1,2.083,1.34l.679-.807c1.11-1.229,3.5-3.67,3.5-3.67l.633.486c.5-.551.982-1.119,1.468-1.679,1.652-1.918,3.955-3.1,3.89-5.918V401.47m-33.233,9.652c.294,0,5.505,1.367,5.909,1.459,1.083.229,2.275.395,3.45.661a9.424,9.424,0,0,1,2.863-1.248c.275-.073.56-.119.835-.165v-3.037a6.662,6.662,0,0,1-1.514.211h0q-.8,0-1.6-.055a1.349,1.349,0,0,1-1.431-1.725,39.779,39.779,0,0,1,0-4.184l-21.571,1.266.257.578a7.652,7.652,0,0,0,2.753,3.734,7.423,7.423,0,0,0,2.1.918l7.716,2.11c.11-.312.184-.5.184-.5h0" transform="translate(-41.458 -26.702)" fill="#dfdfeb"/>
      <path id="Path_1542" data-name="Path 1542" d="M705.435,513.834h-12.69c-.312-2.156-.661-4.3-1.073-6.423a70.822,70.822,0,0,0-3.193-11.708c-.5-1.294-.973-2.587-1.441-3.89-2.936,2.395-5.946,4.991-6.5,8.542-.459,2.991.918,6.643,1.477,9.588.248,1.3.5,2.6.752,3.909H670.348c-1.367-4.826-2.881-9.763-2.67-14.681.211-5.193,2.138-9.836,3.854-14.681.78-2.184,1.569-4.367,2.386-6.542h13.827a.918.918,0,0,0,.918-.963v-4.964a.918.918,0,0,0-.918-.918H676.578l.211-.523c.229-.551.45-1.11.688-1.679H677.2v-8.258c0-8.515,0-18.039,1.835-26.544h26.609a12.009,12.009,0,0,1-1.707,1.5c.064,2.367-.092,4.771-.156,7.028-.156,5.643-.486,11.277-.486,16.919,0,3.321.193,6.6.184,9.891a3.607,3.607,0,0,1-.78.055c.083.918.165,1.771.266,2.578a171.943,171.943,0,0,1,1.156,18.828c0,3.165,0,6.331-.174,9.487-.156,3.863.7,7.34,1.239,11.1.11.771.193,1.541.248,2.321" transform="translate(-55.168 -35.981)" fill="#a9c8e4"/>
      <path id="Path_1543" data-name="Path 1543" d="M688.307,481.272H674.48c.853-2.3,1.734-4.588,2.661-6.882h11.166a.918.918,0,0,1,.918.918v4.964a.918.918,0,0,1-.918.963" transform="translate(-55.731 -39.304)" fill="#dfdfeb"/>
      <path id="Path_1544" data-name="Path 1544" d="M515.789,403.027l195.252-11.478-4.68-79.679L511.11,323.339l4.68,79.688Z" transform="translate(-42.258 -25.902)" fill="#fcc049"/>
      <path id="Path_1545" data-name="Path 1545" d="M666.789,378.56l-125.7,7.4a.918.918,0,0,0-.918,1.009l.294,4.964a.918.918,0,0,0,1.009.918l125.748-7.386a.918.918,0,0,0,.918-1.009l-.284-4.964a.973.973,0,0,0-1.018-.918Z" transform="translate(-44.654 -31.401)" fill="#fff"/>
      <path id="Path_1546" data-name="Path 1546" d="M664.02,331.406l-125.7,7.34a.964.964,0,0,0-.918,1.009l.294,4.964a.918.918,0,0,0,1.009.918l125.748-7.386a.918.918,0,0,0,.918-1.009l-.284-4.964a.973.973,0,0,0-1.018-.918Z" transform="translate(-44.426 -27.509)" fill="#fff"/>
      <path id="Path_1547" data-name="Path 1547" d="M694.216,353.24l-154.559,9.084a.918.918,0,0,0-.918,1.009l.284,4.964a.963.963,0,0,0,1.009.918l154.559-9.084a.918.918,0,0,0,.918-1.009l-.294-4.964a.918.918,0,0,0-1.009-.918Z" transform="translate(-44.537 -29.313)" fill="#fff"/>
      <path id="Path_1548" data-name="Path 1548" d="M713.529,557.72c-.046-1.45-.413-8.9-.789-8.9h5.826a18.855,18.855,0,0,1,.257,4.652c-.064,1.532-.248,3.028-.257,4.588a49.324,49.324,0,0,0-5.037-.165v-.165Z" transform="translate(-58.886 -45.442)" fill="#f3aaa1"/>
      <path id="Path_1549" data-name="Path 1549" d="M706.843,521.042c-.514-3.863-1.046-7.735-1.835-11.561a70.805,70.805,0,0,0-3.193-11.708,153.659,153.659,0,0,1-6.083-19.039,78.23,78.23,0,0,1-1.688-9.662c-.312-2.964.4-4.349,2.826-6.2a16.451,16.451,0,0,1,11.6-3.377c7.34.8,7.267,9.093,7.909,14.57a169.736,169.736,0,0,1,1.138,18.92q0,4.753-.174,9.487c-.156,3.863.7,7.34,1.248,11.1a58.2,58.2,0,0,1,.358,8.762l-.22,23.581-8.845.165c-.468-6.221-1.312-12.405-2.184-18.571-.3-2.165-.587-4.331-.872-6.5Z" transform="translate(-57.338 -38.07)" fill="#31316b"/>
      <path id="Path_1550" data-name="Path 1550" d="M699.653,561.6c-.266,0,.211-2.294.257-2.477a4.588,4.588,0,0,1,2.615-3.358,9.415,9.415,0,0,1,3.9-.587,68.254,68.254,0,0,1,10.818,1.367,1.294,1.294,0,0,1,1.174.917,12.47,12.47,0,0,1,.266,4.111c0,.147-15.231.046-19.03,0Z" transform="translate(-57.8 -45.964)" fill="#12100b"/>
      <path id="Path_1551" data-name="Path 1551" d="M691.7,557.72c0-1.45-.413-8.9-.789-8.9h5.817a19.266,19.266,0,0,1,.266,4.652c-.073,1.532-.257,3.028-.257,4.588-1.67-.138-3.358-.193-5.037-.165v-.165Z" transform="translate(-57.086 -45.442)" fill="#f3aaa1"/>
      <path id="Path_1552" data-name="Path 1552" d="M683.549,519.533c-1.468-5.946-3.9-12.13-3.67-18.351.22-5.193,2.138-9.836,3.863-14.681,1.67-4.67,3.367-9.331,5.248-13.947,2.1-5.129,4.138-11.01,10.093-12.6a16.424,16.424,0,0,1,12,1.312c5.147,2.808,4.413,9.175,2.532,13.836a48.237,48.237,0,0,1-10.643,15.46c-3.386,3.441-9.432,6.6-10.231,11.781-.468,2.991.918,6.643,1.477,9.588,1.22,6.294,2.514,12.68,2.679,19.1,0,1.248,1.009,13.882.3,13.9l-7.827.211c-1.294-.046-5.092-22.59-5.68-25.067-.055-.211-.1-.413-.156-.624Z" transform="translate(-56.175 -38.065)" fill="#31316b"/>
      <path id="Path_1553" data-name="Path 1553" d="M728.05,417.89a24.571,24.571,0,0,0,3.826-5.854c.917-2.275.651-4.588.358-6.937q-1.055-8.469-2.753-16.828a9.688,9.688,0,0,0-1.606-4.239,1.174,1.174,0,0,0-2.028-.285c-1.743,1.78-1.835,4.588-1.835,7.038,0,5.8.211,11.524.339,17.3.064,2.817-2.23,4-3.881,5.918a53.031,53.031,0,0,1-4.725,5.01,14.681,14.681,0,0,0-4.138,7.34,5.992,5.992,0,0,0,.22,4.019c1.908,3.744,5.881-.138,7.6-1.991a110.42,110.42,0,0,0,8.065-9.735c.183-.248.367-.5.569-.752Z" transform="translate(-58.772 -31.791)" fill="#f3aaa1"/>
      <path id="Path_1554" data-name="Path 1554" d="M726.075,424.083s-3.468,5.56-3.8,6.056a13.562,13.562,0,0,1-4.478,4.533,10.342,10.342,0,0,1-3.5,1.275,4.514,4.514,0,0,1-5.331-6.019,12.792,12.792,0,0,1,2.22-4.056q1.624-2.175,3.422-4.2c1.11-1.229,3.5-3.67,3.5-3.67l7.946,6.047Z" transform="translate(-58.549 -34.654)" fill="#008f6c"/>
      <path id="Path_1555" data-name="Path 1555" d="M677.823,561.6c-.275,0,.211-2.294.248-2.477a4.588,4.588,0,0,1,2.615-3.358,9.416,9.416,0,0,1,3.9-.587,68.124,68.124,0,0,1,10.827,1.367,1.294,1.294,0,0,1,1.184.917,12.727,12.727,0,0,1,.266,4.111c0,.147-15.231.046-19.03,0Z" transform="translate(-55.999 -45.964)" fill="#12100b"/>
      <path id="Path_1556" data-name="Path 1556" d="M699.908,409.448c-.1,1.881-.587,3.1,1.33,4.092a11.635,11.635,0,0,0,5.606,1.211c3.826-.064,8.12-1.45,10.79-4.294,3.927-4.193,2.6-10.827-1.239-14.589a12.232,12.232,0,0,0-1.45-1.211c-3.67-2.606-9.588-4.3-11.79.963A42.033,42.033,0,0,0,699.908,409.448Z" transform="translate(-57.817 -32.524)" fill="#f3aaa1"/>
      <path id="Path_1557" data-name="Path 1557" d="M703.479,420.459a.587.587,0,0,0,.055.284.532.532,0,0,0,.294.211,20.856,20.856,0,0,0,7.643,1.156q0-4.569-.266-9.12a.4.4,0,0,0-.073-.266.431.431,0,0,0-.3-.1c-1.33-.064-2.652-.11-3.982-.147-1.119,0-2.23-.147-3.349-.156a35.206,35.206,0,0,1,0,4.175c-.055,1.422,0,2.643,0,3.964Z" transform="translate(-58.122 -34.185)" fill="#f3aaa1"/>
      <path id="Path_1558" data-name="Path 1558" d="M690.29,467.7q6.817.477,13.644.606c.982,0,12.69,0,12.69-.11,0-3.294-.193-6.57-.193-9.891,0-5.643.34-11.276.5-16.919.138-5.083.752-10.827-1.725-15.488s-8.707-6.992-13.625-5.771-7.661,5.863-8.854,10.386c-2.386,9.065-2.376,19.589-2.4,28.893v8.258Z" transform="translate(-57.034 -34.802)" fill="#05ae99"/>
      <path id="Path_1559" data-name="Path 1559" d="M706.048,394.834c1.119.468,2.615,1.459,2.863,2.753a4.1,4.1,0,0,1-.468,2.248c-.3.771-.67,1.514-.918,2.294a10.757,10.757,0,0,1-.872,2.285,2.11,2.11,0,0,1-.734.771,5.254,5.254,0,0,1-3.037.119c-.275-.046-3.331-.826-3.239-1.028-1.174,2.643-1.119,5.634-1.037,8.515a1.341,1.341,0,0,0,1.4,1.725q.8.055,1.6.055a6.68,6.68,0,0,0,4.45-1.752,5.505,5.505,0,0,0,1.1-3.4,10.165,10.165,0,0,1,.633-2.652c.67-1.707,1.991-3.12,3.964-2.808,2.569.413,1.532,3.257.138,4.441a10.151,10.151,0,0,0-1.092.918c-1.046,1.055-1.073,3.78-1.376,5.184.073-.3,6.166-1.129,6.854-1.358,4.588-1.56,7.157-5.505,7.973-10.157.615-3.5-1.028-7.1-3.67-9.717a13.322,13.322,0,0,0-7.037-3.734,19.269,19.269,0,0,0-8.652.358,3.248,3.248,0,0,0-2.055,1.385,2.312,2.312,0,0,0,0,1.881c.073.174.578,1.266.7,1.257a5.992,5.992,0,0,1,2.532.45Z" transform="translate(-57.717 -32.279)" fill="#12100b"/>
      <path id="Path_1560" data-name="Path 1560" d="M677.01,414.346a7.67,7.67,0,0,1-2.753-3.734c-2.688-6.276-6.239-12.121-9.056-18.286-.862-1.881-2.89-1.642-3.147.431-.385,3.046.991,6.019,1.9,8.845,1.422,4.487,2.633,9.056,3.9,13.589a11.7,11.7,0,0,0,1.037,2.753c1.835,3.083,6.771,3.67,9.854,4.835,4.588,1.7,9.249,3.138,13.892,4.661,1.835.6,3.918,1.5,5.863.991,2.312-.606,3.67-3.459,2.037-5.432-2.1-2.468-6.359-3.67-9.368-4.468-4.028-1.119-8.065-2.211-12.1-3.312a7.341,7.341,0,0,1-2.092-.918Z" transform="translate(-54.7 -32.431)" fill="#f3aaa1"/>
      <path id="Path_1561" data-name="Path 1561" d="M655.234,389.9c1.633,1.918,4.588,2.22,5.973,4.322a.533.533,0,0,0,.2.2h.239c.918-.239,1.835-.486,2.817-.752a.752.752,0,0,0,.486-.284.78.78,0,0,0,0-.541,29.5,29.5,0,0,1-.862-5.1c0-1.441.119-3.881-1.119-4.918-.128-.11-.321-.211-.477-.119l-.165.174c-.587,1.028.147,2.441-.156,3.569l-.128.211a.376.376,0,0,1-.266,0c-1.918-.385-3.835-2.165-5.267-3.413a4.282,4.282,0,0,0-1.138-.807,2.23,2.23,0,0,0-2.184.312,2.2,2.2,0,0,0-.771,2.064,4.1,4.1,0,0,0,.431,1.129,18.9,18.9,0,0,0,2.367,3.955Z" transform="translate(-53.909 -31.708)" fill="#f3aaa1"/>
      <path id="Path_1562" data-name="Path 1562" d="M732.2,380.106c-.523,2.459-2.964,4.12-3.2,6.634a.44.44,0,0,1-.083.266l-.22.11c-.918.229-1.89.459-2.844.67a.734.734,0,0,1-.56,0,.817.817,0,0,1-.275-.468,29.368,29.368,0,0,0-1.652-4.909c-.651-1.285-1.954-3.358-1.349-4.854.064-.165.193-.34.367-.34l.22.083c1.009.624,1.028,2.22,1.835,3.065a.321.321,0,0,0,.22.128.339.339,0,0,0,.229-.11c1.514-1.248,2.358-3.716,3.019-5.505a4.588,4.588,0,0,1,.633-1.248,2.156,2.156,0,0,1,3.725.7,4.346,4.346,0,0,1,.156,1.193,18.846,18.846,0,0,1-.22,4.588Z" transform="translate(-59.638 -30.929)" fill="#f3aaa1"/>
      <g id="Group_278" data-name="Group 278" clip-path="url(#clip-path)">
        <path id="Path_1563" data-name="Path 1563" d="M688.935,419.17l-3.615,9.7a85.683,85.683,0,0,0,8.4,3.276,14.68,14.68,0,0,0,6.5.67,5.157,5.157,0,0,0,3.89-3.432,5.808,5.808,0,0,0-.853-5.505c-1.945-2.45-5.588-2.652-8.414-3.248-.44-.092-5.891-1.532-5.909-1.459Z" transform="translate(-56.625 -34.75)" fill="#008f6c"/>
        <path id="Path_1564" data-name="Path 1564" d="M622.88,241.761V0h-3.67V241.761" transform="translate(-51.173 -0.184)" fill="#008f6c"/>
      </g>
      <path id="Path_1565" data-name="Path 1565" d="M619.52,277.512a2.661,2.661,0,0,0,3.2-2.138c.734-2.486-2.064-3.909-2.89-5.936-1.551-3.835-1.22-5.615-.973-9.689.184-2.936,1.349-4.542,2.661-.422l.918,3.615c-.3,5.652,4.487,5.551,4.891,10.726a7.827,7.827,0,0,1-5.2,8.258c-2.6.863-5.8-.128-7.946-1.954" transform="translate(-50.758 -21.364)" fill="#008f6c"/>
      <path id="Path_1566" data-name="Path 1566" d="M615.111,753.938a258.216,258.216,0,0,1-51.611-5.276s6.8-1.56,17.58-2.982h0c0,.184-.486,2.487-.211,2.487,3.8,0,19.021-.147,19.03-.294a13.068,13.068,0,0,0-.3-4.028c4.9-.312,10.093-.5,15.525-.5,3.615,0,7.148.083,10.552.229a5.1,5.1,0,0,0-1.11,2.266c0,.184-.523,2.477-.257,2.477,2.312,0,8.827.083,13.589.083,3.083,0,5.441,0,5.441-.083a16.24,16.24,0,0,0-.092-3.386,227.816,227.816,0,0,1,23.489,3.67,258.224,258.224,0,0,1-51.611,5.276" transform="translate(-46.579 -61.483)" fill="#dfdfeb"/>
      <path id="Path_1567" data-name="Path 1567" d="M643.341,748.466c-4.762,0-11.276,0-13.589-.083-.266,0,.211-2.294.257-2.477a5.1,5.1,0,0,1,1.11-2.266c6.368.275,12.295.78,17.571,1.358a16.234,16.234,0,0,1,.092,3.386c0,.064-2.358.083-5.441.083" transform="translate(-52.036 -61.507)" fill="#31316b"/>
      <path id="Path_1568" data-name="Path 1568" d="M582.412,748.252c-.275,0,.174-2.3.211-2.487h0c5.313-.7,11.6-1.367,18.507-1.835a13.067,13.067,0,0,1,.3,4.028c0,.147-15.231.284-19.03.294" transform="translate(-48.131 -61.531)" fill="#31316b"/>
      <path id="Path_1569" data-name="Path 1569" d="M419.8,753.942a258.342,258.342,0,0,1-51.611-5.276,240.646,240.646,0,0,1,28.967-4.239,1.549,1.549,0,0,0-.1.248,12.726,12.726,0,0,0-.266,4.111c0,.055,2.349.073,5.423.073,4.771,0,11.3-.046,13.607-.073.275,0-.211-2.294-.248-2.477a4.844,4.844,0,0,0-1.725-2.844c1.954-.055,3.936-.073,5.955-.073q3.744,0,7.34.11v.3a1.239,1.239,0,0,0-.853.872,12.727,12.727,0,0,0-.266,4.111c0,.055,2.349.073,5.423.073,4.771,0,11.295-.046,13.607-.073.275,0-.211-2.294-.257-2.477a5.248,5.248,0,0,0-.7-1.725,237.25,237.25,0,0,1,27.288,4.083,258.216,258.216,0,0,1-51.611,5.276" transform="translate(-30.473 -61.487)" fill="#dfdfeb"/>
      <path id="Path_1570" data-name="Path 1570" d="M404.777,748.869c-3.074,0-5.413,0-5.423-.073a12.725,12.725,0,0,1,.266-4.111,1.55,1.55,0,0,1,.1-.248c5.138-.459,10.763-.817,16.69-.918a4.845,4.845,0,0,1,1.725,2.844c0,.183.523,2.477.248,2.477-2.3,0-8.836.073-13.607.073" transform="translate(-33.038 -61.497)" fill="#31316b"/>
      <path id="Path_1571" data-name="Path 1571" d="M432.47,743.813v-.3h1.395l-1.046.184-.33.073" transform="translate(-35.773 -61.497)" fill="#d29297"/>
      <path id="Path_1572" data-name="Path 1572" d="M436.667,748.872c-3.074,0-5.423,0-5.423-.073a12.726,12.726,0,0,1,.266-4.111,1.238,1.238,0,0,1,.853-.872l.33-.073,1.046-.184c5.505.2,10.79.578,15.6,1.037a5.247,5.247,0,0,1,.7,1.725c.046.183.532,2.477.257,2.477-2.312,0-8.836.073-13.607.073" transform="translate(-35.667 -61.501)" fill="#31316b"/>
      <path id="Path_1575" data-name="Path 1575" d="M509.2,183.8h4.083a7.34,7.34,0,0,0,7.34-7.34V170.44H501.86v6.019A7.34,7.34,0,0,0,509.2,183.8Z" transform="translate(-41.496 -14.239)" fill="#094b83"/>
      <path id="Path_1576" data-name="Path 1576" d="M511.03,189.642h1.092a5.12,5.12,0,0,0,5.12-5.12V183.21H505.91v1.312A5.12,5.12,0,0,0,511.03,189.642Z" transform="translate(-41.83 -15.292)" fill="#094b83"/>
      <path id="Path_1577" data-name="Path 1577" d="M487.11,132.595A22.938,22.938,0,1,1,525.949,149.2a17.58,17.58,0,0,0-5.276,12.589v2.854a3.211,3.211,0,0,1-3.211,3.211H502.607a3.2,3.2,0,0,1-3.211-3.211v-2.854a17.552,17.552,0,0,0-5.285-12.589,23.149,23.149,0,0,1-6.982-16.607Z" transform="translate(-40.279 -9.232)" fill="#fcc049"/>
      <path id="Path_1578" data-name="Path 1578" d="M515.4,169.6c.073-6.423.22-12.845.688-19.268.239-3.239.551-6.478.991-9.689a14.005,14.005,0,0,1,.918-3.606,7.175,7.175,0,0,1,3.716-3.982,4.744,4.744,0,0,1,1.909-.5,1.661,1.661,0,0,1,1.119.358.862.862,0,0,1,.312.706,2.046,2.046,0,0,1-.266.918,2.476,2.476,0,0,1-.633.78,21.25,21.25,0,0,1-12.1,4.092v1.835a23.085,23.085,0,0,0,13.213-4.487,4.277,4.277,0,0,0,1.129-1.358,3.974,3.974,0,0,0,.477-1.789,2.753,2.753,0,0,0-.917-2.11,3.551,3.551,0,0,0-2.3-.789,6.423,6.423,0,0,0-2.7.679,9.038,9.038,0,0,0-4.588,4.927,16,16,0,0,0-1.064,4.074c-.44,3.257-.771,6.533-1.009,9.8-.468,6.478-.615,12.956-.688,19.415h1.835Z" transform="translate(-42.336 -10.962)" fill="#fff"/>
      <path id="Path_1579" data-name="Path 1579" d="M509.271,169.574c-.073-6.423-.22-12.937-.7-19.415-.239-3.266-.56-6.542-1-9.8a16.386,16.386,0,0,0-1.064-4.074,9.57,9.57,0,0,0-2.514-3.56,9.314,9.314,0,0,0-2.11-1.367,6.422,6.422,0,0,0-2.7-.679,3.542,3.542,0,0,0-2.294.789,2.7,2.7,0,0,0-.963,2.11,3.964,3.964,0,0,0,.468,1.789,4.3,4.3,0,0,0,1.138,1.358,23.03,23.03,0,0,0,13.2,4.487v-1.835a21.222,21.222,0,0,1-12.093-4.092,2.5,2.5,0,0,1-.642-.78,2.028,2.028,0,0,1-.257-.918.862.862,0,0,1,.312-.707,1.615,1.615,0,0,1,1.11-.358,4.78,4.78,0,0,1,1.918.5,7.248,7.248,0,0,1,3.716,3.982,14.779,14.779,0,0,1,.918,3.606c.431,3.211.752,6.423.991,9.689.468,6.423.606,12.845.688,19.268h1.835Z" transform="translate(-41.007 -10.96)" fill="#fff"/>
      <path id="Path_1580" data-name="Path 1580" d="M512.915,97.149V82.918a.918.918,0,0,0-1.835,0V97.149a.918.918,0,1,0,1.835,0Z" transform="translate(-42.256 -6.946)" fill="#fcc049"/>
      <path id="Path_1581" data-name="Path 1581" d="M538.049,108.7,548.142,98.6a.918.918,0,0,0-1.294-1.294L536.756,107.4a.921.921,0,0,0,1.3,1.3Z" transform="translate(-44.351 -8.19)" fill="#fcc049"/>
      <path id="Path_1582" data-name="Path 1582" d="M547.918,135.265h14.268a.918.918,0,1,0,0-1.835H547.918a.918.918,0,1,0,0,1.835Z" transform="translate(-45.218 -11.187)" fill="#fcc049"/>
      <path id="Path_1583" data-name="Path 1583" d="M536.745,160.389l10.093,10.093a.918.918,0,0,0,1.294-1.294L538.039,159.1a.918.918,0,1,0-1.3,1.294Z" transform="translate(-44.35 -13.281)" fill="#fcc049"/>
      <path id="Path_1584" data-name="Path 1584" d="M485.069,159.1q-5.046,5.037-10.093,10.093a.918.918,0,1,0,1.3,1.294l10.093-10.093a.918.918,0,0,0-1.294-1.294Z" transform="translate(-39.257 -13.285)" fill="#fcc049"/>
      <path id="Path_1585" data-name="Path 1585" d="M474.8,133.43H460.528a.918.918,0,1,0,0,1.835H474.8a.918.918,0,0,0,0-1.835Z" transform="translate(-38.012 -11.187)" fill="#fcc049"/>
      <path id="Path_1586" data-name="Path 1586" d="M486.35,107.4,476.257,97.3a.918.918,0,0,0-1.275,1.3L485.074,108.7a.918.918,0,0,0,1.294-1.3Z" transform="translate(-39.262 -8.192)" fill="#fcc049"/>
      <path id="Path_1587" data-name="Path 1587" d="M379.928,273.569c-.486-1.367-2.844-8.441-2.487-8.579L372,267.109a18.287,18.287,0,0,0,1.44,4.432c.615,1.4,1.33,2.753,1.9,4.175a46.863,46.863,0,0,1,4.588-1.982l-.064-.165Z" transform="translate(-30.787 -22.036)" fill="#f3aaa1"/>
      <path id="Path_1588" data-name="Path 1588" d="M367.578,230.967a82.778,82.778,0,0,0-4.166-11.322,4.505,4.505,0,0,0-1.294-1.881,4.68,4.68,0,0,0-1.707-.67l-14.433-3.606a85.781,85.781,0,0,0-14.405-2.753c-3.046-.22-11.928-1.165-13.084,2.532a5.019,5.019,0,0,0,.679,3.771c2.294,4.184,6.955,6.423,11.451,8.038a80.6,80.6,0,0,0,23.507,4.505c4.239,11.818,7.441,23.994,11.1,36.032l9.441-2.56s-2.753-14.506-3.083-16.02c-1.266-5.441-2.45-10.818-4.01-16.084Z" transform="translate(-26.365 -17.539)" fill="#008f6c"/>
      <path id="Path_1589" data-name="Path 1589" d="M389.523,280.477c.257.055.312-2.285.312-2.468a4.588,4.588,0,0,0-1.78-3.872,9.717,9.717,0,0,0-3.67-1.459,68.354,68.354,0,0,0-10.845-1.119,1.3,1.3,0,0,0-1.367.651,12.718,12.718,0,0,0-1.193,3.945c0,.138,14.818,3.505,18.534,4.322Z" transform="translate(-30.703 -22.576)" fill="#0c5093"/>
      <path id="Path_1590" data-name="Path 1590" d="M339.971,154.664c-1,1.587-1.312,2.863-3.441,2.569a11.552,11.552,0,0,1-5.276-2.266c-3.083-2.257-5.79-5.872-6.322-9.735-.78-5.689,4.138-10.331,9.441-11.185a13.012,13.012,0,0,1,1.89-.147c4.5,0,10.3,2.028,9.056,7.6a42.023,42.023,0,0,1-5.349,13.167Z" transform="translate(-26.899 -11.225)" fill="#f3aaa1"/>
      <path id="Path_1591" data-name="Path 1591" d="M349.135,272.738c.431-1.395,2.753-8.469,3.147-8.368l-5.615-1.56a18.9,18.9,0,0,0-1.5,4.423c-.349,1.486-.569,2.982-.982,4.478a47.591,47.591,0,0,1,4.9,1.184l.046-.156Z" transform="translate(-28.494 -21.856)" fill="#f3aaa1"/>
      <path id="Path_1592" data-name="Path 1592" d="M350.114,231.111a58.56,58.56,0,0,0-2.7,8.34c-2.037,7.588-6.092,22.773-6.092,22.773l8.469,2.532c2.12-5.863,4.588-11.6,7.083-17.314.872-1.991,1.725-4.01,2.578-6.019,1.532-3.588,3.083-7.166,4.817-10.662,2.193-4.4,3.5-8.139,3.156-13.167-.2-3.156-1.367-5.505-4.588-6.138a83.013,83.013,0,0,0-10.423-1.33c-2.3-.156-4.588-.211-6.927-.275l-16.387-.431-8.4-.211c-1.835-.046-4.193-.688-5.936-.349-.789,2.964-1.33,6.588-.367,9.57,2.606,8.074,9.946,11.928,18.149,11.662a39.9,39.9,0,0,0,14.029-3.56,16.956,16.956,0,0,1,5.267-1.633c.349,2.019-.917,4.423-1.743,6.212Z" transform="translate(-25.995 -17.399)" fill="#05ae99"/>
      <path id="Path_1593" data-name="Path 1593" d="M355.942,285.251c.22.147,1.129-2.009,1.193-2.184a4.588,4.588,0,0,0-.239-4.248,9.524,9.524,0,0,0-2.881-2.7,66.693,66.693,0,0,0-9.68-5.019,1.294,1.294,0,0,0-1.5.11,12.469,12.469,0,0,0-2.551,3.23c-.083.119,12.506,8.689,15.662,10.809Z" transform="translate(-28.171 -22.524)" fill="#0c5093"/>
      <path id="Path_1594" data-name="Path 1594" d="M334.268,162.416a.569.569,0,0,1-.11.275.587.587,0,0,1-.33.128,20.856,20.856,0,0,1-7.707-.569q1.018-4.459,2.294-8.836a.459.459,0,0,1,.128-.248.431.431,0,0,1,.321,0c1.312.239,2.615.486,3.909.752,1.1.22,2.2.349,3.3.6a40.658,40.658,0,0,0-.918,4.055c-.275,1.294-.551,2.587-.853,3.872Z" transform="translate(-27.003 -12.812)" fill="#f3aaa1"/>
      <path id="Path_1595" data-name="Path 1595" d="M339.412,205.692c-4.294-.138-25.03.156-25.012,0,.7-6.551.184-13.35.284-19.966a48.446,48.446,0,0,1,2.569-16.185c1.679-4.588,4.505-9.423,10.01-9.331a9.505,9.505,0,0,1,2.9.523c4.643,1.578,6.992,6.267,8.258,10.662C340.1,177.1,340.137,183.13,340,189.03c-.073,3.12.174,6.248.073,9.368-.083,2.422-.44,4.854-.7,7.276Z" transform="translate(-26.037 -13.395)" fill="#0c5093"/>
      <path id="Path_1596" data-name="Path 1596" d="M331.6,148.728a4.276,4.276,0,0,1-1.578,3.257c-4.138,3.349-6.313-8.533-6.6-10.772-.422-3.285.083-6.992,2.6-9.368,4.221-4.01,11.579-3.5,16.387-.973a10.414,10.414,0,0,1,4.211,3.67,5.634,5.634,0,0,1,.33,5.423c-.367.679-1.1,1.312-1.835,1.074a5.432,5.432,0,0,1-.917-.642,2.266,2.266,0,0,0-2.413.211c-1.083.725-1.413,2.009-2.5,2.661a5.771,5.771,0,0,1-2.156.817,7.6,7.6,0,0,1-1.945-.266,1.477,1.477,0,0,0-.862-1.771,2.239,2.239,0,0,0-2.092.312c-2.422,1.679-.541,4.065-.587,6.34Z" transform="translate(-26.77 -10.813)" fill="#ce7b13"/>
      <path id="Path_1597" data-name="Path 1597" d="M324.768,184.681c-.4,1.2-.807,2.413-1.294,3.615q-1.569,3.854-3.12,7.726c-.385.918-.918,2.009-1.835,2.34a2.367,2.367,0,0,1-1.78-.174,4.441,4.441,0,0,1-2.2-2.89c-.743-2.808.33-5.68,1.156-8.331a109.775,109.775,0,0,1,5.551-14.066,26.676,26.676,0,0,1,1.835-3.533,6.643,6.643,0,0,1,2.927-2.606,3.808,3.808,0,0,1,3.762.413c1.2.973,1.009,2.468.56,3.78a91.007,91.007,0,0,1-3.67,8.983,44.582,44.582,0,0,0-1.835,4.744Z" transform="translate(-26.028 -13.909)" fill="#f3aaa1"/>
      <path id="Path_1598" data-name="Path 1598" d="M325.688,194.976a118.672,118.672,0,0,1,18.4,3.734,3.432,3.432,0,0,1,1.385.578c.973.807.862,2.844-.4,3.331a3.129,3.129,0,0,1-1.009.147,68.815,68.815,0,0,1-9.019,0c-3.138-.3-6.276-.633-9.4-1.037-1.257-.165-2.523-.349-3.78-.532-1.587-.248-3.321-.248-4.753-1.092a1.184,1.184,0,0,1-.385-.321,1.156,1.156,0,0,1-.147-.422,3.881,3.881,0,0,1,0-2.074c.716-2.165,2.973-2.606,4.964-2.578,1.395,0,2.753.1,4.156.229Z" transform="translate(-26.205 -16.24)" fill="#f3aaa1"/>
      <path id="Path_1599" data-name="Path 1599" d="M315.63,142.961a13.323,13.323,0,0,1,5.083-5.083c2.688-1.661,6.726-4.661,5.166-8.4a4.955,4.955,0,0,0-2.643-2.477c-4.211-1.835-10.7-1.569-14.414,1.285-2.927,2.239-4.01,5.936-3.8,9.5a34.959,34.959,0,0,0,1.275,6.248,13.534,13.534,0,0,1,.34,6.313c-.339,1.45-1.321,2.945-2.8,3.1a6.689,6.689,0,0,0,4.89-.385,10.166,10.166,0,0,0,4.193-4.478c.991-1.835,1.688-3.808,2.707-5.624Z" transform="translate(-25.166 -10.561)" fill="#ce7b13"/>
      <path id="Path_1600" data-name="Path 1600" d="M372.29,212.153l-25.81-2.487.294-3.046,25.81,2.487-.294,3.046Z" transform="translate(-28.682 -17.222)" fill="#0c5093"/>
      <path id="Path_1601" data-name="Path 1601" d="M371.69,209.2l10.029-23.92,2.817,1.184-10.02,23.92L371.69,209.2Z" transform="translate(-30.761 -15.463)" fill="#0c5093"/>
      <path id="Path_1602" data-name="Path 1602" d="M356.725,199.639a7.4,7.4,0,0,0-1.34-.395l-3.257-.679a6.524,6.524,0,0,0-3.3-.11,6.25,6.25,0,0,0-1.45.762l-2.376,1.5a2.4,2.4,0,0,0,.844,2.046,7.413,7.413,0,0,0,1.982,1.165,10.745,10.745,0,0,0,1.532.587c2.477.67,5.046-.56,7.239-1.89.184.853.358,1.707.532,2.56.119.56.716,1.835,1.468,1.046a1.413,1.413,0,0,0,.193-1.174l-.358-2.652a5.149,5.149,0,0,0-.4-1.624,2.422,2.422,0,0,0-1.34-1.138Z" transform="translate(-28.559 -16.536)" fill="#f3aaa1"/>
    </g>
  </g>
</svg>
