<svg xmlns="http://www.w3.org/2000/svg" width="125.208" height="27.986" viewBox="0 0 125.208 27.986">
  <path id="cloud-small" d="M126.578,115.488c-.229-1.385,1.6-4.166,3.6-4.12.789,0,1.569.22,2.358.184,2.11-.1,3.2-1.753,4.019-3.11s2.431-2.909,4.487-2.569c2.964.5,4.459,4.4,7.827,1.477,2.2-1.927,2.367-4.588,4.863-6.423a8.111,8.111,0,0,1,6.79-1.33c3,.918,4.111,3.89,7.34,4.4,3.533.578,6.074-2.11,7.2-4.056,1.376-2.349,1.881-4.89,3.055-7.285,1.083-2.22,3.266-5.184,7.175-5.12,3.312.055,4.771,2.147,6.423,3.808,2.11,2.156,6.5,9.919,11.414,8.983,1.918-.358,2.881-1.89,4.588-2.569,2.753-1.092,6.331.413,8.01,2.312s2.34,4.184,4.239,5.973a4.321,4.321,0,0,0,1.835,1.119c2.643.725,5.111-1.5,7.946-1.67a6.542,6.542,0,0,1,4.89,1.927,23.424,23.424,0,0,1,2.6,3.67,2.753,2.753,0,0,0,.918.918c1.248.67,2.991.11,4.514-.156,3.762-.642,8.038,1.083,9.1,3.67Z" transform="translate(-126.559 -87.539)" fill="#def0f3"/>
</svg>
