<svg xmlns="http://www.w3.org/2000/svg" width="191.033" height="42.704" viewBox="0 0 191.033 42.704">
  <path id="cloud-big" d="M912.833,128.492c.349-2.11-2.441-6.359-5.505-6.285-1.211,0-2.395.339-3.6.284-3.221-.165-4.891-2.67-6.129-4.744s-3.67-4.441-6.854-3.918c-4.514.762-6.79,6.716-11.928,2.248-3.358-2.936-3.615-7.028-7.414-9.873a12.46,12.46,0,0,0-10.368-2.028c-4.588,1.413-6.267,5.946-11.139,6.735-5.386.918-9.267-3.23-11.01-6.193-2.083-3.588-2.863-7.469-4.652-11.121-1.652-3.377-4.982-7.909-10.946-7.808-5.046.083-7.267,3.276-9.744,5.808-3.221,3.3-9.909,15.139-17.433,13.708-2.927-.551-4.386-2.881-7.028-3.918-4.248-1.679-9.662.624-12.212,3.514s-3.578,6.423-6.469,9.129a6.652,6.652,0,0,1-2.826,1.7c-4.037,1.1-7.8-2.294-12.121-2.551a10.093,10.093,0,0,0-7.46,2.936c-1.716,1.716-2.652,3.734-3.964,5.606a4.229,4.229,0,0,1-1.441,1.4c-1.9,1.018-4.588.156-6.891-.239-5.735-.991-12.258,1.642-13.873,5.606Z" transform="translate(-721.83 -85.788)" fill="#def0f3"/>
</svg>
