<svg xmlns="http://www.w3.org/2000/svg" xmlns:xlink="http://www.w3.org/1999/xlink" width="632" height="330" viewBox="0 0 632 330"><defs><clipPath id="a"><rect width="632" height="330" fill="none"/></clipPath><clipPath id="b"><rect width="632" height="329.687" fill="none"/></clipPath><clipPath id="c"><path d="M1267.36,790.6a55.229,55.229,0,0,1-7.747-55.853L1213.35,716.85a104.779,104.779,0,0,0,96.695,144.073V811.334A55.2,55.2,0,0,1,1267.36,790.6" transform="translate(-1205.715 -716.85)" fill="none"/></clipPath></defs><g transform="translate(894 -2992)"><g transform="translate(-894 2992)"><g transform="translate(0)"><g clip-path="url(#a)"><path d="M1633.39,1930.7v329.727h-632V1930.7h632" transform="translate(-1001.39 -1930.739)" fill="#ccc"/></g><g clip-path="url(#b)"><path d="M522.134,0,0,520.524l.372.371L522.506.373" transform="translate(-175.8 -337.938)" fill="#f0f0f0"/><path d="M545.236,23.11,23.1,543.632l.372.373L545.608,23.481" transform="translate(-194.844 -357.003)" fill="#f0f0f0"/><path d="M568.336,46.21,46.2,566.734l.372.371L568.708,46.581" transform="translate(-213.889 -376.06)" fill="#f0f0f0"/><path d="M591.444,69.31,69.31,589.834l.372.371L591.816,69.681" transform="translate(-232.942 -395.117)" fill="#f0f0f0"/><path d="M614.544,92.42,92.41,612.943l.372.371L614.918,92.791" transform="translate(-251.986 -414.183)" fill="#f0f0f0"/><path d="M637.646,115.52,115.51,636.044l.372.371L638.018,115.891" transform="translate(-271.031 -433.24)" fill="#f0f0f0"/><path d="M660.746,138.62,138.61,659.144l.374.371L661.118,138.991" transform="translate(-290.076 -452.297)" fill="#f0f0f0"/><path d="M683.854,161.72,161.72,682.244l.372.371L684.226,162.093" transform="translate(-309.129 -471.354)" fill="#f0f0f0"/><path d="M706.956,184.83,184.82,705.354l.372.371L707.328,185.2" transform="translate(-328.173 -490.42)" fill="#f0f0f0"/><path d="M730.056,207.93,207.92,728.454l.372.371L730.428,208.3" transform="translate(-347.218 -509.477)" fill="#f0f0f0"/><path d="M753.164,231.03,231.03,751.554l.372.371L753.536,231.4" transform="translate(-366.271 -528.534)" fill="#f0f0f0"/><path d="M776.266,254.14,254.13,774.663l.372.373L776.638,254.511" transform="translate(-385.316 -547.6)" fill="#f0f0f0"/><path d="M799.366,277.24,277.23,797.764l.372.371L799.738,277.611" transform="translate(-404.36 -566.657)" fill="#f0f0f0"/><path d="M822.466,300.34,300.33,820.864l.374.371L822.838,300.711" transform="translate(-423.405 -585.714)" fill="#f0f0f0"/><path d="M845.576,323.45,323.44,843.973l.372.371L845.948,323.821" transform="translate(-442.458 -604.779)" fill="#f0f0f0"/><path d="M868.675,346.55,346.54,867.074l.372.371L869.048,346.921" transform="translate(-461.503 -623.836)" fill="#f0f0f0"/><path d="M891.776,369.65,369.64,890.174l.374.371L892.148,370.021" transform="translate(-480.547 -642.894)" fill="#f0f0f0"/><path d="M914.884,392.76,392.75,913.283l.372.371L915.258,393.131" transform="translate(-499.6 -661.959)" fill="#f0f0f0"/><path d="M937.986,415.86,415.85,936.384l.372.371L938.358,416.231" transform="translate(-518.645 -681.016)" fill="#f0f0f0"/><path d="M961.086,438.96,438.95,959.484l.372.371L961.458,439.331" transform="translate(-537.689 -700.074)" fill="#f0f0f0"/><path d="M984.194,462.06,462.06,982.584l.372.371L984.566,462.433" transform="translate(-556.742 -719.131)" fill="#f0f0f0"/><path d="M1007.3,485.17,485.16,1005.692l.372.373,522.135-520.524" transform="translate(-575.787 -738.196)" fill="#f0f0f0"/><path d="M1030.4,508.27,508.26,1028.794l.372.371,522.135-520.524" transform="translate(-594.832 -757.253)" fill="#f0f0f0"/><path d="M1053.5,531.37,531.37,1051.894l.372.371,522.134-520.524" transform="translate(-613.885 -776.311)" fill="#f0f0f0"/><path d="M1076.6,554.48,554.47,1075l.372.371,522.135-520.523" transform="translate(-632.929 -795.376)" fill="#f0f0f0"/><path d="M1099.706,577.58,577.57,1098.1l.372.371,522.136-520.524" transform="translate(-651.974 -814.433)" fill="#f0f0f0"/><path d="M1122.806,600.68,600.67,1121.2l.372.371,522.136-520.524" transform="translate(-671.019 -833.49)" fill="#f0f0f0"/><path d="M1145.914,623.78,623.78,1144.3l.372.371,522.136-520.523" transform="translate(-690.071 -852.547)" fill="#f0f0f0"/><path d="M1169.016,646.89,646.88,1167.414l.372.371,522.136-520.524" transform="translate(-709.116 -871.613)" fill="#f0f0f0"/><path d="M1192.115,669.99,669.98,1190.514l.372.371,522.135-520.524" transform="translate(-728.161 -890.67)" fill="#f0f0f0"/><path d="M1215.224,693.09,693.09,1213.614l.372.371L1215.6,693.463" transform="translate(-747.214 -909.727)" fill="#f0f0f0"/><path d="M1238.326,716.2,716.19,1236.722l.372.373L1238.7,716.571" transform="translate(-766.258 -928.793)" fill="#f0f0f0"/><path d="M1261.425,739.3,739.29,1259.824l.372.371L1261.8,739.671" transform="translate(-785.303 -947.85)" fill="#f0f0f0"/><path d="M1284.526,762.4,762.39,1282.924l.374.371L1284.9,762.771" transform="translate(-804.348 -966.907)" fill="#f0f0f0"/><path d="M1307.634,785.51,785.5,1306.032l.372.371,522.135-520.523" transform="translate(-823.401 -985.972)" fill="#f0f0f0"/><path d="M1330.736,808.61,808.6,1329.134l.372.371,522.135-520.524" transform="translate(-842.445 -1005.03)" fill="#f0f0f0"/><path d="M1353.836,831.71,831.7,1352.234l.374.371,522.134-520.524" transform="translate(-861.49 -1024.087)" fill="#f0f0f0"/><path d="M1376.944,854.82,854.81,1375.343l.372.371,522.136-520.522" transform="translate(-880.543 -1043.152)" fill="#f0f0f0"/><path d="M1400.046,877.92,877.91,1398.444l.372.371,522.135-520.524" transform="translate(-899.588 -1062.21)" fill="#f0f0f0"/><path d="M1423.146,901.02,901.01,1421.544l.372.371,522.135-520.524" transform="translate(-918.632 -1081.267)" fill="#f0f0f0"/><path d="M1446.254,924.12,924.12,1444.644l.372.371,522.134-520.523" transform="translate(-937.685 -1100.324)" fill="#f0f0f0"/><path d="M1469.356,947.23,947.22,1467.752l.372.373L1469.728,947.6" transform="translate(-956.73 -1119.389)" fill="#f0f0f0"/><path d="M1492.456,970.33,970.32,1490.854l.372.371L1492.828,970.7" transform="translate(-975.775 -1138.447)" fill="#f0f0f0"/><path d="M1515.556,993.43,993.42,1513.954l.374.371L1515.928,993.8" transform="translate(-994.819 -1157.504)" fill="#f0f0f0"/><path d="M1538.664,1016.54,1016.53,1537.063l.372.371,522.135-520.522" transform="translate(-1013.872 -1176.569)" fill="#f0f0f0"/><path d="M1561.766,1039.64,1039.63,1560.164l.372.371,522.136-520.524" transform="translate(-1032.917 -1195.626)" fill="#f0f0f0"/><path d="M1584.865,1062.74,1062.73,1583.264l.374.371,522.134-520.524" transform="translate(-1051.961 -1214.683)" fill="#f0f0f0"/><path d="M1607.974,1085.85,1085.84,1606.373l.372.371,522.134-520.522" transform="translate(-1071.015 -1233.749)" fill="#f0f0f0"/><path d="M1631.075,1108.95,1108.94,1629.474l.372.371,522.135-520.524" transform="translate(-1090.059 -1252.806)" fill="#f0f0f0"/><path d="M1654.176,1132.05,1132.04,1652.575l.372.371,522.135-520.524" transform="translate(-1109.104 -1271.863)" fill="#f0f0f0"/><path d="M1677.284,1155.15,1155.15,1675.674l.372.371,522.134-520.523" transform="translate(-1128.157 -1290.921)" fill="#f0f0f0"/><path d="M1700.385,1178.26,1178.25,1698.782l.372.373,522.135-520.524" transform="translate(-1147.201 -1309.986)" fill="#f0f0f0"/><path d="M1723.485,1201.36,1201.35,1721.884l.372.371,522.136-520.525" transform="translate(-1166.246 -1329.043)" fill="#f0f0f0"/><path d="M1746.586,1224.46,1224.45,1744.984l.374.371,522.134-520.522" transform="translate(-1185.291 -1348.1)" fill="#f0f0f0"/><path d="M1769.694,1247.57,1247.56,1768.092l.372.373,522.136-520.524" transform="translate(-1204.343 -1367.166)" fill="#f0f0f0"/><path d="M1792.8,1270.67,1270.66,1791.194l.372.371,522.136-520.524" transform="translate(-1223.388 -1386.223)" fill="#f0f0f0"/><path d="M1815.9,1293.77,1293.76,1814.294l.374.371,522.134-520.524" transform="translate(-1242.433 -1405.28)" fill="#f0f0f0"/><path d="M1839,1316.88,1316.87,1837.4l.372.371,522.136-520.522" transform="translate(-1261.486 -1424.345)" fill="#f0f0f0"/><path d="M1862.106,1339.98,1339.97,1860.5l.372.371,522.135-520.524" transform="translate(-1280.53 -1443.402)" fill="#f0f0f0"/><path d="M1885.206,1363.08,1363.07,1883.6l.372.371,522.135-520.525" transform="translate(-1299.575 -1462.46)" fill="#f0f0f0"/><path d="M1908.314,1386.18,1386.18,1906.7l.372.371,522.134-520.523" transform="translate(-1318.628 -1481.517)" fill="#f0f0f0"/><path d="M1931.416,1409.29,1409.28,1929.813l.372.373,522.135-520.524" transform="translate(-1337.673 -1500.582)" fill="#f0f0f0"/><path d="M1954.516,1432.39,1432.38,1952.915l.372.371,522.136-520.525-.372-.371" transform="translate(-1356.717 -1519.64)" fill="#f0f0f0"/><path d="M1977.615,1455.49,1455.48,1976.014l.374.371,522.134-520.522-.373-.373" transform="translate(-1375.762 -1538.697)" fill="#f0f0f0"/><path d="M2000.724,1478.6,1478.59,1999.123l.372.371L2001.1,1478.971l-.374-.371" transform="translate(-1394.815 -1557.763)" fill="#f0f0f0"/><path d="M2023.825,1501.7,1501.69,2022.224l.372.371L2024.2,1502.071l-.372-.371" transform="translate(-1413.86 -1576.819)" fill="#f0f0f0"/><path d="M2046.926,1524.8,1524.79,2045.324l.372.371L2047.3,1525.171l-.372-.371" transform="translate(-1432.904 -1595.876)" fill="#f0f0f0"/><path d="M2070.034,1547.9,1547.9,2068.424l.372.371,522.135-520.522" transform="translate(-1451.957 -1614.934)" fill="#f0f0f0"/><path d="M2093.135,1571.01,1571,2091.534l.372.371,522.136-520.524" transform="translate(-1471.002 -1633.999)" fill="#f0f0f0"/><path d="M2116.236,1594.11,1594.1,2114.634l.373.371,522.136-520.524" transform="translate(-1490.047 -1653.056)" fill="#f0f0f0"/><path d="M2139.344,1617.21,1617.21,2137.734l.372.371,522.134-520.522" transform="translate(-1509.1 -1672.114)" fill="#f0f0f0"/><path d="M2162.445,1640.32,1640.31,2160.843l.372.373,522.136-520.525" transform="translate(-1528.144 -1691.179)" fill="#f0f0f0"/><path d="M2185.545,1663.42,1663.41,2183.944l.372.371,522.136-520.524" transform="translate(-1547.189 -1710.236)" fill="#f0f0f0"/><path d="M2208.654,1686.52,1686.52,2207.044l.372.371,522.134-520.524" transform="translate(-1566.242 -1729.293)" fill="#f0f0f0"/><path d="M2231.754,1709.63,1709.62,2230.153l.372.371L2232.128,1710" transform="translate(-1585.287 -1748.359)" fill="#f0f0f0"/><path d="M2254.855,1732.73,1732.72,2253.254l.372.371L2255.228,1733.1" transform="translate(-1604.331 -1767.416)" fill="#f0f0f0"/><path d="M2277.956,1755.83,1755.82,2276.354l.372.371L2278.328,1756.2" transform="translate(-1623.376 -1786.473)" fill="#f0f0f0"/><path d="M2301.064,1778.93,1778.93,2299.454l.372.371L2301.436,1779.3" transform="translate(-1642.429 -1805.53)" fill="#f0f0f0"/><path d="M2324.165,1802.04,1802.03,2322.565l.372.371,522.136-520.525" transform="translate(-1661.473 -1824.596)" fill="#f0f0f0"/><path d="M2347.265,1825.14,1825.13,2345.665l.373.371,522.136-520.525" transform="translate(-1680.518 -1843.653)" fill="#f0f0f0"/><path d="M2370.374,1848.24,1848.24,2368.764l.372.371,522.134-520.523" transform="translate(-1699.571 -1862.71)" fill="#f0f0f0"/><path d="M2393.475,1871.35,1871.34,2391.873l.372.373,522.135-520.525" transform="translate(-1718.615 -1881.776)" fill="#f0f0f0"/><path d="M2416.576,1894.45,1894.44,2414.974l.372.371,522.135-520.524" transform="translate(-1737.66 -1900.833)" fill="#f0f0f0"/><path d="M2439.684,1917.55,1917.55,2438.074l.372.371,522.133-520.524" transform="translate(-1756.713 -1919.89)" fill="#f0f0f0"/><path d="M2462.784,1940.66,1940.65,2461.183l.372.371,522.135-520.522" transform="translate(-1775.758 -1938.955)" fill="#f0f0f0"/><path d="M2485.886,1963.76,1963.75,2484.284l.372.371,522.135-520.524" transform="translate(-1794.802 -1958.013)" fill="#f0f0f0"/><path d="M2508.985,1986.86,1986.85,2507.384l.374.371,522.133-520.525" transform="translate(-1813.847 -1977.07)" fill="#f0f0f0"/><path d="M2532.094,2009.96,2009.96,2530.484l.372.371,522.136-520.523" transform="translate(-1832.9 -1996.127)" fill="#f0f0f0"/><path d="M2555.2,2033.07,2033.06,2553.594l.373.371,522.135-520.524" transform="translate(-1851.945 -2015.192)" fill="#f0f0f0"/><path d="M2578.3,2056.17,2056.16,2576.694l.372.371,522.135-520.524" transform="translate(-1870.989 -2034.25)" fill="#f0f0f0"/><path d="M2601.4,2079.27,2079.27,2599.795l.372.371,522.134-520.522" transform="translate(-1890.042 -2053.307)" fill="#f0f0f0"/><path d="M2624.506,2102.38,2102.37,2622.9l.372.373,522.135-520.524" transform="translate(-1909.087 -2072.372)" fill="#f0f0f0"/><path d="M2647.606,2125.48,2125.47,2646l.372.371,522.136-520.524" transform="translate(-1928.132 -2091.429)" fill="#f0f0f0"/><path d="M2670.706,2148.58,2148.57,2669.1l.374.371,522.134-520.524" transform="translate(-1947.176 -2110.486)" fill="#f0f0f0"/><path d="M2693.814,2171.69,2171.68,2692.212l.372.373,522.135-520.524" transform="translate(-1966.229 -2129.552)" fill="#f0f0f0"/><path d="M2716.916,2194.79,2194.78,2715.314l.372.372,522.135-520.525" transform="translate(-1985.274 -2148.61)" fill="#f0f0f0"/><path d="M2740.016,2217.89,2217.88,2738.414l.374.371,522.134-520.524" transform="translate(-2004.318 -2167.666)" fill="#f0f0f0"/><path d="M2763.124,2240.99,2240.99,2761.514l.372.371L2763.5,2241.363" transform="translate(-2023.371 -2186.724)" fill="#f0f0f0"/><path d="M2786.225,2264.1,2264.09,2784.625l.372.371L2786.6,2264.471" transform="translate(-2042.416 -2205.789)" fill="#f0f0f0"/><path d="M2809.326,2287.2,2287.19,2807.724l.373.371L2809.7,2287.571" transform="translate(-2061.46 -2224.846)" fill="#f0f0f0"/><path d="M2832.434,2310.3,2310.3,2830.824l.372.371,522.134-520.522" transform="translate(-2080.514 -2243.904)" fill="#f0f0f0"/><path d="M2855.533,2333.41,2333.4,2853.932l.372.373,522.135-520.524" transform="translate(-2099.558 -2262.968)" fill="#f0f0f0"/><path d="M2878.636,2356.51,2356.5,2877.034l.373.371,522.135-520.524" transform="translate(-2118.603 -2282.026)" fill="#f0f0f0"/><path d="M2901.744,2379.61,2379.61,2900.134l.372.371,522.134-520.524" transform="translate(-2137.656 -2301.083)" fill="#f0f0f0"/><path d="M2924.844,2402.72,2402.71,2923.242l.373.371,522.135-520.522" transform="translate(-2156.7 -2320.148)" fill="#f0f0f0"/><path d="M2947.946,2425.82,2425.81,2946.344l.372.371,522.136-520.524" transform="translate(-2175.745 -2339.206)" fill="#f0f0f0"/><path d="M2971.045,2448.92,2448.91,2969.444l.374.371,522.134-520.524" transform="translate(-2194.79 -2358.263)" fill="#f0f0f0"/><path d="M2994.154,2472.03,2472.02,2992.552l.372.371L2994.526,2472.4" transform="translate(-2213.843 -2377.328)" fill="#f0f0f0"/><path d="M3017.255,2495.13,2495.12,3015.654l.372.371L3017.628,2495.5" transform="translate(-2232.887 -2396.385)" fill="#f0f0f0"/><path d="M3040.356,2518.23,2518.22,3038.755l.372.371L3040.728,2518.6" transform="translate(-2251.932 -2415.443)" fill="#f0f0f0"/><path d="M3063.464,2541.33,2541.33,3061.854l.372.371L3063.836,2541.7" transform="translate(-2270.985 -2434.5)" fill="#f0f0f0"/><path d="M3086.565,2564.44,2564.43,3084.962l.372.373,522.136-520.524" transform="translate(-2290.03 -2453.565)" fill="#f0f0f0"/><path d="M3109.666,2587.54,2587.53,3108.064l.372.371,522.136-520.524" transform="translate(-2309.074 -2472.623)" fill="#f0f0f0"/><path d="M3122.605,2620.67,2600.47,3141.194l.373.371,522.135-520.523" transform="translate(-2319.742 -2499.955)" fill="#f0f0f0"/><path d="M3135.545,2653.81,2613.41,3174.335l.372.371,522.136-520.525" transform="translate(-2330.411 -2527.294)" fill="#f0f0f0"/><path d="M3148.486,2686.94,2626.35,3207.465l.372.371,522.135-520.524" transform="translate(-2341.079 -2554.626)" fill="#f0f0f0"/><path d="M3161.425,2720.08,2639.29,3240.6l.372.371L3161.8,2720.452" transform="translate(-2351.748 -2581.966)" fill="#f0f0f0"/><path d="M3174.366,2753.21,2652.23,3273.734l.372.371,522.135-520.524" transform="translate(-2362.416 -2609.298)" fill="#f0f0f0"/></g><path d="M642.743,323.82A133.811,133.811,0,0,0,606.5,328.8a162.2,162.2,0,0,0-286,63.372,32.2,32.2,0,0,0-6.576-.679,31.8,31.8,0,0,0-31.261,38.158A80.915,80.915,0,0,0,233.139,549.6h504.35a131.978,131.978,0,0,0,38.359-93.148c0-73.25-59.592-132.628-133.1-132.628" transform="translate(-182.754 -219.596)" fill="#e6e6e6"/><path d="M2325.789,2940.812l-11.428-11.429,132.355-132.353,11.427,11.427-132.353,132.355" transform="translate(-2083.861 -2646)" fill="#cecfd6"/><path d="M3064.815,2791.733l-4.029-4.027-11.427-11.427-4.029-4.029,19.875-.39-.39,19.873" transform="translate(-2686.506 -2624.713)" fill="#cecfd6"/><path d="M2617.811,2888.383h-7.621V2821.46h7.621v66.924Z" transform="translate(-2327.756 -2665.725)" fill="#a8e3e6"/><path d="M2683.9,2933.844h-7.619V2876.6h7.619v57.244Z" transform="translate(-2382.244 -2711.199)" fill="#a8e3e6"/><path d="M2749.979,2988.38h-7.619v-45.63h7.619v45.63Z" transform="translate(-2436.723 -2765.753)" fill="#a8e3e6"/><path d="M2816.059,3037.493h-7.619V3002.32h7.619v35.173Z" transform="translate(-2491.202 -2814.879)" fill="#a8e3e6"/><path d="M2882.141,3079.457h-7.621V3053.22h7.621v26.236Z" transform="translate(-2545.682 -2856.854)" fill="#a8e3e6"/><path d="M2617.811,2979.452h-7.621V2931.92h7.621v47.532Z" transform="translate(-2327.756 -2756.821)" fill="#adb1cc"/><path d="M2683.9,3011.745h-7.619V2971.09h7.619v40.655Z" transform="translate(-2382.244 -2789.124)" fill="#adb1cc"/><path d="M2749.979,3050.477h-7.619V3018.07h7.619v32.407Z" transform="translate(-2436.723 -2827.867)" fill="#adb1cc"/><path d="M2816.059,3085.352h-7.619V3060.37h7.619v24.981Z" transform="translate(-2491.202 -2862.75)" fill="#adb1cc"/><path d="M2882.141,3115.164h-7.621V3096.53h7.621v18.634Z" transform="translate(-2545.682 -2892.569)" fill="#adb1cc"/><path d="M2617.811,3100.884h-7.621V3079.21h7.621v21.675Z" transform="translate(-2327.756 -2878.286)" fill="#2d6b87"/><path d="M2683.9,3115.609h-7.619V3097.07h7.619v18.538Z" transform="translate(-2382.244 -2893.015)" fill="#2d6b87"/><path d="M2749.979,3133.269h-7.619V3118.49h7.619v14.778Z" transform="translate(-2436.723 -2910.679)" fill="#2d6b87"/><path d="M2816.059,3149.172h-7.619V3137.78h7.619v11.392Z" transform="translate(-2491.202 -2926.585)" fill="#2d6b87"/><path d="M2882.141,3162.767h-7.621v-8.5h7.621v8.5Z" transform="translate(-2545.682 -2940.184)" fill="#2d6b87"/><path d="M2911.042,1367.349c-19.218,8.076-40.2,1.775-40.2,1.775l69.6-29.274s-10.17,19.416-29.39,27.5Z" transform="translate(-2366.849 -1105.472)" fill="#a8e3e6"/><path d="M2940.407,1328.846l-69.6,29.274s10.17-19.416,29.388-27.5,40.2-1.775,40.2-1.775Z" transform="translate(-2366.823 -1094.46)" fill="#bcf0f2"/><path d="M2895.979,1170.985c-10.927,17.757-31.668,24.841-31.668,24.841l39.565-64.306s3.028,21.707-7.9,39.465Z" transform="translate(-2361.465 -933.674)" fill="#a8e3e6"/><path d="M2902.067,1131.52l-39.565,64.306s-3.028-21.708,7.9-39.465,31.667-24.841,31.667-24.841Z" transform="translate(-2359.656 -933.674)" fill="#bcf0f2"/><path d="M1915.465,1403.24a43.4,43.4,0,0,0-41.715,31.449h83.433a43.4,43.4,0,0,0-41.716-31.449Z" transform="translate(-1544.803 -1157.771)" fill="#adb1cc"/><path d="M2563.727,1403.24a43.4,43.4,0,0,0-41.717,31.449h83.433A43.4,43.4,0,0,0,2563.727,1403.24Z" transform="translate(-2079.257 -1157.771)" fill="#adb1cc"/><path d="M2170.957,1326.5a61.986,61.986,0,0,0-59.587,44.921h119.172A61.983,61.983,0,0,0,2170.957,1326.5Z" transform="translate(-1740.707 -1094.495)" fill="#adb1cc"/><path d="M147.8,335.36a43.944,43.944,0,0,0-42.24,31.846h84.483A43.937,43.937,0,0,0,147.8,335.36Z" transform="translate(-87.028 -276.725)" fill="#fff"/><path d="M804.24,335.36A43.933,43.933,0,0,0,762,367.206h84.483a43.943,43.943,0,0,0-42.24-31.846Z" transform="translate(-628.227 -276.725)" fill="#fff"/><path d="M406.508,257.66a62.769,62.769,0,0,0-60.338,45.486H466.845a62.765,62.765,0,0,0-60.337-45.486Z" transform="translate(-285.398 -212.465)" fill="#fff"/><path d="M283.69,477.64a20.015,20.015,0,0,0-19.247,14.514l38.5,0A20.022,20.022,0,0,0,283.69,477.64Z" transform="translate(-218.019 -394.096)" fill="#8987a8"/><path d="M582.79,477.64a20.015,20.015,0,0,0-19.247,14.514l38.5,0A20.022,20.022,0,0,0,582.79,477.64Z" transform="translate(-464.61 -394.096)" fill="#8987a8"/><path d="M401.576,442.23a28.6,28.6,0,0,0-27.493,20.724l54.985,0A28.6,28.6,0,0,0,401.576,442.23Z" transform="translate(-308.411 -364.888)" fill="#8987a8"/><path d="M368.423,1121.79a24.789,24.789,0,0,0-23.829,17.964l47.661,0A24.792,24.792,0,0,0,368.423,1121.79Z" transform="translate(-284.099 -925.534)" fill="#adb1cc"/><path d="M738.753,1121.79a24.789,24.789,0,0,0-23.829,17.964l47.659,0A24.79,24.79,0,0,0,738.753,1121.79Z" transform="translate(-589.415 -925.534)" fill="#adb1cc"/><path d="M514.37,1078a35.413,35.413,0,0,0-34.04,25.663h68.079A35.406,35.406,0,0,0,514.37,1078Z" transform="translate(-396.005 -889.422)" fill="#adb1cc"/><path d="M511.4,1210.38a11.652,11.652,0,0,0-11.2,8.443h22.4A11.651,11.651,0,0,0,511.4,1210.38Z" transform="translate(-412.388 -998.602)" fill="#ffa9a6"/><path d="M685.453,1210.38a11.653,11.653,0,0,0-11.2,8.442l22.4,0A11.652,11.652,0,0,0,685.453,1210.38Z" transform="translate(-555.885 -998.602)" fill="#ffa9a6"/><path d="M580,1189.77a16.642,16.642,0,0,0-16,12.061l32,0a16.644,16.644,0,0,0-16-12.062Z" transform="translate(-464.989 -981.606)" fill="#ffa9a6"/><path d="M1141.362,173.35a7.793,7.793,0,0,0-7.491,5.647h14.982A7.793,7.793,0,0,0,1141.362,173.35Z" transform="translate(-934.814 -142.956)" fill="#fff"/><path d="M1257.822,173.35a7.793,7.793,0,0,0-7.491,5.647h14.982A7.793,7.793,0,0,0,1257.822,173.35Z" transform="translate(-1030.828 -142.956)" fill="#fff"/><path d="M1187.2,159.57a11.13,11.13,0,0,0-10.709,8.076h21.4a11.13,11.13,0,0,0-10.709-8.076Z" transform="translate(-969.951 -131.595)" fill="#fff"/><path d="M1209.921,1603.184H915.657a9.847,9.847,0,1,1,0-19.694h294.264a9.847,9.847,0,0,1,0,19.694Z" transform="translate(-746.79 -1306.558)" fill="#8987a8"/><path d="M1056.41,1129.952a2.932,2.932,0,1,1,5.863,0,2.932,2.932,0,0,1-5.863,0Z" transform="translate(-870.952 -929.825)" fill="#fff"/><path d="M972.581,609.627c.33.019.655.048.974.091a14.409,14.409,0,0,1,3.6.93,13.9,13.9,0,0,1,1.755.844,14.678,14.678,0,0,1,3.076,2.324,14.906,14.906,0,0,1,1.3,1.464,14.736,14.736,0,0,1,1.889,3.2,13.622,13.622,0,0,1,.649,1.847,14.257,14.257,0,0,1,.527,3.817c0,.323,0,.65-.023.979s-.047.657-.093.976a14.477,14.477,0,0,1-.929,3.6,13.806,13.806,0,0,1-.846,1.755,14.734,14.734,0,0,1-6.991,6.266,13.882,13.882,0,0,1-1.849.65,14.387,14.387,0,0,1-3.817.527c-.323,0-.65,0-.979-.025s-.655-.047-.976-.091a14.412,14.412,0,0,1-3.6-.93,13.933,13.933,0,0,1-1.755-.845,14.682,14.682,0,0,1-3.076-2.324,15.1,15.1,0,0,1-1.3-1.464,14.74,14.74,0,0,1-1.884-3.183,13.631,13.631,0,0,1-.649-1.847,14.318,14.318,0,0,1-.527-3.817c0-.323,0-.65.023-.98s.047-.656.093-.976a14.508,14.508,0,0,1,.927-3.616,13.926,13.926,0,0,1,.846-1.755,14.734,14.734,0,0,1,6.991-6.266,13.869,13.869,0,0,1,1.849-.65,14.368,14.368,0,0,1,3.816-.527c.323,0,.65,0,.98.025Z" transform="translate(-789.043 -502.99)" fill="#bcf0f2"/><path d="M972.935,619.287l3.336-6.945.841-1.756a13.917,13.917,0,0,1,1.756.844l-.841,1.756-3.385,7.054,7.3-6.481a14.862,14.862,0,0,1,1.3,1.464l-1.45,1.287-5.758,5.117,7.268-2.556,1.829-.644a13.637,13.637,0,0,1,.65,1.847l-1.826.643-7.384,2.6,9.742.578c0,.323,0,.65-.023.98s-.047.657-.093.976l-9.624-.571,6.948,3.335,1.756.839a13.8,13.8,0,0,1-.846,1.756l-1.755-.836-7.056-3.388,5.195,5.85,1.287,1.45a14.693,14.693,0,0,1-1.462,1.3l-1.289-1.445-5.114-5.755,2.556,7.268.646,1.831a13.887,13.887,0,0,1-1.849.65l-.641-1.826-2.6-7.384-.579,9.742c-.323,0-.65,0-.98-.024s-.655-.048-.976-.091l.572-9.626-3.336,6.949-.841,1.756a13.932,13.932,0,0,1-1.756-.844l.837-1.756,3.388-7.05-5.851,5.195-1.45,1.283a15.133,15.133,0,0,1-1.3-1.464l7.208-6.4-7.268,2.556-1.836.642a13.593,13.593,0,0,1-.65-1.847l1.826-.643,7.384-2.6L957,624.315c0-.323,0-.65.023-.979s.047-.657.093-.976l9.624.571-6.948-3.336-1.738-.844a13.884,13.884,0,0,1,.846-1.755l1.755.841,7.054,3.381-5.195-5.849-1.3-1.45a14.656,14.656,0,0,1,1.462-1.3l1.289,1.448,5.116,5.763-2.554-7.268-.646-1.835a13.882,13.882,0,0,1,1.849-.65l.646,1.831,2.591,7.373.579-9.742c.323,0,.65,0,.979.025s.655.047.974.091l-.571,9.626Z" transform="translate(-788.993 -502.932)" fill="#9ed9db"/><path d="M980,646.005a12.726,12.726,0,1,1,13.458-11.95A12.726,12.726,0,0,1,980,646.005Z" transform="translate(-798.083 -512.032)" fill="#8dc2c4"/><path d="M983.407,648.657a12.01,12.01,0,1,1,12.7-11.278A12.01,12.01,0,0,1,983.407,648.657Z" transform="translate(-801.449 -515.399)" fill="#9ed9db"/><path d="M1011.87,656.462l1.152,1.9-2.421,1.462-1.1-1.82a11.782,11.782,0,0,1-5.137,1.462l-.479-3.739a9.638,9.638,0,0,0,4.629-1.3c1.15-.7,1.417-1.183,1.169-1.594-.913-1.511-6.82,3.718-9.526-.762-1.171-1.94-.748-4.42,1.828-6.515l-1.129-1.871,2.421-1.462,1.108,1.838a10.482,10.482,0,0,1,4.087-1.109l.553,3.673a8.669,8.669,0,0,0-3.887,1.127c-1.183.716-1.353,1.287-1.106,1.7.878,1.441,6.789-3.771,9.464.658C1014.616,651.97,1014.253,654.392,1011.87,656.462Z" transform="translate(-824.065 -529.888)" fill="#8dc2c4"/><path d="M1102.181,809.226c.253-.212.507-.418.771-.606a14.52,14.52,0,0,1,3.253-1.808,13.759,13.759,0,0,1,1.861-.6,14.736,14.736,0,0,1,9.357.751,13.841,13.841,0,0,1,1.744.892,14.3,14.3,0,0,1,3.016,2.4c.226.228.444.472.656.725s.418.509.606.771a14.476,14.476,0,0,1,1.81,3.253,13.992,13.992,0,0,1,.6,1.861,14.727,14.727,0,0,1-.749,9.357,13.753,13.753,0,0,1-.892,1.743,14.352,14.352,0,0,1-2.4,3.016c-.23.226-.474.444-.727.658s-.507.416-.771.6a14.581,14.581,0,0,1-5.112,2.412,14.747,14.747,0,0,1-9.359-.751,13.978,13.978,0,0,1-1.743-.892,14.392,14.392,0,0,1-3.014-2.4c-.228-.23-.446-.474-.658-.727s-.418-.507-.606-.771a14.484,14.484,0,0,1-1.808-3.251,13.822,13.822,0,0,1-.6-1.861,14.674,14.674,0,0,1-.435-3.831,15.062,15.062,0,0,1,.165-1.951,14.828,14.828,0,0,1,1.02-3.576,13.6,13.6,0,0,1,.894-1.745,14.322,14.322,0,0,1,2.4-3.014C1101.685,809.656,1101.929,809.44,1102.181,809.226Z" transform="translate(-904.395 -664.832)" fill="#bcf0f2"/><path d="M1109.182,816l-2.359-7.335-.6-1.849a13.748,13.748,0,0,1,1.861-.6l.6,1.849,2.407,7.445.825-9.729a14.785,14.785,0,0,1,1.95.176l-.163,1.931-.648,7.677,3.511-6.859.878-1.729a13.825,13.825,0,0,1,1.744.892l-.878,1.722-3.562,6.97,7.459-6.292c.226.228.444.472.656.725s.418.509.606.771l-7.373,6.218,7.335-2.372,1.845-.593a14.018,14.018,0,0,1,.6,1.861l-1.849.591-7.447,2.4,7.8.662,1.931.163a14.824,14.824,0,0,1-.165,1.952l-1.931-.161-7.679-.651,6.859,3.511,1.729.878a13.7,13.7,0,0,1-.892,1.743l-1.724-.878-6.97-3.562,6.294,7.459c-.23.226-.474.444-.727.658s-.507.416-.771.6l-6.216-7.373,2.37,7.335.6,1.845a14.378,14.378,0,0,1-1.861.6l-.6-1.847-2.4-7.444-.662,7.8-.176,1.931a14.8,14.8,0,0,1-1.95-.165l.814-9.6-3.511,6.859-.878,1.726a13.953,13.953,0,0,1-1.743-.892l.878-1.724,3.564-6.968-7.459,6.292c-.228-.23-.446-.474-.658-.727s-.418-.507-.606-.771l7.373-6.216-7.333,2.372-1.845.593a13.861,13.861,0,0,1-.6-1.861l1.849-.6,7.444-2.409-7.795-.662-1.931-.163a15.144,15.144,0,0,1,.165-1.95l1.931.163,7.679.653-6.859-3.511-1.733-.878a13.631,13.631,0,0,1,.894-1.745l1.729.878,6.962,3.562-6.292-7.459c.228-.228.472-.444.725-.658s.508-.418.771-.606l6.218,7.373Z" transform="translate(-904.407 -664.838)" fill="#9ed9db"/><path d="M1128.916,839.236a12.726,12.726,0,1,1,1.52-17.933A12.726,12.726,0,0,1,1128.916,839.236Z" transform="translate(-913.471 -673.91)" fill="#8dc2c4"/><path d="M1131.822,842.048a12.01,12.01,0,1,1,1.436-16.924,12.01,12.01,0,0,1-1.436,16.924Z" transform="translate(-916.839 -677.27)" fill="#9ed9db"/><path d="M1143.719,856.035l2.147.588-.748,2.726-2.051-.562a11.786,11.786,0,0,1-2.716,4.6l-2.923-2.38a9.656,9.656,0,0,0,2.458-4.129c.351-1.3.213-1.834-.253-1.961-1.7-.467-2.38,7.394-7.428,6.011-2.186-.6-3.588-2.69-3.16-5.983l-2.107-.578.748-2.726,2.07.567a10.448,10.448,0,0,1,2.2-3.618l2.93,2.282a8.683,8.683,0,0,0-2.04,3.5c-.365,1.334-.095,1.866.369,1.994,1.626.444,2.323-7.41,7.314-6.043,2.087.572,3.492,2.579,3.193,5.719Z" transform="translate(-929.099 -700.135)" fill="#8dc2c4"/><path d="M1010.806,891.084c.288.162.567.33.836.511a14.508,14.508,0,0,1,2.83,2.416,14.1,14.1,0,0,1,1.213,1.534,14.715,14.715,0,0,1,2.561,9.032,13.58,13.58,0,0,1-.228,1.945,14.354,14.354,0,0,1-1.2,3.664c-.135.293-.288.581-.449.869s-.332.569-.513.836a14.452,14.452,0,0,1-2.416,2.83,13.686,13.686,0,0,1-1.534,1.213,14.6,14.6,0,0,1-3.437,1.745,15.042,15.042,0,0,1-1.885.527,14.714,14.714,0,0,1-3.708.291,13.828,13.828,0,0,1-1.947-.227,14.307,14.307,0,0,1-3.662-1.2c-.293-.135-.581-.288-.878-.451s-.567-.33-.836-.511a14.441,14.441,0,0,1-2.83-2.417,14.081,14.081,0,0,1-1.213-1.533,14.671,14.671,0,0,1-1.743-3.439,15.047,15.047,0,0,1-.527-1.885,14.8,14.8,0,0,1-.291-3.708,13.807,13.807,0,0,1,.228-1.945,14.3,14.3,0,0,1,1.2-3.664c.135-.293.288-.581.451-.878s.33-.567.511-.836a14.493,14.493,0,0,1,2.416-2.83,14.068,14.068,0,0,1,1.534-1.213,14.744,14.744,0,0,1,9.031-2.561,13.834,13.834,0,0,1,1.947.228,14.313,14.313,0,0,1,3.662,1.2c.293.135.583.288.878.451Z" transform="translate(-815.322 -733.65)" fill="#bcf0f2"/><path d="M1006.958,900.143l6.044-4.777,1.524-1.2a14.122,14.122,0,0,1,1.213,1.534l-1.524,1.2-6.144,4.854,9.411-2.626a14.756,14.756,0,0,1,.527,1.886l-1.868.527-7.421,2.07,7.652.893,1.931.225a13.58,13.58,0,0,1-.228,1.945l-1.922-.225-7.774-.908,8.5,4.8c-.135.293-.288.581-.449.869s-.332.569-.513.836l-8.4-4.74,4.777,6.046,1.2,1.522a13.688,13.688,0,0,1-1.534,1.213l-1.206-1.519-4.852-6.145,2.107,7.538.527,1.868a15.041,15.041,0,0,1-1.885.527l-.527-1.864-2.068-7.424-.894,7.652-.223,1.931a13.872,13.872,0,0,1-1.947-.227l.226-1.931.906-7.775-4.795,8.5c-.293-.135-.581-.288-.878-.451s-.567-.33-.836-.511l4.74-8.4-6.05,4.791-1.522,1.2a14.1,14.1,0,0,1-1.213-1.533l1.52-1.208,6.144-4.849-7.538,2.107-1.864.516a15.041,15.041,0,0,1-.527-1.885l9.287-2.588-7.665-.9L989,903.278a13.812,13.812,0,0,1,.228-1.945l1.931.225,7.777.906-8.5-4.795c.135-.293.288-.581.451-.878s.33-.567.511-.836l8.4,4.74-4.78-6.046-1.2-1.522a14.1,14.1,0,0,1,1.534-1.213l1.2,1.524,4.854,6.144-2.107-7.536-.527-1.868a14.735,14.735,0,0,1,1.885-.527l.527,1.866,2.068,7.424.894-7.651.225-1.931a13.854,13.854,0,0,1,1.947.228l-.223,1.931-.909,7.768,4.794-8.5c.293.135.583.288.878.451s.567.33.836.511l-4.74,8.4Z" transform="translate(-815.375 -733.795)" fill="#9ed9db"/><path d="M1006.457,924.082a12.726,12.726,0,1,1,17.336-4.831,12.726,12.726,0,0,1-17.336,4.831Z" transform="translate(-824.429 -742.788)" fill="#8dc2c4"/><path d="M1010.158,926.809a12.01,12.01,0,1,1,16.36-4.565A12.01,12.01,0,0,1,1010.158,926.809Z" transform="translate(-827.778 -746.141)" fill="#9ed9db"/><path d="M1045.061,934.994l.2,2.217-2.818.251-.188-2.117a11.868,11.868,0,0,1-5.267-.941l1.211-3.573a9.631,9.631,0,0,0,4.736.866c1.34-.119,1.794-.442,1.756-.922-.156-1.756-7.76.351-8.225-4.865-.2-2.258,1.267-4.3,4.5-5.053l-.195-2.177,2.809-.251.189,2.138a10.352,10.352,0,0,1,4.159.8l-1.115,3.543a8.794,8.794,0,0,0-3.987-.7c-1.378.123-1.782.562-1.74,1.041.149,1.678,7.756-.409,8.214,4.74.193,2.158-1.2,4.175-4.247,4.989Z" transform="translate(-854.494 -757.76)" fill="#8dc2c4"/><path d="M2495.639,1561.44a18.108,18.108,0,0,0-17.405,13.121l34.812,0A18.108,18.108,0,0,0,2495.639,1561.44Z" transform="translate(-2043.166 -1288.38)" fill="#3c3f57"/><path d="M2766.128,1561.44a18.106,18.106,0,0,0-17.406,13.122h34.809a18.107,18.107,0,0,0-17.406-13.123Z" transform="translate(-2266.169 -1288.38)" fill="#3c3f57"/><path d="M2602.246,1529.42a25.864,25.864,0,0,0-24.862,18.741l49.724,0A25.862,25.862,0,0,0,2602.246,1529.42Z" transform="translate(-2124.91 -1261.981)" fill="#3c3f57"/><path d="M675.159,1665.52a17.578,17.578,0,0,0-16.9,12.739h33.8A17.578,17.578,0,0,0,675.159,1665.52Z" transform="translate(-542.699 -1374.188)" fill="#a8e3e6"/><path d="M937.751,1665.52a17.58,17.58,0,0,0-16.9,12.737h33.8A17.576,17.576,0,0,0,937.751,1665.52Z" transform="translate(-759.192 -1374.188)" fill="#a8e3e6"/><path d="M778.655,1634.43a25.1,25.1,0,0,0-24.135,18.2H802.8A25.1,25.1,0,0,0,778.655,1634.43Z" transform="translate(-622.06 -1348.556)" fill="#a8e3e6"/><path d="M1468.76,1091.962a2.932,2.932,0,0,1,5.864,0,2.932,2.932,0,0,1-5.864,0Z" transform="translate(-1210.911 -898.483)" fill="#fff"/><path d="M2795.23,1039.1a15.39,15.39,0,0,0,1.9-10.823c-1.15-6.422,4.166-8.125,6.229-5.7S2805.311,1031.9,2795.23,1039.1Z" transform="translate(-2304.512 -842.817)" fill="#adb1cc"/><path d="M2726.762,1052.537a15.393,15.393,0,0,0-5.442-9.55c-4.986-4.214-1.974-8.915,1.166-8.358s7.442,5.93,4.273,17.907Z" transform="translate(-2241.391 -853.587)" fill="#adb1cc"/><path d="M2767.234,1138.119a15.414,15.414,0,0,1,9.02,6.276c3.753,5.34,8.7,2.769,8.427-.407s-5.235-7.946-17.45-5.869Z" transform="translate(-2281.427 -938.571)" fill="#adb1cc"/><path d="M2717.694,1179.269a15.394,15.394,0,0,1,9.021,6.276c3.747,5.34,8.7,2.769,8.427-.407s-5.237-7.946-17.453-5.869Z" transform="translate(-2240.584 -972.52)" fill="#adb1cc"/><path d="M2682.864,1227.619a15.418,15.418,0,0,1,9.02,6.276c3.753,5.34,8.7,2.769,8.427-.407s-5.235-7.946-17.45-5.869Z" transform="translate(-2211.869 -1012.409)" fill="#adb1cc"/><path d="M2642.334,1289.338a15.415,15.415,0,0,1,9.02,6.276c3.753,5.34,8.7,2.77,8.427-.407s-5.237-7.946-17.45-5.869Z" transform="translate(-2178.455 -1063.327)" fill="#adb1cc"/><path d="M2680.212,1097.057a15.391,15.391,0,0,0-5.442-9.55c-4.986-4.213-1.973-8.915,1.165-8.358s7.442,5.93,4.273,17.907Z" transform="translate(-2203.013 -890.317)" fill="#adb1cc"/><path d="M2638.989,1149.547a15.387,15.387,0,0,0-5.442-9.548c-4.986-4.212-1.975-8.917,1.164-8.36s7.441,5.93,4.273,17.907Z" transform="translate(-2169.027 -933.622)" fill="#adb1cc"/><path d="M2602.522,1205.687a15.386,15.386,0,0,0-5.442-9.55c-4.986-4.212-1.973-8.915,1.166-8.358s7.442,5.93,4.273,17.907Z" transform="translate(-2138.962 -979.939)" fill="#adb1cc"/><path d="M2537.056,1186.512a.551.551,0,0,0,.6-.449,159.73,159.73,0,0,1,9.531-29.876c6.406-14.982,17.964-35.462,36.659-47.951a.555.555,0,1,0-.616-.922c-18.927,12.64-30.606,33.333-37.073,48.453a160.7,160.7,0,0,0-9.591,30.085.555.555,0,0,0,.442.646h.048Z" transform="translate(-2091.25 -913.658)" fill="#adb1cc"/><path d="M1506.47,3204.057l12.117,6.322,18.411-6.9,5.521,3.991,19.086-7.437,15.31,8.579,9.206-6.585,12.789,10.451,16.12-14.592,15.1,11.085,9.411-4.841h20.622l16.322-14.051-.8-.936-15.975,13.753h-20.465l-9,4.628-15.293-11.229-16.081,14.556-12.7-10.375-9.336,6.676-15.135-8.481-19,7.4-5.513-3.985-18.514,6.943-11.629-6.067-.571,1.093Z" transform="translate(-1417.8 -2968.985)" fill="#8987a8"/><path d="M564.74,1367.224a1.636,1.636,0,1,1,.479,1.158A1.636,1.636,0,0,1,564.74,1367.224Z" transform="translate(-465.597 -1126.638)" fill="#3c3f57"/><path d="M671.3,1328.756a1.636,1.636,0,1,1,1.636,1.636A1.636,1.636,0,0,1,671.3,1328.756Z" transform="translate(-553.45 -1094.9)" fill="#3c3f57"/><path d="M810.08,1310.1a1.638,1.638,0,1,1,1.638,1.636A1.638,1.638,0,0,1,810.08,1310.1Z" transform="translate(-667.866 -1079.506)" fill="#3c3f57"/><path d="M895.2,1356.726a1.636,1.636,0,1,1,1.636,1.636A1.636,1.636,0,0,1,895.2,1356.726Z" transform="translate(-738.043 -1117.976)" fill="#3c3f57"/><path d="M1023,1379.028a1.638,1.638,0,1,1,1.636,1.638A1.638,1.638,0,0,1,1023,1379.028Z" transform="translate(-843.407 -1136.373)" fill="#3c3f57"/><path d="M949.69,1319.436a1.636,1.636,0,1,1,1.636,1.636A1.636,1.636,0,0,1,949.69,1319.436Z" transform="translate(-782.967 -1087.212)" fill="#3c3f57"/><path d="M1113.79,1298.3a1.638,1.638,0,1,1,1.638,1.636A1.638,1.638,0,0,1,1113.79,1298.3Z" transform="translate(-918.258 -1069.772)" fill="#3c3f57"/><path d="M1200.6,1358.606a1.636,1.636,0,1,1,1.636,1.636,1.636,1.636,0,0,1-1.636-1.636Z" transform="translate(-989.828 -1119.527)" fill="#3c3f57"/><path d="M1253.48,1333.768a1.638,1.638,0,1,1,1.638,1.638A1.638,1.638,0,0,1,1253.48,1333.768Z" transform="translate(-1033.425 -1099.034)" fill="#3c3f57"/><path d="M1369.87,1332.59a1.638,1.638,0,1,1,1.638,1.636A1.638,1.638,0,0,1,1369.87,1332.59Z" transform="translate(-1129.382 -1098.06)" fill="#3c3f57"/><path d="M1461.9,1253.416a1.636,1.636,0,1,1,1.636,1.636,1.636,1.636,0,0,1-1.636-1.636Z" transform="translate(-1205.256 -1032.746)" fill="#3c3f57"/><path d="M700.93,1351.626a1.636,1.636,0,1,1,1.636,1.636A1.636,1.636,0,0,1,700.93,1351.626Z" transform="translate(-577.878 -1113.768)" fill="#3c3f57"/><path d="M1508.11,3323.13l20.607,4.821,28.479-9.587,16.623,23.781,9.575-18.639,13.483,11.555h21.672l17.117-13.115,10.709,15.907,19.815-14.731,12.882-1.451-.137-1.227-13.214,1.49-19.044,14.157-10.719-15.923-17.826,13.658h-20.8l-14.322-12.275-9.354,18.207-15.979-22.859-29.023,9.77-20.264-4.742-.281,1.2Z" transform="translate(-1419.153 -3074.395)" fill="#ff9591"/><path d="M614.6,1436.86a1.638,1.638,0,1,1,1.638,1.636A1.638,1.638,0,0,1,614.6,1436.86Z" transform="translate(-506.704 -1184.082)" fill="#ff6b66"/><path d="M870.86,1515.5a1.638,1.638,0,1,1,1.638,1.636A1.638,1.638,0,0,1,870.86,1515.5Z" transform="translate(-717.976 -1249.153)" fill="#ff6b66"/><path d="M924.92,1411.51a1.638,1.638,0,1,1,1.636,1.636A1.638,1.638,0,0,1,924.92,1411.51Z" transform="translate(-762.545 -1163.169)" fill="#ff6b66"/><path d="M778.41,1382.686a1.636,1.636,0,1,1,1.636,1.636A1.636,1.636,0,0,1,778.41,1382.686Z" transform="translate(-641.756 -1139.392)" fill="#ff6b66"/><path d="M1004.33,1478.456a1.636,1.636,0,1,1,1.636,1.636A1.636,1.636,0,0,1,1004.33,1478.456Z" transform="translate(-828.014 -1218.402)" fill="#ff6b66"/><path d="M1124.92,1478.456a1.636,1.636,0,1,1,1.636,1.636A1.636,1.636,0,0,1,1124.92,1478.456Z" transform="translate(-927.434 -1218.402)" fill="#ff6b66"/><path d="M1224.72,1402.207a1.636,1.636,0,1,1,1.636,1.636A1.636,1.636,0,0,1,1224.72,1402.207Z" transform="translate(-1009.714 -1155.496)" fill="#ff6b66"/><path d="M1285.71,1492.646a1.636,1.636,0,1,1,1.636,1.636A1.636,1.636,0,0,1,1285.71,1492.646Z" transform="translate(-1059.996 -1230.109)" fill="#ff6b66"/><path d="M1396.52,1411.526a1.636,1.636,0,1,1,1.636,1.636A1.636,1.636,0,0,1,1396.52,1411.526Z" transform="translate(-1151.353 -1163.185)" fill="#ff6b66"/><path d="M1470.84,1402.207a1.636,1.636,0,1,1,1.636,1.636A1.636,1.636,0,0,1,1470.84,1402.207Z" transform="translate(-1212.626 -1155.496)" fill="#ff6b66"/><path d="M1410.739,393.953a55.83,55.83,0,0,1,6.562-.444V343.92a105.9,105.9,0,0,0-12.849.853A104.428,104.428,0,0,0,1335.81,383.4l39.435,30.09a54.978,54.978,0,0,1,35.5-19.539Z" transform="translate(-1101.301 -283.817)" fill="#3b3e54"/><path d="M1807.433,1144.31a55.714,55.714,0,0,1-7.433.446v49.589a105.95,105.95,0,0,0,13.721-.855,104.474,104.474,0,0,0,71.32-42.133l-39.433-30.087a55.037,55.037,0,0,1-38.174,23.042Z" transform="translate(-1484 -925.242)" fill="#ffa9a6"/><path d="M1303.846,598.91l-39.435-30.09a105.134,105.134,0,0,0-15.2,25.982l46.263,17.891a55.451,55.451,0,0,1,8.374-13.79Z" transform="translate(-1029.904 -469.354)" fill="#2d6b87"/><path d="M1267.36,790.6a55.23,55.23,0,0,1-7.747-55.853L1213.35,716.86a104.778,104.778,0,0,0,96.694,144.071V811.342A55.2,55.2,0,0,1,1267.36,790.6Z" transform="translate(-994.045 -591.737)" fill="#a8e3e6"/><g transform="translate(211.67 125.122)" clip-path="url(#c)"><path d="M2230.463,2752.393h-2.033v-198.9h2.033v198.9Z" transform="translate(-2224.686 -2570.003)" fill="#82c8cc"/><path d="M2271.843,2752.393h-2.033v-198.9h2.033v198.9Z" transform="translate(-2258.802 -2570.003)" fill="#82c8cc"/><path d="M2313.223,2752.393h-2.033v-198.9h2.033v198.9Z" transform="translate(-2292.917 -2570.003)" fill="#82c8cc"/><path d="M2354.6,2752.393h-2.033v-198.9h2.033v198.9Z" transform="translate(-2327.033 -2570.003)" fill="#82c8cc"/><path d="M2395.983,2752.393h-2.033v-198.9h2.033v198.9Z" transform="translate(-2361.148 -2570.003)" fill="#82c8cc"/><path d="M2437.363,2752.393h-2.033v-198.9h2.033v198.9Z" transform="translate(-2395.264 -2570.003)" fill="#82c8cc"/><path d="M2478.743,2752.393h-2.033v-198.9h2.033v198.9Z" transform="translate(-2429.379 -2570.003)" fill="#82c8cc"/><path d="M2520.123,2752.393h-2.033v-198.9h2.033v198.9Z" transform="translate(-2463.495 -2570.003)" fill="#82c8cc"/><path d="M2561.5,2752.393h-2.033v-198.9h2.033v198.9Z" transform="translate(-2497.61 -2570.003)" fill="#82c8cc"/><path d="M2602.883,2752.393h-2.033v-198.9h2.033v198.9Z" transform="translate(-2531.726 -2570.003)" fill="#82c8cc"/><path d="M2644.263,2752.393h-2.033v-198.9h2.033v198.9Z" transform="translate(-2565.841 -2570.003)" fill="#82c8cc"/><path d="M2685.643,2752.393h-2.033v-198.9h2.033v198.9Z" transform="translate(-2599.957 -2570.003)" fill="#82c8cc"/><path d="M2727.023,2752.393h-2.033v-198.9h2.033v198.9Z" transform="translate(-2634.072 -2570.003)" fill="#82c8cc"/><path d="M2768.4,2752.393h-2.033v-198.9h2.033v198.9Z" transform="translate(-2668.188 -2570.003)" fill="#82c8cc"/></g><path d="M1438.329,997.192s.084-5.793-1.043-6.715-1.828,4.575-.072,7.6l1.115-.878Z" transform="translate(-1184.026 -817.096)" fill="#fff"/><path d="M1303.57,1046.049l2.953-3.558c.023,0,.046.024.067.033,16.553,8.558,20.991-1.125,20.28-15.9,1.013.014,2.014.055,2.967.047,1.931,17.671-5.969,25.84-23.547,20.5A7.4,7.4,0,0,1,1303.57,1046.049Z" transform="translate(-1074.721 -847.025)" fill="#292b3b"/><path d="M1300.638,1044.976s2.512.769,2.04,2.36-2.9-.918-2.9-.918S1299.5,1044.432,1300.638,1044.976Z" transform="translate(-1071.572 -862.056)" fill="#1a1c2e"/><path d="M1382.132,1602.295a1.067,1.067,0,0,1-1.5-.7l-1.877-7.458a1.071,1.071,0,0,1,2.075-.527l1.877,7.458A1.071,1.071,0,0,1,1382.132,1602.295Z" transform="translate(-1136.679 -1314.235)" fill="#fff"/><path d="M1308.292,1325.551a33.927,33.927,0,0,1-3.063,1.61c-6.8-20.263-10.182-42.037-16.869-61.232,2.9-.941,5.82-1.828,8.746-2.679C1302.787,1283.825,1299.978,1302.167,1308.292,1325.551Z" transform="translate(-1062.181 -1042.539)" fill="#ff9f9c"/><path d="M1385.389,1641.4s-.662,2.749,0,2.826,10.182.365,10.247-.077c.189-1.51-7.6-2.9-8.364-2.749S1385.475,1641,1385.389,1641.4Z" transform="translate(-1141.933 -1354.182)" fill="#1a1c2e"/><path d="M1213.154,1602.3a1.118,1.118,0,0,0,.2.074,1.069,1.069,0,0,0,1.3-.776l1.877-7.458a1.07,1.07,0,0,0-2.073-.527l-1.877,7.458A1.069,1.069,0,0,0,1213.154,1602.3Z" transform="translate(-999.679 -1314.239)" fill="#fff"/><path d="M1212.22,1325.551a34.184,34.184,0,0,0,3.062,1.61c6.8-20.263,10.182-42.037,16.869-61.232-2.9-.941-5.819-1.828-8.744-2.679C1217.725,1283.825,1220.532,1302.167,1212.22,1325.551Z" transform="translate(-999.408 -1042.539)" fill="#ff9f9c"/><path d="M1179.211,1641.4s.662,2.749,0,2.826-10.182.365-10.247-.077c-.191-1.51,7.6-2.9,8.362-2.749S1179.123,1641,1179.211,1641.4Z" transform="translate(-963.743 -1354.182)" fill="#1a1c2e"/><path d="M1262.042,1144.923c2.612-.158,6.847-1.668,9.5-1.131a6.659,6.659,0,0,0,.662.107v-5.658l.735,5.727a16.784,16.784,0,0,0,4.752-.286c-1.436-7.912-3.91-22.065-4.312-29.669-.158-3.048-1.159-4.665-2.24-5.5a4.164,4.164,0,0,0-.792-.474,5.325,5.325,0,0,0-5.044-.221,5.177,5.177,0,0,0-2.458,3.511,11.458,11.458,0,0,0-.1,3.964,177.666,177.666,0,0,1-.7,29.641Z" transform="translate(-1040.482 -913.611)" fill="#292b3b"/><path d="M1286.472,1108.472l-.155,5.133-.19,6.445-2.679-5.992-2.809-6.285a5.334,5.334,0,0,1,5.044.219,4.036,4.036,0,0,1,.793.479Z" transform="translate(-1055.816 -913.519)" fill="#fff"/><path d="M1277.525,1051.145c1.755,2.712,5.091,3.687,6.74,2.6s1.025-3.8-.739-6.506-4-3.218-5.661-2.14S1275.757,1048.438,1277.525,1051.145Z" transform="translate(-1052.315 -861.815)" fill="#fff"/><path d="M1285.07,1077.87l3.381-.33a54.011,54.011,0,0,1,.228,6.534c-.125.511-.967.746-1.882.527-.823-.2-1.42-.7-1.443-1.171h0a44.574,44.574,0,0,0-.279-5.556Z" transform="translate(-1059.469 -889.007)" fill="#fff"/><path d="M1291.379,1076.624c.5-.539.967-.053,2.167.62s3.344.5,3.494-2.307c.063-1.189.527-.3.835.435a3.684,3.684,0,0,1,.309,1.7,2.457,2.457,0,0,1-1.218,2,4.882,4.882,0,0,1-4.349.147,2.136,2.136,0,0,1-1.42-2.054.849.849,0,0,1,.175-.537Z" transform="translate(-1064.517 -886.377)" fill="#1a1c2e"/><path d="M1307.66,1077.057l-.114.061c-.592.32-3.271,1.824-3.542,2.932-.306,1.246,1.441-.481,1.97-1.28s1.167-.692,1.741-.86S1308.55,1077.032,1307.66,1077.057Z" transform="translate(-1075.049 -888.601)" fill="#1a1c2e"/><path d="M1273.43,1047.041a5.215,5.215,0,0,1,.4-3.62c.952-1.513,3.639-3.107,5.769-1.073,0,0,1.382,1.58-.671,3.088s-2.3.123-2.781,1.808-1.894,1.4-1.958,1.775Z" transform="translate(-1049.739 -859.18)" fill="#1a1c2e"/><path d="M2300.9,3057.958l-.189,6.445-2.679-5.992.105-3.912h1.181l1.582,3.459Z" transform="translate(-2070.398 -2857.876)" fill="#ffb0ad"/><path d="M1277.143,1083.363c.411.63,1.563,1.031,2.019.734s.239-.878-.176-1.515-1.166-.981-1.622-.683a.971.971,0,0,0-.225,1.464Z" transform="translate(-1052.741 -892.504)" fill="#fff"/><path d="M1245.62,1291.655s3.964,4.213,5.418,4.1-1.866-4.564-5.231-5.516Z" transform="translate(-1026.944 -1064.48)" fill="#fff"/><path d="M1197.215,1151.993c.683-.667,1.432-1.329,2.168-2.028-10.783-10.126-14.325-20.175,3.522-25.529,2.73-.82,2.825-1.5,1.5-3.362h0c-1.327-1.861-2.014-1.464-4.512-.176-16.341,8.374-16.351,19.748-2.675,31.1Z" transform="translate(-978.842 -923.926)" fill="#292b3b"/><path d="M3153.64,3086.423l22.068-66.153,29.447,9.824-22.069,66.153-29.446-9.825Z" transform="translate(-2775.801 -2829.794)" fill="#addfe0"/><path d="M3183.772,3029.11l27.12,9.048-21.291,63.823-27.12-9.047,21.291-63.825Z" transform="translate(-2783.089 -2837.079)" fill="#d0f1f2"/><path d="M2180.954,1176.893l18.488,6.167a2.709,2.709,0,0,1,3.427-1.712l18.413-55.195a2.709,2.709,0,0,1-1.712-3.427l-18.489-6.167a2.707,2.707,0,0,1-3.425,1.712l-18.414,55.195A2.708,2.708,0,0,1,2180.954,1176.893Z" transform="translate(-1796.662 -921.336)" fill="#90d2d4"/><path d="M2228.993,1248.109a12.187,12.187,0,0,1-5.69-4.008,16.889,16.889,0,0,1,8.639-25.921,12.071,12.071,0,0,1,12.64,4.214,16.9,16.9,0,0,1-8.648,25.92,12.172,12.172,0,0,1-6.955-.21Z" transform="translate(-1830.354 -1004.745)" fill="#d0f1f2"/><path d="M2241.591,1400.772a4.11,4.11,0,1,1-5.2,2.6A4.11,4.11,0,0,1,2241.591,1400.772Z" transform="translate(-1843.606 -1155.499)" fill="#addfe0"/><path d="M2322.071,1159.537a4.11,4.11,0,1,1-5.2,2.6A4.11,4.11,0,0,1,2322.071,1159.537Z" transform="translate(-1909.958 -956.481)" fill="#addfe0"/><path d="M2248.107,1265.682l-2.107-.7.878-2.689,2.017.672a11.785,11.785,0,0,1,2.961-4.443l2.79,2.537a9.617,9.617,0,0,0-2.682,3.989c-.425,1.275-.313,1.819.146,1.971,1.673.558,2.779-7.254,7.744-5.6,2.149.718,3.436,2.881,2.833,6.145l2.073.692-.9,2.682-2.035-.679a10.478,10.478,0,0,1-2.393,3.494l-2.809-2.435a8.661,8.661,0,0,0,2.228-3.379c.437-1.313.2-1.859-.26-2.01-1.6-.527-2.723,7.273-7.631,5.635-2.054-.685-3.348-2.767-2.877-5.886Z" transform="translate(-1851.702 -1038.332)" fill="#90d2d4"/><path d="M3193.96,3462.549l67.874-16.009,7.127,30.213-67.875,16.009-7.125-30.213Z" transform="translate(-2809.042 -3181.485)" fill="#addfe0"/><path d="M3267.856,3454.94l6.563,27.826-65.486,15.445-6.562-27.825,65.486-15.446Z" transform="translate(-2815.976 -3188.41)" fill="#d0f1f2"/><path d="M2217.13,1556.975l4.475,18.97a2.707,2.707,0,0,1,3.257,2.014l56.63-13.356a2.709,2.709,0,0,1,2.016-3.258l-4.475-18.97a2.709,2.709,0,0,1-3.259-2.014l-56.631,13.356A2.709,2.709,0,0,1,2217.13,1556.975Z" transform="translate(-1827.9 -1271.001)" fill="#90d2d4"/><path d="M2317.819,1586.595a12.184,12.184,0,0,1,.418-6.946,16.9,16.9,0,0,1,26.6-6.273,12.071,12.071,0,0,1,3.06,12.974,16.9,16.9,0,0,1-26.6,6.273A12.184,12.184,0,0,1,2317.819,1586.595Z" transform="translate(-1910.65 -1294.828)" fill="#d0f1f2"/><path d="M2269.781,1655.8a4.11,4.11,0,1,1-4.944-3.057,4.11,4.11,0,0,1,4.944,3.057Z" transform="translate(-1864.621 -1363.56)" fill="#addfe0"/><path d="M2517.286,1597.417a4.112,4.112,0,1,1-4.944-3.057A4.111,4.111,0,0,1,2517.286,1597.417Z" transform="translate(-2068.673 -1315.429)" fill="#addfe0"/><path d="M2373.3,1595.884l-.511-2.167,2.751-.648.488,2.068a11.929,11.929,0,0,1,5.339.175l-.692,3.708a9.636,9.636,0,0,0-4.8-.186c-1.308.309-1.712.7-1.6,1.16.406,1.719,7.631-1.448,8.834,3.645.526,2.207-.645,4.438-3.74,5.642l.5,2.128-2.751.648-.493-2.087a10.492,10.492,0,0,1-4.229-.2l.6-3.664a8.63,8.63,0,0,0,4.037.117c1.346-.318,1.686-.809,1.58-1.278-.388-1.64-7.619,1.508-8.806-3.529-.5-2.107.592-4.3,3.494-5.542Z" transform="translate(-1953.675 -1314.457)" fill="#90d2d4"/><path d="M1581.88,1283.422a2.932,2.932,0,1,1,5.864,0,2.932,2.932,0,0,1-5.864,0Z" transform="translate(-1304.172 -1056.437)" fill="#fff"/><path d="M1455.53,1302.444a5.254,5.254,0,1,1,10.509,0,5.254,5.254,0,1,1-10.509,0Z" transform="translate(-1200.004 -1070.225)" fill="#fff"/><path d="M2917.074,987.374a5.253,5.253,0,1,1,10.505,0,5.255,5.255,0,1,1-10.509,0Z" transform="translate(-2404.962 -810.291)" fill="#fff"/><path d="M1452.042,316.947V279.992a.869.869,0,0,0-1.736,0v36.954a.869.869,0,1,0,1.736,0" transform="translate(-1195.696 -230.192)" fill="#373c54"/><path d="M1451.784,334.844l6.12-6.12a.869.869,0,0,0-1.229-1.229l-6.12,6.12a.869.869,0,0,0,1.229,1.229" transform="translate(-1195.692 -269.83)" fill="#373c54"/><path d="M1422,369.509l-6.343-6.345a.869.869,0,1,0-1.229,1.229l6.345,6.343a.869.869,0,0,0,1.229-1.229" transform="translate(-1165.905 -299.439)" fill="#373c54"/><path d="M1455.25,230.16v18.865s3.936-4.224,3.936-9.433S1455.25,230.16,1455.25,230.16Z" transform="translate(-1199.773 -189.793)" fill="#007e80"/><path d="M1432.84,239.593c0,5.209,3.934,9.433,3.934,9.433V230.16S1432.84,234.384,1432.84,239.593Z" transform="translate(-1181.297 -189.793)" fill="#009095"/><path d="M1494.839,247.13,1477.67,264.3s7.426-.262,12.166-5,5-12.166,5-12.166Z" transform="translate(-1218.257 -203.784)" fill="#007e80"/><path d="M1482.673,252.133c-4.74,4.74-5,12.166-5,12.166l17.17-17.169S1487.415,247.392,1482.673,252.133Z" transform="translate(-1218.257 -203.784)" fill="#009095"/><path d="M1333.79,282.5,1314,262.7s.3,8.562,5.769,14.029S1333.8,282.5,1333.8,282.5Z" transform="translate(-1083.32 -216.62)" fill="#007e80"/><path d="M1328.022,268.469C1322.555,263,1314,262.7,1314,262.7l19.8,19.8s-.3-8.562-5.769-14.029Z" transform="translate(-1083.32 -216.62)" fill="#009095"/><path d="M1451.759,416.637l3.028-3.034a.869.869,0,1,0-1.229-1.229l-3.034,3.035a.869.869,0,0,0,1.229,1.229" transform="translate(-1195.667 -340.035)" fill="#373c54"/><path d="M2385.5,93.494l7.488,6.55a5.381,5.381,0,1,0,6.276-8.737l-10.3-6.913a3.347,3.347,0,0,0-4.74,1.064,6.355,6.355,0,0,0,1.274,8.037Z" transform="translate(-1964.927 -69.148)" fill="#fff"/><path d="M2433.745,137.927l10.038,11.671a4.389,4.389,0,0,0,6.185.465l1.776-1.527a4.388,4.388,0,0,0,.465-6.185l-10.038-11.671a4.389,4.389,0,0,0-6.185-.465l-1.777,1.527A4.389,4.389,0,0,0,2433.745,137.927Z" transform="translate(-2005.614 -106.52)" fill="#fff"/><path d="M2495.055,210.8l15.815,22.576a4.827,4.827,0,0,0,6.723,1.185l1.2-.837a4.825,4.825,0,0,0,1.185-6.722l-15.823-22.578a4.828,4.828,0,0,0-6.722-1.183l-1.2.837a4.828,4.828,0,0,0-1.183,6.722Z" transform="translate(-2056.308 -166.877)" fill="#fff"/><path d="M2232.554,259.419l14.364-7.2a5.765,5.765,0,0,0,2.572-7.74l-.527-1.038a5.768,5.768,0,0,0-7.742-2.572l-14.364,7.2a5.767,5.767,0,0,0-2.57,7.742l.527,1.036A5.765,5.765,0,0,0,2232.554,259.419Z" transform="translate(-1833.296 -198.119)" fill="#fff"/><path d="M2187.84,314.613l6.645-9.218a6.144,6.144,0,0,0-10.611-6.2l-6.757,12.452a3.824,3.824,0,0,0,1.72,5.277A7.256,7.256,0,0,0,2187.84,314.613Z" transform="translate(-1794.531 -244.369)" fill="#fff"/><path d="M2326.544,240.752l30.39,6.023a5.768,5.768,0,0,0,6.78-4.536l.227-1.138a5.771,5.771,0,0,0-4.538-6.78l-30.39-6.023a5.768,5.768,0,0,0-6.78,4.536l-.225,1.138A5.769,5.769,0,0,0,2326.544,240.752Z" transform="translate(-1914.275 -188.166)" fill="#fff"/><path d="M2243.649,181.812l15.049-1.417a5.426,5.426,0,0,0,4.895-5.909l-.1-1.087a5.424,5.424,0,0,0-5.909-4.893l-15.049,1.415a5.427,5.427,0,0,0-4.895,5.911l.1,1.087A5.425,5.425,0,0,0,2243.649,181.812Z" transform="translate(-1844.787 -138.943)" fill="#fff"/><path d="M2179.157,202.646l8.967-5.818a5.783,5.783,0,1,0-7.2-9.052l-10.167,8.613a3.6,3.6,0,0,0-.292,5.214,6.829,6.829,0,0,0,8.681,1.043Z" transform="translate(-1788.621 -153.813)" fill="#fff"/><path d="M2342.112,174.845l24.6,15.642a5.426,5.426,0,0,0,7.491-1.666l.585-.92a5.426,5.426,0,0,0-1.666-7.491l-24.59-15.642a5.428,5.428,0,0,0-7.49,1.666l-.585.92a5.427,5.427,0,0,0,1.667,7.491Z" transform="translate(-1928.876 -135.182)" fill="#fff"/><path d="M3753.515,2180.01l16.988,31.876-74.349,30.855-16.193-34.11,73.554-28.621Z" transform="translate(-3209.723 -2136.281)" fill="#fff"/><path d="M2316.436,265.744l39.589-2.684c3.536-.971-4.061-10.79-5.234-15.063s-4.989-6.952-8.525-5.981l-30.076,8.251c-3.537.969-5.453,5.221-4.28,9.494s4.99,6.952,8.526,5.981Z" transform="translate(-1902.46 -199.404)" fill="#fff"/><g clip-path="url(#b)"><path d="M2303.445,323.236l1.664-22.985a6.334,6.334,0,0,0-5.874-6.768l-.581-.042a6.342,6.342,0,0,0-6.789,5.859l-1.664,22.985a6.333,6.333,0,0,0,5.874,6.768l.579.042a6.344,6.344,0,0,0,6.791-5.856Z" transform="translate(-1888.13 -242.11)" fill="#fff"/><path d="M3994.41,1821.023l13.681,39.28,187.312-67.648-16.53-54.224-184.463,82.593Z" transform="translate(-3468.969 -1772.119)" fill="#a8e3e6"/></g><path d="M2286.814,453.971l3.56-11.334a6.429,6.429,0,1,0-12.571-2.668l-2.618,14.583a4,4,0,0,0,3.442,4.675,7.591,7.591,0,0,0,8.179-5.254Z" transform="translate(-1875.713 -358.663)" fill="#fff"/><path d="M2013.322,386.008a104.749,104.749,0,0,0-104.352-91.485v49.589a55.163,55.163,0,0,1,45.608,86.877l39.433,30.087A104.464,104.464,0,0,0,2013.322,386.008Z" transform="translate(-1573.84 -243.176)" fill="#8987a8"/><path d="M2335.354,293.646c6.215-3.79,14.978-.114,21.3-.493,3.594-.216,4.934-5.309,5.659-7.824l-.031-.046c.992-8.883,3.627-10.695-2.457-18.609-1.024-1.327-3.057-3.918-4.138-5.367,1.029-6.545,3.032-12.531,3.676-19.267,9.743,3.422,13.425,3.471,24.274,7.921s26.781,17.3,38.894,27.524-16.811,33.226-26.888,32.522a126.787,126.787,0,0,1-18.77-2.282,65.97,65.97,0,0,1-7.407-1.736c-1.9.165-5.539.641-7.526.971-7.408,1.229-17.743-1.6-23.524-.084-4.692,1.229-8.915,2.2-10.737-1.77s4.795-9.7,7.679-11.464Z" transform="translate(-1918.787 -199.587)" fill="#fff"/><path d="M2593.625,759.354a18.519,18.519,0,0,0-1.986-13.07c-3.776-6.88,1.631-10.862,4.916-8.881s5.793,9.87-2.93,21.945Z" transform="translate(-2135.601 -607.995)" fill="#adb1cc"/><path d="M2509.8,805.452a18.515,18.515,0,0,0-9.865-8.8c-7.3-2.89-5.672-9.4-1.878-9.977s10.758,3.906,11.743,18.784Z" transform="translate(-2056.855 -649.021)" fill="#adb1cc"/><path d="M2584.3,877.892a18.527,18.527,0,0,1,12.693,3.687c6.322,4.645,10.981-.176,9.454-3.7s-9.019-7.049-22.146,0Z" transform="translate(-2130.612 -720.934)" fill="#adb1cc"/><path d="M2543.62,943.825a18.538,18.538,0,0,1,12.693,3.687c6.32,4.643,10.983-.176,9.454-3.7s-9.018-7.047-22.146,0Z" transform="translate(-2097.074 -775.328)" fill="#adb1cc"/><path d="M2522.47,1012.323a18.526,18.526,0,0,1,12.692,3.687c6.321,4.645,10.981-.176,9.454-3.7s-9.018-7.049-22.146,0Z" transform="translate(-2079.636 -831.839)" fill="#adb1cc"/><path d="M2500,1098.215a18.537,18.537,0,0,1,12.693,3.687c6.32,4.644,10.98-.175,9.454-3.7s-9.019-7.047-22.147,0Z" transform="translate(-2061.111 -902.7)" fill="#adb1cc"/><path d="M2473.82,874.072a18.514,18.514,0,0,0-9.865-8.8c-7.3-2.89-5.672-9.4-1.88-9.977s10.76,3.906,11.745,18.784Z" transform="translate(-2027.191 -705.634)" fill="#adb1cc"/><path d="M2446.994,949.733a18.514,18.514,0,0,0-9.864-8.8c-7.3-2.89-5.671-9.406-1.878-9.977s10.758,3.9,11.743,18.784Z" transform="translate(-2005.076 -768.056)" fill="#adb1cc"/><path d="M2426.954,1027.752a18.513,18.513,0,0,0-9.865-8.8c-7.3-2.89-5.671-9.4-1.879-9.977s10.758,3.9,11.743,18.784Z" transform="translate(-1988.553 -832.423)" fill="#adb1cc"/><path d="M2475.555,953.245a.667.667,0,0,0,.51-.743,192.479,192.479,0,0,1-.6-37.716c1.552-19.537,6.869-47.324,23.387-68.735a.667.667,0,0,0-1.053-.815c-16.724,21.679-22.1,49.747-23.661,69.476a193.421,193.421,0,0,0,.613,37.978.667.667,0,0,0,.753.565l.056-.011Z" transform="translate(-2039.271 -697.381)" fill="#adb1cc"/><path d="M2222.59,606.812a2.932,2.932,0,1,1,5.863,0,2.932,2.932,0,1,1-5.863,0Z" transform="translate(-1832.402 -498.237)" fill="#fff"/><path d="M2155.75,492.084a5.254,5.254,0,1,1,10.507,0,5.254,5.254,0,1,1-10.507,0Z" transform="translate(-1777.296 -401.675)" fill="#fff"/><path d="M2627.557,2521.927h-5.607V2504.85h5.607v17.076Z" transform="translate(-2337.452 -2404.421)" fill="#adb1cc"/><path d="M2635.92,2371.82V2422.3h.7V2371.82" transform="translate(-2348.969 -2294.699)" fill="#adb1cc"/><path d="M2682.567,2596.21h-5.607v-12.84h5.607v12.84Z" transform="translate(-2382.804 -2469.196)" fill="#feb2b2"/><path d="M2690.93,2471.92V2509.4h.7V2471.92" transform="translate(-2394.322 -2377.274)" fill="#feb2b2"/><path d="M2732.647,2642.159h-5.607v-14.5h5.607v14.5Z" transform="translate(-2424.093 -2505.738)" fill="#feb2b2"/><path d="M2741.01,2515.59v50.479h.7V2515.59" transform="translate(-2435.61 -2413.321)" fill="#feb2b2"/><path d="M2782.718,2645.272h-5.607V2627.66h5.607v17.612Z" transform="translate(-2465.373 -2505.742)" fill="#adb1cc"/><path d="M2791.08,2595.69v33.271h.7V2595.69" transform="translate(-2476.89 -2479.386)" fill="#adb1cc"/><path d="M2832.787,2602.716h-5.607V2588.18h5.607v14.536Z" transform="translate(-2506.652 -2473.166)" fill="#feb2b2"/><path d="M2841.15,2557.49v29.973h.7V2557.49" transform="translate(-2518.169 -2447.865)" fill="#feb2b2"/><path d="M2882.867,2566.748h-5.607V2542.16h5.607v24.588Z" transform="translate(-2547.941 -2435.211)" fill="#adb1cc"/><path d="M2891.23,2451.92V2502.4h.7V2451.92" transform="translate(-2559.458 -2360.788)" fill="#adb1cc"/><path d="M2932.937,2701.59h-5.607V2677h5.607v24.59Z" transform="translate(-2589.22 -2546.458)" fill="#feb2b2"/><path d="M2941.3,2586.76v50.479h.7V2586.76" transform="translate(-2600.739 -2472.043)" fill="#feb2b2"/><path d="M2983.008,2637.371H2977.4v-7.951h5.608v7.951Z" transform="translate(-2630.5 -2507.182)" fill="#adb1cc"/><path d="M2991.37,2586.76v25.489h.7V2586.76" transform="translate(-2642.018 -2472.008)" fill="#adb1cc"/><path d="M3033.079,2632.275h-5.61V2617.53h5.61v14.745Z" transform="translate(-2671.78 -2497.381)" fill="#adb1cc"/><path d="M3041.44,2586.76v30.2h.7v-30.2" transform="translate(-2683.298 -2472.014)" fill="#adb1cc"/><path d="M3083.157,2578.713h-5.607V2568.29h5.607v10.423Z" transform="translate(-2713.069 -2456.752)" fill="#adb1cc"/><path d="M3091.52,2477.31v31.96h.7v-31.96" transform="translate(-2724.586 -2381.716)" fill="#adb1cc"/></g></g></g></svg>