<svg xmlns="http://www.w3.org/2000/svg" width="632" height="330" viewBox="0 0 632 330"><g transform="translate(-323 -2102)"><g transform="translate(323 2102)"><rect width="632" height="330" fill="#c0e4f9"/><path d="M478.8,131.933a16.733,16.733,0,1,0-33.467,0v16.5H478.8Z" transform="translate(-8.271 -23.399)" fill="#458bdd"/><g transform="translate(437.059 94.417)"><rect width="5.633" height="30.238" fill="#c0e4f9"/></g><g transform="translate(128.302 257.323)"><path d="M492.474,325.524c0,4.907-80.978,8.833-180.877,8.833s-180.867-3.975-180.867-8.833,80.978-6.134,180.867-6.134S492.474,320.627,492.474,325.524Z" transform="translate(-130.73 -319.39)" fill="#c0e4f9"/></g><path d="M250.709,146.7H234.751a4.73,4.73,0,0,0-4.721,4.721v5.624a4.73,4.73,0,0,0,4.721,4.721h12.111l4.122,4.122v-4.171A4.74,4.74,0,0,0,255.429,157v-5.624A4.731,4.731,0,0,0,250.709,146.7Zm-13.563,9.176a1.492,1.492,0,1,1,1.492-1.492A1.492,1.492,0,0,1,237.145,155.876Zm5.584,0a1.467,1.467,0,1,1,.029,0Zm5.574,0a1.492,1.492,0,1,1,1.492-1.492A1.492,1.492,0,0,1,248.3,155.876Z" transform="translate(-4.272 -28.795)" fill="#fff"/><g transform="translate(488.437 100.035)"><path d="M503.4,142.162h-1.364a4.357,4.357,0,0,0-4.357-4.358V136.44a5.732,5.732,0,0,1,5.722,5.722Z" transform="translate(-497.68 -124.575)" fill="#fff"/><path d="M508.652,142.062h-1.364a9.628,9.628,0,0,0-9.608-9.608V131.09a10.992,10.992,0,0,1,10.972,10.972Z" transform="translate(-497.68 -124.475)" fill="#fff"/><path d="M515.267,141.937H513.9a16.243,16.243,0,0,0-16.223-16.223V124.35A17.607,17.607,0,0,1,515.267,141.937Z" transform="translate(-497.68 -124.35)" fill="#fff"/></g><g transform="translate(126.369 166.306)"><path d="M142.214,224.552H140.84a5.741,5.741,0,0,1,5.732-5.732v1.364a4.367,4.367,0,0,0-4.358,4.367Z" transform="translate(-128.984 -206.955)" fill="#fff"/><path d="M136.864,224.452H135.5a10.982,10.982,0,0,1,10.972-10.972v1.364A9.618,9.618,0,0,0,136.864,224.452Z" transform="translate(-128.885 -206.855)" fill="#fff"/><path d="M130.124,224.327H128.76a17.607,17.607,0,0,1,17.587-17.6v1.364A16.243,16.243,0,0,0,130.124,224.327Z" transform="translate(-128.76 -206.73)" fill="#fff"/></g><path d="M205.585,113.444l-12.464-7.194v4.907h-3.347a6.124,6.124,0,0,0-6.114,6.114v5.486h4.711v-5.486a1.423,1.423,0,0,1,1.4-1.413h3.347v4.73Z" transform="translate(-3.411 -20.723)" fill="#fff"/><path d="M209.691,301.453c-.383-1.148-.815-2.306-1.237-3.455-1.148-.432-2.306-.864-3.455-1.237,1.148-.373,2.306-.8,3.455-1.227.422-1.148.854-2.306,1.237-3.455.373,1.148.8,2.306,1.227,3.455,1.148.422,2.306.854,3.455,1.227-1.148.373-2.306.8-3.455,1.237C210.5,299.146,210.064,300.3,209.691,301.453Z" transform="translate(-3.807 -56.022)" fill="#fff"/><path d="M301.471,156c-.373-1.148-.8-2.316-1.227-3.464-1.148-.422-2.306-.854-3.455-1.227,1.148-.373,2.306-.8,3.455-1.237.422-1.138.854-2.306,1.227-3.455.373,1.148.8,2.316,1.237,3.455,1.148.432,2.306.864,3.455,1.237-1.148.373-2.306.8-3.455,1.227C302.276,153.686,301.844,154.844,301.471,156Z" transform="translate(-5.512 -28.123)" fill="#fff"/><path d="M440.461,312.473c-.373-1.148-.8-2.306-1.227-3.455-1.148-.432-2.306-.864-3.455-1.237,1.148-.373,2.306-.8,3.455-1.227.422-1.148.854-2.306,1.227-3.455.383,1.148.815,2.306,1.237,3.455,1.148.422,2.306.854,3.455,1.227-1.148.373-2.306.8-3.455,1.237C441.276,310.166,440.844,311.324,440.461,312.473Z" transform="translate(-8.094 -58.136)" fill="#fff"/><path d="M324.911,101.462c-.373-1.158-.8-2.316-1.237-3.464-1.138-.422-2.306-.854-3.455-1.227,1.148-.373,2.316-.8,3.455-1.237.432-1.138.864-2.306,1.237-3.455.373,1.148.8,2.316,1.237,3.455,1.148.432,2.306.864,3.455,1.237-1.148.373-2.306.8-3.455,1.227C325.726,99.146,325.294,100.3,324.911,101.462Z" transform="translate(-5.947 -17.662)" fill="#fff"/><path d="M527.922,247.585a.677.677,0,0,0,0-1.148L513.73,237.27h0l2.1,16.763a.687.687,0,0,0,1.04.5l2.944-1.855a.7.7,0,0,1,.981.216l2.3,3.661a.687.687,0,0,0,.981.216l2.836-1.786a.7.7,0,0,0,.216-.981l-2.336-3.621a.677.677,0,0,1,.216-.981Z" transform="translate(-9.542 -46.621)" fill="#fff"/><rect width="50.19" height="38.246" transform="translate(462.959 137.584)" fill="#fff"/><path d="M497.086,200.671a10.8,10.8,0,1,1,10.8-10.8,10.8,10.8,0,0,1-10.8,10.8Zm0-20.316a9.481,9.481,0,1,0,9.471,9.481A9.481,9.481,0,0,0,497.086,180.356Z" transform="translate(-9.032 -35.353)" fill="#e6483f"/><rect width="46.775" height="4.662" transform="translate(464.667 166.599)" fill="#334b60"/><path d="M503.242,190.567l-9.412,5.427V185.13Z" transform="translate(-9.172 -35.632)" fill="#e6483f"/><path d="M477.265,207.97l-1.855,1.06V206.9Z" transform="translate(-8.83 -39.03)" fill="#fff"/><rect width="0.501" height="1.207" transform="translate(470.496 168.342)" fill="#fff"/><path d="M480.08,207.368v1.188l1.109.648V206.72Z" transform="translate(-8.917 -39.027)" fill="#fff"/><path d="M518.629,207.977v-.059l.285-.236-.324-.559-.324.118a.562.562,0,0,0-.157-.108l-.069-.373h-.648l-.059.344a.6.6,0,0,0-.177.088l-.353-.128-.324.559.265.226v.2l-.285.236.324.559.324-.118.167.108.069.373h.628l.059-.344a.746.746,0,0,0,.177-.088l.344.128.324-.559-.265-.226A.581.581,0,0,0,518.629,207.977Zm-.982.422a.422.422,0,1,1,.412-.422.412.412,0,0,1-.383.4Z" transform="translate(-9.592 -39.031)" fill="#fff"/><path d="M463,269.32h47.01v33.771a4.063,4.063,0,0,1-4.063,4.063h-38.9a4.063,4.063,0,0,1-4.063-4.063V269.32Z" transform="translate(-8.599 -55.336)" fill="#fff"/><path d="M478.743,277.574h-6.134l-4.819-8.254h6.134Z" transform="translate(-8.688 -51.523)" fill="#334b60"/><path d="M488.373,277.574h-6.134l-4.829-8.254h6.134Z" transform="translate(-8.867 -51.523)" fill="#334b60"/><path d="M497.993,277.574h-6.124l-4.829-8.254h6.134Z" transform="translate(-9.046 -51.523)" fill="#334b60"/><path d="M507.623,277.574h-6.134l-4.819-8.254h6.124Z" transform="translate(-9.225 -51.523)" fill="#334b60"/><path d="M462.98,269.32V277.4l.1.177H469.2l-4.819-8.254Z" transform="translate(-8.599 -51.523)" fill="#334b60"/><path d="M506.29,269.32l4.524,7.734V269.32Z" transform="translate(-9.403 -51.461)" fill="#334b60"/><rect width="47.04" height="1.08" transform="translate(454.381 225.317)" fill="#dae3e8"/><path d="M493.78,303.559l-7.066-3.631-7.066,3.621,1.276-7.832-5.633-5.6,7.851-1.217,3.582-7.076,3.582,7.086,7.842,1.217-5.633,5.594Z" transform="translate(-8.827 -55.656)" fill="#f7b95e"/><rect width="35.626" height="28.775" transform="translate(161.474 121.201)" fill="#fff"/><path d="M189.539,166.5l-12.2,7.037V159.46Z" transform="translate(-3.294 -30.923)" fill="#e6483f"/><rect width="2.041" height="48.119" transform="translate(197.09 111.895)" fill="#334b60"/><rect width="2.041" height="48.119" transform="translate(204.098 111.895)" fill="#334b60"/><rect width="2.041" height="8.784" transform="translate(197.1 119.248) rotate(-90)" fill="#334b60"/><rect width="2.041" height="8.784" transform="translate(197.09 124.887) rotate(-90)" fill="#334b60"/><rect width="2.041" height="8.784" transform="translate(197.09 130.518) rotate(-90)" fill="#334b60"/><rect width="2.041" height="8.784" transform="translate(197.1 136.157) rotate(-90)" fill="#334b60"/><rect width="2.041" height="8.784" transform="translate(197.09 141.796) rotate(-90)" fill="#334b60"/><rect width="2.041" height="8.784" transform="translate(197.1 147.428) rotate(-90)" fill="#334b60"/><rect width="2.041" height="8.784" transform="translate(197.09 153.067) rotate(-90)" fill="#334b60"/><rect width="2.041" height="48.119" transform="translate(152.681 111.895)" fill="#334b60"/><rect width="2.041" height="48.119" transform="translate(159.688 111.895)" fill="#334b60"/><rect width="2.041" height="8.784" transform="translate(152.69 119.248) rotate(-90)" fill="#334b60"/><rect width="2.041" height="8.784" transform="translate(152.681 124.887) rotate(-90)" fill="#334b60"/><rect width="2.041" height="8.784" transform="translate(152.69 130.526) rotate(-90)" fill="#334b60"/><rect width="2.041" height="8.784" transform="translate(152.69 136.157) rotate(-90)" fill="#334b60"/><rect width="2.041" height="8.784" transform="translate(152.681 141.796) rotate(-90)" fill="#334b60"/><rect width="2.041" height="8.784" transform="translate(152.69 147.428) rotate(-90)" fill="#334b60"/><rect width="2.041" height="8.784" transform="translate(152.681 153.067) rotate(-90)" fill="#334b60"/><rect width="43.566" height="53.566" transform="translate(142.444 190.679)" fill="#fff"/><g transform="translate(142.444 192.43)"><path d="M178.479,244.49H145.14v1.61h31.474l6.791,6.88v43.212h1.865V251.37Z" transform="translate(-145.14 -244.49)" fill="#dae3e8"/></g><path d="M176.514,246.13H139.74V299.7h43.566V253.01Z" transform="translate(-2.595 -52.668)" fill="#fff"/><rect width="21.67" height="1.433" transform="translate(154.997 208.913)" fill="#dae3e8"/><rect width="21.67" height="1.433" transform="translate(154.997 211.21)" fill="#dae3e8"/><rect width="21.67" height="1.433" transform="translate(154.997 213.507)" fill="#dae3e8"/><rect width="21.67" height="1.433" transform="translate(154.997 215.795)" fill="#dae3e8"/><rect width="14.515" height="1.433" transform="translate(144.152 219.992)" fill="#458bdd"/><rect width="9.697" height="1.433" transform="translate(160.787 219.992)" fill="#458bdd"/><rect width="14.496" height="1.433" transform="translate(155.497 204.716)" fill="#458bdd"/><rect width="36.705" height="1.433" transform="translate(139.961 223.798)" fill="#dae3e8"/><rect width="36.705" height="1.433" transform="translate(139.961 226.095)" fill="#dae3e8"/><rect width="14.574" height="1.433" transform="translate(139.961 228.392)" fill="#dae3e8"/><rect width="14.574" height="1.433" transform="translate(139.961 230.681)" fill="#dae3e8"/><rect width="14.574" height="1.433" transform="translate(139.961 234.147)" fill="#dae3e8"/><rect width="14.574" height="1.433" transform="translate(139.961 236.444)" fill="#dae3e8"/><rect width="14.574" height="1.433" transform="translate(139.961 238.733)" fill="#dae3e8"/><rect width="18.863" height="12.513" transform="translate(158.844 228.2)" fill="#c0e4f9"/><path d="M177.19,246.13v6.88H184Z" transform="translate(-3.291 -46.938)" fill="#dae3e8"/><path d="M142.61,265.981l5.221-13.181h1.855l5.152,13.181h-2.032l-1.433-3.641H145.79l-1.462,3.641Zm3.72-5.035h4.515l-2.257-5.692Z" transform="translate(-2.649 -48.921)" fill="#334b60"/><rect width="50.19" height="38.246" transform="translate(245.769 55.396)" fill="#fff"/><rect width="37.805" height="26.979" transform="translate(251.962 60.383)" fill="#c0e4f9"/><circle cx="2.522" cy="2.522" r="2.522" transform="translate(269.323 64.249)" fill="#f7b95e"/><path d="M256.73,90.609l8.538-8.529,12.9,12.906,7.253-7.243,9.117,9.117v5.722h-37.8Z" transform="translate(-4.768 -16.162)" fill="#458bdd"/><rect width="50.19" height="38.246" transform="translate(232.255 64.705)" fill="#fff"/><rect width="37.805" height="26.979" transform="translate(238.457 69.759)" fill="#c0e4f9"/><circle cx="2.522" cy="2.522" r="2.522" transform="translate(255.819 73.735)" fill="#fce0e0"/><path d="M242.97,102.329,251.5,93.8,264.4,106.7l7.243-7.243,9.117,9.127V114.3H242.97Z" transform="translate(-4.513 -18.469)" fill="#24acba"/><path d="M427.964,258.2h0a16.684,16.684,0,0,1-16.684-16.733V134.254a16.684,16.684,0,0,1,16.684-16.684h0A16.684,16.684,0,0,1,444.7,134.254V241.465A16.684,16.684,0,0,1,427.964,258.2Z" transform="translate(-7.638 -32.908)" fill="#fce0e0"/><rect width="17.754" height="18.441" transform="translate(364.895 194.085)" fill="#c0e4f9"/><path d="M408.987,243.132V208.91H289.93v34.222a16.733,16.733,0,0,0,16.733,16.684H425.71a16.684,16.684,0,0,1-16.723-16.684Z" transform="translate(-5.385 -44.391)" fill="#458bdd"/><path d="M423.41,260.83h.981C424.1,260.81,423.754,260.83,423.41,260.83Z" transform="translate(-7.864 -48.966)" fill="#c0e4f9"/><path d="M340.753,115.2h0a16.733,16.733,0,0,0-16.733,16.684v107.26a16.733,16.733,0,0,0,16.733,16.733h0a16.684,16.684,0,0,0,16.733-16.733v-41.77h85.59V131.933a16.684,16.684,0,0,1,16.733-16.684Z" transform="translate(-6.018 -32.25)" fill="#fce0e0"/><path d="M462.38,115.2h0Z" transform="translate(-8.588 -21.627)" fill="#fce0e0"/><path d="M394.955,176.47h-.981a16.733,16.733,0,0,0-16.733,16.684v47.01H410.7v-47.01A16.684,16.684,0,0,0,394.955,176.47Z" transform="translate(-7.006 -38.804)" fill="#458bdd"/><path d="M396.27,176.43h0Z" transform="translate(-7.36 -33.122)" fill="#fff"/><path d="M236.226,203.87H390.634a7.066,7.066,0,0,1,7.066,7.066V317.627H229.16V210.936a7.066,7.066,0,0,1,7.066-7.066Z" transform="translate(-4.256 -52.04)" fill="#334b60"/><path d="M398.981,318.9H227.83V208.762a6.222,6.222,0,0,1,6.222-6.222H392.759a6.232,6.232,0,0,1,6.222,6.222Zm-168.55-2.6h165.94V208.762a3.621,3.621,0,0,0-3.612-3.621H234.052a3.621,3.621,0,0,0-3.621,3.621Z" transform="translate(-4.231 -52.142)" fill="#fff"/><rect width="142.513" height="101.803" transform="translate(237.918 162.952)" fill="#c0e4f9"/><path d="M207.17,316.37h211.7v4.269a6.2,6.2,0,0,1-6.2,6.2h-199.3a6.2,6.2,0,0,1-6.2-6.2Z" transform="translate(-3.848 -60.836)" fill="#fff"/><g transform="translate(370.194 129.141)"><rect width="5.633" height="131.276" fill="#c0e4f9"/></g><path d="M391.621,176.43H272.564a16.733,16.733,0,0,0-16.684,16.684V311.445H374.947v-52.83h-.059V193.163A16.733,16.733,0,0,1,391.621,176.43Z" transform="translate(-4.752 -48.402)" fill="#fff"/><path d="M307.14,255.639H312.6a10.58,10.58,0,0,1,5.427,1.06,3.71,3.71,0,0,1,1.688,3.376,4.259,4.259,0,0,1-.746,2.581A2.944,2.944,0,0,1,317,263.874v.118a3.926,3.926,0,0,1,2.414,1.394,4.554,4.554,0,0,1,.736,2.719,4.456,4.456,0,0,1-1.737,3.739,7.469,7.469,0,0,1-4.711,1.345H307.14Zm3.72,6.949h2.159a3.926,3.926,0,0,0,2.189-.471,1.708,1.708,0,0,0,.687-1.541,1.561,1.561,0,0,0-.746-1.453,4.711,4.711,0,0,0-2.336-.432H310.85Zm0,2.944v4.573h2.424a3.562,3.562,0,0,0,2.267-.589,2.159,2.159,0,0,0,.736-1.8c0-1.462-1.04-2.189-3.121-2.189Z" transform="translate(-5.704 -49.982)" fill="#458bdd"/><path d="M324,273.188V255.64h3.72v14.476H334.8v3.072Z" transform="translate(-6.018 -49.983)" fill="#458bdd"/><path d="M354.034,264.389q0,4.358-2.159,6.693a9.343,9.343,0,0,1-12.386,0q-2.159-2.336-2.159-6.723c0-2.944.716-5.152,2.159-6.693a8.126,8.126,0,0,1,6.212-2.306,8.008,8.008,0,0,1,6.193,2.326Q354.034,260.012,354.034,264.389Zm-12.808,0a7.321,7.321,0,0,0,1.119,4.426,3.926,3.926,0,0,0,3.337,1.492c2.944,0,4.456-1.963,4.456-5.889s-1.482-5.938-4.436-5.938a3.925,3.925,0,0,0-3.347,1.5A7.262,7.262,0,0,0,341.226,264.389Z" transform="translate(-6.265 -49.988)" fill="#458bdd"/><path d="M364.709,263.329h6.958v9.1a18.985,18.985,0,0,1-3.19.775,20.779,20.779,0,0,1-3.052.226,7.744,7.744,0,0,1-6.065-2.336q-2.1-2.336-2.1-6.7a8.832,8.832,0,0,1,2.434-6.634,9.245,9.245,0,0,1,6.742-2.375,13.15,13.15,0,0,1,5.211,1.08l-1.237,2.944a8.834,8.834,0,0,0-4-.981,4.907,4.907,0,0,0-3.857,1.619A6.271,6.271,0,0,0,361.1,264.4a7,7,0,0,0,1.168,4.367,4.053,4.053,0,0,0,3.406,1.5,12.3,12.3,0,0,0,2.365-.235v-3.661h-3.327Z" transform="translate(-6.635 -49.992)" fill="#458bdd"/><circle cx="3.837" cy="3.837" r="3.837" transform="translate(351.469 230.299)" fill="#334b60"/><circle cx="3.837" cy="3.837" r="3.837" transform="translate(268.008 161.757)" fill="#24acba"/><circle cx="3.837" cy="3.837" r="3.837" transform="translate(268.008 218.1)" fill="#c0e4f9"/><rect width="34.075" height="3.445" transform="translate(284.8 150.013)" fill="#c0e4f9"/><rect width="34.075" height="3.445" transform="translate(277.057 155.275)" fill="#c0e4f9"/><rect width="20.61" height="3.445" transform="translate(314.067 155.275)" fill="#c0e4f9"/><rect width="34.163" height="20.159" transform="translate(260.854 160.612)" fill="#c0e4f9"/><rect width="0.746" height="39.659" transform="translate(260.669 160.932) rotate(-59.46)" fill="#fff"/><rect width="39.659" height="0.746" transform="matrix(0.861, -0.508, 0.508, 0.861, 260.663, 180.429)" fill="#fff"/><rect width="25.576" height="20.581" transform="translate(340.536 225.476)" fill="#fce0e0"/><rect width="34.163" height="48.59" transform="translate(260.854 198.949)" fill="#fce0e0"/><path d="M368.935,221.313H350.6a3.631,3.631,0,0,1-3.621-3.631h0a3.631,3.631,0,0,1,3.621-3.621h18.333a3.631,3.631,0,0,1,3.621,3.621h0a3.631,3.631,0,0,1-3.621,3.631Z" transform="translate(-6.444 -40.857)" fill="#c0e4f9"/><rect width="34.163" height="21.817" transform="translate(260.854 181.071)" fill="#c0e4f9"/><rect width="32.044" height="20.6" transform="translate(302.643 181.699)" fill="#c0e4f9"/><rect width="25.576" height="1.904" transform="translate(340.536 183.6)" fill="#c0e4f9"/><rect width="25.576" height="1.904" transform="translate(340.536 186.692)" fill="#c0e4f9"/><rect width="25.576" height="1.904" transform="translate(340.536 189.783)" fill="#c0e4f9"/><rect width="25.576" height="1.904" transform="translate(340.536 192.875)" fill="#c0e4f9"/><rect width="25.576" height="1.904" transform="translate(340.536 195.967)" fill="#c0e4f9"/><rect width="25.576" height="1.904" transform="translate(340.536 199.058)" fill="#c0e4f9"/><rect width="31.465" height="1.904" transform="translate(303.222 162.064)" fill="#c0e4f9"/><rect width="31.465" height="1.904" transform="translate(303.222 165.156)" fill="#c0e4f9"/><rect width="31.465" height="1.904" transform="translate(303.222 168.247)" fill="#c0e4f9"/><rect width="31.465" height="1.904" transform="translate(303.222 171.339)" fill="#c0e4f9"/><rect width="31.465" height="1.904" transform="translate(303.222 174.431)" fill="#c0e4f9"/><rect width="31.465" height="1.904" transform="translate(303.222 177.522)" fill="#c0e4f9"/><rect width="25.576" height="1.904" transform="translate(340.536 166.267)" fill="#fce0e0"/><rect width="25.576" height="1.904" transform="translate(340.536 169.359)" fill="#fce0e0"/><rect width="32.044" height="1.904" transform="translate(302.643 227.833)" fill="#c0e4f9"/><rect width="32.044" height="1.904" transform="translate(302.643 230.924)" fill="#c0e4f9"/><rect width="32.044" height="1.904" transform="translate(302.643 234.016)" fill="#c0e4f9"/><rect width="32.044" height="1.904" transform="translate(302.643 237.108)" fill="#c0e4f9"/><rect width="32.044" height="1.904" transform="translate(302.643 240.199)" fill="#c0e4f9"/><rect width="32.044" height="1.904" transform="translate(302.643 243.291)" fill="#c0e4f9"/><rect width="25.576" height="15.085" transform="translate(340.536 149.055)" fill="#fce0e0"/><path d="M359.9,285.48l1.835,3.729,4.122.6-2.984,2.905.707,4.093-3.68-1.933-3.68,1.933.707-4.093-2.974-2.905,4.112-.6Z" transform="translate(-6.574 -55.006)" fill="#fff"/><path d="M287.9,236.671l-8.165,4.711V231.96Z" transform="translate(-5.195 -44.496)" fill="#fff"/><path d="M330.145,237.6l-8.165,4.711V232.89Z" transform="translate(-5.98 -44.674)" fill="#fff"/><rect width="1.305" height="3.739" transform="translate(351.42 175.047)" fill="#fff"/><rect width="1.305" height="3.739" transform="translate(353.922 175.047)" fill="#fff"/><path d="M462.26,288.6Z" transform="translate(-8.585 -54.18)" fill="#c0e4f9"/><rect width="2.051" height="1.364" transform="translate(451.633 233.685)" fill="#334b60"/><path d="M456.02,289.264h-3.877V287.9h3.877Zm-7.743,0H444.41V287.9h3.867Z" transform="translate(-8.254 -54.215)" fill="#334b60"/><path d="M439.226,289.264h-3.867V287.9h3.867Zm-7.734,0h-3.867V287.9h3.867Zm-7.734,0h-3.867V287.9h3.867Zm-7.734,0h-3.867V287.9h3.867Zm-7.734,0h-3.877V287.9h3.926Zm-7.734,0h-3.867V287.9h3.867Zm-7.734,0h-3.867V287.9h3.867Zm-7.734,0h-3.877V287.9h3.877Zm-7.744,0H373.48V287.9h3.867Z" transform="translate(-6.936 -54.215)" fill="#334b60"/><rect width="2.051" height="1.364" transform="translate(360.635 233.685)" fill="#334b60"/><path d="M191.86,273.52Z" transform="translate(-3.563 -51.348)" fill="#c0e4f9"/><rect width="2.051" height="1.364" transform="translate(188.297 221.453)" fill="#334b60"/><path d="M212.735,274.194h-4.672V272.83h4.672Zm-9.343,0H198.72V272.83h4.672Z" transform="translate(-3.691 -51.377)" fill="#334b60"/><path d="M269.167,274.194H264.5V272.83h4.672Zm-9.343,0h-4.681V272.83h4.681Zm-9.353,0H245.8V272.83h4.672Zm-9.343,0h-4.681V272.83h4.681Zm-9.353,0H227.1V272.83h4.632Zm-9.343,0H217.75V272.83h4.681Z" transform="translate(-4.044 -51.377)" fill="#334b60"/><rect width="2.051" height="1.364" transform="translate(269.794 221.453)" fill="#334b60"/><rect width="1.364" height="2.051" transform="translate(271.159 102.317)" fill="#334b60"/><path d="M277.664,146.61H276.29v-4.583h1.374Zm0-9.167H276.29V132.86h1.374Z" transform="translate(-5.131 -25.745)" fill="#334b60"/><path d="M277.664,201.976H276.29v-4.583h1.374Zm0-9.176H276.29v-4.583h1.374Zm0-9.167H276.29v-4.583h1.374Zm0-9.167H276.29v-4.583h1.374Zm0-9.167H276.29v-4.583h1.374Zm0-9.167H276.29V151.54h1.374Z" transform="translate(-5.131 -32.161)" fill="#334b60"/><rect width="1.364" height="2.051" transform="translate(271.159 168.445)" fill="#334b60"/><rect width="2.051" height="1.364" transform="translate(329.387 191.81)" fill="#334b60"/><path d="M352.945,237.674h-3.788V236.31h3.788Zm-7.577,0h-3.8V236.31h3.8Z" transform="translate(-6.344 -44.5)" fill="#334b60"/><path d="M489.738,237.674H485.95V236.31h3.788Zm-7.586,0h-3.788V236.31h3.788Zm-7.577,0h-3.8V236.31h3.8Zm-7.586,0H463.2V236.31h3.788Zm-7.586,0h-3.788V236.31H459.4Zm-7.577,0h-3.8V236.31h3.8Zm-7.586,0h-3.818V236.31h3.788Zm-7.586,0h-3.788V236.31h3.788Zm-7.586,0h-3.788V236.31h3.788Zm-7.577,0h-3.8V236.31h3.8Zm-7.586,0h-3.788V236.31h3.808Zm-7.586,0h-3.788V236.31h3.788Zm-7.577,0h-3.8V236.31h3.8Zm-7.586,0h-3.788V236.31h3.788Zm-7.586,0h-3.788V236.31h3.788Zm-7.586,0h-3.788V236.31h3.788Zm-7.577,0h-3.8V236.31h3.8Zm-7.586,0H357V236.31h3.788Z" transform="translate(-6.63 -44.5)" fill="#334b60"/><path d="M498.848,237.648H496.12v-1.364h1.364V234.92h1.364Z" transform="translate(-9.214 -44.376)" fill="#334b60"/><path d="M498.874,232.45H497.51v-2.3h1.364Zm0-4.593H497.51v-2.3h1.364Z" transform="translate(-9.24 -43.016)" fill="#334b60"/><path d="M498.874,223H497.51v-2.3h1.364Zm0-4.593H497.51v-2.287h1.364Zm0-4.583H497.51v-2.3h1.364Z" transform="translate(-9.24 -40.771)" fill="#334b60"/><rect width="1.364" height="2.051" transform="translate(488.27 168.04)" fill="#334b60"/><rect width="1.364" height="2.051" transform="translate(352.646 171.991)" fill="#334b60"/><path d="M360.684,207.346H359.32v-4.289h1.364Zm0-8.587H359.32v-4.3h1.364Z" transform="translate(-6.674 -37.605)" fill="#334b60"/><path d="M360.684,188.21H359.32v-4.289h1.364Zm0-8.587H359.32v-4.25h1.364Zm0-8.6H359.32v-4.289h1.364Zm0-8.588H359.32v-4.3h1.364Zm0-8.587H359.32v-4.3h1.364Zm0-8.6H359.32v-4.3h1.364Zm0-8.587H359.32v-4.3h1.364Zm0-8.6H359.32v-4.3h1.364Zm0-8.588H359.32v-4.3h1.364Zm0-8.6H359.32v-4.289h1.364Zm0-8.587H359.32V98h1.364Zm0-8.6H359.32V89.41h1.364Z" transform="translate(-6.674 -21.767)" fill="#334b60"/><path d="M360.684,84.978H359.31V82.25h2.738v1.364h-1.364Z" transform="translate(-6.673 -15.537)" fill="#334b60"/><path d="M373.983,83.614h-2.944V82.25h2.944Zm-5.889,0H365.15V82.25h2.944Z" transform="translate(-6.782 -15.489)" fill="#334b60"/><path d="M391.941,83.614H389V82.25h2.944Zm-5.889,0h-2.944V82.25h2.944Zm-5.889,0H377.22V82.25h2.944Z" transform="translate(-7.006 -15.489)" fill="#334b60"/><rect width="2.051" height="1.364" transform="translate(387.89 66.761)" fill="#334b60"/><rect width="1.364" height="2.051" transform="translate(178.119 151.584)" fill="#334b60"/><path d="M182.854,202.311H181.49v-3.337h1.364Zm0-6.674H181.49V192.3h1.364Z" transform="translate(-3.371 -36.939)" fill="#334b60"/><path d="M182.854,222.584H181.49v-3.337h1.364Zm0-6.674H181.49v-3.337h1.364Zm0-6.674H181.49V205.9h1.364Z" transform="translate(-3.371 -40.175)" fill="#334b60"/><path d="M184.218,229.038H181.49V226.3h1.364v1.364h1.364Z" transform="translate(-3.371 -42.749)" fill="#334b60"/><path d="M199.781,229.064h-3.857V227.69h3.857Zm-7.714,0H188.2V227.69h3.847Z" transform="translate(-3.495 -42.878)" fill="#334b60"/><path d="M269.43,229.064h-3.857V227.69h3.857Zm-7.7,0h-3.857V227.69h3.857Zm-7.714,0h-3.886V227.69h3.926Zm-7.7,0h-3.857V227.69h3.857Zm-7.714,0h-3.857V227.69h3.857Zm-7.7,0h-3.857V227.69h3.857Zm-7.714,0h-3.847V227.69h3.847Zm-7.7,0h-3.857V227.69h3.857Zm-7.714,0H203.91V227.69h3.847Z" transform="translate(-3.787 -42.878)" fill="#334b60"/><rect width="2.051" height="1.364" transform="translate(269.5 184.813)" fill="#334b60"/><circle cx="18.137" cy="18.137" r="18.137" transform="translate(388.115 51.268)" fill="#f7b95e"/><path d="M423.215,82.775,408.15,91.481V74.08Z" transform="translate(-7.58 -14.479)" fill="#fff"/></g></g></svg>