<svg xmlns="http://www.w3.org/2000/svg" xmlns:xlink="http://www.w3.org/1999/xlink" width="632" height="330" viewBox="0 0 632 330"><defs><clipPath id="a"><path d="M632,0V330H0V0Z" fill="none"/></clipPath><clipPath id="b"><path d="M1580.55,418.88V553.845H1461.72v-111.5l23.461-23.463Z" transform="translate(-1461.72 -418.88)" fill="none"/></clipPath></defs><g transform="translate(-965 -1618.997)"><g transform="translate(965 1618.997)"><path d="M1633.39,1930.7v330h-632v-330Z" transform="translate(-1001.39 -1930.7)" fill="#4fd2d6"/><g transform="translate(0 0)" clip-path="url(#a)"><path d="M-478.2-1929.64l-522.134,520.957m526.2-516.909-522.143,520.957m526.191-516.91-522.136,520.957M-466.028-1917.5l-522.13,520.957m526.188-516.909L-984.107-1392.49m526.191-516.916-522.136,520.957m526.191-516.907L-975.995-1384.4m526.189-516.909-522.134,520.955m526.191-516.909-522.136,520.957m526.191-516.911-522.136,520.957m526.191-516.91-522.134,520.957m526.193-516.909L-955.716-1364.17m526.191-516.908-522.136,520.956m526.191-516.91-522.136,520.957m526.193-516.909-522.136,520.957m526.191-516.91-522.136,520.957M-413.3-1864.894l-522.134,520.958m526.189-516.909L-931.381-1339.89M-405.19-1856.8l-522.136,520.957m526.191-516.91L-923.27-1331.8m526.191-516.911L-919.213-1327.75m526.188-516.909L-915.157-1323.7m526.191-516.909L-911.1-1319.655m526.191-516.911-522.141,520.957m526.2-516.909L-902.99-1311.567m526.191-516.9-522.136,520.956m526.191-516.917-522.136,520.964m526.191-516.909-522.134,520.955m526.191-516.909-522.136,520.957m526.191-516.91-522.136,520.957m526.191-516.91-522.134,520.957m526.191-516.909L-874.6-1283.234m526.191-516.91-522.129,520.956m526.184-516.91-522.134,520.965M-340.3-1792.051-862.431-1271.1M-336.24-1788l-522.136,520.951m526.191-516.911L-854.319-1263m526.191-516.909-522.136,520.955m526.191-516.909-522.135,520.957m526.191-516.91-522.136,520.957m526.2-516.91L-838.1-1246.816M-311.9-1763.724-834.04-1242.768m526.191-516.91-522.134,520.956m526.189-516.91-522.134,520.96m526.191-516.912-522.136,520.955m526.191-516.909-522.136,520.957m526.191-516.911-522.136,520.957m526.191-516.909L-809.7-1218.489M-283.514-1735.4l-522.136,520.957m526.191-516.911-522.136,520.957m526.191-516.91-522.134,520.957m526.191-516.909L-793.482-1202.3m526.191-516.909L-789.43-1198.254m526.194-516.911L-785.369-1194.21m526.191-516.907-522.136,520.955m526.191-516.914-522.136,520.962m526.191-516.91L-773.2-1182.068m526.191-516.909-522.134,520.955m526.191-516.909-522.136,520.957m526.191-516.91-522.136,520.957m526.186-516.911-522.129,520.957m526.191-516.909-522.127,520.955m526.182-516.909-522.136,520.957m526.191-516.91-522.134,520.95m526.191-516.895-522.136,520.948M-214.564-1666.6-736.7-1145.647m526.191-516.91L-732.645-1141.6m526.191-516.909-522.134,520.955M-202.4-1654.463l-522.136,520.957m526.2-516.91-522.143,520.956m526.191-516.91L-716.42-1125.414m526.191-516.909-522.132,520.957m526.188-516.91-522.136,520.962m526.191-516.916-522.134,520.957m526.191-516.907L-700.2-1109.228m526.191-516.909L-696.141-1105.18m526.191-516.91-522.136,520.956M-165.9-1618.042l-522.134,520.955M-161.838-1614-683.974-1093.04m526.193-516.911-522.137,520.957m526.191-516.91-522.134,520.957m526.191-516.909L-671.808-1080.9m526.193-516.91-522.136,520.957m526.191-516.91-522.134,520.956M-137.5-1589.719l-522.134,520.958m526.191-516.909-522.136,520.957m526.191-516.911-522.134,520.957m526.189-516.908L-647.47-1056.621m526.191-516.909-522.136,520.957m526.187-516.911L-639.36-1048.527m526.191-516.909L-635.3-1044.48m526.191-516.909-522.143,520.955m526.2-516.909-522.136,520.951M-101-1553.3-623.135-1032.34m526.191-516.909L-619.08-1028.294M-92.889-1545.2l-522.136,520.957m526.191-516.91L-610.969-1020.2m526.191-516.909-522.134,520.955m526.2-516.908-522.144,520.956m526.191-516.911L-598.8-1008.06M-72.61-1524.968l-522.129,520.955m526.186-516.909L-590.689-999.958M-64.5-1516.876-586.633-995.919m526.191-516.905L-582.576-991.873m526.191-516.909L-578.521-987.827M-52.33-1504.735-574.466-983.779m526.191-516.91L-570.41-979.733m526.191-516.909L-566.353-975.687M-40.159-1492.6-562.3-971.639m526.191-516.91L-558.243-967.592M-32.052-1484.5-554.185-963.546m526.191-516.909L-550.13-959.5m526.191-516.912L-546.075-955.452m524.407-515.159L-543.8-949.649M-19.4-1464.792-541.531-943.844M-17.124-1459-539.263-938.041m524.407-515.143L-536.981-932.238m524.407-515.143L-534.716-926.434" transform="translate(824.716 1591.646)" fill="none" stroke="#f0f0f0" stroke-miterlimit="10" stroke-width="3"/></g><path d="M638.43,322.106a133.686,133.686,0,0,0-36.245,4.98,162.147,162.147,0,0,0-286.012,63.433,31.887,31.887,0,0,0-37.837,37.514A81.023,81.023,0,0,0,228.82,548.1H733.177a132.169,132.169,0,0,0,38.357-93.238c0-73.319-59.592-132.755-133.1-132.755Z" transform="translate(-179.193 -218.099)" fill="#44b4b8"/><path d="M2413.753,1342.16c-16.472,17.194-41.333,20.11-41.333,20.11l59.648-62.27s-1.845,24.964-18.316,42.158Z" transform="translate(-1955.929 -1072.525)" fill="#00c5c9"/><path d="M2432.069,1300l-59.648,62.27s1.845-24.964,18.316-42.158S2432.069,1300,2432.069,1300Z" transform="translate(-1955.929 -1072.525)" fill="#00e1e6"/><path d="M2392.541,1207.223c-3.391,23.57-21.911,40.408-21.911,40.408l12.273-85.35S2395.929,1183.654,2392.541,1207.223Z" transform="translate(-1954.453 -958.982)" fill="#00c5c9"/><path d="M2335,1162.28l-12.273,85.35s-13.026-21.376-9.638-44.942S2335,1162.282,2335,1162.282Z" transform="translate(-1906.55 -958.982)" fill="#00e1e6"/><path d="M2093.132,1584.36a18.016,18.016,0,0,0-17.318,13.054l34.635,0A18.015,18.015,0,0,0,2093.132,1584.36Z" transform="translate(-1711.393 -1306.964)" fill="#d0f1f2"/><path d="M2362.252,1584.36a18.017,18.017,0,0,0-17.318,13.054l34.635,0A18.015,18.015,0,0,0,2362.252,1584.36Z" transform="translate(-1933.267 -1306.964)" fill="#d0f1f2"/><path d="M2199.2,1552.5a25.732,25.732,0,0,0-24.735,18.647l49.471,0A25.731,25.731,0,0,0,2199.2,1552.5Z" transform="translate(-1792.726 -1280.697)" fill="#d0f1f2"/><path d="M2205.222,774.79a33.434,33.434,0,0,0-32.14,24.226h64.28A33.433,33.433,0,0,0,2205.222,774.79Z" transform="translate(-1791.585 -639.103)" fill="#60c8cc"/><path d="M2704.682,774.79a33.435,33.435,0,0,0-32.141,24.226h64.28A33.433,33.433,0,0,0,2704.682,774.79Z" transform="translate(-2203.362 -639.103)" fill="#60c8cc"/><path d="M2402.068,715.66a47.76,47.76,0,0,0-45.907,34.611h91.816A47.76,47.76,0,0,0,2402.068,715.66Z" transform="translate(-1942.523 -590.339)" fill="#60c8cc"/><path d="M1209.932,1658.7H915.665a9.845,9.845,0,0,1-9.845-9.847h0a9.845,9.845,0,0,1,9.845-9.85h294.266a9.845,9.845,0,0,1,9.845,9.847h0a9.845,9.845,0,0,1-9.847,9.847Z" transform="translate(-746.798 -1352.011)" fill="#2f7d80"/><path d="M919.869,1171.191a14.987,14.987,0,0,1-3.574-10.072c.058-6.352-5.309-7.119-6.894-4.454S909.037,1165.912,919.869,1171.191Z" transform="translate(-749.283 -952.897)" fill="#369094"/><path d="M991.252,1171.178a14.97,14.97,0,0,1,3.671-10.036c4.1-4.844.453-8.869-2.468-7.828S986.277,1160.2,991.252,1171.178Z" transform="translate(-815.108 -951.19)" fill="#369094"/><path d="M927.383,1259.75a15,15,0,0,0-7.635,7.477c-2.728,5.721-7.9,4.061-8.149.971S915.335,1259.732,927.383,1259.75Z" transform="translate(-751.554 -1039.111)" fill="#369094"/><path d="M981.535,1291.2a14.971,14.971,0,0,0-7.637,7.477c-2.721,5.721-7.9,4.062-8.149.973S969.486,1291.184,981.535,1291.2Z" transform="translate(-796.197 -1065.052)" fill="#369094"/><path d="M1022.754,1332a14.965,14.965,0,0,0-7.635,7.477c-2.719,5.721-7.9,4.061-8.151.971S1010.706,1331.982,1022.754,1332Z" transform="translate(-830.18 -1098.706)" fill="#369094"/><path d="M1071.6,1384.57a14.971,14.971,0,0,0-7.637,7.477c-2.721,5.721-7.9,4.062-8.149.973S1059.555,1384.554,1071.6,1384.57Z" transform="translate(-870.455 -1142.069)" fill="#369094"/><path d="M1043.092,1206.336a14.973,14.973,0,0,1,3.671-10.036c4.1-4.845.453-8.867-2.468-7.826S1038.117,1195.362,1043.092,1206.336Z" transform="translate(-857.847 -980.192)" fill="#369094"/><path d="M1091.092,1250.026a14.974,14.974,0,0,1,3.671-10.037c4.1-4.845.453-8.867-2.468-7.826S1086.117,1239.052,1091.092,1250.026Z" transform="translate(-897.421 -1016.23)" fill="#369094"/><path d="M1135.156,1297.977a14.973,14.973,0,0,1,3.672-10.038c4.1-4.845.451-8.867-2.47-7.826S1130.182,1287,1135.156,1297.977Z" transform="translate(-933.749 -1055.782)" fill="#369094"/><path d="M1016.051,1302.318a.539.539,0,0,1-.618-.351,155.185,155.185,0,0,0-13.969-27.109c-8.565-13.332-22.961-31.1-42.906-40.058a.538.538,0,0,1,.441-.981c20.189,9.066,34.739,27.016,43.385,40.48a156.612,156.612,0,0,1,14.06,27.3.539.539,0,0,1-.321.69l-.072.021Z" transform="translate(-790.016 -1017.922)" fill="#369094"/><path d="M348.466,683.2a28.808,28.808,0,0,0-27.691,20.873l55.382,0A28.8,28.8,0,0,0,348.466,683.2Z" transform="translate(-264.46 -563.55)" fill="#d0f1f2"/><path d="M778.793,683.2a28.8,28.8,0,0,0-27.69,20.874l55.382,0A28.808,28.808,0,0,0,778.793,683.2Z" transform="translate(-619.243 -563.55)" fill="#d0f1f2"/><path d="M518.063,632.26a41.151,41.151,0,0,0-39.553,29.818h79.107A41.148,41.148,0,0,0,518.063,632.26Z" transform="translate(-394.505 -521.539)" fill="#d0f1f2"/><path d="M2414.527,877a18.762,18.762,0,0,0-18.036,13.6h36.078A18.76,18.76,0,0,0,2414.527,877Z" transform="translate(-1975.773 -723.4)" fill="#d0f1f2"/><path d="M2694.805,877a18.76,18.76,0,0,0-18.035,13.6h36.071A18.76,18.76,0,0,0,2694.805,877Z" transform="translate(-2206.849 -723.4)" fill="#d0f1f2"/><path d="M2525.024,843.8a26.8,26.8,0,0,0-25.761,19.42l51.523,0a26.8,26.8,0,0,0-25.762-19.422Z" transform="translate(-2060.503 -696.022)" fill="#d0f1f2"/><path d="M1094.17,577.374a5.252,5.252,0,1,1,10.5,0,5.252,5.252,0,1,1-10.5,0Z" transform="translate(-902.082 -471.915)" fill="#fff"/><path d="M2553.27,1149.144a5.254,5.254,0,1,1,10.509,0,5.254,5.254,0,0,1-10.509,0Z" transform="translate(-2105.03 -943.542)" fill="#fff"/><path d="M1198.92,653.264a3.9,3.9,0,1,1,7.807,0,3.9,3.9,0,0,1-7.807,0Z" transform="translate(-988.443 -535.625)" fill="#fff"/><path d="M696.08,1380.052a3.9,3.9,0,0,0,3.9-3.9,3.9,3.9,0,1,1,0,7.807A3.9,3.9,0,0,0,696.08,1380.052Z" transform="translate(-573.879 -1135.118)" fill="#fff"/><path d="M2792.72,1032.487a2.878,2.878,0,0,1,5.756,0,2.878,2.878,0,1,1-5.756,0Z" transform="translate(-2302.443 -849.272)" fill="#fff"/><path d="M486.045,771.32A12.538,12.538,0,0,0,474,780.405h24.1A12.538,12.538,0,0,0,486.045,771.32Z" transform="translate(-390.787 -636.225)" fill="#fff"/><path d="M673.285,771.32a12.539,12.539,0,0,0-12.051,9.082l24.1,0A12.538,12.538,0,0,0,673.285,771.32Z" transform="translate(-545.151 -636.225)" fill="#fff"/><path d="M559.864,749.15a17.907,17.907,0,0,0-17.2,12.977h34.427a17.907,17.907,0,0,0-17.213-12.977Z" transform="translate(-447.393 -617.942)" fill="#fff"/><path d="M2547.135,1530.675V1488.12m0,16.811,7.049-7.047m-7.049,14.515-7.3-7.3" transform="translate(-2093.949 -1227.619)" fill="none" stroke="#373c54" stroke-linecap="round" stroke-linejoin="round" stroke-width="11.39"/><path d="M2581.44,1392.48v27.654s5.769-6.19,5.769-13.825-5.769-13.827-5.769-13.827Z" transform="translate(-2128.254 -1148.625)" fill="#007e80"/><path d="M2548.59,1406.307c0,7.635,5.767,13.825,5.767,13.825V1392.48S2548.59,1398.67,2548.59,1406.307Z" transform="translate(-2101.171 -1148.625)" fill="#009095"/><path d="M2624.61,1459.649l-17.331,17.331s7.494-.265,12.28-5.051,5.05-12.289,5.05-12.289Z" transform="translate(-2149.557 -1204.003)" fill="#007e80"/><path d="M2612.289,1464.772c-4.786,4.786-5.049,12.289-5.049,12.289l17.331-17.331s-7.494.263-12.289,5.049Z" transform="translate(-2149.524 -1204.077)" fill="#009095"/><path d="M2449.749,1494.729,2428.7,1473.68s.321,9.1,6.134,14.922,14.922,6.134,14.922,6.134Z" transform="translate(-2002.328 -1215.591)" fill="#007e80"/><path d="M2443.582,1479.812c-5.813-5.813-14.922-6.132-14.922-6.132l21.049,21.049s-.321-9.1-6.134-14.922Z" transform="translate(-2002.295 -1215.591)" fill="#009095"/><line y1="3.494" x2="3.495" transform="translate(453.186 287.424)" fill="none" stroke="#373c54" stroke-linecap="round" stroke-linejoin="round" stroke-width="11.39"/><path d="M2490.994,1718.56a11.587,11.587,0,0,0-11.134,8.4h22.27A11.587,11.587,0,0,0,2490.994,1718.56Z" transform="translate(-2044.507 -1417.604)" fill="#494c69"/><path d="M2664.024,1718.56a11.587,11.587,0,0,0-11.134,8.4h22.27A11.587,11.587,0,0,0,2664.024,1718.56Z" transform="translate(-2187.16 -1417.604)" fill="#494c69"/><path d="M2559.186,1698.08a16.544,16.544,0,0,0-15.906,11.99h31.809a16.544,16.544,0,0,0-15.9-11.99Z" transform="translate(-2096.793 -1400.719)" fill="#494c69"/><path d="M1846,885.6a2.878,2.878,0,0,1,5.756,0,2.878,2.878,0,1,1-5.757,0Z" transform="translate(-1521.924 -728.11)" fill="#fff"/><path d="M1753.33,502.237a2.878,2.878,0,0,1,5.756,0,2.878,2.878,0,1,1-5.756,0Z" transform="translate(-1445.523 -411.896)" fill="#fff"/><path d="M1923.29,907.655a5.255,5.255,0,0,1,10.509,0,5.255,5.255,0,0,1-10.509,0Z" transform="translate(-1585.646 -744.348)" fill="#fff"/><path d="M1359.295,1730.15a11.706,11.706,0,0,0-11.253,8.484h22.506A11.709,11.709,0,0,0,1359.295,1730.15Z" transform="translate(-1111.386 -1427.16)" fill="#ffb0ad"/><path d="M1253.336,1709.45a16.723,16.723,0,0,0-16.073,12.112l32.147,0a16.722,16.722,0,0,0-16.074-12.114Z" transform="translate(-1020.054 -1410.093)" fill="#ffb0ad"/><path d="M1507.941,427.082H1391.569A16.405,16.405,0,0,1,1375.14,410.7V181.793a16.407,16.407,0,0,1,16.428-16.383h116.372a16.407,16.407,0,0,1,16.43,16.383V410.7a16.407,16.407,0,0,1-16.429,16.382Z" transform="translate(-1133.727 -136.371)" fill="#3c3f57"/><path d="M1556.891,270.08H1436.227a4.317,4.317,0,0,0-4.317,4.317V485.7a4.317,4.317,0,0,0,4.317,4.317h120.665a4.317,4.317,0,0,0,4.317-4.317V274.4A4.317,4.317,0,0,0,1556.891,270.08Z" transform="translate(-1180.53 -222.666)" fill="#9b9dbd"/><path d="M1715.7,1604.929H1670l1.826-6.25a7.663,7.663,0,0,1,7.359-5.519h27.331a7.663,7.663,0,0,1,7.359,5.519l1.826,6.25Z" transform="translate(-1376.822 -1314.219)" fill="#ffc1bf"/><path d="M2054.81,202.256a3.336,3.336,0,1,1,3.336,3.336A3.336,3.336,0,0,1,2054.81,202.256Z" transform="translate(-1694.077 -163.998)" fill="#ffc1bf"/><path d="M2064.29,210.1a1.663,1.663,0,1,1,.486,1.177A1.664,1.664,0,0,1,2064.29,210.1Z" transform="translate(-1701.892 -171.847)" fill="#ff8682"/><path d="M1982.14,210.1a1.664,1.664,0,1,1,1.664,1.664A1.664,1.664,0,0,1,1982.14,210.1Z" transform="translate(-1634.165 -171.847)" fill="#ff8682"/><path d="M997.766,314.75A21.593,21.593,0,0,0,977,330.4h41.526a21.593,21.593,0,0,0-20.763-15.654Z" transform="translate(-805.482 -259.625)" fill="#ffb0ad"/><path d="M1320.479,314.75a21.594,21.594,0,0,0-20.766,15.658l41.529,0a21.593,21.593,0,0,0-20.763-15.654Z" transform="translate(-1071.542 -259.625)" fill="#ffb0ad"/><path d="M1124.953,276.56a30.853,30.853,0,0,0-29.658,22.356l59.316,0A30.852,30.852,0,0,0,1124.953,276.56Z" transform="translate(-903.01 -228.008)" fill="#ffb0ad"/><path d="M1100.489,392a10.1,10.1,0,0,0-9.706,7.317h19.412A10.1,10.1,0,0,0,1100.489,392Z" transform="translate(-899.29 -323.341)" fill="#ff7975"/><path d="M1251.329,392a10.1,10.1,0,0,0-9.706,7.317h19.412a10.1,10.1,0,0,0-9.706-7.319Z" transform="translate(-1023.649 -323.341)" fill="#ff7975"/><path d="M1159.919,374.15A14.422,14.422,0,0,0,1146.05,384.6h27.738A14.42,14.42,0,0,0,1159.919,374.15Z" transform="translate(-944.855 -308.619)" fill="#ff7975"/><path d="M2503.279,2254.42l-40.169,40.167v154.089h118.832V2254.42Z" transform="translate(-2206.497 -2197.9)" fill="#fff"/><path d="M2581.94,2349.58v134.965H2463.11v-111.5l23.461-23.463Z" transform="translate(-2206.497 -2276.324)" fill="#ffb0ad"/><path d="M1552.277,894.78c-4.723-.548-9.361-1.756-14.1-2.093-6.174-.441-12.559.576-18.448-1.327-2.215-.716-4.281-1.828-6.452-2.67a53.608,53.608,0,0,0-11.465-2.658c-11.016-1.666-22.271-2.94-33.264-1.134-2.294.378-4.564.887-6.826,1.417v51.011h118.83V892.143c-.451.111-.9.216-1.35.318C1570.375,894.472,1561.269,895.826,1552.277,894.78Z" transform="translate(-1205.107 -729.241)" fill="#ffa29e"/><path d="M1515.267,1218.312a3.4,3.4,0,0,0-4.814,0l-.351.351-.351-.351a3.4,3.4,0,1,0-4.814,4.814l5.167,5.165,5.167-5.165a3.4,3.4,0,0,0,0-4.814Z" transform="translate(-1239.915 -1004.106)" fill="#ffe2e0"/><path d="M1593,1222.213a4.863,4.863,0,1,1,4.862,4.863,4.863,4.863,0,0,1-4.862-4.863Z" transform="translate(-1313.34 -1004.135)" fill="#ffe2e0"/><path d="M2599,3179.32l-2.236,5.488,4.091-3.617L2599,3179.32Z" transform="translate(-2316.684 -2960.622)" fill="#ffe2e0"/><path d="M2675.814,3149.86l-10.544,4.124,4.99,1.431,1.431,4.989,4.124-10.544Z" transform="translate(-2373.167 -2936.329)" fill="#ffe2e0"/><path d="M2086.85,344.666a1.006,1.006,0,1,1,1.006,1.006A1.006,1.006,0,0,1,2086.85,344.666Z" transform="translate(-1720.492 -283.329)" fill="#ffe2e0"/><path d="M2086.85,367.586a1.006,1.006,0,1,1,1.006,1.006A1.006,1.006,0,0,1,2086.85,367.586Z" transform="translate(-1720.492 -302.371)" fill="#ffe2e0"/><path d="M2086.85,390.506a1.006,1.006,0,1,1,1.006,1.006A1.006,1.006,0,0,1,2086.85,390.506Z" transform="translate(-1720.492 -321.276)" fill="#ffe2e0"/><path d="M1503.93,1312.786a5.388,5.388,0,1,1,5.389,5.389,5.388,5.388,0,0,1-5.389-5.389Z" transform="translate(-1239.907 -1078.415)" fill="#ffb0ad"/><path d="M1634.53,1318.1h-46.036a1.124,1.124,0,0,1-1.124-1.125v-.176a1.123,1.123,0,0,1,1.124-1.125h46.036a1.125,1.125,0,0,1,1.125,1.125v.176A1.125,1.125,0,0,1,1634.53,1318.1Z" transform="translate(-1308.698 -1085.222)" fill="#ffb0ad"/><path d="M1672.256,1344.844h-83.763a1.124,1.124,0,0,1-1.124-1.124v-.175a1.124,1.124,0,0,1,1.124-1.125h83.763a1.125,1.125,0,0,1,1.124,1.125v.175a1.125,1.125,0,0,1-1.124,1.124Z" transform="translate(-1308.698 -1107.287)" fill="#ffb0ad"/><path d="M1672.256,1371.615h-83.763a1.124,1.124,0,0,1-1.124-1.124v-.175a1.124,1.124,0,0,1,1.124-1.125h83.763a1.125,1.125,0,0,1,1.124,1.125v.175A1.125,1.125,0,0,1,1672.256,1371.615Z" transform="translate(-1308.698 -1129.368)" fill="#ffb0ad"/><path d="M2503.279,2294.587V2254.42l-40.169,40.167Z" transform="translate(-2206.497 -2197.735)" fill="#ffeeed"/><path d="M2463.11,2918.08v35.162h118.83V2918.08Z" transform="translate(-2206.497 -2745.178)" fill="#ff9591"/><path d="M1504.58,1046.983a48.537,48.537,0,0,1-10.9-2.768c-3.2-1.229-6.264-2.784-9.5-3.892a36.735,36.735,0,0,0-22.487-.227v20.412h118.835V1033.43a126.948,126.948,0,0,0-20.326,3.094c-18.493,4.375-36.777,12.966-55.614,10.459Z" transform="translate(-1205.082 -852.452)" fill="#ff7f7a"/><path d="M1800,518.323a22.373,22.373,0,1,1,22.373,22.373A22.373,22.373,0,0,1,1800,518.323Z" transform="translate(-1484 -409.111)" fill="#ffbfbd"/><path d="M1910.127,496a22.47,22.47,0,0,0-3.687.3,22.375,22.375,0,0,1,0,44.14A22.373,22.373,0,1,0,1910.127,496Z" transform="translate(-1571.754 -409.152)" fill="#ffc9c7"/><path d="M2604.332,2694.37l-26.821,42.581h53.642l-26.821-42.581Z" transform="translate(-2300.814 -2560.651)" fill="#ff9591"/><path d="M2777.239,2679.5H2708.19l25.507-40.5,9.018-14.318,8.735,13.871,25.789,40.943Z" transform="translate(-2408.552 -2503.186)" fill="#ff9591"/><path d="M2705.41,2705.748l-2.573.583v3.213l-2.647-4.931-2.593,6.728-2.391-7.2-2.337,2.813-1.45-1.745,6.824-10.833,7.166,11.377Z" transform="translate(-2394.726 -2560.623)" fill="#ffc9c7"/><path d="M2871.234,2638.561l-5.191-2.334-1.558,3.774-2.8-3.774-3.009,6.423-2.442-4.671-2.751,1.03,9.018-14.318,8.736,13.871Z" transform="translate(-2528.335 -2503.147)" fill="#ffd8d6"/><path d="M1530.217,617.57a8.778,8.778,0,0,0-8.427,6.36h16.873a8.778,8.778,0,0,0-8.437-6.36Z" transform="translate(-1254.631 -509.402)" fill="#ff9591"/><path d="M1661.279,617.57a8.778,8.778,0,0,0-8.437,6.359h16.881a8.778,8.778,0,0,0-8.437-6.36Z" transform="translate(-1362.676 -509.402)" fill="#ff9591"/><path d="M1581.842,602.05a12.536,12.536,0,0,0-12.052,9.085h24.1A12.536,12.536,0,0,0,1581.842,602.05Z" transform="translate(-1294.205 -496.602)" fill="#ff9591"/><path d="M1753.214,679.52A4.389,4.389,0,0,0,1749,682.7h8.427a4.389,4.389,0,0,0-4.213-3.179Z" transform="translate(-1441.953 -560.498)" fill="#ff7f7a"/><path d="M1818.753,679.52a4.389,4.389,0,0,0-4.213,3.179h8.437a4.389,4.389,0,0,0-4.214-3.179Z" transform="translate(-1495.987 -560.498)" fill="#ff7f7a"/><path d="M1779.023,671.76A6.269,6.269,0,0,0,1773,676.3h12.052a6.268,6.268,0,0,0-6.025-4.542Z" transform="translate(-1461.74 -554.099)" fill="#ff7f7a"/><g transform="translate(256.613 73.256)" clip-path="url(#b)"><path d="M1535.727,992.617a156.226,156.226,0,0,1,22.492-18.137L1517,1014.626a156.119,156.119,0,0,1,18.72-22.009Z" transform="translate(-1507.295 -876.941)" fill="#9b9dbd"/><path d="M1517,1014.626l41.212-40.146A154.415,154.415,0,0,1,1517,1014.626Z" transform="translate(-1507.295 -876.941)" fill="#888aa6"/><path d="M1515.892,950.664a156.023,156.023,0,0,1,15.93-24.1l-27.092,50.755A156.5,156.5,0,0,1,1515.892,950.664Z" transform="translate(-1497.179 -837.434)" fill="#9b9dbd"/><path d="M1504.73,977.315l27.092-50.755a154.48,154.48,0,0,1-27.092,50.755Z" transform="translate(-1497.179 -837.434)" fill="#888aa6"/><path d="M1731.012,1142.864a156.188,156.188,0,0,1,15.93-24.1l-27.092,50.755A156.5,156.5,0,0,1,1731.012,1142.864Z" transform="translate(-1674.534 -995.892)" fill="#9b9dbd"/><path d="M1719.85,1169.515l27.092-50.755a154.482,154.482,0,0,1-27.092,50.755Z" transform="translate(-1674.534 -995.892)" fill="#888aa6"/><path d="M1492.932,966.748a156.2,156.2,0,0,1,8.618-27.578l-11.95,56.278a155.844,155.844,0,0,1,3.336-28.7Z" transform="translate(-1484.705 -847.83)" fill="#9b9dbd"/><path d="M1489.584,995.448l11.95-56.278a154.561,154.561,0,0,1-11.954,56.278Z" transform="translate(-1484.689 -847.83)" fill="#888aa6"/><path d="M1640.349,1042.943l-.969-.477a119.565,119.565,0,0,1,9.12-14.747c5.461-7.647,14.457-18.526,26.288-26.928l.625.878c-11.708,8.316-20.619,19.1-26.035,26.684A118.1,118.1,0,0,0,1640.349,1042.943Z" transform="translate(-1608.191 -898.633)" fill="#74738f"/><path d="M1840.57,958.6a22,22,0,0,0-5.5,5.992,21.057,21.057,0,0,0,12.861-9.452A21.989,21.989,0,0,0,1840.57,958.6Z" transform="translate(-1769.526 -860.997)" fill="#74738f"/><path d="M1813.312,941.8a22.033,22.033,0,0,0,.351,8.126,21.067,21.067,0,0,0,2.4-15.779,22,22,0,0,0-2.755,7.652Z" transform="translate(-1751.404 -843.692)" fill="#74738f"/><path d="M1825.029,1025.43a22,22,0,0,0,8.076,1.016,21.05,21.05,0,0,0-15.154-5.014,21.989,21.989,0,0,0,7.084,4Z" transform="translate(-1755.412 -915.609)" fill="#74738f"/><path d="M1796.3,1050.944a22.013,22.013,0,0,0,7.433,3.3,21.051,21.051,0,0,0-13.06-9.176,22.023,22.023,0,0,0,5.618,5.874Z" transform="translate(-1732.921 -935.139)" fill="#74738f"/><path d="M1759.244,1087.465a22.007,22.007,0,0,0,7.7,2.633,21.052,21.052,0,0,0-13.82-7.988,21.991,21.991,0,0,0,6.123,5.353Z" transform="translate(-1701.963 -965.676)" fill="#74738f"/><path d="M1727.743,1123.42a22,22,0,0,0,7.784,2.354,21.048,21.048,0,0,0-14.1-7.484,21.994,21.994,0,0,0,6.32,5.13Z" transform="translate(-1675.837 -995.505)" fill="#74738f"/><path d="M1699.577,1164.933a22.013,22.013,0,0,0,7.433,3.3,21.056,21.056,0,0,0-13.06-9.175,22.013,22.013,0,0,0,5.618,5.873Z" transform="translate(-1653.181 -1029.117)" fill="#74738f"/><path d="M1767.056,967.836a22,22,0,0,0,3.4,7.389,21.039,21.039,0,0,0-3.741-15.516,22.038,22.038,0,0,0,.351,8.127Z" transform="translate(-1712.985 -864.764)" fill="#74738f"/><path d="M1671.048,1054.08a22.007,22.007,0,0,0,6.071,5.412,21.066,21.066,0,0,0-9.638-12.722A22.008,22.008,0,0,0,1671.048,1054.08Z" transform="translate(-1631.358 -936.541)" fill="#74738f"/><path d="M1626.681,1109.18a22.036,22.036,0,0,0,7.233,3.722,21.066,21.066,0,0,0-12.514-9.9,22.016,22.016,0,0,0,5.281,6.187Z" transform="translate(-1593.367 -982.899)" fill="#74738f"/><path d="M1719.99,1008.269a22.034,22.034,0,0,0,4.484,6.785,21.052,21.052,0,0,0-6.064-14.764A22.017,22.017,0,0,0,1719.99,1008.269Z" transform="translate(-1673.347 -898.22)" fill="#74738f"/><path d="M1444.38,843.512l.9.6a119.011,119.011,0,0,0,8.272-15.233c3.929-8.537,8.909-21.746,10.333-36.185l-1.074-.107c-1.4,14.292-6.346,27.378-10.24,35.841A116.884,116.884,0,0,1,1444.38,843.512Z" transform="translate(-1447.424 -726.983)" fill="#74738f"/><path d="M1550.128,720.239a22.027,22.027,0,0,1-2.472,7.749,21.067,21.067,0,0,1,1.822-15.858A22.044,22.044,0,0,1,1550.128,720.239Z" transform="translate(-1531.921 -660.648)" fill="#74738f"/><path d="M1554.8,775.86a22.046,22.046,0,0,1-7.229,3.727,21.052,21.052,0,0,1,12.507-9.917A22.014,22.014,0,0,1,1554.8,775.86Z" transform="translate(-1532.498 -708.087)" fill="#74738f"/><path d="M1486.1,769.406a22.006,22.006,0,0,1-4.887-6.5,21.044,21.044,0,0,1,11.873,10.667,22.008,22.008,0,0,1-6.985-4.166Z" transform="translate(-1477.789 -702.514)" fill="#74738f"/><path d="M1466.315,825.084a22.011,22.011,0,0,1-6.555-4.814,21.051,21.051,0,0,1,14.447,6.783,22.008,22.008,0,0,1-7.9-1.97Z" transform="translate(-1460.104 -749.804)" fill="#74738f"/><path d="M1456.046,869.475a22,22,0,0,1-6.106-5.375,21.066,21.066,0,0,1,13.792,8.034A22.005,22.005,0,0,1,1456.046,869.475Z" transform="translate(-1452.008 -785.939)" fill="#74738f"/><path d="M1441.9,912.392a22.045,22.045,0,0,1-5.9-5.592,21.066,21.066,0,0,1,13.493,8.525,21.994,21.994,0,0,1-7.586-2.934Z" transform="translate(-1440.515 -821.143)" fill="#74738f"/><path d="M1415.345,965.6a22.007,22.007,0,0,1-6.555-4.814,21.066,21.066,0,0,1,14.448,6.784,22.014,22.014,0,0,1-7.9-1.97Z" transform="translate(-1418.082 -865.655)" fill="#74738f"/><path d="M1548.332,839.611a21.984,21.984,0,0,1-8.1.718,21.066,21.066,0,0,1,15.326-4.452A21.981,21.981,0,0,1,1548.332,839.611Z" transform="translate(-1526.447 -762.574)" fill="#74738f"/><path d="M1519.262,954.267a22.01,22.01,0,0,1-7.712-2.586,21.053,21.053,0,0,1,15.828,2.052,21.991,21.991,0,0,1-8.116.527Z" transform="translate(-1502.802 -857.562)" fill="#74738f"/><path d="M1498.25,1005.2a22,22,0,0,1-6.82-4.429,21.067,21.067,0,0,1,14.812,5.944A21.973,21.973,0,0,1,1498.25,1005.2Z" transform="translate(-1486.214 -898.614)" fill="#74738f"/><path d="M1534.756,898.7a22,22,0,0,1-8.116-.527,21.068,21.068,0,0,1,15.827-2.065,21.993,21.993,0,0,1-7.711,2.59Z" transform="translate(-1515.243 -811.747)" fill="#74738f"/></g><path d="M1176.4,942.508a18.387,18.387,0,0,1,1.25-13.046c3.357-7.017-2.208-10.661-5.353-8.523S1167.1,931.027,1176.4,942.508Z" transform="translate(-964.312 -759.152)" fill="#369094"/><path d="M1238.29,983.424a18.357,18.357,0,0,1,9.282-9.252c7.063-3.26,5.091-9.62,1.315-9.979S1238.45,968.647,1238.29,983.424Z" transform="translate(-1020.901 -795.315)" fill="#369094"/><path d="M1130.3,1061.659a18.365,18.365,0,0,0-12.363,4.35c-6,4.949-10.885.421-9.561-3.144S1116.915,1055.393,1130.3,1061.659Z" transform="translate(-913.613 -872.979)" fill="#369094"/><path d="M1174.178,1124.693a18.359,18.359,0,0,0-12.363,4.352c-6,4.951-10.884.42-9.561-3.146S1160.8,1118.429,1174.178,1124.693Z" transform="translate(-949.79 -924.973)" fill="#369094"/><path d="M1198.868,1191.342a18.36,18.36,0,0,0-12.363,4.352c-6,4.951-10.885.42-9.561-3.146S1185.485,1185.079,1198.868,1191.342Z" transform="translate(-970.145 -979.95)" fill="#369094"/><path d="M1225.866,1275.149a18.349,18.349,0,0,0-12.361,4.35c-6,4.951-10.885.421-9.561-3.144S1212.485,1268.883,1225.866,1275.149Z" transform="translate(-992.405 -1049.077)" fill="#369094"/><path d="M1277.67,1049.383a18.354,18.354,0,0,1,9.283-9.25c7.064-3.26,5.091-9.622,1.313-9.979S1277.83,1034.608,1277.67,1049.383Z" transform="translate(-1053.368 -849.724)" fill="#369094"/><path d="M1308.36,1122.8a18.363,18.363,0,0,1,9.283-9.252c7.063-3.26,5.091-9.62,1.315-9.979S1308.521,1108.028,1308.36,1122.8Z" transform="translate(-1078.67 -910.284)" fill="#369094"/><path d="M1332.48,1198.934a18.364,18.364,0,0,1,9.282-9.252c7.063-3.262,5.1-9.621,1.315-9.979s-10.437,4.456-10.6,19.23Z" transform="translate(-1098.556 -973.082)" fill="#369094"/><path d="M1227.529,1110.911l-1.329-.109c-.263-4.764-.723-10.1-1.49-15.77a173.164,173.164,0,0,0-4.31-21.609c-.019-.07-.037-.139-.058-.211a143.01,143.01,0,0,0-4.74-14.5l-.1-.258a120.412,120.412,0,0,0-5.156-11.425q-.211-.411-.428-.818a101.414,101.414,0,0,0-6.2-10.265l-.146-.211q-2.005-2.886-4.247-5.642c-.5-.611-1.011-1.229-1.529-1.82a.66.66,0,0,1,1-.864c.031.039.067.077.1.114a90.394,90.394,0,0,1,5.881,7.633c.019.025.035.049.053.075a103.5,103.5,0,0,1,6.861,11.522l.042.081a122.273,122.273,0,0,1,5.365,12.08c.06.154.118.311.176.465,1.58,4.192,2.932,8.381,4.071,12.484.072.26.144.516.214.774a173.9,173.9,0,0,1,4.468,22.248C1226.8,1100.655,1227.266,1106.076,1227.529,1110.911Z" transform="translate(-987.383 -847.397)" fill="#369094"/><path d="M2095.17,1019.071s-3.841-4.612-5.353-4.582,1.647,4.835,5.072,6.034Z" transform="translate(-1722.618 -836.8)" fill="#fff"/><path d="M2112.368,1038.12c-.878.429-1.738.806-2.588,1.208,6.01,13.76,13.567,18.718,28.24,17.573,2.246-.176,2.44-.945,2.107-2.793.27-.221.277-.193,0,0-.328-1.85-.844-2.149-3.125-1.973-14.9,1.143-16.5-1.58-24.637-14.015Z" transform="translate(-1739.396 -856.309)" fill="#ffd3d1"/><path d="M3033.813,2689.564l-2.172.455-21.681-103.764,2.171-.455,21.682,103.764Z" transform="translate(-2657.344 -2471.173)" fill="#494c69"/><path d="M2960.486,2554.921l-28.391,5.932-1.014-4.861,28.389-5.932,1.016,4.861Z" transform="translate(-2592.313 -2441.582)" fill="#494c69"/><path d="M2959.979,2552.491l-28.391,5.932-.508-2.432,28.389-5.932.509,2.431Z" transform="translate(-2592.313 -2441.58)" fill="#6a6d8f"/><path d="M2268.9,1044.665s-2.67.818-2.168,2.509,3.081-.976,3.081-.976S2270.111,1044.09,2268.9,1044.665Z" transform="translate(-1868.745 -861.604)" fill="#1a1c2e"/><path d="M2175.027,1636.837a1.251,1.251,0,0,0,.216.077,1.137,1.137,0,0,0,1.38-.825l1.994-7.921a1.138,1.138,0,1,0-2.205-.555l-1.994,7.928a1.137,1.137,0,0,0,.609,1.3Z" transform="translate(-1792.658 -1341.881)" fill="#fff"/><path d="M2174.409,1344.587c1.053.63,3.141-.527,4.256-.012,7.229-21.534,9.75-44.677,16.853-65.079q-4.622-1.5-9.3-2.846c-6.037,21.867-6.51,52.927-11.822,67.94Z" transform="translate(-1792.672 -1053.274)" fill="#ff7f7a"/><path d="M2139.017,1678.561s.7,2.921,0,3-10.832.39-10.885-.081c-.2-1.6,8.076-3.084,8.887-2.921s1.91-.425,2,0Z" transform="translate(-1754.524 -1384.498)" fill="#494c69"/><path d="M2356.832,1637.21a1.282,1.282,0,0,1-.216.077,1.137,1.137,0,0,1-1.379-.825l-2-7.921a1.138,1.138,0,0,1,2.205-.555l1.994,7.925a1.137,1.137,0,0,1-.609,1.3Z" transform="translate(-1940.096 -1342.255)" fill="#fff"/><path d="M2278.662,1344.8c-1.053.63-3.523-.7-4.638-.175-7.229-21.534-9.75-44.677-16.853-65.078,3.08-1,6.185-1.942,9.294-2.846,4.933,21.836,3.369,43.255,12.2,68.116Z" transform="translate(-1860.912 -1053.315)" fill="#ff7f7a"/><path d="M2360.244,1678.561s-.7,2.921,0,3,10.832.39,10.885-.081c.2-1.6-8.076-3.084-8.888-2.921s-1.91-.425-2,0Z" transform="translate(-1945.633 -1384.498)" fill="#494c69"/><path d="M2256.4,1119.334a12.22,12.22,0,0,0-.107-4.214,5.548,5.548,0,0,0-2.621-3.727,5.662,5.662,0,0,0-5.362.235,4.521,4.521,0,0,0-.841.5c-1.148.878-1.812,2.649-2.38,5.842-1.4,7.949-2.9,24.357-2.182,24.374a19.692,19.692,0,0,0,3.774-.416,62.209,62.209,0,0,1,7.779-.878c.734.1,1.355-13.869,1.94-21.73Z" transform="translate(-1848.996 -916.301)" fill="#ffc0bd"/><path d="M2249.7,1129.066s.616-10.207,3.522-10.786c0,0-1.949,1.952-2.695,10.786Z" transform="translate(-1854.753 -922.418)" fill="#ff7f7a"/><path d="M2264.283,1051.209c-1.875,2.883-5.4,3.913-7.165,2.767s-1.088-4.038.787-6.915,4.255-3.42,6.016-2.273S2266.158,1048.328,2264.283,1051.209Z" transform="translate(-1860.024 -861.334)" fill="#fff"/><path d="M2282.113,1079.631l-3.593-.351a57.2,57.2,0,0,0-.243,6.943c.132.544,1.027.794,2,.557.877-.212,1.508-.744,1.532-1.245h0a47.65,47.65,0,0,1,.3-5.9Z" transform="translate(-1878.272 -890.244)" fill="#fff"/><path d="M2258.741,1078.279c-.527-.574-1.029-.058-2.3.658s-3.555.526-3.713-2.458c-.068-1.262-.563-.316-.888.463a3.877,3.877,0,0,0-.328,1.8,2.62,2.62,0,0,0,1.294,2.122,5.186,5.186,0,0,0,4.623.156,2.271,2.271,0,0,0,1.51-2.184.911.911,0,0,0-.193-.569Z" transform="translate(-1856.238 -887.423)" fill="#1a1c2e"/><path d="M2255.028,1078.755l.123.065c.627.341,3.474,1.931,3.764,3.116.325,1.325-1.531-.511-2.093-1.36s-1.241-.734-1.85-.913S2254.083,1078.722,2255.028,1078.755Z" transform="translate(-1858.639 -889.805)" fill="#1a1c2e"/><path d="M2278.891,1046.863a5.553,5.553,0,0,0-.418-3.848c-1.009-1.606-3.862-3.3-6.132-1.139,0,0-1.468,1.684.713,3.281s2.449.132,2.954,1.931,2.016,1.5,2.082,1.885l.8-2.107Z" transform="translate(-1873.021 -858.548)" fill="#1a1c2e"/><path d="M2296.267,1085.467c-.435.671-1.659,1.1-2.145.779s-.255-.937.175-1.61,1.229-1.041,1.724-.725a1.023,1.023,0,0,1,.239,1.555Z" transform="translate(-1891.152 -893.964)" fill="#fff"/><path d="M2228.085,1175.8l6.271.5s-.865,12.333-.72,17.555c.1,3.532,1.387,11.843,1.387,11.843l-11.694,3.084s4.477-32.039,4.756-32.982Z" transform="translate(-1833.012 -969.899)" fill="#ff7f7a"/><path d="M2273.335,1126s2.123-11.529,5.73-11.012c0,0-.641-1.462-1.371-1.136s-4.233,2.282-5.834,12.148Z" transform="translate(-1873.022 -918.724)" fill="#ff7f7a"/><path d="M2108.576,1191.828s-5.9-1.085-7.045-.095,4.361,2.66,7.758,1.389Z" transform="translate(-1732.47 -982.649)" fill="#fff"/><path d="M2138.2,1141.046c-.246.937-.527,1.833-.772,2.733,14.155,4.606,23.714,2.911,31.381-9.492,1.389-2.245-1.129-6.766-4.213-2.395-8.525,12.092-11.852,11.29-26.4,9.154Z" transform="translate(-1762.193 -932.14)" fill="#ffd3d1"/><path d="M1012.533,1530.08a33.2,33.2,0,0,0-31.917,24.06l63.834,0A33.2,33.2,0,0,0,1012.533,1530.08Z" transform="translate(-808.463 -1262.213)" fill="#369094"/><path d="M1517.645,1554.46a27.3,27.3,0,0,0-26.239,19.78l52.481,0a27.3,27.3,0,0,0-26.242-19.783Z" transform="translate(-1229.581 -1282.313)" fill="#369094"/><path d="M1208.012,1471.37a47.427,47.427,0,0,0-45.592,34.37H1253.6a47.433,47.433,0,0,0-45.59-34.37Z" transform="translate(-958.351 -1213.81)" fill="#369094"/><path d="M2125.73,174.21a12.537,12.537,0,0,0-12.05,9.092h24.108a12.537,12.537,0,0,0-12.052-9.085Z" transform="translate(-1742.612 -143.626)" fill="#fff"/><path d="M2313.042,174.21A12.536,12.536,0,0,0,2301,183.3h24.1a12.536,12.536,0,0,0-12.052-9.085Z" transform="translate(-1897.047 -143.626)" fill="#fff"/><path d="M2199.575,152a17.907,17.907,0,0,0-17.2,12.977H2216.8A17.907,17.907,0,0,0,2199.575,152Z" transform="translate(-1799.243 -125.316)" fill="#fff"/></g></g></svg>