<svg xmlns="http://www.w3.org/2000/svg" width="538.555" height="231.824" viewBox="0 0 538.555 231.824"><g transform="translate(-3113.339 3030.509)"><g transform="matrix(0.966, -0.259, 0.259, 0.966, 3113.337, -2900.066)"><g transform="translate(0 0.007)"><path d="M2928.514,405.49l-.174.034.489,2.159.125-.024Z" transform="translate(-2482.44 -343.747)" fill="#fff"/><path d="M2875.77,205.489l1.606-.324-.582-2.575Z" transform="translate(-2437.875 -171.743)" fill="#fff"/><path d="M2867.908,223.879l.081-.017.787-2.232-1.256.254Z" transform="translate(-2430.881 -187.883)" fill="#fff"/><path d="M2816.51,275.459l15.139-2.94-5.5-24.359Z" transform="translate(-2387.638 -210.374)" fill="#fff"/><path d="M2807.024,136.605l-.388-1.995,1.256-.254,1.025-2.9.582,2.575,76.05-15.352-89.849,9.308,2.273,34.457,9.132-25.857Z" transform="translate(-2369.997 -100.61)" fill="#fff"/><path d="M2895.211,158.148l.174-.034.44,2.168-.125.024,2.328,10.319L2978.9,113.68l-89.643,18.1Z" transform="translate(-2449.311 -96.371)" fill="#fff"/><path d="M2695.44,71.75l14.551,14.486,93.564-9.694Z" transform="translate(-2285.003 -60.826)" fill="#fff"/><path d="M2789.385,63.255,2663.36,57.67l16.964,16.885,1.218,1.218.046.694,2.508,38.008.152,2.225,1.576-.3,16.479-3.2,2.977,13.184,86.811-61.124,2.248-1.584.259-.181-.288-.014Zm-121.146-3.441,108.112,4.792L2682.8,74.3Zm17.546,50.912-2.273-34.457,89.849-9.308-76.05,15.352-1.606.324-.787,2.232Zm.894,3.249,9.642-27.3,5.5,24.363Zm19.847,9.17-2.33-10.319-.486-2.159-5.952-26.372,89.648-18.1Z" transform="translate(-2257.809 -48.89)" fill="#1e0f00"/><path d="M0,104.6c.152-.935.3-1.884.475-2.819.286-1.585.62-3.189.981-4.768l2.254.518c-.355,1.544-.678,3.112-.961,4.664-.167.914-.323,1.842-.464,2.758Zm5.661-14.37L3.45,89.558c.748-2.444,1.593-4.9,2.514-7.3l2.158.827C7.221,85.43,6.4,87.84,5.661,90.234ZM11.07,76.123l-2.1-.975c1.075-2.322,2.254-4.641,3.49-6.886l2.025,1.115C13.278,71.573,12.127,73.848,11.07,76.123Zm7.291-13.248-1.944-1.249c1.387-2.158,2.866-4.294,4.395-6.347l1.855,1.38c-1.5,2.018-2.946,4.11-4.3,6.222Zm9.025-12.121-1.754-1.5c1.675-1.952,3.434-3.863,5.229-5.681l1.645,1.623c-1.759,1.786-3.481,3.658-5.119,5.569ZM279.366,87.714h-.018c-1.9-.346-3.868-.787-5.861-1.311l.586-2.235c1.937.51,3.851.938,5.689,1.273h.018c.548.1,1.1.193,1.651.279L281.075,88C280.508,87.915,279.933,87.818,279.366,87.714Zm9.461,1.007.058-2.31a47.073,47.073,0,0,0,7.438-.391l.3,2.284A49.185,49.185,0,0,1,288.827,88.721ZM266.1,84.133c-2.284-.8-4.72-1.722-7.2-2.752l.883-2.132c2.447,1.013,4.828,1.923,7.076,2.7ZM38,40.014l-1.523-1.737c1.935-1.7,3.948-3.339,5.987-4.88l1.393,1.842c-1.989,1.507-3.959,3.114-5.852,4.775Zm213.86,38.273c-1.62-.749-3.31-1.553-5.167-2.458l-1.75-.854,1.017-2.075,1.745.853c1.842.9,3.517,1.695,5.124,2.436Zm52.419,8.284-.716-2.2c.489-.152.984-.33,1.469-.51a34.507,34.507,0,0,0,5.281-2.485l1.157,2a36.593,36.593,0,0,1-5.634,2.653c-.515.19-1.038.372-1.556.541Zm-66.189-15c-2.284-1.145-4.568-2.311-6.822-3.47l1.066-2.054c2.241,1.154,4.53,2.318,6.8,3.46Zm-13.608-7c-2.254-1.188-4.525-2.4-6.753-3.6l1.1-2.033c2.22,1.2,4.486,2.406,6.732,3.591ZM50.05,30.917,48.8,28.974l.809-.516c1.893-1.2,3.857-2.346,5.84-3.423l1.1,2.031c-1.937,1.052-3.857,2.177-5.709,3.35C50.575,30.573,50.312,30.742,50.05,30.917ZM317.832,78.762,316.3,77.037a40.067,40.067,0,0,0,5.048-5.433l1.827,1.412a42.46,42.46,0,0,1-5.339,5.747ZM211.008,57.292c-2.229-1.23-4.477-2.485-6.682-3.732l1.136-2.011c2.2,1.243,4.44,2.494,6.662,3.721Zm83.52,10.877c-2.155-.393-4.264-.859-6.284-1.386l.585-2.235c2.351.609,4.85,1.144,7.37,1.568l-.382,2.284q-.644-.107-1.288-.225Zm8.947,1.218.218-2.3c2.4.228,4.873.39,7.562.5l-.091,2.308c-2.727-.1-5.243-.266-7.688-.5ZM197.681,49.77c-2.2-1.271-4.416-2.57-6.609-3.862l1.177-1.99c2.179,1.288,4.4,2.589,6.587,3.851Zm83.167,14.647a64.775,64.775,0,0,1-7.078-3.225l1.086-2.04a62.24,62.24,0,0,0,6.823,3.109ZM63.314,23.7,62.362,21.6c2.33-1.052,4.736-2.036,7.149-2.924l.8,2.168C67.948,21.709,65.594,22.672,63.314,23.7Zm255.541,46.35v-2.31c2.258,0,4.679-.02,7.614-.075l.043,2.311C323.557,70.028,321.122,70.051,318.855,70.051Zm15.311-.245-.055-2.311,7.639-.181.055,2.311ZM267.154,57.085a50.88,50.88,0,0,1-5.983-5.025l1.613-1.652a48.6,48.6,0,0,0,5.712,4.8Zm-82.643-15.1q-1.613-.973-3.222-1.957-1.655-1.01-3.309-2.028l1.218-1.969,3.3,2.025q1.6.981,3.213,1.952Zm142.9,24.441-2.045-1.077A45.222,45.222,0,0,0,328.27,58.5l2.194.725a47.449,47.449,0,0,1-3.065,7.2Zm22.032,3.015-.055-2.311,7.639-.181.055,2.311ZM77.491,18.483l-.643-2.22c2.458-.711,4.976-1.348,7.486-1.89l.487,2.258C82.363,17.162,79.9,17.785,77.491,18.483ZM171.46,34.014c-2.485-1.5-4.568-2.732-6.557-3.868l1.147-2.007c2.005,1.147,4.111,2.385,6.605,3.9Zm193.257,35.06-.055-2.31,7.639-.181.055,2.31ZM380,68.712l-.055-2.31,7.639-.181.055,2.31ZM256.072,46.1a40.532,40.532,0,0,1-3.626-6.184c-.1-.207-.193-.417-.288-.627l2.109-.946c.088.2.178.393.27.588a38.052,38.052,0,0,0,3.419,5.838ZM92.262,15.29l-.332-2.284c2.535-.368,5.116-.653,7.673-.848l.175,2.3C97.275,14.65,94.746,14.929,92.262,15.29ZM158.24,26.5c-2.374-1.23-4.6-2.308-6.817-3.3l.941-2.109c2.255,1.007,4.525,2.1,6.939,3.35ZM395.276,68.35l-.055-2.31,7.639-.181.055,2.31ZM107.333,14.141l-.018-2.311c2.566-.02,5.162.049,7.717.2l-.142,2.307c-2.5-.151-5.043-.218-7.556-.2Zm37.082,6.243c-2.353-.85-4.774-1.623-7.2-2.3l.623-2.226c2.479.694,4.955,1.485,7.359,2.353ZM410.554,67.992l-.055-2.31,7.639-.181.055,2.31ZM122.426,15.063l.3-2.284c2.547.333,5.109.761,7.614,1.27l-.457,2.266C127.419,15.807,124.911,15.385,122.426,15.063Zm207.58,36.2a43.059,43.059,0,0,0,.5-7.416l2.31-.046a45.384,45.384,0,0,1-.525,7.813Zm-80.224-19.5a25.507,25.507,0,0,1-.25-7.967l2.284.3a23.124,23.124,0,0,0,.231,7.245Zm79.893,4.72a37.211,37.211,0,0,0-1.786-5.983c-.142-.358-.291-.72-.443-1.074l2.124-.914c.161.375.318.761.469,1.137a39.628,39.628,0,0,1,1.9,6.354ZM254.064,17.293l-2.027-1.11a25.436,25.436,0,0,1,4.917-6.28l1.584,1.675a23.089,23.089,0,0,0-4.474,5.706ZM323.9,22.918a42.839,42.839,0,0,0-4.666-5.786l1.675-1.6a45.23,45.23,0,0,1,4.917,6.091ZM264.477,7.265,263.343,5.25a39.59,39.59,0,0,1,7.207-3.141l.711,2.2a37.258,37.258,0,0,0-6.784,2.957Zm49.183,4.926a49.1,49.1,0,0,0-6.29-4.008l1.09-2.037a51.338,51.338,0,0,1,6.587,4.2ZM278.5,2.692,278.2.408a47.433,47.433,0,0,1,7.822-.372l-.082,2.308a45.155,45.155,0,0,0-7.435.347Zm22.035,2.473a49.767,49.767,0,0,0-7.2-1.97L293.783.92a52.14,52.14,0,0,1,7.531,2.062Z" transform="translate(0 -0.007)" fill="#1e0f00"/></g></g></g></svg>