<svg xmlns="http://www.w3.org/2000/svg" xmlns:xlink="http://www.w3.org/1999/xlink" width="637" height="410.903" viewBox="0 0 637 410.903"><defs><linearGradient id="a" x1="-0.139" y1="1.384" x2="1.04" y2="-0.331" gradientUnits="objectBoundingBox"><stop offset="0" stop-color="#fff"/><stop offset="1" stop-color="#fff"/></linearGradient><linearGradient id="b" x1="-0.185" y1="1.384" x2="1.159" y2="-0.305" xlink:href="#a"/><linearGradient id="c" x1="1.165" y1="-0.978" x2="0.422" y2="0.697" xlink:href="#a"/><linearGradient id="d" x1="0" y1="0.5" x2="1" y2="0.5" xlink:href="#a"/></defs><g transform="translate(-2314 3039)"><g transform="translate(287 -7670)"><g transform="translate(2027 4631)"><g transform="translate(0 0)"><g transform="translate(0 0)"><g transform="translate(0 0)"><path d="M228.781,392.338c-14.821-1.187-49.31-27.6-59.116-38.672-19.042-21.5-36.078-45.227-48.319-71.291C99.37,235.6,99.164,173.762,133.5,132.318,166.367,92.64,210.671,76.035,260.773,91.4c41.717,12.793,87.539,41.811,128.744,11.466,31.519-23.217,49.9-60.245,82.842-81.617,50.824-32.978,111.791-23.624,163.66,1.7,25.939,12.657,47.123,33.288,61.456,58.252,29.835,51.956,29.773,118.457,5.344,172.442-21.894,48.382-63.159,84.781-112.927,102.71-44.8,16.137-98.622,30.419-141.465,36.734C448.427,393.064,228.97,392.353,228.781,392.338Z" transform="translate(-83.544 -0.044)" fill="#f2f5fa"/><g transform="translate(363.404 164.618)" opacity="0.75"><path d="M1823.767,1015.652c-1.1-13.43-2.064-26.867-2.2-40.326-.386-36.946,6.41-76,30.493-104.005" transform="translate(-1798.176 -850.937)" fill="none" stroke="#4055ec" stroke-linecap="round" stroke-miterlimit="10" stroke-width="4"/><path d="M1956.014,776.755c1.463-.99,3.3-1.862,4.937-1.2s2.37,2.707,2.1,4.459a11.952,11.952,0,0,1-2.276,4.758c-2.041,3.019-14.728,23.34-16.874,12.252C1942.531,789.92,1950.759,780.305,1956.014,776.755Z" transform="translate(-1894.432 -775.325)" fill="#4055ec"/><path d="M1776.644,950.482c-1.062-1.378-2.1-3.123-1.841-4.729a2.8,2.8,0,0,1,3.278-2.2,10.97,10.97,0,0,1,4.289,2.028c2.826,1.862,21.658,13.377,12.967,15.863C1789.766,963.037,1780.466,955.433,1776.644,950.482Z" transform="translate(-1761.325 -907.812)" fill="#4055ec"/><path d="M1826.163,1379.753c-1.232-.868-2.533-2.047-2.729-3.44a2.419,2.419,0,0,1,2.149-2.652,9.5,9.5,0,0,1,4.064.582c2.811.82,21.318,5.542,14.766,9.808C1840.211,1386.785,1830.584,1382.872,1826.163,1379.753Z" transform="translate(-1799.643 -1246.565)" fill="#4055ec"/><path d="M1723.768,1305.059c-1.24-.679-2.576-1.641-2.9-2.92a2.271,2.271,0,0,1,1.724-2.7,8.881,8.881,0,0,1,3.848.117c2.707.467,20.454,2.922,14.8,7.587C1737.613,1310.136,1728.219,1307.492,1723.768,1305.059Z" transform="translate(-1718.816 -1188.018)" fill="#4055ec"/><path d="M1810.507,833.513c-1.062-2.76-1.382-6.48,1.062-8.145a5.167,5.167,0,0,1,5.26.072,15.14,15.14,0,0,1,4.049,3.724c4.393,5.153,8.852,10.415,11.491,16.651,3.308,7.82-8.593,2.21-11.194.558A26.917,26.917,0,0,1,1810.507,833.513Z" transform="translate(-1788.85 -814.2)" fill="#4055ec"/><path d="M1714.1,1109.29c-1.873-1.862-3.486-4.767-2.1-7.007a4.6,4.6,0,0,1,4.3-1.858,13.65,13.65,0,0,1,4.652,1.552c5.448,2.591,10.992,5.243,15.411,9.343,5.542,5.153-6.181,4.93-8.9,4.533A23.973,23.973,0,0,1,1714.1,1109.29Z" transform="translate(-1711.475 -1031.382)" fill="#4055ec"/><path d="M1878.493,1047.6a38.4,38.4,0,0,1,7.325,3.2c2.2,1.361,4.034,3.223,4.518,5.308a1.236,1.236,0,0,1-.019.826c-.251.518-1.062.709-1.769.8a24.775,24.775,0,0,1-14.337-2.913,32.64,32.64,0,0,1-10.2-8.812C1859.274,1039.995,1876.407,1046.855,1878.493,1047.6Z" transform="translate(-1830.971 -986.602)" fill="#4055ec"/><path d="M1907.7,974.968a41.461,41.461,0,0,1,7.366,2.973c2.221,1.261,4.077,2.992,4.593,4.926a1.061,1.061,0,0,1,0,.764c-.244.478-1.04.652-1.754.733a26.716,26.716,0,0,1-14.364-2.737,32.953,32.953,0,0,1-10.328-8.177C1888.391,967.872,1905.609,974.267,1907.7,974.968Z" transform="translate(-1853.956 -929.598)" fill="#4055ec"/><path d="M1835.951,1292.863a21.939,21.939,0,0,1,5.032,2.709,7.748,7.748,0,0,1,3.032,4.746,1.514,1.514,0,0,1-.032.762,1.583,1.583,0,0,1-1.249.79,13.222,13.222,0,0,1-9.92-2.225,23.55,23.55,0,0,1-6.916-7.786C1822.738,1286.493,1834.518,1292.254,1835.951,1292.863Z" transform="translate(-1801.181 -1180.395)" fill="#4055ec"/><path d="M1843.879,1207.759a36.618,36.618,0,0,1,6.128,3.633c1.8,1.421,3.213,3.2,3.4,4.988a.949.949,0,0,1-.108.675c-.28.391-1.011.437-1.654.425a23.959,23.959,0,0,1-12.366-4.365,29.524,29.524,0,0,1-8.052-8.642C1827.714,1198.873,1842.116,1206.863,1843.879,1207.759Z" transform="translate(-1805.365 -1111.794)" fill="#4055ec"/><path d="M1785.109,1050.841a18.146,18.146,0,0,0-11.411-8.109,8.212,8.212,0,0,0-4.884.161,3.956,3.956,0,0,0-2.58,3.835c.242,2.249,2.72,3.463,4.894,4.083a43.053,43.053,0,0,0,9.893,1.609,5.116,5.116,0,0,0,2.926-.486,1.916,1.916,0,0,0,.779-2.569" transform="translate(-1754.593 -985.724)" fill="#4055ec"/><path d="M1751.569,1223.721a18.162,18.162,0,0,0-11.411-8.109,8.176,8.176,0,0,0-4.873.161,3.972,3.972,0,0,0-2.58,3.835c.242,2.249,2.72,3.465,4.884,4.085a43.154,43.154,0,0,0,9.893,1.607,5.126,5.126,0,0,0,2.928-.486,1.917,1.917,0,0,0,.779-2.569" transform="translate(-1728.183 -1121.896)" fill="#4055ec"/><path d="M1868.324,1130.358c1.142.735,2.389,1.777,2.274,3.13-.121,1.435-1.722,2.261-3.151,2.438-3.707.459-7.219-1.554-10.415-3.493-3.493-2.123-7.02-4.192-10.481-6.37-4.483-2.809-1.605-3.6,2.246-3.045A49.5,49.5,0,0,1,1868.324,1130.358Z" transform="translate(-1816.076 -1049.061)" fill="#4055ec"/></g><path d="M1783.561,1012.174c5.557-2.65,11.286-5.714,14.589-10.908s3.106-13.116-2-16.562c-2.389-1.607-5.468-2.034-7.449-4.306a4.158,4.158,0,0,1-1.026-3.61c.425-1.873,2.009-2.336,3.47-2.729l22-5.945c7.432-2.011,15.439-4.4,20-10.6a9.662,9.662,0,0,0,2.094-5.232A8.09,8.09,0,0,0,1834,947.8a14.806,14.806,0,0,1,3.943-19.486,187.9,187.9,0,0,0,14.672-12.048,5.888,5.888,0,0,0,1.911-2.527,4.278,4.278,0,0,0-.879-3.625c-3.521-4.8-11.065-3.431-16.312-.622s-10.761,6.706-16.562,5.4c-3.539-.8-6.334-3.41-9.364-5.406-5.408-3.565-12.683-5.215-18.369-2.111-12.379,6.759-7.814,28.591-19.821,35.993-8.774,5.408-24.469-5.676-34.062-1.911-8.735,3.433-14.713,19.666-17.471,28.64-3.026,9.852-15.585,57.33-3.722,62.638,7.531,3.367,25.355-4.981,32.742-7.4A276.772,276.772,0,0,0,1783.561,1012.174Z" transform="translate(-1349.239 -713.43)" fill="#c3d1ff"/><path d="M1743.785,925.6c-71.011,40.106-125.171,97.278-166.525,167.225" transform="translate(-1242.355 -729.073)" fill="none" stroke="#f2f5fa" stroke-linecap="round" stroke-linejoin="round" stroke-width="3"/><path d="M1804.189,1365.984a4,4,0,0,0-3.032-.486,100.162,100.162,0,0,0-46.7,17.925" transform="translate(-1381.929 -1075.506)" fill="none" stroke="#f2f5fa" stroke-linecap="round" stroke-linejoin="round" stroke-width="3"/><path d="M511.33,1384.577q-.425.637-.9,1.229a20.671,20.671,0,0,1-8.069,5.733h0c-.291.123-.582.248-.883.367H286.116c-1.344-4.646-1.542-9.555,1.236-13.751,2.85-4.308,7.9-6.65,12.891-7.969s10.211-1.847,15.063-3.61a8.074,8.074,0,0,0,3.862-2.455c2.794-3.712-2.72-8.81-4.952-11.3-2.548-2.835-5.124-5.627-6.914-9.018-5.669-10.74,1.7-22.985,12.74-26.219a19.55,19.55,0,0,1,12.054-.083c4.65,1.614,7.039,6.451,12.655,5.075,4.884-1.2,7.19-6.217,7.117-10.884a47.573,47.573,0,0,0-2.263-12.528c-5.612-19.068,7.236-33.462,30.325-32.563a94.05,94.05,0,0,1,20.707,3.21,92.222,92.222,0,0,1,16.137,5.973c.234.11.467.212.694.338,9.011,4.47,19.337,1.372,28.665,4.584a22.28,22.28,0,0,1,13.413,14.473,16.352,16.352,0,0,1,.452,2.185h0a14.953,14.953,0,0,1-1.813,9.655,11.549,11.549,0,0,1-1.017,1.448,13.486,13.486,0,0,1-1.527,1.584c-3.871,3.442-9.317,4.688-13.6,7.527a16.135,16.135,0,0,0-4.48,4.376,13.436,13.436,0,0,0-2.077,10.3,10.341,10.341,0,0,0,1.531,3.805h0c3.981,6,13.8,6.054,20.437,6.011,3.8-.021,7.746-.28,11.712-.442,7.909-.321,15.925-.259,23.1,2.8a33.364,33.364,0,0,1,7.266,4.276.278.278,0,0,1,.068.053,37.557,37.557,0,0,1,10.086,11.98c.27.5.535,1.023.79,1.552a36.984,36.984,0,0,1,2.626,7.268C514.33,1374.733,514.237,1380.165,511.33,1384.577Z" transform="translate(-224.614 -997.638)" fill="#c3d1ff"/><path d="M752.115,1434.524c-.251.382-.52.747-.8,1.1a18.467,18.467,0,0,1-7.219,5.126h0c-.259.11-.52.223-.788.329H550.74c-1.2-4.153-1.378-8.54,1.1-12.3,2.548-3.852,7.06-5.945,11.525-7.124s9.13-1.652,13.47-3.236a7.217,7.217,0,0,0,3.453-2.2c2.5-3.319-2.431-7.875-4.427-10.1a41.245,41.245,0,0,1-6.183-8.069c-5.068-9.6,1.514-20.552,11.39-23.444a17.487,17.487,0,0,1,10.778-.074c4.16,1.444,6.294,5.769,11.317,4.54,4.372-1.072,6.427-5.561,6.37-9.733a42.668,42.668,0,0,0-2.024-11.209c-5.024-17.036,6.463-29.907,27.119-29.1a84.085,84.085,0,0,1,18.524,2.883,82.31,82.31,0,0,1,14.417,5.347c.212.1.425.2.622.3,8.069,4,17.29,1.225,25.635,4.1a19.917,19.917,0,0,1,11.995,12.942,14.56,14.56,0,0,1,.4,1.953h0a13.378,13.378,0,0,1-1.62,8.634,10.772,10.772,0,0,1-.909,1.3,12.329,12.329,0,0,1-1.365,1.416c-3.463,3.077-8.332,4.191-12.167,6.731a14.438,14.438,0,0,0-4,3.911,12.016,12.016,0,0,0-1.856,9.215,9.227,9.227,0,0,0,1.367,3.4h0c3.561,5.366,12.334,5.412,18.276,5.374,3.4-.017,6.924-.251,10.47-.393,7.075-.289,14.241-.234,20.656,2.505a29.951,29.951,0,0,1,6.5,3.822.329.329,0,0,1,.062.047,33.619,33.619,0,0,1,9.018,10.712c.242.45.478.915.7,1.389a32.94,32.94,0,0,1,2.348,6.5C754.8,1425.727,754.714,1430.581,752.115,1434.524Z" transform="translate(-433.129 -1046.812)" fill="#fff"/><path d="M891.043,1505.71s-52.429-52.956-79.423-68.01" transform="translate(-639.286 -1132.438)" fill="none" stroke="#fff" stroke-miterlimit="10" stroke-width="6"/><path d="M664.174,1630.208a219.623,219.623,0,0,1-45.586,9.421c-21.97,2.03-47.089.259-63.668-13.63" transform="translate(-437.092 -1280.755)" fill="none" stroke="#fff" stroke-miterlimit="10" stroke-width="6"/><path d="M422.9,1717.767s65.4,3.635,91.881-23.357" transform="translate(-333.104 -1334.64)" fill="none" stroke="#fff" stroke-miterlimit="10" stroke-width="6"/><path d="M2018.977,1424.544c.2.38.41.75.637,1.1a15.149,15.149,0,0,0,5.7,5.147c.212.112.412.212.622.331h151.844c.949-4.168,1.087-8.57-.87-12.339-4.425-8.512-18.637-4.96-21.809-13.908-1.089-3.075.155-6.455,1.586-9.385,1.911-3.937,4.221-7.731,5.438-11.942,1.625-5.625.041-14.226-5.073-17.734-7.559-5.2-11.891,4.327-19.076,3a7.191,7.191,0,0,1-5-4.554c-4.3-10.483,3.412-21.909-.4-32.521-3.151-8.778-11.906-13.494-20.949-13.046a53.381,53.381,0,0,0-14.609,2.892,56.916,56.916,0,0,0-11.368,5.364c-.166.1-.329.212-.491.3-6.353,4.009-13.634,1.229-20.216,4.113-4.421,1.937-8.2,7.283-9.457,12.984a18.058,18.058,0,0,0-.319,1.968,16.611,16.611,0,0,0,1.274,8.663,11,11,0,0,0,.718,1.3,11.657,11.657,0,0,0,1.074,1.42c2.731,3.087,6.582,4.206,9.6,6.752a13.294,13.294,0,0,1,3.157,3.926,14.772,14.772,0,0,1,1.465,9.245,10.9,10.9,0,0,1-1.081,3.419c-2.807,5.383-9.725,5.429-14.409,5.393-2.68-.019-5.461-.253-8.258-.4-5.578-.289-11.23-.231-16.288,2.516a23.151,23.151,0,0,0-5.126,3.837.313.313,0,0,0-.047.047,33.028,33.028,0,0,0-7.111,10.748c-.191.452-.378.917-.556,1.393a39.292,39.292,0,0,0-1.854,6.521C2016.862,1415.713,2016.928,1420.584,2018.977,1424.544Z" transform="translate(-1588.882 -1038.676)" fill="#c3d1ff"/><g transform="translate(536.737 341.726)" opacity="0.75"><path d="M2532.08,1693.319c1.962-5.172,2.888-3.631,5.213-8.644,6.37-13.761,15.789-27.043,29.658-33.175" transform="translate(-2531.171 -1642.566)" fill="none" stroke="#4055ec" stroke-linecap="round" stroke-miterlimit="10" stroke-width="4"/><path d="M2695.2,1624.6a2.278,2.278,0,0,1,2.043.425,1.7,1.7,0,0,1,0,2.026,4.919,4.919,0,0,1-1.684,1.361c-1.289.76-9.578,6.054-8.417,1.565C2687.87,1627.1,2692.62,1624.988,2695.2,1624.6Z" transform="translate(-2653.218 -1621.333)" fill="#4055ec"/><path d="M2609.994,1648.955a2.785,2.785,0,0,1,.153-2.077,1.147,1.147,0,0,1,1.6-.236,4.521,4.521,0,0,1,1.231,1.507c.72,1.189,5.667,8.784,2.009,8.171C2612.644,1655.926,2610.535,1651.467,2609.994,1648.955Z" transform="translate(-2592.445 -1638.567)" fill="#4055ec"/><path d="M2553.072,1816.776a2.4,2.4,0,0,1-.4-1.756,1,1,0,0,1,1.274-.605,3.771,3.771,0,0,1,1.4.934c.9.8,6.926,5.816,3.743,6.24C2557.038,1821.861,2554.161,1818.712,2553.072,1816.776Z" transform="translate(-2547.346 -1770.854)" fill="#4055ec"/><path d="M2528.382,1771a2.254,2.254,0,0,1-.563-1.592.93.93,0,0,1,1.117-.7,3.614,3.614,0,0,1,1.406.722c.921.65,7.066,4.693,4.145,5.423C2532.614,1775.335,2529.6,1772.692,2528.382,1771Z" transform="translate(-2527.801 -1734.87)" fill="#4055ec"/><path d="M2640.84,1612.275c.1-1.212.637-2.646,1.834-2.83a2.125,2.125,0,0,1,1.937.956,6.208,6.208,0,0,1,.849,2.1,27.384,27.384,0,0,1,1.321,8.2c-.153,3.484-3.576-.7-4.247-1.769A11.053,11.053,0,0,1,2640.84,1612.275Z" transform="translate(-2616.819 -1609.427)" fill="#4055ec"/><path d="M2558.04,1697.434c-.365-1.019-.45-2.382.461-2.973a1.888,1.888,0,0,1,1.922.072,5.551,5.551,0,0,1,1.45,1.4,24.155,24.155,0,0,1,4.064,6.187c1.145,2.888-3.161.737-4.1.11A9.836,9.836,0,0,1,2558.04,1697.434Z" transform="translate(-2551.415 -1676.224)" fill="#4055ec"/><path d="M2632.329,1702.042a15.819,15.819,0,0,1,2.153,2.48,3.855,3.855,0,0,1,.737,2.76.519.519,0,0,1-.153.3c-.185.147-.514.077-.8-.017a10.228,10.228,0,0,1-4.8-3.61,13.387,13.387,0,0,1-2.228-5.068C2626.547,1695.834,2631.688,1701.4,2632.329,1702.042Z" transform="translate(-2606.076 -1679.178)" fill="#4055ec"/><path d="M2656.058,1680.248a17.015,17.015,0,0,1,2.2,2.4,3.762,3.762,0,0,1,.834,2.637.448.448,0,0,1-.138.282c-.174.134-.5.057-.781-.038a10.964,10.964,0,0,1-4.841-3.55,13.5,13.5,0,0,1-2.385-4.854C2650.149,1674.211,2655.4,1679.621,2656.058,1680.248Z" transform="translate(-2624.737 -1662.078)" fill="#4055ec"/><path d="M2573.191,1785.409a9.087,9.087,0,0,1,1.387,1.894,3.186,3.186,0,0,1,.287,2.3.641.641,0,0,1-.146.276.653.653,0,0,1-.6.072,5.441,5.441,0,0,1-3.285-2.576,9.613,9.613,0,0,1-1.189-4.106C2569.418,1780.711,2572.766,1784.93,2573.191,1785.409Z" transform="translate(-2560.748 -1745.711)" fill="#4055ec"/><path d="M2591.322,1755.136a15.052,15.052,0,0,1,1.631,2.429,3.278,3.278,0,0,1,.384,2.45.382.382,0,0,1-.161.231c-.172.1-.45-.017-.686-.138a9.915,9.915,0,0,1-3.822-3.8,12.173,12.173,0,0,1-1.461-4.625C2586.9,1748.989,2590.827,1754.495,2591.322,1755.136Z" transform="translate(-2574.579 -1720.896)" fill="#4055ec"/><path d="M2594.8,1688.592a7.462,7.462,0,0,0-2.8-5.02,3.3,3.3,0,0,0-1.837-.8,1.629,1.629,0,0,0-1.631.966c-.308.877.4,1.765,1.094,2.378a17.6,17.6,0,0,0,3.382,2.336,2.114,2.114,0,0,0,1.17.338.789.789,0,0,0,.743-.815" transform="translate(-2575.58 -1667.196)" fill="#4055ec"/><path d="M2551.843,1746.742a7.459,7.459,0,0,0-2.8-5.02,3.309,3.309,0,0,0-1.837-.8,1.634,1.634,0,0,0-1.633.966c-.308.877.4,1.765,1.094,2.378a17.684,17.684,0,0,0,3.385,2.336,2.11,2.11,0,0,0,1.17.338.789.789,0,0,0,.743-.815" transform="translate(-2541.742 -1712.999)" fill="#4055ec"/><path d="M2613.947,1731.167a1.584,1.584,0,0,1,.291,1.563,1.382,1.382,0,0,1-1.6.346c-1.454-.484-2.4-1.849-3.244-3.132-.919-1.4-1.862-2.794-2.76-4.208-1.166-1.832.04-1.618,1.37-.733A20.307,20.307,0,0,1,2613.947,1731.167Z" transform="translate(-2589.524 -1699.941)" fill="#4055ec"/></g><path d="M2013.379,1487.969c.168.329.35.637.542.947a13.086,13.086,0,0,0,4.884,4.414c.176.1.352.191.533.282h130.224c.813-3.574.932-7.349-.748-10.581-3.792-7.3-15.982-4.247-18.7-11.927-.934-2.637.134-5.536,1.359-8.05,1.648-3.376,3.62-6.631,4.672-10.241,1.393-4.824.034-12.194-4.351-15.209-6.482-4.459-10.192,3.709-16.35,2.569a6.174,6.174,0,0,1-4.287-3.907c-3.684-8.99,2.928-18.789-.338-27.89-2.7-7.529-10.211-11.572-17.968-11.19a45.774,45.774,0,0,0-12.528,2.482,48.919,48.919,0,0,0-9.75,4.6c-.14.085-.282.172-.425.261-5.448,3.438-11.693,1.062-17.337,3.527-3.792,1.66-7.035,6.247-8.111,11.135a15.326,15.326,0,0,0-.272,1.7,14.206,14.206,0,0,0,1.1,7.432,9.142,9.142,0,0,0,.614,1.115,10.066,10.066,0,0,0,.924,1.219c2.335,2.648,5.635,3.61,8.228,5.79a11.46,11.46,0,0,1,2.709,3.368,12.664,12.664,0,0,1,1.255,7.928,9.34,9.34,0,0,1-.926,2.932c-2.408,4.616-8.34,4.656-12.36,4.625-2.3-.017-4.671-.213-7.081-.34-4.784-.248-9.629-.2-13.967,2.157a19.753,19.753,0,0,0-4.4,3.291.145.145,0,0,0-.04.04,28.311,28.311,0,0,0-6.1,9.217c-.164.386-.323.788-.478,1.193a33.9,33.9,0,0,0-1.588,5.593C2011.572,1480.4,2011.629,1484.574,2013.379,1487.969Z" transform="translate(-1584.677 -1100.508)" fill="#fff"/><rect width="165.049" height="39.006" rx="19.503" transform="translate(74.648 234.6)" fill="#f4d3a6"/><path d="M449.98,1144.49l3.605,7.307,8.064,1.172-5.835,5.686,1.378,8.033-7.213-3.792-7.213,3.792,1.378-8.033-5.835-5.686,8.064-1.172Z" transform="translate(-345.242 -901.486)" fill="#f88329"/><path d="M573.45,1144.49l3.608,7.307,8.062,1.172-5.835,5.686,1.378,8.033-7.213-3.792-7.211,3.792,1.376-8.033-5.835-5.686,8.064-1.172Z" transform="translate(-442.495 -901.486)" fill="#f88329"/><path d="M696.93,1144.49l3.605,7.307,8.064,1.172-5.835,5.686,1.378,8.033-7.213-3.792-7.213,3.792,1.378-8.033-5.835-5.686,8.064-1.172Z" transform="translate(-539.756 -901.486)" fill="#f88329"/><path d="M820.4,1144.49l3.608,7.307,8.062,1.172-5.835,5.686,1.378,8.033L820.4,1162.9l-7.211,3.792,1.376-8.033-5.835-5.686,8.064-1.172Z" transform="translate(-637.009 -901.486)" fill="#f88329"/><path d="M943.88,1144.49l3.605,7.307,8.064,1.172-5.835,5.686,1.378,8.033-7.213-3.792-7.213,3.792,1.378-8.033-5.835-5.686,8.064-1.172Z" transform="translate(-734.271 -901.486)" fill="#f88329"/><g transform="translate(135.358 186.9)" opacity="0.67"><path d="M780.637,1072.145l-43.543,15.5H696.918a15.22,15.22,0,0,1-.59-1.418l-34.806-97.7-2.365-6.652-20.809-58.377a15.029,15.029,0,0,1,9.147-19.191l55.986-19.923,9.116-3.245A15.065,15.065,0,0,1,727.8,884.2a14.845,14.845,0,0,1,4,6.026l.862,2.416,57.1,160.312A15.027,15.027,0,0,1,780.637,1072.145Z" transform="translate(-637.479 -880.264)" fill="#7789f2"/></g><path d="M796.992,1087.347l-62.439,22.219H723.047a10.434,10.434,0,0,1-4.476-5.468L661.986,945.272a10.532,10.532,0,0,1,6.406-13.443l11.041-3.93,4.436-1.578a3.323,3.323,0,0,1,4.2,2.1l.811,2.285a3.332,3.332,0,0,0,4.2,2.1l24.6-8.755a3.322,3.322,0,0,0,1.926-4.285l-.811-2.281a3.315,3.315,0,0,1,1.926-4.285l12.632-4.489a10.515,10.515,0,0,1,13.449,6.37L803.4,1073.913a10.532,10.532,0,0,1-6.406,13.434Z" transform="translate(-520.946 -715.291)" fill="#fff"/><rect width="68.233" height="4.565" transform="translate(186.13 324.882) rotate(-19.85)" fill="none" stroke="#a9b6ea" stroke-linecap="round" stroke-linejoin="round" stroke-width="5"/><path d="M969.84,1504.446c.055.155-13.589,5.226-30.493,11.324s-30.642,10.922-30.7,10.767,13.589-5.226,30.5-11.328S969.782,1504.292,969.84,1504.446Z" transform="translate(-715.712 -1185.008)" fill="none" stroke="#a9b6ea" stroke-linecap="round" stroke-linejoin="round" stroke-width="5"/><path d="M796.7,1024.857c.055.155-13.589,5.225-30.491,11.326s-30.642,10.92-30.7,10.765,13.589-5.226,30.493-11.326S796.642,1024.7,796.7,1024.857Z" transform="translate(-579.336 -807.252)" fill="none" stroke="#c3d1ff" stroke-miterlimit="10" stroke-width="3"/><path d="M983.128,1541.247c.057.155-13.589,5.228-30.491,11.326s-30.642,10.914-30.7,10.765,13.589-5.223,30.5-11.326S983.072,1541.092,983.128,1541.247Z" transform="translate(-726.18 -1213.995)" fill="none" stroke="#a9b6ea" stroke-linecap="round" stroke-linejoin="round" stroke-width="5"/><path d="M996.418,1578.056c.055.155-13.589,5.226-30.491,11.324s-30.642,10.922-30.7,10.767,13.589-5.226,30.5-11.328S996.362,1577.9,996.418,1578.056Z" transform="translate(-736.648 -1242.989)" fill="none" stroke="#a9b6ea" stroke-linecap="round" stroke-linejoin="round" stroke-width="5"/><path d="M1009.707,1614.857c.055.155-13.589,5.228-30.491,11.326s-30.642,10.92-30.7,10.765,13.589-5.223,30.493-11.326S1009.652,1614.7,1009.707,1614.857Z" transform="translate(-747.117 -1271.975)" fill="none" stroke="#a9b6ea" stroke-linecap="round" stroke-linejoin="round" stroke-width="5"/><path d="M1023.01,1651.668c.055.155-13.589,5.226-30.491,11.326s-30.642,10.92-30.7,10.765,13.589-5.226,30.5-11.326S1022.948,1651.524,1023.01,1651.668Z" transform="translate(-757.593 -1300.971)" fill="none" stroke="#a9b6ea" stroke-linecap="round" stroke-linejoin="round" stroke-width="5"/><path d="M1042.188,1691.907c.055.155-13.589,5.228-30.493,11.326s-30.642,10.92-30.695,10.774,13.589-5.225,30.5-11.326S1042.13,1691.751,1042.188,1691.907Z" transform="translate(-772.7 -1332.665)" fill="none" stroke="#a9b6ea" stroke-linecap="round" stroke-linejoin="round" stroke-width="5"/><path d="M1713.237,1150.672l-2.2,8.164-4,14.815-21.416,79.326H1534.391l-62.182-16.789a4.062,4.062,0,0,1-2.865-4.981l36.84-136.435a4.06,4.06,0,0,1,4.981-2.864l162.97,44,29.162,7.871,7.077,1.911A4.066,4.066,0,0,1,1713.237,1150.672Z" transform="translate(-1157.242 -859.957)" fill="#7789f2"/><path d="M1746.8,1173.568,1717.9,1280.635H1606.184l-68.794-18.573,36.5-135.182Z" transform="translate(-1210.95 -887.615)" fill="#fff"/><path d="M2462.974,1650.427a5.733,5.733,0,1,1-7.03,4.034A5.733,5.733,0,0,1,2462.974,1650.427Z" transform="translate(-1934.306 -1299.838)" fill="#4055ec"/><rect width="45.01" height="2.37" rx="1.185" transform="translate(330.623 326.373) rotate(-74.89)" fill="#0600a0"/><rect width="56.961" height="3.809" transform="translate(439.057 270.721) rotate(15.11)" fill="#c3d1ff"/><rect width="56.961" height="3.811" transform="translate(350.355 314.627) rotate(15.11)" fill="#c3d1ff"/><path d="M2088.119,1471.493c-.036.132-15.375-3.894-34.258-8.992s-34.167-9.343-34.131-9.472,15.371,3.892,34.26,8.992S2088.159,1471.355,2088.119,1471.493Z" transform="translate(-1590.874 -1144.509)" fill="none" stroke="#c3d1ff" stroke-miterlimit="10" stroke-width="5"/><path d="M2077.9,1509.3c-.036.131-15.375-3.894-34.258-8.992s-34.167-9.343-34.133-9.472,15.373,3.892,34.262,8.992S2077.937,1509.17,2077.9,1509.3Z" transform="translate(-1582.823 -1174.291)" fill="none" stroke="#c3d1ff" stroke-miterlimit="10" stroke-width="5"/><path d="M2052.706,1543.08c-.036.132-12.018-2.988-26.754-6.967s-26.669-7.317-26.633-7.449,12.016,2.985,26.754,6.967S2052.742,1542.947,2052.706,1543.08Z" transform="translate(-1574.797 -1204.084)" fill="none" stroke="#c3d1ff" stroke-miterlimit="10" stroke-width="5"/><path d="M1724.171,1574.974c-.036.132-20.148-5.183-44.919-11.871s-44.83-12.218-44.8-12.351,20.146,5.181,44.924,11.871S1724.2,1574.84,1724.171,1574.974Z" transform="translate(-1287.401 -1221.482)" fill="none" stroke="#c3d1ff" stroke-miterlimit="10" stroke-width="5"/><path d="M1715.611,1606.512c-.036.134-20.151-5.181-44.919-11.87s-44.83-12.22-44.8-12.351,20.144,5.181,44.923,11.872S1715.648,1606.38,1715.611,1606.512Z" transform="translate(-1280.659 -1246.325)" fill="none" stroke="#c3d1ff" stroke-miterlimit="10" stroke-width="5"/><path d="M1707.091,1638.052c-.036.132-20.148-5.183-44.919-11.869s-44.83-12.22-44.8-12.351,20.146,5.181,44.923,11.869S1707.127,1637.918,1707.091,1638.052Z" transform="translate(-1273.948 -1271.168)" fill="none" stroke="#c3d1ff" stroke-miterlimit="10" stroke-width="5"/><path d="M1698.582,1669.584c-.036.132-20.151-5.183-44.919-11.872s-44.83-12.218-44.8-12.351,20.144,5.181,44.923,11.872S1698.618,1669.45,1698.582,1669.584Z" transform="translate(-1267.245 -1296.003)" fill="none" stroke="#c3d1ff" stroke-miterlimit="10" stroke-width="5"/><path d="M1690.061,1701.142c-.036.134-20.148-5.181-44.919-11.869s-44.83-12.22-44.8-12.352,20.146,5.181,44.923,11.872S1690.1,1701.006,1690.061,1701.142Z" transform="translate(-1260.534 -1320.862)" fill="none" stroke="#c3d1ff" stroke-miterlimit="10" stroke-width="5"/><path d="M2037.206,1379.43l.777,3.758,3.535,1.491-3.334,1.9-.323,3.822-2.839-2.582-3.737.873,1.58-3.5-1.985-3.283,3.815.42Z" transform="translate(-1599.656 -1086.54)" fill="#f88329"/><path d="M2093.483,1394.07l.777,3.758,3.537,1.491-3.333,1.9-.325,3.824-2.839-2.582-3.735.873,1.58-3.5-1.985-3.285,3.813.422Z" transform="translate(-1643.986 -1098.072)" fill="#f88329"/><path d="M2149.753,1408.71l.779,3.756,3.535,1.491-3.334,1.9-.325,3.824-2.837-2.584-3.737.875,1.58-3.5-1.985-3.285,3.813.423Z" transform="translate(-1688.308 -1109.603)" fill="#f88329"/><path d="M2206.033,1423.35l.777,3.756,3.535,1.491-3.333,1.9-.323,3.824-2.839-2.584-3.737.873,1.58-3.5-1.983-3.283,3.813.423Z" transform="translate(-1732.638 -1121.134)" fill="none" stroke="#f88329" stroke-linejoin="round" stroke-width="2"/><path d="M2262.3,1437.98l.777,3.758,3.538,1.49-3.334,1.9-.325,3.822-2.837-2.582-3.737.873,1.58-3.5-1.986-3.283,3.814.42Z" transform="translate(-1776.96 -1132.658)" fill="none" stroke="#f88329" stroke-linejoin="round" stroke-width="2"/><g transform="translate(160.703 228.472)" opacity="0.65"><path d="M760.341,1147.24l2.514,2.438,3.431-.688-1.542,3.143,1.716,3.053-3.465-.495-2.374,2.573-.6-3.448-3.183-1.461,3.1-1.637Z" transform="translate(-756.84 -1132.124)" fill="#f88329"/><path d="M810.321,1129.44l2.514,2.438,3.431-.688-1.542,3.142,1.716,3.053-3.465-.495-2.374,2.573-.6-3.448-3.183-1.461,3.1-1.637Z" transform="translate(-796.208 -1118.104)" fill="#f88329"/><path d="M860.3,1111.64l2.514,2.438,3.431-.688-1.542,3.145,1.716,3.051-3.465-.495-2.374,2.573-.6-3.448-3.181-1.461,3.1-1.637Z" transform="translate(-835.575 -1104.083)" fill="#f88329"/><path d="M910.281,1093.84l2.514,2.44,3.431-.69-1.542,3.145,1.716,3.051-3.467-.495-2.372,2.576-.6-3.45-3.181-1.461,3.1-1.637Z" transform="translate(-874.943 -1090.063)" fill="#f88329"/><path d="M960.261,1076.05l2.512,2.438,3.433-.688-1.542,3.142,1.716,3.051-3.465-.495-2.374,2.576-.6-3.45-3.181-1.461,3.1-1.637Z" transform="translate(-914.31 -1076.05)" fill="none" stroke="#f88329" stroke-linejoin="round" stroke-width="2"/></g><path d="M849.352,1152.4c.042.119-13.506,5.2-30.255,11.355s-30.364,11.041-30.417,10.931,13.5-5.2,30.26-11.356S849.307,1152.286,849.352,1152.4Z" transform="translate(-621.216 -907.717)" fill="none" stroke="#c3d1ff" stroke-miterlimit="10" stroke-width="2"/><path d="M838.68,1118.842c.045.119-13.5,5.2-30.255,11.356s-30.364,11.041-30.415,10.931,13.5-5.2,30.26-11.356S838.637,1118.726,838.68,1118.842Z" transform="translate(-612.812 -881.282)" fill="none" stroke="#c3d1ff" stroke-miterlimit="10" stroke-width="2"/><path d="M850.035,1208.99c.042.119-10.525,4.109-23.6,8.918s-23.72,8.6-23.762,8.493,10.523-4.106,23.605-8.918S849.99,1208.871,850.035,1208.99Z" transform="translate(-632.235 -952.288)" fill="none" stroke="#c3d1ff" stroke-miterlimit="10" stroke-width="2"/><path d="M776.527,1589.02c-6.4-9.767-12.889-19.488-19.959-28.776-19.395-25.48-44.839-48.6-76.228-54.954" transform="translate(-535.881 -1185.676)" fill="none" stroke="#4055ec" stroke-miterlimit="10" stroke-width="4"/><path d="M591.818,1463.355c-1.529.1-3.251.482-4.015,1.809a3.573,3.573,0,0,0,.932,4.172,10.442,10.442,0,0,0,4.092,2.045c3,.981,22.507,8.135,18.072-.594C608.059,1465.187,597.309,1462.988,591.818,1463.355Z" transform="translate(-462.719 -1152.614)" fill="#4055ec"/><path d="M822.367,1462.6c0-1.51-.225-3.253-1.257-4.215a2.425,2.425,0,0,0-3.414.242,9.538,9.538,0,0,0-1.856,3.669c-.943,2.779-7.7,20.69-.425,17.759C820.07,1478.175,822.386,1468.021,822.367,1462.6Z" transform="translate(-639.65 -1148.256)" fill="#4055ec"/><path d="M1004.972,1782.585a5.106,5.106,0,0,0,.036-3.805,2.1,2.1,0,0,0-2.883-.673,8.221,8.221,0,0,0-2.472,2.563c-1.486,2.055-11.64,15.139-4.884,14.57C999.1,1794.877,1003.6,1787.074,1004.972,1782.585Z" transform="translate(-781.737 -1400.331)" fill="#4055ec"/><path d="M1032.78,1676.978a4.711,4.711,0,0,0,.425-3.542,1.972,1.972,0,0,0-2.616-.93,7.81,7.81,0,0,0-2.573,2.123c-1.6,1.76-12.443,12.886-6.088,13.067C1026.012,1687.818,1031.032,1681.019,1032.78,1676.978Z" transform="translate(-803.378 -1317.254)" fill="#4055ec"/><path d="M745.866,1402.461c-.743-2.459-2.5-5.17-5.066-5.007a4.483,4.483,0,0,0-3.563,2.849,13.169,13.169,0,0,0-.79,4.705c-.261,5.865-.514,11.84,1,17.513,1.9,7.113,7.058-3.062,7.956-5.576A23.293,23.293,0,0,0,745.866,1402.461Z" transform="translate(-579.919 -1100.731)" fill="#4055ec"/><path d="M936.914,1539.565c.291-2.272-.151-5.117-2.3-5.918a3.986,3.986,0,0,0-3.935,1.019,11.773,11.773,0,0,0-2.357,3.537c-2.35,4.671-4.733,9.44-5.572,14.6-1.049,6.476,6.856.083,8.493-1.635A20.716,20.716,0,0,0,936.914,1539.565Z" transform="translate(-726.748 -1207.865)" fill="#4055ec"/><path d="M787.645,1580.968a33.521,33.521,0,0,0-3.312,6.088c-.786,2.1-1.045,4.353-.263,6.043a1.061,1.061,0,0,0,.463.556c.446.212,1.1-.074,1.635-.4a21.469,21.469,0,0,0,8.26-9.625,28.333,28.333,0,0,0,2.3-11.466C796.752,1565.535,788.677,1579.352,787.645,1580.968Z" transform="translate(-617.213 -1236.944)" fill="#4055ec"/><path d="M727.333,1546.723a35.42,35.42,0,0,0-3.457,5.958c-.847,2.049-1.2,4.219-.52,5.818a.925.925,0,0,0,.41.518c.425.2,1.062-.108,1.593-.425a23.194,23.194,0,0,0,8.374-9.519,28.62,28.62,0,0,0,2.714-11.092C736.778,1531.594,728.4,1545.139,727.333,1546.723Z" transform="translate(-569.482 -1210.086)" fill="#4055ec"/><path d="M964.456,1726.1a19.1,19.1,0,0,0-2,4.533,6.708,6.708,0,0,0,.452,4.862,1.274,1.274,0,0,0,.425.5,1.362,1.362,0,0,0,1.274-.123,11.464,11.464,0,0,0,5.6-6.795,20.422,20.422,0,0,0,.59-9.009C970.1,1714.695,965.11,1724.915,964.456,1726.1Z" transform="translate(-757.896 -1353.629)" fill="#4055ec"/><path d="M909.749,1671.788a32.011,32.011,0,0,0-2.261,5.748,7.118,7.118,0,0,0,.323,5.23.83.83,0,0,0,.425.4c.4.119.924-.238,1.35-.6a20.775,20.775,0,0,0,6.143-9.568,25.555,25.555,0,0,0,.911-10.192C916.082,1657.1,910.477,1670.238,909.749,1671.788Z" transform="translate(-714.537 -1308.625)" fill="#4055ec"/><path d="M865.861,1538.1a15.736,15.736,0,0,1,3.495-11.623,7.086,7.086,0,0,1,3.421-2.484,3.446,3.446,0,0,1,3.8,1.253c1.032,1.667-.017,3.822-1.174,5.4a37.368,37.368,0,0,1-5.916,6.37,4.452,4.452,0,0,1-2.261,1.225,1.661,1.661,0,0,1-1.9-1.344" transform="translate(-681.591 -1200.298)" fill="#4055ec"/><path d="M980.8,1638.526a15.73,15.73,0,0,1,3.493-11.621,7.082,7.082,0,0,1,3.421-2.484,3.453,3.453,0,0,1,3.807,1.251c1.032,1.669-.019,3.822-1.176,5.4a37.191,37.191,0,0,1-5.916,6.37,4.437,4.437,0,0,1-2.261,1.225,1.678,1.678,0,0,1-1.911-1.344" transform="translate(-772.118 -1279.406)" fill="#4055ec"/><path d="M836.86,1632.676c-.393,1.111-.692,2.489.108,3.353.849.917,2.382.637,3.453,0,2.782-1.66,4.115-4.907,5.27-7.935,1.261-3.308,2.573-6.606,3.788-9.933,1.571-4.308-.818-3.317-3.159-.888a42.894,42.894,0,0,0-9.459,15.4Z" transform="translate(-658.855 -1272.241)" fill="#4055ec"/><g transform="translate(157.036 186.894)"><path d="M741.938,988.5l5.8,2.635h0l4.16,1.892,48.529-106.7,2.414-5.308a14.99,14.99,0,0,0-9.818.1l-9.113,3.242-8.735,19.21-32.878,72.293-2.722,5.99Z" transform="translate(-739.57 -880.233)" fill="url(#a)"/></g><g transform="translate(175.071 190.838)"><path d="M879.995,907.252l-2.722,6-45.543,100.12-7.219-3.278,48.325-106.243,2.3-5.041a14.879,14.879,0,0,1,4,6.026Z" transform="translate(-824.51 -898.81)" fill="url(#b)"/></g><g transform="translate(377.769 275.952)"><path d="M1918.255,1299.66l-5.916,3.285-17.9,9.952-.081.04-27.236,15.131-.028.013-6.158,3.418-10.651,5.914-.567.316-9.922,5.521-.469.261-10.056,5.584-.3.166-30.563,16.987-.62.344-5.2,2.892-.461,2.251-.1.491-1.3,6.321-.1.484-1.3,6.319-.1.488-.363,1.775a9.982,9.982,0,0,0,.064,4.225l7.591-4.034.637-.333,8.343-4.436.6-.321,8.387-4.459.552-.3,8.445-4.487.471-.255,31.381-16.687.637-.34,10.109-5.376.637-.34,10.128-5.387.6-.318,9.536-5.073.425-.212,48.771-25.939,11.239-5.977Zm11.891,36.2-39.74,21.083-.374.2-60.364,32.024-.306.161-8.6,4.561-.444.236-8.493,4.5-.531.28-32.166,13.224,33.7,4.279,16.267-12.838.172-.1,96.782-52.463,25.1-13.611,4-14.815Z" transform="translate(-1779.13 -1299.66)" fill-rule="evenodd" opacity="0.67" fill="url(#c)"/></g><path d="M2358.05,174.554a47.986,47.986,0,0,1-1.94,10.748c-.03.117-.066.231-.1.344a60.649,60.649,0,0,1-11.678,20.932,91.887,91.887,0,0,1-25.068,20.505c-17.229,9.842-37.912,15.324-57.1,14.3-13.347-.711-25.975-4.565-36.22-12.3-8.627-6.517-15.571-15.781-19.819-28.24-14.116-41.356,10.064-70.163,43.031-82.772h0a110.107,110.107,0,0,1,33.269-7.02,96.469,96.469,0,0,1,35.84,4.529C2342.39,123.779,2360.072,142.885,2358.05,174.554Z" transform="translate(-1734.452 -87.365)" fill="#d3e0f1"/><path d="M2365.4,567.4l-11.466,2.123c-13.356-.558-26.026-4.268-36.358-11.891l.8-9.767a17.524,17.524,0,0,1,1.041-5.62,21.708,21.708,0,0,1,8.665-10.617l.019-.013a26.183,26.183,0,0,1,2.548-1.486h0a27.462,27.462,0,0,1,15.038-2.76,25.365,25.365,0,0,1,2.973.488,24,24,0,0,1,4.871,1.648,20.6,20.6,0,0,1,6.7,4.884,17.621,17.621,0,0,1,3.219,5.149l8.508,17.7C2374.016,561.441,2370.8,566.4,2365.4,567.4Z" transform="translate(-1825.48 -415.288)" fill="#85a9ff"/><path d="M2360.882,414.739c-4.51-1.52-8.9,2.283-8.9,2.283l-6.085,9.833a21.883,21.883,0,0,0,2.336,6.028c1.438,2.41,5.835,3.61,6.073,5.211.446,2.973-3.321,4.355-3.321,4.355l4.506,8.931,15.674-2.682c-.212-1.5,3.578-9.1-1.274-9.767-3.718-.505-4.943-2.59-5.2-3.644-.425-1.779,6.38-1.253,6.157-3.036a77.374,77.374,0,0,0-1.711-9.234C2369.078,422.774,2364.891,416.1,2360.882,414.739Z" transform="translate(-1847.787 -326.403)" fill="#fff"/><path d="M2368.226,538.179a24.89,24.89,0,0,1-9.22,10.37c-12.84,8.43-24.688,6.712-32.846-4.31a16.731,16.731,0,0,1,9.288-10.878s7.92,5.945,10.91,5.393c2.82-.522,7.644-8.022,8.2-8.876.034-.051.049-.079.049-.079A16.79,16.79,0,0,1,2368.226,538.179Z" transform="translate(-1832.238 -417.315)" fill="#85a9ff"/><path d="M2375.93,396.132a9.645,9.645,0,0,0-3.58,1.461c4.521,6.37,10.483,3.5,17.659,11.162-.038-.261-.076-.527-.125-.792C2388.453,400.266,2382.2,394.964,2375.93,396.132Z" transform="translate(-1868.62 -311.902)" fill="#85a9ff"/><path d="M2348.683,401.058a15.684,15.684,0,0,0-1.877,11.128c.115.614-.193,2.032-.026,2.616,1.308-.66,2.026-4.782,6.37-7.788,5.536-3.839,8.372-4.312,9.632-9.442a10.139,10.139,0,0,0-7.2-1.442A10.4,10.4,0,0,0,2348.683,401.058Z" transform="translate(-1848.268 -311.9)" fill="#85a9ff"/><path d="M2341.328,402.2c-4.336,6.625-1.852,21.433-3.437,24.187-2.527,4.372,8.147,2.387,9.4.144a9.931,9.931,0,0,0,.934-2.867c-3.871-2.3-7.255-5.521-8.228-10.75-.378-2.03,7.279-13.322,7.6-15.182C2343.438,399.027,2341.982,401.2,2341.328,402.2Z" transform="translate(-1841.174 -313.288)" fill="#85a9ff"/><path d="M2418.537,407.886c-1.015-2.336-3.7-9.366-10.616-10.676,1,1.68,8.582,8.593,8.975,10.7a16.177,16.177,0,0,1-3.741,13.878,7.535,7.535,0,0,0,1.758,2.024c2.045,1.7,13.118-.352,9.043-3.644C2421.951,418.556,2420.66,412.763,2418.537,407.886Z" transform="translate(-1896.638 -312.878)" fill="#85a9ff"/><path d="M2421.1,588.5a1.227,1.227,0,1,0,1.431.981A1.227,1.227,0,0,0,2421.1,588.5Z" transform="translate(-1906.229 -463.538)" fill="#e2eaf5"/><path d="M2426.559,617.865a1.227,1.227,0,1,0,1.431.983A1.227,1.227,0,0,0,2426.559,617.865Z" transform="translate(-1910.529 -486.665)" fill="#e2eaf5"/><path d="M2788.388,449.085a60.661,60.661,0,0,1-11.438,21.066,91.885,91.885,0,0,1-24.843,20.79,6.054,6.054,0,0,1-1.274-4.279l1.616-19.569a17.393,17.393,0,0,1,1.042-5.627,21.168,21.168,0,0,1,6.559-9.069,23.653,23.653,0,0,1,2.087-1.542.023.023,0,0,1,.019-.013,25.927,25.927,0,0,1,2.569-1.486h0a27.47,27.47,0,0,1,15.035-2.76h0a26.607,26.607,0,0,1,2.76.444h.015l.249.055h0a23.715,23.715,0,0,1,2.416.682,22.164,22.164,0,0,1,2.4.956A7.185,7.185,0,0,1,2788.388,449.085Z" transform="translate(-2166.72 -351.67)" fill="#85a9ff"/><path d="M2797.991,333.889c-4.512-1.52-8.9,2.283-8.9,2.283L2783,346a21.89,21.89,0,0,0,2.336,6.028c1.435,2.408,5.833,3.61,6.073,5.211.446,2.973-3.321,4.353-3.321,4.353l4.505,8.933,15.675-2.69c-.2-1.5,3.578-9.1-1.274-9.757-3.718-.505-4.943-2.59-5.2-3.644-.425-1.779,6.383-1.253,6.158-3.039a77.157,77.157,0,0,0-1.713-9.232C2806.185,341.922,2802,335.244,2797.991,333.889Z" transform="translate(-2192.076 -262.72)" fill="#fff"/><path d="M2798.33,450.735c-.028.115-.062.231-.1.344a60.661,60.661,0,0,1-11.438,21.066c-9.13,2.58-17.333-.437-23.457-8.684,0,0-.019-.028-.03-.04a16.4,16.4,0,0,1,6.429-9.213c.276-.2.563-.38.849-.561.461-.287.924-.556,1.4-.8a.023.023,0,0,1,.019-.013c.051-.028.1-.055.151-.079.146-.076.295-.147.438-.212,0,0,7.92,5.945,10.91,5.4,2.822-.522,7.657-8.024,8.2-8.88a.341.341,0,0,1,.051-.074c.212.017.425.038.622.059.093.011.187.019.276.032h0a20.123,20.123,0,0,1,2.489.476,16.975,16.975,0,0,1,3.189,1.178Z" transform="translate(-2176.567 -353.664)" fill="#85a9ff"/><path d="M2813.07,315.274a9.669,9.669,0,0,0-3.58,1.463c4.521,6.37,10.34,9.1,17.517,16.764-.038-.261.066-6.128.017-6.4C2825.593,319.408,2819.34,314.108,2813.07,315.274Z" transform="translate(-2212.941 -248.213)" fill="#85a9ff"/><path d="M2785.821,320.2a15.689,15.689,0,0,0-1.875,11.126c.115.616-.193,2.034-.025,2.616a88.264,88.264,0,0,0,8.58-5.446c5.535-3.839,6.158-6.655,7.415-11.782a10.14,10.14,0,0,0-7.2-1.444A10.409,10.409,0,0,0,2785.821,320.2Z" transform="translate(-2192.588 -248.213)" fill="#85a9ff"/><path d="M2778.227,321.338c-4.336,6.625-4.28,21.41-3.44,24.189,1.417,4.671,8.149,2.387,9.4.142a9.854,9.854,0,0,0,.937-2.864c-3.873-2.3-7.255-5.521-8.228-10.75-.378-2.032,7.277-13.322,7.6-15.184C2780.336,318.172,2778.879,320.342,2778.227,321.338Z" transform="translate(-2185.254 -249.597)" fill="#85a9ff"/><path d="M2855.667,327.028c-1.013-2.336-3.7-9.368-10.617-10.678,1,1.682,8.585,8.6,8.976,10.7a16.174,16.174,0,0,1-3.739,13.878,7.527,7.527,0,0,0,1.758,2.021c2.045,1.7,8.154,1.518,9.043-3.644C2861.4,337.492,2857.79,331.9,2855.667,327.028Z" transform="translate(-2240.95 -249.188)" fill="#85a9ff"/><path d="M2819.019,449.64c-.327-.085-.658-.157-.99-.212-.6-.115-1.191-.212-1.786-.268l-1.93,3.319a17.765,17.765,0,0,1-3.567,4.357l-1.353,1.2a3.745,3.745,0,0,1-3.8.7l-1.7-.637a17.836,17.836,0,0,1-4.884-2.792l-2.985-2.421a17.926,17.926,0,0,0-1.571.888c-.287.178-.569.363-.849.561l7.746,9.281,6.381-3.964,7.376,1.418Z" transform="translate(-2200.425 -353.798)" fill="#fff"/><path d="M2440.312,66.8l-18.288,3.382a30.4,30.4,0,0,0-24.365,35.426h0a30.347,30.347,0,0,0,16.382,21.7l5.4,29.192L2433,129.986l.081-.013,16.657-3.081,24.1,13.014-7.9-20.384a30.383,30.383,0,0,0,9.8-28.347h0A30.4,30.4,0,0,0,2440.312,66.8Z" transform="translate(-1888.151 -52.221)" fill="#fff"/><line y1="8.96" x2="42.586" transform="translate(523.447 33.378)" fill="none" stroke="#d3e0f1" stroke-linecap="round" stroke-linejoin="round" stroke-width="4"/><line y1="8.958" x2="42.583" transform="translate(526.254 48.43)" fill="none" stroke="#d3e0f1" stroke-linecap="round" stroke-linejoin="round" stroke-width="4"/><path d="M138.161,432.114c-1.845,24.346-17.244,46.34-38.074,59.029q-1.486.9-2.973,1.722c-21,11.54-42,9.854-58.528-.45-16.458-10.245-28.476-29.051-31.661-51.843a51.9,51.9,0,0,1,.291-16.105A64.217,64.217,0,0,1,19.868,396.6c15.577-20.363,42.182-33.9,66.074-31.68.316.028.637.062.947.1a51.015,51.015,0,0,1,21.04,7.415,63.646,63.646,0,0,1,19.724,19.56,68.794,68.794,0,0,1,4.506,8.069,67.373,67.373,0,0,1,3.355,8.583,61.3,61.3,0,0,1,2.548,12.483A64.379,64.379,0,0,1,138.161,432.114Z" transform="translate(-5.068 -287.256)" fill="#d3e0f1"/><path d="M21.114,492.164l-3.822,1.151A24.265,24.265,0,0,0,1.033,523.543h0a24.261,24.261,0,0,0,18.925,16.893h-.013L34.928,553l.979-14.628a24.266,24.266,0,0,0,15.435-29.952h0a24.268,24.268,0,0,0-30.228-16.254Z" transform="translate(0.001 -386.856)" fill="#fff"/><path d="M56.784,616.769c2.869,0,2.873-4.459,0-4.459S53.909,616.769,56.784,616.769Z" transform="translate(-43.029 -482.305)" fill="#d3e0f1"/><path d="M114.524,599.459c2.869,0,2.873-4.459,0-4.459S111.649,599.459,114.524,599.459Z" transform="translate(-88.509 -468.671)" fill="#d3e0f1"/><path d="M172.254,582.049c2.871,0,2.875-4.459,0-4.459S169.381,582.049,172.254,582.049Z" transform="translate(-133.981 -454.958)" fill="#d3e0f1"/><path d="M219.115,799.281c-24.287,13.345-48.569,11.394-67.675-.518l5.984-22.008a21.172,21.172,0,0,1,2.482-6.472,26.384,26.384,0,0,1,12.687-10.759,31.193,31.193,0,0,1,3.353-1.2,33.285,33.285,0,0,1,18.552,0,30.129,30.129,0,0,1,3.444,1.238,28.979,28.979,0,0,1,5.446,3.036,24.918,24.918,0,0,1,6.9,7.292,21.211,21.211,0,0,1,2.707,6.86Z" transform="translate(-119.284 -596.281)" fill="#85a9ff"/><path d="M262.68,618.583c-5.041-2.807-11.105.758-11.105.758l-9.417,10.372a26.147,26.147,0,0,0,1.461,7.7c1.183,3.185,6.158,5.578,6.088,7.546-.121,3.629-4.916,4.459-4.916,4.459l3.4,11.634,19.263.246c.089-1.826,6.268-10.052.637-11.9-4.308-1.42-5.317-4.181-5.385-5.484-.115-2.213,7.88-.087,8.016-2.259a94.7,94.7,0,0,0,0-11.379C270.675,629.962,267.158,621.082,262.68,618.583Z" transform="translate(-190.737 -486.398)" fill="#fff"/><path d="M242.629,780.7a30.312,30.312,0,0,1-13.271,10.326c-17.159,7.219-30.9,2.548-38.188-12.375a20.281,20.281,0,0,1,13.462-10.916s8.128,8.835,11.812,8.831c3.476,0,10.888-7.873,11.723-8.769l.076-.083A20.351,20.351,0,0,1,242.629,780.7Z" transform="translate(-150.578 -604.709)" fill="#85a9ff"/><path d="M293.589,593.52a11.691,11.691,0,0,0-4.589.951c3.981,8.58,11.719,6.478,18.581,17.2.013-.321.025-.637.025-.972C307.6,601.206,301.315,593.514,293.589,593.52Z" transform="translate(-227.635 -467.505)" fill="#85a9ff"/><path d="M247.143,597.845a19.022,19.022,0,0,0-4.688,12.846c0,.758-.677,2.38-.605,3.113,1.7-.5,3.465-5.251,9.3-7.878,7.432-3.355,10.927-3.293,13.557-9.13a12.3,12.3,0,0,0-8.26-3.306A12.662,12.662,0,0,0,247.143,597.845Z" transform="translate(-190.493 -467.482)" fill="#85a9ff"/><path d="M227.869,597.757c-6.627,6.931-6.922,25.132-9.428,28.062-3.975,4.652,9.183,4.639,11.167,2.242a11.982,11.982,0,0,0,1.743-3.2c-4.107-3.593-7.432-8.175-7.432-14.623,0-2.5,11.608-14.269,12.4-16.416C231.081,594.444,228.867,596.714,227.869,597.757Z" transform="translate(-171.473 -467.741)" fill="#85a9ff"/><path d="M343.08,613.273c-.7-3-2.336-11.976-10.3-15.063.822,2.225,8.334,12.133,8.336,14.73a19.618,19.618,0,0,1-7.517,15.713,9.177,9.177,0,0,0,1.652,2.8c2.06,2.48,15.713,2.469,11.579-2.348C344.8,626.739,344.535,619.552,343.08,613.273Z" transform="translate(-262.12 -471.199)" fill="#85a9ff"/><path d="M305.246,830a1.486,1.486,0,1,0,1.486,1.486A1.486,1.486,0,0,0,305.246,830Z" transform="translate(-239.261 -653.773)" fill="#e2eaf5"/><path d="M305.286,866.16a1.486,1.486,0,1,0,1.486,1.486A1.486,1.486,0,0,0,305.286,866.16Z" transform="translate(-239.293 -682.255)" fill="#e2eaf5"/><path d="M479.886,450.9H408.259c-5.357,0-9.7,5.733-9.7,12.787v15.674c0,5.491,2.627,10.173,6.313,11.984l-.119,10.156,18.084-9.343h57.048c5.357,0,9.7-5.733,9.7-12.789V463.687C489.585,456.625,485.243,450.9,479.886,450.9Z" transform="translate(-313.932 -355.168)" fill="#fff"/><path d="M448.738,495.84l1.637,3.319,3.663.531-2.65,2.582.624,3.648-3.274-1.722-3.274,1.722.624-3.648-2.648-2.582,3.661-.531Z" transform="translate(-349.283 -390.566)" fill="#85a9ff"/><path d="M504.8,495.84l1.637,3.319,3.661.531-2.65,2.582.626,3.648L504.8,504.2l-3.276,1.722.626-3.648-2.65-2.582,3.661-.531Z" transform="translate(-393.439 -390.566)" fill="#85a9ff"/><path d="M560.868,495.84l1.637,3.319,3.663.531-2.65,2.582.624,3.648-3.274-1.722-3.274,1.722.624-3.648-2.648-2.582,3.661-.531Z" transform="translate(-437.604 -390.566)" fill="#85a9ff"/><path d="M616.928,495.84l1.639,3.319,3.661.531-2.65,2.582.626,3.648-3.276-1.722-3.274,1.722.626-3.648-2.65-2.582,3.661-.531Z" transform="translate(-481.76 -390.566)" fill="#85a9ff"/><path d="M672.99,495.84l1.637,3.319,3.661.531-2.648,2.582.624,3.648L672.99,504.2l-3.274,1.722.624-3.648-2.65-2.582,3.663-.531Z" transform="translate(-525.917 -390.566)" fill="#85a9ff"/><line x2="71.703" transform="translate(95.58 119.566)" fill="none" stroke="#d3e0f1" stroke-linecap="round" stroke-linejoin="round" stroke-width="2"/><line x2="71.703" transform="translate(95.58 124.55)" fill="none" stroke="#d3e0f1" stroke-linecap="round" stroke-linejoin="round" stroke-width="2"/><line x2="71.703" transform="translate(95.58 129.809)" fill="none" stroke="#d3e0f1" stroke-linecap="round" stroke-linejoin="round" stroke-width="2"/><path d="M1523.143,92.6c0,1.951-.062,3.9-.17,5.829a68.156,68.156,0,0,1-1.2,9.755,46.126,46.126,0,0,1-1.837,6.567,36.812,36.812,0,0,1-7.731,12.683c-12.188,13.082-31.672,14.863-48.52,13.184-7.064-.707-24.164-4.062-37.265-16.35l-.287-.272c-8.315-7.907-14.967-19.462-16.314-36.286-.011-.113-.017-.229-.026-.346-.083-1.047-.14-2.123-.178-3.21-1.108-32.44,39.246-64.269,72.406-62.057,16.53,1.1,30.013,12.1,35.855,27.412,4.468,11.736,4.888,24.043,5.19,36.394C1523.118,88.142,1523.156,90.376,1523.143,92.6Z" transform="translate(-1110.29 -17.327)" fill="#d3e0f1"/><path d="M1590.053,80.79l-.425,8.549,6.8,5.2-8.26,2.238-2.841,8.075-4.682-7.166-8.557-.206,5.368-6.667-2.448-8.2,8,3.045Z" transform="translate(-1238.282 -63.645)" fill="#9fc3fd"/><path d="M1627.438,147.122l-9.366,2.639-3.8,1.062-7.219,2.038a.822.822,0,0,1-1.049-.773,35.318,35.318,0,0,0-1.677-9.406,55.024,55.024,0,0,0-1.62-5.351,10.062,10.062,0,0,0-3.16-4.561,6.8,6.8,0,0,0-5.8-1.314c-4.656,1.312-4.106,6.083-3.5,9.9.709,4.459,1.767,8.975.979,13.49-.55,3.16-1.769,6.083-4.408,8.092a34.6,34.6,0,0,1-5.784,3.867.82.82,0,0,0-.425.956l8.493,30.151a.826.826,0,0,0,1.017.569l8.343-2.351a.832.832,0,0,1,.73.151,9.358,9.358,0,0,0,8.262,1.595l12.976-3.656,9.423-2.656,3.737-1.062a7.219,7.219,0,0,0,4.981-8.888h0a6.306,6.306,0,0,0-1.433-2.563.807.807,0,0,1-.064-1.017c1.1-1.525,1.274-4.355.739-6.294l-.212-.794a6.321,6.321,0,0,0-1.433-2.563.8.8,0,0,1-.064-1.015,6.37,6.37,0,0,0,.977-5.453l-.225-.794a6.284,6.284,0,0,0-1.433-2.563.811.811,0,0,1-.062-1.017,6.37,6.37,0,0,0,.975-5.453h0A7.219,7.219,0,0,0,1627.438,147.122Z" transform="translate(-1244.975 -103.391)" fill="#fff"/><path d="M1451.065,328.48l-24.206,6.816c-8.315-7.907-14.967-19.462-16.313-36.286-.011-.113-.017-.229-.026-.346l29.773-8.389a.968.968,0,0,1,1.193.665l10.243,36.347A.968.968,0,0,1,1451.065,328.48Z" transform="translate(-1111.019 -228.62)" fill="#9fc3fd"/><rect width="89.736" height="21.208" rx="10.604" transform="translate(346.779 86.839)" fill="#9fc3fd"/><path d="M1686.695,430.54l1.96,3.973,4.385.637-3.172,3.094.749,4.366-3.922-2.062-3.922,2.062.749-4.366-3.172-3.094,4.383-.637Z" transform="translate(-1323.555 -339.131)" fill="#fff"/><path d="M1753.825,430.54l1.962,3.973,4.382.637L1757,438.243l.749,4.366-3.922-2.062-3.922,2.062.75-4.366-3.172-3.094,4.385-.637Z" transform="translate(-1376.431 -339.131)" fill="#fff"/><path d="M1820.955,430.54l1.962,3.973,4.385.637-3.174,3.094.75,4.366-3.922-2.062-3.92,2.062.747-4.366-3.172-3.094,4.385-.637Z" transform="translate(-1429.307 -339.131)" fill="#fff"/><path d="M1888.094,430.54l1.96,3.973,4.385.637-3.172,3.094.75,4.366-3.922-2.062-3.922,2.062.75-4.366-3.172-3.094,4.383-.637Z" transform="translate(-1482.191 -339.131)" fill="#fff"/><path d="M1955.224,430.54l1.96,3.973,4.385.637-3.172,3.094.75,4.366-3.922-2.062-3.922,2.062.75-4.366-3.172-3.094,4.385-.637Z" transform="translate(-1535.067 -339.131)" fill="#fff"/><line x2="559.182" transform="translate(43.161 392.901)" fill="none" stroke="#0600a0" stroke-linecap="round" stroke-miterlimit="10" stroke-width="7"/><path d="M1504.9,1485.821q.321.484.682.932a15.665,15.665,0,0,0,6.126,4.349h0c.212.1.442.189.669.28h163.427c1.021-3.525,1.17-7.249-.936-10.436-2.164-3.27-5.992-5.045-9.782-6.047s-7.748-1.4-11.432-2.745a6.139,6.139,0,0,1-2.93-1.862c-2.123-2.818,2.064-6.686,3.758-8.576a35.182,35.182,0,0,0,5.247-6.844c4.3-8.149-1.285-17.443-9.668-19.9a14.86,14.86,0,0,0-9.147-.064c-3.529,1.225-5.342,4.9-9.6,3.854-3.712-.911-5.457-4.72-5.4-8.262a36.072,36.072,0,0,1,1.718-9.512c4.259-14.471-5.491-25.393-23.015-24.711a71.258,71.258,0,0,0-15.713,2.446,69.7,69.7,0,0,0-12.237,4.538c-.176.083-.354.17-.527.257-6.839,3.4-14.674,1.038-21.758,3.478a16.9,16.9,0,0,0-10.179,10.982,12.4,12.4,0,0,0-.342,1.658h0a11.348,11.348,0,0,0,1.374,7.328,9.181,9.181,0,0,0,.773,1.1,10.313,10.313,0,0,0,1.157,1.2c2.939,2.614,7.071,3.559,10.326,5.714a12.246,12.246,0,0,1,3.4,3.321,10.191,10.191,0,0,1,1.576,7.818A7.826,7.826,0,0,1,1561.3,1449h0c-3.021,4.555-10.468,4.593-15.5,4.563-2.884-.017-5.878-.212-8.886-.335-6-.244-12.086-.2-17.53,2.123a25.369,25.369,0,0,0-5.521,3.247.29.29,0,0,0-.051.038,28.526,28.526,0,0,0-7.644,9.092c-.212.382-.408.777-.6,1.178a27.936,27.936,0,0,0-1.994,5.521C1502.619,1478.351,1502.689,1482.472,1504.9,1485.821Z" transform="translate(-1183.855 -1099.787)" fill="#c3d1ff"/><path d="M1924.615,1505.29,1901.73,1571.1l29.364-18.511,29.886-18.84" transform="translate(-1497.929 -1185.676)" fill="none" stroke="#fff" stroke-linecap="round" stroke-linejoin="round" stroke-width="3"/><line x1="53.19" y1="14.464" transform="translate(424.519 371.876)" fill="none" stroke="#fff" stroke-linecap="round" stroke-linejoin="round" stroke-width="3"/><path d="M1488.507,1552.834a9.38,9.38,0,0,0,.554.758,12.7,12.7,0,0,0,4.979,3.536c.178.076.359.153.544.227h132.861c.83-2.866.951-5.892-.762-8.493-1.758-2.658-4.871-4.1-7.952-4.915s-6.3-1.14-9.292-2.234a4.979,4.979,0,0,1-2.384-1.514c-1.722-2.289,1.679-5.434,3.055-6.971a28.578,28.578,0,0,0,4.266-5.563c3.5-6.627-1.042-14.182-7.856-16.176a12.029,12.029,0,0,0-7.432-.051c-2.869,1-4.342,3.979-7.807,3.132-3.017-.741-4.436-3.837-4.391-6.716a29.317,29.317,0,0,1,1.4-7.735c3.461-11.761-4.459-20.643-18.709-20.089a58.07,58.07,0,0,0-12.782,1.99,56.8,56.8,0,0,0-9.946,3.688l-.425.212c-5.561,2.76-11.931.849-17.687,2.828a13.775,13.775,0,0,0-8.281,8.918,9.856,9.856,0,0,0-.278,1.348h0a9.185,9.185,0,0,0,1.117,5.945,7.361,7.361,0,0,0,.637.894,8.356,8.356,0,0,0,.941.977c2.391,2.123,5.75,2.892,8.4,4.644a9.978,9.978,0,0,1,2.76,2.7,8.281,8.281,0,0,1,1.274,6.355,6.367,6.367,0,0,1-.943,2.348h0c-2.457,3.7-8.51,3.733-12.608,3.707-2.336-.013-4.78-.172-7.219-.272-4.884-.2-9.825-.161-14.252,1.728a20.6,20.6,0,0,0-4.482,2.639.216.216,0,0,0-.042.032,23.189,23.189,0,0,0-6.221,7.391c-.168.31-.331.637-.486.958a22.686,22.686,0,0,0-1.622,4.484C1486.655,1546.761,1486.713,1550.112,1488.507,1552.834Z" transform="translate(-1171.225 -1165.759)" fill="#fff"/><path d="M1230.834,1092.29c12.632,4.533,34.266,6.916,44.439,12.594s3.125-1.7,7.432,9.219-.614,37.759-.917,56.36-8.054,51.472-8.194,72.7c-.023,3.52.019,7.032.138,9.91-41.753-4.527-83.492-6.274-125.394-10-1.085-20.936-8.239-53.313-8.493-71.474-.27-18.656-4.7-45.573-.586-56.525s-2.4-3.591,7.039-9.262,29.376-8.281,40.98-12.952c7.9,1.219,13.938,1.754,21.163,3.013C1215.981,1094.237,1222.508,1093.662,1230.834,1092.29Z" transform="translate(-895.984 -860.37)" fill="#f50" fill-rule="evenodd"/><path d="M1370.561,1113.1c-2.669-.452,1.777.406-.849,1.009-4.393,1.011-8.406,2.367-10.7,6.606-3.748,6.937,1.257,13.165,3.576,19.567a138.952,138.952,0,0,1,4.155,13.642,155.037,155.037,0,0,1,4.211,27.083c1.032,15.176.567,30.929-5.02,45.27-3.234,8.3-8.1,2.943-13.326-.274-2.123-1.308-4.988-2.548-6.727-4.387-1.006-1.062-5.1-105.53-5.1-105.53l3.4-17.658s7.856,8.631,17.144,12.029C1369.95,1113.627,1370.561,1113.1,1370.561,1113.1Z" transform="translate(-1056.095 -865.206)" fill="#c60" opacity="0.54"/><path d="M1390.453,1089.54c2.448.637,4.884,1.244,7.338,1.89a6.351,6.351,0,0,1-1.726,2.728c-17.893,16.205-35.5,17.2-53.54.941a6.593,6.593,0,0,1-1.745-2.711q3.365-1.024,6.737-1.985,10.538,1.5,21.034,3.283C1375.821,1092.133,1383.111,1090.7,1390.453,1089.54Z" transform="translate(-1056.087 -858.204)" fill="#fff" fill-rule="evenodd"/><path d="M1581.368,1253.519c-18.985-2.828-37.736-2.213-56.831-6.436-2.5-16.664-8.406-59.241-8.776-71.015-.811-25.888,5.661-41.193,8.336-57.787.556-3.455,1.951-6.565,3.032-9.893,1.049-3.225,1.845-6.633,2.934-9.842a63.543,63.543,0,0,0,1.877-7.007c13.128,4.589,26.86,7.729,39.785,11.57,3.669,1.091,4.788,1.573,7.51,3.847.788.658,1.121.11,1.7,1.711,1.113,3.036,1.382-1.79,1.966,3.822a243.646,243.646,0,0,1-.267,52.151c-.539,4.406-1.2,11.5-1.624,17.159-1.208,16.294-2.026,33.778-1.062,50.31.079,1.346.121,1.941.212,3.438.255,3.888.542,7.977.811,12.154C1581.1,1249.321,1581.238,1251.469,1581.368,1253.519Z" transform="translate(-1193.859 -859.779)" fill="#ff7206" fill-rule="evenodd"/><path d="M1546.557,1088.714c1.206-.068.338-1.242,2.162-.8s5.828,2.474,8.239,3.582c2.04,5-1.327,11.23-2.949,15.887-2.4,6.884-5.14,13.53-6.795,20.677a9.007,9.007,0,0,1-.835,2.508c-1.486,2.6-9.57-.04-10.139,3.576a175.692,175.692,0,0,1,4.459-20.758c2.072-7.544,5.056-16.43,7.345-24.231C1547.591,1088.935,1547.126,1088.913,1546.557,1088.714Z" transform="translate(-1210.045 -856.842)" fill="#fda118" fill-rule="evenodd"/><path d="M975.609,1152.91c-11.63,13.039-.512-7.122-15.22,15.74-8.317,12.929-29.865,69.709-36.214,87.87s.733,17.439,5.192,29.117c.484,1.274,2.89,1.467,3.48,3.208,10.462.49,21.456,1.448,31.5,1.845-2.639-5.147-13.589-14.014-14.458-18.144-2.024-9.6-6.2,1.412-.27-10.782s21.446-33.589,30.19-47.157C984.573,1197.383,988.795,1166.23,975.609,1152.91Z" transform="translate(-725.951 -908.118)" fill="#ff7206" fill-rule="evenodd"/><path d="M1178.118,1096.07c3.3,13.636,5.181,9.914,7.8,26.641s10.553,31.336,11.2,56.927c.289,11.375-4.13,52.871-6.391,68.845-19,1.319-37.974-2.24-56.978-2.353.212-2.9.312-6.756.478-9.682,1.155-20.346-.325-47.486-2.593-66.307a219.74,219.74,0,0,1-.055-52.141,25.267,25.267,0,0,1,1.043-5.24c.575-1.592,2.079-2.227,3.482-2.973,6.812-3.593,14.4-5.287,21.739-7.432,6.391-1.877,12.935-3.518,19.2-5.8C1177.129,1096.52,1178.152,1096.212,1178.118,1096.07Z" transform="translate(-890.109 -863.347)" fill="#ff7206" fill-rule="evenodd"/><path d="M1327.149,1093.052c-1.113-.051-.389-1.223-2.057-.773s-5.236,2.535-7.4,3.64c-1.775,5.933,6.408,28.221,7.081,34.052s8.472,4.075,13.277,8.34c-1.612-7.287-3.051-13.165-4.937-20.7s-4.767-16.437-7.33-24.1A12.937,12.937,0,0,1,1327.149,1093.052Z" transform="translate(-1037.7 -860.28)" fill="#fda118" fill-rule="evenodd"/><path d="M1416.568,947.282c-9.005,9.944-24.391,12.315-35.929,6.268a26.545,26.545,0,0,1-7.319-5.625c.212-.187.667-.134.89-.189.724-.183,1.344-.113,2.043-.314,1.815-.524,3.588.212,5.308-1.108s2.856-1.539,2.926-4.994c.032-1.486.025-3.429,0-5.582V935.1c-.081-5.353-.278-11.753-.365-15.235-.127-5.041-.348-5.684-.482-9.848,4.079.781,8.137,1.435,12.171,2.353,4-1.319,8.03-2.391,12.069-3.61.077,4.1-.234,5.083-.078,10,.091,2.954.134,8.4.212,13.3.049,3.247.115,6.253.212,8.149a5.84,5.84,0,0,0,1.217,3.835,8.4,8.4,0,0,0,2.741,1.51A21.516,21.516,0,0,0,1416.568,947.282Z" transform="translate(-1081.718 -715.809)" fill="#ffcae1" fill-rule="evenodd"/><path d="M1305.432,866.469c-.246-.017-.357.1-.571.119h0l-.013-.013c-3.811-1.348-5.856,4.408-5.65,7.769a7.524,7.524,0,0,0,7.78,7.255c4.383-.259,7.241-3.476,7.4-7.805.094-2.516-1.293-4.366-3.032-5.975.2,2.578-.1,4.7-2.833,5.474-.085-1.287,0-3.185-.132-4.342C1308.188,867.076,1307,866.585,1305.432,866.469Z" transform="translate(-1023.323 -682.423)" fill="#fdb2d0" fill-rule="evenodd"/><path d="M1559.075,853.7c.246-.042.365.066.582.066h0l.011-.013c3.822-1.486,6.26,3.873,6.4,7.334.166,4.019-2.578,7.92-7.047,8.111s-7.621-2.873-8.186-7.219c-.329-2.529.866-4.542,2.467-6.342.038,2.612.529,4.752,3.357,5.289-.04-1.312-.3-3.238-.291-4.421C1556.381,854.592,1557.5,853.974,1559.075,853.7Z" transform="translate(-1221.499 -672.284)" fill="#fdb2d0" fill-rule="evenodd"/><path d="M1376.229,756.107a24.021,24.021,0,0,1-14.619,4.973,29.716,29.716,0,0,1-6.877-.76h0c-.682-.159-1.354-.342-2.013-.546-9.64-3.022-16.575-11.041-18.343-21.616q-.212-1.327-.333-2.705c-.5-6.226-.89-17.592-1.049-23.321-.454-16.392,9.413-26.48,24.964-26.765s26.117,6.485,27.637,25.4c0,.047.926,17.384,1.125,23.061A27.189,27.189,0,0,1,1376.229,756.107Z" transform="translate(-1049.943 -539.844)" fill="#ffcae1" fill-rule="evenodd"/><path d="M1387.132,796.44c-3.185-.257-1.346-.125-7.888-.637s-27.442-2.123-33.53-2.663l-1.368-.123-.679-.055c-2.76-.238-3.805-.365-6.474-.522-.953,2.453-2.807,6.759-3.61,8.706l-.229.556c.108-.253-.227.554,0,0l-.344.82c-.9,2.138-3.1,7.5-4.34,10.3a20.349,20.349,0,0,0,2.881-.9l-.58,10.572c1.769,10.581,8.706,18.594,18.344,21.616l.021,4.5v.257h.166c-.045.425-.085.739-.106.871a6.452,6.452,0,0,1-3.242,5.083c-2.455,1.178-5.432.514-8,1.412a17.41,17.41,0,0,0,3.533,3.3c.352.268,3.5,2.65,3.784,2.4a26.144,26.144,0,0,0,4.994-6.02,18.581,18.581,0,0,1,11.891-8.493c4.268-.964,8.444-2.567,10.515-5.238l-.03-1.735a24.044,24.044,0,0,1-21.282,4.385c-.07-.057-.138-.117-.212-.172h0a11.761,11.761,0,0,1-2.019-1.172c-6.264-4.459-10.26-15.422-12.489-23.682a11.753,11.753,0,0,1,5.043-12.965q.516-.325,1.013-.654c2.353-1.548,4.136-2.255,7.379-.378a35.39,35.39,0,0,0,20.048,4.274c3.565-.27,7.531.352,10.343,2.51a12.154,12.154,0,0,1,3.185,3.947,113.314,113.314,0,0,0,8.16-19.7C1389.412,796.636,1390.317,796.7,1387.132,796.44Z" transform="translate(-1046.549 -624.188)" fill="#fdb2d0"/><path d="M1397.827,794.691C1397.64,794.672,1395.1,794.447,1397.827,794.691Z" transform="translate(-1100.033 -625.872)" fill="#fdb2d0"/><path d="M1284.731,662.061q3.089-3.684,6.158-7.383c2.276-.637,4.516-1.274,6.814-1.911,4.86.446,10.362.79,15.116,1.249s15.768,2.879,15.783,7.856-.48,6.875,2.724,10.617c.1.115,0,.316,0,.406.111,1.677-.062,3.234.771,4.748a3.185,3.185,0,0,0,2.336,1.675c.074-1.461-.3-2.253-.132-3.871s2.015-2.726,3.714-2.894c9.115-12.341,7.973-30.61-4.113-40.524-7.313-6-16.176-8.474-25.363-9.217a28.924,28.924,0,0,0-13.26,2.123,15.59,15.59,0,0,0-5.285,3.61c-1.911,1.911-2.548,4.767-5.548,5.308-1,.176-2.032-.138-3.053,0a9.242,9.242,0,0,0-6.094,3.351,33.495,33.495,0,0,0-5.211,9.812c-1.633,4.54-3.773,8.483-3.03,13.666.807,5.635,6.514,10.714,10.464,14.744,1.718-.032,3.654.9,3.983,2.461s.025,2.376.24,3.777c1.605-.3,2.548-2.142,2.58-3.523s-.127-2.172-.121-3.461Z" transform="translate(-997.898 -490.505)" fill="#0600a0" fill-rule="evenodd"/><path d="M1310.125,711.362c-5.051-12.92-2.724-24.457,12.33-27.557,4.4-6.835,9.844-9.6,18.038-7.765s17.277,4.622,24.457-1.55c1.62,3.841,1,7.236-1.079,10.682,8.612,8.1,8.64,16.749,1.622,25.881-3.077-13.3-32.368.811-38.22-12.12C1325.109,710.544,1317.16,706,1310.125,711.362Z" transform="translate(-1030.042 -531.283)" fill="#0600a0" fill-rule="evenodd"/><path d="M1284.338,735.461c-.051,1.274-.025.739-.038,1-.089,1.845-.212,2.357-.4,4.268-.123,1.2,0,5.175-1.665,5.89-3.007-4.937-5.848-9.9-8.918-14.876-2.835-4.6-5.421-9.069-6.143-14.538a2.228,2.228,0,0,1,.119-1.357c1.327-2.374,3.922.758,5.274,1.425a7.759,7.759,0,0,0,4.121.679,24.231,24.231,0,0,0,8.937-3.68c.741-.505,1.486-1.023,2.215-1.546a63.721,63.721,0,0,0,5.5-4.722l.121.093c0-.03.028-.06.038-.089a2.758,2.758,0,0,0,.234.3,31.563,31.563,0,0,0,3.521,2.412c.117.057.185.089.293.138h-.032c3.491,1.941,6.686,2.312,13.451,2.76,4.3.289,14.067-1.7,20.6-5.521a25.724,25.724,0,0,0,2.618-2c3.115-2.705,4.6-5.869,5.629-9.744a32.262,32.262,0,0,1,3.574,24.737c-1.714,7.109-4.884,13.267-8.056,19.747-.123.253-.276.49-.4.747-1.637-.231-1.975-1.877-2.336-3.225-.142-.539-.249-.945-.35-1.429a35.422,35.422,0,0,1-.637-4.8c-.015-.2-.021-.4-.028-.6-6.72-8.9-31.4-3.474-36.309-15.4-1.038,5.6-3.427,7.432-6.41,8.449a6.37,6.37,0,0,0-4.353,5.792Z" transform="translate(-998.072 -548.509)" fill="#05007d" fill-rule="evenodd"/><path d="M1758.992,1376.2c-15.693-30.137-18.745-67.047-14.6-100.338.145-1.172.637-4.285.822-5.688,1.325,15.209,3.495,31.334,10.01,45.323a26.1,26.1,0,0,0,4.625,6.875c-1.227,16.706-2.026,33.761-1.062,50.463C1758.859,1374.19,1758.912,1374.895,1758.992,1376.2Z" transform="translate(-1372.677 -1000.48)" fill="#f50"/><path d="M1724.958,1288.664c-4.066,6.824-11.765,10.192-18.537,13.676a136.4,136.4,0,0,1-26.542,10c-.917.248-6.028,2.246-6.283,2.085-6.546-4.247-9.472-6.213-14.651-10.141-.726-.556-1.5-1.147-2.336-1.788.525.406,9.273-5.778,10.275-6.4,3.737-2.336,7.462-4.69,11.156-7.1,6.859-4.459,13.475-9.258,20.134-14.014a7,7,0,0,0,2.28-2.249,2.623,2.623,0,0,0,.225-.692c.573-3.31-4.1-10.039-5.274-12.6-2.079-4.527-4.3-8.992-6.7-13.356-.5-.9-1.463-2.684-2.07-3.61v-.011a.165.165,0,0,1-.023-.036.275.275,0,0,0-.019-.025.027.027,0,0,0-.013-.021c-.057-.083-.155-.231-.314-.474-.654-1.006-2.745-4.623-3.525-5.867l-.064-.1a50.959,50.959,0,0,1-7.538-22.352,93.684,93.684,0,0,1-.083-17.352c.8-9.445,3.419-24.325,12.7-30.737.624-.425,1.966.391,2.444.8a35.775,35.775,0,0,1,2.76,2.648c1.019,1.062,1.937,1.851,2.92,3.057a20.317,20.317,0,0,1,2.423,3.724c1.111,2.1,1.425,2.667,2.678,5.372a316.68,316.68,0,0,1,18.006,49.461q3.5,12.762,5.828,25.8c1.094,6.179,2.926,12.315,3.172,18.617A24.906,24.906,0,0,1,1724.958,1288.664Z" transform="translate(-1304.856 -917.939)" fill="#ff7206"/><path d="M1666.608,1696.172c-2.951,1.467-5.521,2.712-7.723,3.76-.726-.556-1.5-1.147-2.336-1.788.525.406,9.273-5.777,10.275-6.4,3.737-2.336,7.461-4.69,11.156-7.1,6.858-4.459,13.474-9.258,20.133-14.014a7,7,0,0,0,2.28-2.249,2.615,2.615,0,0,0,.225-.692S1710.434,1674.38,1666.608,1696.172Z" transform="translate(-1304.809 -1313.593)" fill="#f50"/><rect width="225.018" height="11.262" rx="5.631" transform="translate(217.799 399.641)" fill="#0600a0" opacity="0.14"/><path d="M989.295,1860.558h186.27a6.385,6.385,0,0,0,6.27-5.916h0a5.521,5.521,0,0,0-5.561-5.913H990a6.37,6.37,0,0,0-6.268,5.914h0a5.52,5.52,0,0,0,5.567,5.916Z" transform="translate(-774.838 -1456.191)" fill="#4052f2" fill-rule="evenodd"/><path d="M991.986,1883.747h186.269a6.351,6.351,0,0,0,5.183-2.79,5.521,5.521,0,0,0-4.85-2.788H992.313a6.37,6.37,0,0,0-5.183,2.788,5.521,5.521,0,0,0,4.856,2.79Z" transform="translate(-777.529 -1479.38)" fill="#0600a0" fill-rule="evenodd"/><path d="M864.137,1433.311h148.984a7.2,7.2,0,0,0,7.251-7.742l-26.117-96.5a8.4,8.4,0,0,0-8.228-7.74H837.033a7.2,7.2,0,0,0-7.249,7.74l26.117,96.5A8.4,8.4,0,0,0,864.137,1433.311Z" transform="translate(-653.576 -1040.775)" fill="#4052f2" fill-rule="evenodd"/><path d="M864.135,1433.311h144.6a7.2,7.2,0,0,0,7.251-7.742l-26.117-96.5a8.392,8.392,0,0,0-8.228-7.74H837.033a7.2,7.2,0,0,0-7.249,7.74l26.117,96.5A8.4,8.4,0,0,0,864.135,1433.311Z" transform="translate(-653.576 -1040.775)" fill="#9fc3fd" fill-rule="evenodd"/><g transform="translate(201.382 280.553)"><path d="M965.477,1433.313l116.079-108.779a8.15,8.15,0,0,1,1.765,4.536l.359,5.659-103.324,98.584Zm74.582-111.983-91.639,89.235.949,15.005a8.014,8.014,0,0,0,.951,3.3l114.529-107.538Z" transform="translate(-948.42 -1321.33)" fill-rule="evenodd" fill="url(#d)"/></g><path d="M1707.108,1860.558h33.852a6.385,6.385,0,0,0,6.27-5.916h0a5.521,5.521,0,0,0-5.561-5.913h-33.852a6.383,6.383,0,0,0-6.27,5.914h0a5.521,5.521,0,0,0,5.561,5.916Z" transform="translate(-1340.241 -1456.191)" fill="#9fc3fd" fill-rule="evenodd"/><path d="M988.188,1840.7h155a3.185,3.185,0,0,0,3.134-2.956h0a2.761,2.761,0,0,0-2.782-2.958h-155a3.185,3.185,0,0,0-3.136,2.958h0a2.76,2.76,0,0,0,2.784,2.956Z" transform="translate(-776.164 -1445.211)" fill="#342dec" fill-rule="evenodd"/></g></g></g></g></g></g></svg>