<svg xmlns="http://www.w3.org/2000/svg" xmlns:xlink="http://www.w3.org/1999/xlink" width="632" height="330" viewBox="0 0 632 330"><defs><clipPath id="a"><path d="M632,0V330H0V0H632" fill="none"/></clipPath></defs><g transform="translate(-2091 -2533)"><g transform="translate(2091 2533)"><path d="M1633.39,1930.7v330h-632v-330h632" transform="translate(-1001.39 -1930.7)" fill="#ccc"/><g clip-path="url(#a)"><path d="M522.134,0,0,520.957l.372.371L522.506.373" transform="translate(-175.8 -338.18)" fill="#f0f0f0"/><path d="M545.236,23.11,23.1,544.065l.372.373L545.608,23.481" transform="translate(-194.844 -357.242)" fill="#f0f0f0"/><path d="M568.336,46.21,46.2,567.167l.372.371L568.708,46.581" transform="translate(-213.889 -376.296)" fill="#f0f0f0"/><path d="M591.444,69.31,69.31,590.267l.372.371L591.816,69.681" transform="translate(-232.942 -395.349)" fill="#f0f0f0"/><path d="M614.544,92.42,92.41,613.375l.372.371L614.918,92.791" transform="translate(-251.986 -414.412)" fill="#f0f0f0"/><path d="M637.646,115.52,115.51,636.477l.372.371L638.018,115.891" transform="translate(-271.031 -433.465)" fill="#f0f0f0"/><path d="M660.746,138.62,138.61,659.577l.374.371L661.118,138.991" transform="translate(-290.076 -452.519)" fill="#f0f0f0"/><path d="M683.854,161.73,161.72,682.685l.372.371L684.226,162.1" transform="translate(-309.129 -471.581)" fill="#f0f0f0"/><path d="M706.956,184.83,184.82,705.787l.372.371L707.328,185.2" transform="translate(-328.173 -490.635)" fill="#f0f0f0"/><path d="M730.056,207.93,207.92,728.887l.372.371L730.428,208.3" transform="translate(-347.218 -509.689)" fill="#f0f0f0"/><path d="M753.164,231.03,231.03,751.987l.372.371L753.536,231.4" transform="translate(-366.271 -528.743)" fill="#f0f0f0"/><path d="M776.266,254.14,254.13,775.095l.372.373L776.638,254.511" transform="translate(-385.316 -547.805)" fill="#f0f0f0"/><path d="M799.366,277.24,277.23,798.2l.372.371L799.738,277.611" transform="translate(-404.36 -566.859)" fill="#f0f0f0"/><path d="M822.466,300.34,300.33,821.3l.374.371L822.838,300.711" transform="translate(-423.405 -585.912)" fill="#f0f0f0"/><path d="M845.576,323.45,323.44,844.4l.372.371L845.948,323.821" transform="translate(-442.458 -604.974)" fill="#f0f0f0"/><path d="M868.676,346.55,346.54,867.507l.372.371L869.048,346.921" transform="translate(-461.503 -624.028)" fill="#f0f0f0"/><path d="M891.776,369.65,369.64,890.607l.374.371L892.148,370.021" transform="translate(-480.547 -643.082)" fill="#f0f0f0"/><path d="M914.884,392.76,392.75,913.715l.372.371L915.258,393.131" transform="translate(-499.6 -662.144)" fill="#f0f0f0"/><path d="M937.986,415.86,415.85,936.817l.372.371L938.358,416.231" transform="translate(-518.645 -681.198)" fill="#f0f0f0"/><path d="M961.086,438.96,438.95,959.916l.372.371L961.458,439.331" transform="translate(-537.689 -700.252)" fill="#f0f0f0"/><path d="M984.194,462.06,462.06,983.016l.372.371L984.566,462.433" transform="translate(-556.742 -719.306)" fill="#f0f0f0"/><path d="M1007.3,485.17,485.16,1006.125l.372.373,522.136-520.957" transform="translate(-575.787 -738.368)" fill="#f0f0f0"/><path d="M1030.4,508.27,508.26,1029.227l.372.371,522.136-520.957" transform="translate(-594.832 -757.422)" fill="#f0f0f0"/><path d="M1053.5,531.37,531.37,1052.327l.372.371,522.134-520.957" transform="translate(-613.885 -776.475)" fill="#f0f0f0"/><path d="M1076.6,554.48,554.47,1075.435l.372.371,522.136-520.955" transform="translate(-632.929 -795.537)" fill="#f0f0f0"/><path d="M1099.706,577.58,577.57,1098.536l.372.371,522.136-520.956" transform="translate(-651.974 -814.591)" fill="#f0f0f0"/><path d="M1122.806,600.68,600.67,1121.637l.372.371,522.136-520.957" transform="translate(-671.019 -833.645)" fill="#f0f0f0"/><path d="M1145.914,623.79,623.78,1144.745l.372.371,522.136-520.955" transform="translate(-690.072 -852.707)" fill="#f0f0f0"/><path d="M1169.016,646.89,646.88,1167.845l.372.373,522.135-520.957" transform="translate(-709.116 -871.761)" fill="#f0f0f0"/><path d="M1192.115,669.99,669.98,1190.947l.372.371,522.136-520.957" transform="translate(-728.161 -890.815)" fill="#f0f0f0"/><path d="M1215.224,693.09,693.09,1214.047l.372.371L1215.6,693.463" transform="translate(-747.214 -909.869)" fill="#f0f0f0"/><path d="M1238.326,716.2,716.19,1237.155l.372.373L1238.7,716.571" transform="translate(-766.258 -928.931)" fill="#f0f0f0"/><path d="M1261.426,739.3,739.29,1260.257l.372.371L1261.8,739.671" transform="translate(-785.303 -947.985)" fill="#f0f0f0"/><path d="M1284.526,762.4,762.39,1283.357l.374.371L1284.9,762.771" transform="translate(-804.348 -967.038)" fill="#f0f0f0"/><path d="M1307.634,785.51,785.5,1306.465l.372.371,522.136-520.955" transform="translate(-823.401 -986.1)" fill="#f0f0f0"/><path d="M1330.736,808.61,808.6,1329.567l.372.371,522.135-520.956" transform="translate(-842.445 -1005.154)" fill="#f0f0f0"/><path d="M1353.836,831.71,831.7,1352.667l.374.371,522.134-520.957" transform="translate(-861.49 -1024.208)" fill="#f0f0f0"/><path d="M1376.944,854.82,854.81,1375.775l.372.371,522.136-520.955" transform="translate(-880.543 -1043.27)" fill="#f0f0f0"/><path d="M1400.046,877.92,877.91,1398.876l.372.372,522.136-520.957" transform="translate(-899.588 -1062.324)" fill="#f0f0f0"/><path d="M1423.146,901.02,901.01,1421.977l.372.371,522.136-520.956" transform="translate(-918.632 -1081.378)" fill="#f0f0f0"/><path d="M1446.254,924.12,924.12,1445.077l.372.371,522.134-520.955" transform="translate(-937.685 -1100.432)" fill="#f0f0f0"/><path d="M1469.356,947.23,947.22,1468.185l.372.373L1469.728,947.6" transform="translate(-956.73 -1119.494)" fill="#f0f0f0"/><path d="M1492.456,970.33,970.32,1491.287l.372.371L1492.828,970.7" transform="translate(-975.775 -1138.547)" fill="#f0f0f0"/><path d="M1515.556,993.43,993.42,1514.387l.374.371L1515.928,993.8" transform="translate(-994.819 -1157.601)" fill="#f0f0f0"/><path d="M1538.664,1016.54,1016.53,1537.495l.372.371,522.136-520.955" transform="translate(-1013.872 -1176.663)" fill="#f0f0f0"/><path d="M1561.766,1039.64,1039.63,1560.6l.372.371,522.136-520.957" transform="translate(-1032.917 -1195.717)" fill="#f0f0f0"/><path d="M1584.865,1062.74,1062.73,1583.7l.374.371,522.134-520.957" transform="translate(-1051.961 -1214.771)" fill="#f0f0f0"/><path d="M1607.974,1085.85,1085.84,1606.8l.372.371,522.134-520.955" transform="translate(-1071.014 -1233.833)" fill="#f0f0f0"/><path d="M1631.075,1108.95,1108.94,1629.906l.372.371,522.136-520.957" transform="translate(-1090.059 -1252.887)" fill="#f0f0f0"/><path d="M1654.176,1132.05,1132.04,1653.007l.372.371,522.136-520.957" transform="translate(-1109.104 -1271.941)" fill="#f0f0f0"/><path d="M1677.284,1155.15,1155.15,1676.106l.372.371,522.134-520.955" transform="translate(-1128.157 -1290.995)" fill="#f0f0f0"/><path d="M1700.385,1178.26,1178.25,1699.215l.372.373,522.136-520.956" transform="translate(-1147.201 -1310.057)" fill="#f0f0f0"/><path d="M1723.486,1201.36,1201.35,1722.317l.372.371,522.136-520.957" transform="translate(-1166.246 -1329.111)" fill="#f0f0f0"/><path d="M1746.586,1224.46,1224.45,1745.417l.374.371,522.134-520.956" transform="translate(-1185.291 -1348.164)" fill="#f0f0f0"/><path d="M1769.694,1247.57,1247.56,1768.525l.372.371,522.136-520.955" transform="translate(-1204.344 -1367.226)" fill="#f0f0f0"/><path d="M1792.8,1270.67,1270.66,1791.626l.372.372,522.136-520.957" transform="translate(-1223.388 -1386.28)" fill="#f0f0f0"/><path d="M1815.9,1293.77,1293.76,1814.727l.374.371,522.134-520.957" transform="translate(-1242.433 -1405.334)" fill="#f0f0f0"/><path d="M1839,1316.88,1316.87,1837.835l.372.371,522.136-520.955" transform="translate(-1261.486 -1424.396)" fill="#f0f0f0"/><path d="M1862.105,1339.98,1339.97,1860.936l.372.371,522.136-520.957" transform="translate(-1280.53 -1443.45)" fill="#f0f0f0"/><path d="M1885.206,1363.08,1363.07,1884.037l.372.371,522.135-520.957" transform="translate(-1299.575 -1462.504)" fill="#f0f0f0"/><path d="M1908.314,1386.18,1386.18,1907.137l.372.371,522.134-520.955" transform="translate(-1318.628 -1481.558)" fill="#f0f0f0"/><path d="M1931.416,1409.29,1409.28,1930.245l.372.373,522.136-520.957" transform="translate(-1337.673 -1500.62)" fill="#f0f0f0"/><path d="M1954.516,1432.39,1432.38,1953.347l.372.371,522.136-520.957" transform="translate(-1356.717 -1519.674)" fill="#f0f0f0"/><path d="M1977.615,1455.49,1455.48,1976.447l.374.371,522.134-520.955" transform="translate(-1375.762 -1538.727)" fill="#f0f0f0"/><path d="M2000.724,1478.6,1478.59,1999.555l.372.373L2001.1,1478.971" transform="translate(-1394.815 -1557.789)" fill="#f0f0f0"/><path d="M2023.825,1501.7,1501.69,2022.656l.372.371L2024.2,1502.071" transform="translate(-1413.859 -1576.843)" fill="#f0f0f0"/><path d="M2046.926,1524.8,1524.79,2045.757l.372.371L2047.3,1525.171" transform="translate(-1432.904 -1595.897)" fill="#f0f0f0"/><path d="M2070.034,1547.9,1547.9,2068.857l.372.371,522.135-520.955" transform="translate(-1451.957 -1614.951)" fill="#f0f0f0"/><path d="M2093.135,1571.01,1571,2091.965l.372.373,522.136-520.957" transform="translate(-1471.002 -1634.013)" fill="#f0f0f0"/><path d="M2116.236,1594.11,1594.1,2115.067l.372.371,522.136-520.957" transform="translate(-1490.047 -1653.067)" fill="#f0f0f0"/><path d="M2139.344,1617.21,1617.21,2138.167l.372.371,522.134-520.955-.372-.373" transform="translate(-1509.099 -1672.121)" fill="#f0f0f0"/><path d="M2162.444,1640.32,1640.31,2161.275l.372.373,522.136-520.956-.374-.371" transform="translate(-1528.144 -1691.183)" fill="#f0f0f0"/><path d="M2185.546,1663.42,1663.41,2184.377l.372.371,522.135-520.957-.372-.371" transform="translate(-1547.189 -1710.237)" fill="#f0f0f0"/><path d="M2208.654,1686.52,1686.52,2207.477l.372.371,522.134-520.957-.372-.371" transform="translate(-1566.242 -1729.29)" fill="#f0f0f0"/><path d="M2231.755,1709.63,1709.62,2230.585l.372.371L2232.128,1710l-.373-.371" transform="translate(-1585.286 -1748.352)" fill="#f0f0f0"/><path d="M2254.855,1732.73,1732.72,2253.687l.372.372L2255.228,1733.1" transform="translate(-1604.331 -1767.406)" fill="#f0f0f0"/><path d="M2277.956,1755.83,1755.82,2276.786l.372.371L2278.328,1756.2" transform="translate(-1623.376 -1786.46)" fill="#f0f0f0"/><path d="M2301.064,1778.93,1778.93,2299.886l.372.372L2301.436,1779.3" transform="translate(-1642.428 -1805.514)" fill="#f0f0f0"/><path d="M2324.166,1802.04,1802.03,2323l.372.372,522.136-520.957" transform="translate(-1661.473 -1824.576)" fill="#f0f0f0"/><path d="M2347.265,1825.14,1825.13,2346.1l.372.371,522.136-520.957" transform="translate(-1680.518 -1843.63)" fill="#f0f0f0"/><path d="M2370.374,1848.24,1848.24,2369.2l.372.371,522.134-520.955" transform="translate(-1699.571 -1862.684)" fill="#f0f0f0"/><path d="M2393.475,1871.35,1871.34,2392.3l.372.373,522.135-520.957" transform="translate(-1718.615 -1881.746)" fill="#f0f0f0"/><path d="M2416.575,1894.45,1894.44,2415.406l.372.371,522.135-520.956" transform="translate(-1737.66 -1900.799)" fill="#f0f0f0"/><path d="M2439.684,1917.55,1917.55,2438.507l.372.371,522.134-520.956" transform="translate(-1756.713 -1919.853)" fill="#f0f0f0"/><path d="M2462.784,1940.66,1940.65,2461.615l.372.371,522.135-520.955" transform="translate(-1775.758 -1938.915)" fill="#f0f0f0"/><path d="M2485.885,1963.76,1963.75,2484.717l.372.371,522.136-520.956" transform="translate(-1794.802 -1957.969)" fill="#f0f0f0"/><path d="M2508.986,1986.86,1986.85,2507.817l.374.371,522.134-520.956" transform="translate(-1813.847 -1977.023)" fill="#f0f0f0"/><path d="M2532.094,2009.96,2009.96,2530.917l.372.372,522.136-520.955" transform="translate(-1832.9 -1996.077)" fill="#f0f0f0"/><path d="M2555.2,2033.07,2033.06,2554.026l.372.372,522.136-520.956" transform="translate(-1851.945 -2015.139)" fill="#f0f0f0"/><path d="M2578.3,2056.17,2056.16,2577.126l.372.371,522.136-520.957" transform="translate(-1870.989 -2034.193)" fill="#f0f0f0"/><path d="M2601.4,2079.27,2079.27,2600.227l.372.371,522.134-520.957" transform="translate(-1890.042 -2053.247)" fill="#f0f0f0"/><path d="M2624.506,2102.38,2102.37,2623.334l.372.373,522.136-520.957" transform="translate(-1909.087 -2072.309)" fill="#f0f0f0"/><path d="M2647.605,2125.48,2125.47,2646.437l.372.371,522.135-520.957" transform="translate(-1928.131 -2091.362)" fill="#f0f0f0"/><path d="M2670.706,2148.58,2148.57,2669.537l.374.372,522.134-520.957" transform="translate(-1947.176 -2110.417)" fill="#f0f0f0"/><path d="M2693.814,2171.69,2171.68,2692.645l.372.371,522.135-520.955" transform="translate(-1966.229 -2129.478)" fill="#f0f0f0"/><path d="M2716.916,2194.79,2194.78,2715.747l.372.371,522.135-520.957" transform="translate(-1985.274 -2148.532)" fill="#f0f0f0"/><path d="M2740.016,2217.89,2217.88,2738.846l.374.371,522.134-520.957" transform="translate(-2004.318 -2167.586)" fill="#f0f0f0"/><path d="M2763.124,2240.99,2240.99,2761.946l.372.371L2763.5,2241.363" transform="translate(-2023.371 -2186.64)" fill="#f0f0f0"/><path d="M2786.226,2264.1,2264.09,2785.057l.372.371L2786.6,2264.471" transform="translate(-2042.416 -2205.702)" fill="#f0f0f0"/><path d="M2809.325,2287.2,2287.19,2808.156l.372.371L2809.7,2287.572" transform="translate(-2061.461 -2224.756)" fill="#f0f0f0"/><path d="M2832.434,2310.3,2310.3,2831.256l.372.371,522.134-520.955" transform="translate(-2080.514 -2243.81)" fill="#f0f0f0"/><path d="M2855.534,2333.41,2333.4,2854.365l.372.373,522.135-520.957" transform="translate(-2099.558 -2262.872)" fill="#f0f0f0"/><path d="M2878.636,2356.51,2356.5,2877.467l.372.371,522.135-520.957" transform="translate(-2118.603 -2281.926)" fill="#f0f0f0"/><path d="M2901.744,2379.61,2379.61,2900.566l.372.371,522.134-520.955" transform="translate(-2137.656 -2300.979)" fill="#f0f0f0"/><path d="M2924.844,2402.72,2402.71,2923.675l.372.373,522.136-520.956" transform="translate(-2156.7 -2320.041)" fill="#f0f0f0"/><path d="M2947.946,2425.82,2425.81,2946.777l.372.371,522.136-520.957" transform="translate(-2175.745 -2339.095)" fill="#f0f0f0"/><path d="M2971.045,2448.92,2448.91,2969.876l.374.372,522.134-520.957" transform="translate(-2194.79 -2358.149)" fill="#f0f0f0"/><path d="M2994.154,2472.03,2472.02,2992.985l.372.372L2994.526,2472.4" transform="translate(-2213.843 -2377.211)" fill="#f0f0f0"/><path d="M3017.256,2495.13,2495.12,3016.085l.372.373L3017.628,2495.5" transform="translate(-2232.887 -2396.265)" fill="#f0f0f0"/><path d="M3040.356,2518.23,2518.22,3039.187l.372.372L3040.728,2518.6" transform="translate(-2251.932 -2415.319)" fill="#f0f0f0"/><path d="M3063.464,2541.33,2541.33,3062.287l.372.371L3063.836,2541.7" transform="translate(-2270.985 -2434.373)" fill="#f0f0f0"/><path d="M3086.565,2564.44,2564.43,3085.395l.372.373,522.136-520.957" transform="translate(-2290.03 -2453.435)" fill="#f0f0f0"/><path d="M3109.666,2587.54,2587.53,3108.5l.372.372,522.135-520.957" transform="translate(-2309.074 -2472.488)" fill="#f0f0f0"/><path d="M3122.605,2620.67,2600.47,3141.626l.372.371,522.135-520.955" transform="translate(-2319.743 -2499.815)" fill="#f0f0f0"/><path d="M3135.545,2653.81,2613.41,3174.767l.372.371,522.135-520.957" transform="translate(-2330.411 -2527.15)" fill="#f0f0f0"/><path d="M3148.486,2686.94,2626.35,3207.9l.372.371,522.136-520.957" transform="translate(-2341.079 -2554.478)" fill="#f0f0f0"/><path d="M3161.426,2720.08,2639.29,3241.035l.372.371L3161.8,2720.451" transform="translate(-2351.748 -2581.813)" fill="#f0f0f0"/><path d="M3174.365,2753.21,2652.23,3274.167l.372.372,522.136-520.957" transform="translate(-2362.416 -2609.14)" fill="#f0f0f0"/></g><path d="M642.684,322.106a133.684,133.684,0,0,0-36.245,4.98,162.139,162.139,0,0,0-286,63.433,31.88,31.88,0,0,0-37.85,37.514A81.005,81.005,0,0,0,233.081,548.1h504.35a132.17,132.17,0,0,0,38.359-93.238c0-73.319-59.592-132.755-133.106-132.755" transform="translate(-182.697 -218.099)" fill="#e6e6e6"/><path d="M2333.537,1222.9a22.962,22.962,0,0,0-6.164,4.389l-.112-.27c-.957-2.3-2.107-4.873-3.441-7.614a22.99,22.99,0,0,0,6.727-3.825,22.647,22.647,0,0,0,5.267-6.506,22.645,22.645,0,0,0-7.336,4.027,22.955,22.955,0,0,0-4.887,5.828c-1.12-2.268-2.374-4.645-3.766-7.077a22.935,22.935,0,0,0,5.482-5.388,22.613,22.613,0,0,0,3.425-7.635,22.633,22.633,0,0,0-6.062,5.767,22.952,22.952,0,0,0-3.177,6.671c-1.4-2.421-2.942-4.889-4.626-7.352a22.983,22.983,0,0,0,4.6-6.165,22.646,22.646,0,0,0,2.219-8.076,22.649,22.649,0,0,0-5.112,6.625,22.924,22.924,0,0,0-2.106,7.022c-1.146-1.654-2.356-3.3-3.632-4.93a22.939,22.939,0,0,0,1.931-7.431,22.681,22.681,0,0,0-1-8.309,21.593,21.593,0,0,0-1.667,14.81q-1.364-1.7-2.823-3.35a21.593,21.593,0,0,0-10.138-10.934,21.586,21.586,0,0,0,9.264,11.624q1.515,1.706,2.918,3.464a22.927,22.927,0,0,0-7.289-.56,22.644,22.644,0,0,0-8.037,2.387,22.648,22.648,0,0,0,8.327.843,22.934,22.934,0,0,0,7.447-2.082c1.287,1.631,2.505,3.285,3.658,4.944a22.94,22.94,0,0,0-7.447,1.58,22.638,22.638,0,0,0-7,4.591,22.637,22.637,0,0,0,8.214-1.6,22.924,22.924,0,0,0,6.531-4.148c1.738,2.525,3.323,5.058,4.763,7.549a22.917,22.917,0,0,0-7.517.923,22.661,22.661,0,0,0-7.373,3.954,22.626,22.626,0,0,0,8.323-.864,22.975,22.975,0,0,0,6.847-3.534c1.4,2.458,2.677,4.854,3.806,7.142a22.913,22.913,0,0,0-7.5.653,22.648,22.648,0,0,0-7.512,3.687,22.661,22.661,0,0,0,8.35-.563,23.026,23.026,0,0,0,6.924-3.255c1.322,2.7,2.458,5.242,3.4,7.514.048.114.093.226.14.339a22.885,22.885,0,0,0-7.981,1.6,22.644,22.644,0,0,0-7,4.589,22.637,22.637,0,0,0,8.214-1.6,22.879,22.879,0,0,0,6.833-4.427,121.164,121.164,0,0,1,5.488,16.23l1.081-.255a121.694,121.694,0,0,0-5.412-16.083,22.987,22.987,0,0,0,7.331-2.007,22.648,22.648,0,0,0,6.722-4.984,22.626,22.626,0,0,0-8.109,2.065Z" transform="translate(-1891.276 -975.605)" fill="#8987a8"/><path d="M2786.775,2356.318h-7.905V2338.71h7.905v17.608Z" transform="translate(-2466.823 -2267.252)" fill="#686680"/><path d="M1769.618,397.108h-11.787A1.838,1.838,0,0,1,1756,395.27v-6.592a1.838,1.838,0,0,1,1.838-1.838h11.787a1.838,1.838,0,0,1,1.824,1.838v6.592a1.838,1.838,0,0,1-1.838,1.838Z" transform="translate(-1447.724 -319.086)" fill="#686680"/><path d="M2943.776,2400.381l-3.316-1.225,2.73-7.386,3.316,1.225-2.73,7.386Z" transform="translate(-2600.045 -2311.014)" fill="#686680"/><path d="M1946.628,456.383l-4.944-1.828a.825.825,0,0,1-.486-1.053l1.022-2.765a.822.822,0,0,1,1.053-.484l4.942,1.826a.822.822,0,0,1,.486,1.053l-1.022,2.765a.82.82,0,0,1-1.053.484Z" transform="translate(-1600.369 -371.348)" fill="#686680"/><path d="M828.219,965.492c-3.078,5.9-9.831,8.451-9.831,8.451s-1.768-7,1.311-12.9,9.831-8.451,9.831-8.451S831.3,959.595,828.219,965.492Z" transform="translate(-674.299 -785.761)" fill="#f6be79"/><path d="M890.665,1124.887c-4.013,5.305-11.1,6.7-11.1,6.7s-.581-7.2,3.432-12.507,11.1-6.7,11.1-6.7S894.678,1119.578,890.665,1124.887Z" transform="translate(-725.126 -917.564)" fill="#f6be79"/><path d="M681.434,880.575c4.2,5.154,3.885,12.371,3.885,12.371s-7.135-1.139-11.337-6.294-3.887-12.373-3.887-12.373,7.135,1.139,11.339,6.3Z" transform="translate(-552.451 -721.163)" fill="#f6be79"/><path d="M697.923,1042.331c6.624.606,11.555,5.885,11.555,5.885s-5.807,4.3-12.431,3.687-11.557-5.885-11.557-5.885S691.3,1041.72,697.923,1042.331Z" transform="translate(-565.148 -859.72)" fill="#f6be79"/><path d="M755.243,1187.121c6.624.606,11.555,5.885,11.555,5.885s-5.807,4.3-12.431,3.687-11.557-5.885-11.557-5.885S748.619,1186.51,755.243,1187.121Z" transform="translate(-612.406 -979.151)" fill="#f6be79"/><path d="M769.24,1055.718l-1.354-.051a184.164,184.164,0,0,0-3.128-35.936,156.306,156.306,0,0,0-9.436-32.339,101.584,101.584,0,0,0-19.552-30.74l.981-.932a102.93,102.93,0,0,1,19.825,31.163,157.623,157.623,0,0,1,9.519,32.634A184.217,184.217,0,0,1,769.24,1055.718Z" transform="translate(-606.601 -788.481)" fill="#f6be79"/><path d="M652,1169.271c-.915,5.1-5.346,8.578-5.346,8.578s-2.948-4.8-2.033-9.9,5.346-8.578,5.346-8.578S652.917,1164.168,652,1169.271Z" transform="translate(-531.311 -956.323)" fill="#f6c88f"/><path d="M737.027,1270.094c-1.756,4.88-6.694,7.573-6.694,7.573s-2.107-5.221-.362-10.1,6.692-7.568,6.692-7.568,2.107,5.219.363,10.1Z" transform="translate(-601.251 -1039.328)" fill="#f6c88f"/><path d="M508.328,1152.538c4.327,2.853,5.774,8.3,5.774,8.3s-5.572.815-9.9-2.038-5.772-8.3-5.772-8.3,5.57-.816,9.9,2.038Z" transform="translate(-410.928 -948.899)" fill="#f6c88f"/><path d="M562.375,1254.935c5.067-1.092,9.966,1.683,9.966,1.683s-3.318,4.551-8.385,5.644-9.966-1.684-9.966-1.684S557.308,1256.029,562.375,1254.935Z" transform="translate(-456.734 -1034.924)" fill="#f6c88f"/><path d="M638.745,1349.252c5.068-1.094,9.966,1.684,9.966,1.684s-3.316,4.557-8.385,5.642-9.966-1.684-9.966-1.684S633.678,1350.346,638.745,1349.252Z" transform="translate(-519.697 -1112.721)" fill="#f6c88f"/><path d="M615.408,1261.787l-1.02.277a142.819,142.819,0,0,0-10.709-26,121.731,121.731,0,0,0-14.554-21.851,79.2,79.2,0,0,0-21.706-18.3l.514-.923a80.353,80.353,0,0,1,22.006,18.556,122.868,122.868,0,0,1,14.683,22.05,144.292,144.292,0,0,1,10.777,26.191Z" transform="translate(-467.806 -985.797)" fill="#f6c88f"/><path d="M3002,1125.1a13.175,13.175,0,0,0,2.047-9.185c-.736-5.539,3.88-6.789,5.549-4.629S3010.9,1119.329,3002,1125.1Z" transform="translate(-2474.982 -915.831)" fill="#c4c4c4"/><path d="M2945.448,1133.491a13.131,13.131,0,0,0-4.282-8.379c-4.106-3.8-1.343-7.7,1.32-7.106S2948.622,1123.366,2945.448,1133.491Z" transform="translate(-2423.105 -922.148)" fill="#c4c4c4"/><path d="M2977.35,1208.58a13.19,13.19,0,0,1,7.473,5.72c3,4.714,7.335,2.707,7.226-.021S2987.878,1207.279,2977.35,1208.58Z" transform="translate(-2454.66 -996.701)" fill="#c4c4c4"/><path d="M2933.37,1241.867a13.177,13.177,0,0,1,7.473,5.718c3,4.714,7.336,2.707,7.228-.021S2943.9,1240.565,2933.37,1241.867Z" transform="translate(-2418.401 -1024.157)" fill="#c4c4c4"/><path d="M2901.7,1281.87a13.19,13.19,0,0,1,7.473,5.72c3,4.714,7.335,2.707,7.226-.021S2912.229,1280.569,2901.7,1281.87Z" transform="translate(-2392.29 -1057.154)" fill="#c4c4c4"/><path d="M2864.63,1333.1a13.186,13.186,0,0,1,7.474,5.719c3,4.714,7.336,2.705,7.227-.021S2875.16,1331.8,2864.63,1333.1Z" transform="translate(-2361.728 -1099.409)" fill="#c4c4c4"/><path d="M2903.891,1169.771a13.138,13.138,0,0,0-4.282-8.381c-4.106-3.8-1.341-7.7,1.322-7.1S2907.075,1159.646,2903.891,1169.771Z" transform="translate(-2388.844 -952.074)" fill="#c4c4c4"/><path d="M2866.609,1213.077a13.134,13.134,0,0,0-4.282-8.379c-4.106-3.8-1.343-7.7,1.322-7.1S2869.784,1202.955,2866.609,1213.077Z" transform="translate(-2358.107 -987.797)" fill="#c4c4c4"/><path d="M2833.22,1259.7a13.136,13.136,0,0,0-4.282-8.381c-4.106-3.8-1.341-7.7,1.322-7.1S2836.4,1249.576,2833.22,1259.7Z" transform="translate(-2330.58 -1026.253)" fill="#c4c4c4"/><path d="M2764.256,1248.8a.472.472,0,0,0,.527-.351,137.215,137.215,0,0,1,9.3-25.189c6.062-12.568,16.744-29.639,33.22-39.6a.474.474,0,0,0-.492-.811c-16.678,10.082-27.474,27.327-33.593,40.027a137.871,137.871,0,0,0-9.371,25.364.475.475,0,0,0,.351.569h.041Z" transform="translate(-2278.633 -975.721)" fill="#c4c4c4"/><path d="M2793.777,698.15a16.232,16.232,0,0,1,15.605,11.763H2778.17A16.234,16.234,0,0,1,2793.777,698.15Z" transform="translate(-2290.447 -575.873)" fill="#fff"/><path d="M2325.8,666.44a23.919,23.919,0,0,1,23,17.337l-45.988,0a23.916,23.916,0,0,1,23-17.333Z" transform="translate(-1898.539 -549.722)" fill="#fff"/><path d="M2519.016,665.091c-3.525-12.2-17.494-21.311-34.193-21.311s-30.668,9.111-34.193,21.311Z" transform="translate(-2020.408 -531.034)" fill="#fff"/><path d="M1339.745,1203.55a11.987,11.987,0,0,1,11.523,8.688H1328.22a11.989,11.989,0,0,1,11.525-8.688Z" transform="translate(-1095.044 -992.75)" fill="#fff"/><path d="M994.176,1180.13a17.66,17.66,0,0,1,16.976,12.8l-33.952,0A17.661,17.661,0,0,1,994.176,1180.13Z" transform="translate(-805.647 -973.438)" fill="#fff"/><path d="M1136.849,1179.1c-2.6-9.008-12.917-15.737-25.248-15.737s-22.647,6.729-25.25,15.737Z" transform="translate(-895.635 -959.61)" fill="#fff"/><path d="M1610.3,398.13a7.461,7.461,0,0,1,7.173,5.409H1603.13A7.463,7.463,0,0,1,1610.3,398.13Z" transform="translate(-1321.692 -328.397)" fill="#fff"/><path d="M1395.188,383.55a10.994,10.994,0,0,1,10.568,7.967l-21.136,0a11,11,0,0,1,10.568-7.969Z" transform="translate(-1141.542 -316.371)" fill="#fff"/><path d="M1484.015,382.936c-1.62-5.607-8.042-9.8-15.718-9.8s-14.1,4.189-15.718,9.8Z" transform="translate(-1197.572 -307.786)" fill="#fff"/><path d="M2084.821,1551.83a9,9,0,0,1,8.65,6.52h-17.3A9,9,0,0,1,2084.821,1551.83Z" transform="translate(-1711.687 -1280.144)" fill="#fff"/><path d="M1825.432,1534.25a13.256,13.256,0,0,1,12.744,9.606H1812.69A13.256,13.256,0,0,1,1825.432,1534.25Z" transform="translate(-1494.462 -1265.651)" fill="#fff"/><path d="M1932.46,1533.531c-1.954-6.761-9.7-11.811-18.96-11.811s-17,5.051-18.96,11.811Z" transform="translate(-1561.943 -1255.32)" fill="#fff"/><path d="M2634.012,737.5a13.956,13.956,0,0,1,13.418,10.117H2620.6A13.959,13.959,0,0,1,2634.012,737.5Z" transform="translate(-2160.539 -608.329)" fill="#adb1cc"/><path d="M2742.99,755.35a9.63,9.63,0,0,1,9.259,6.981H2733.73A9.635,9.635,0,0,1,2742.99,755.35Z" transform="translate(-2253.809 -623.05)" fill="#adb1cc"/><path d="M2508.594,743.955c-1.8-6.237-8.945-10.9-17.482-10.9s-15.679,4.658-17.482,10.9Z" transform="translate(-2039.37 -604.668)" fill="#adb1cc"/><path d="M780.858,1371.34a52.346,52.346,0,0,0-50.318,37.934H831.175A52.346,52.346,0,0,0,780.858,1371.34Z" transform="translate(-602.29 -1131.208)" fill="#f6d2a6"/><path d="M518.663,1438.31a36.112,36.112,0,0,0-34.723,26.177h69.448A36.121,36.121,0,0,0,518.663,1438.31Z" transform="translate(-398.982 -1186.426)" fill="#f6d2a6"/><path d="M1108.07,1395.564c6.757-23.386,33.531-40.854,65.554-40.854s58.8,17.468,65.556,40.854Z" transform="translate(-913.542 -1117.496)" fill="#f6d2a6"/><path d="M2789.536,938.373a17.693,17.693,0,0,0-.636-12.584c-2.918-6.885,2.584-10.145,5.511-7.954s4.554,9.914-4.875,20.54Z" transform="translate(-2298.61 -756.535)" fill="#c4c4c4"/><path d="M2706.1,973.832a17.655,17.655,0,0,0-8.516-9.287c-6.643-3.437-4.48-9.452-.832-9.64s9.831,4.729,9.347,18.927Z" transform="translate(-2220.474 -787.664)" fill="#c4c4c4"/><path d="M2770,1053.728a17.649,17.649,0,0,1,11.685,4.715c5.551,5.016,10.431.878,9.318-2.607s-7.881-7.549-21-2.107Z" transform="translate(-2283.711 -866.984)" fill="#c4c4c4"/><path d="M2725.08,1112.37a17.651,17.651,0,0,1,11.685,4.714c5.551,5.014,10.431.878,9.318-2.605s-7.881-7.549-21-2.107Z" transform="translate(-2246.677 -915.355)" fill="#c4c4c4"/><path d="M2698.48,1175.31a17.652,17.652,0,0,1,11.685,4.714c5.551,5.014,10.431.878,9.318-2.607S2711.6,1169.868,2698.48,1175.31Z" transform="translate(-2224.747 -967.269)" fill="#c4c4c4"/><path d="M2668.92,1254.63a17.652,17.652,0,0,1,11.685,4.714c5.551,5.014,10.431.878,9.318-2.607S2682.043,1249.188,2668.92,1254.63Z" transform="translate(-2200.376 -1032.696)" fill="#c4c4c4"/><path d="M2665.425,1035.475a17.657,17.657,0,0,0-8.517-9.287c-6.643-3.437-4.48-9.461-.83-9.64S2665.91,1021.277,2665.425,1035.475Z" transform="translate(-2186.936 -838.511)" fill="#c4c4c4"/><path d="M2632.765,1104.664a17.656,17.656,0,0,0-8.516-9.287c-6.643-3.437-4.48-9.461-.83-9.64s9.831,4.729,9.346,18.927Z" transform="translate(-2160.01 -895.583)" fill="#c4c4c4"/><path d="M2606.311,1176.736a17.648,17.648,0,0,0-8.515-9.287c-6.643-3.437-4.482-9.461-.83-9.641S2606.8,1162.547,2606.311,1176.736Z" transform="translate(-2138.2 -955.031)" fill="#c4c4c4"/><path d="M2652.963,1020.629c-.527.555-1.043,1.12-1.549,1.687q-2.282,2.542-4.322,5.232c-.051.067-.1.132-.149.2a97.224,97.224,0,0,0-6.4,9.589c-.149.255-.3.511-.444.767a115.071,115.071,0,0,0-5.442,10.751l-.105.242h0a137.377,137.377,0,0,0-5.179,13.723c-.023.065-.046.133-.063.2a165.933,165.933,0,0,0-5.077,20.568,194.972,194.972,0,0,0-2.621,21.005l-1.269-.038a195.988,195.988,0,0,1,2.633-21.165,166.924,166.924,0,0,1,5.256-21.176c.077-.244.156-.488.239-.734,1.269-3.892,2.742-7.858,4.447-11.815.063-.146.126-.293.191-.441a117.862,117.862,0,0,1,5.674-11.367c.014-.025.028-.049.044-.074h0a99.6,99.6,0,0,1,7.087-10.769c.018-.025.037-.047.054-.07a86.869,86.869,0,0,1,5.981-7.077l.1-.105a.637.637,0,0,1,.924.878Z" transform="translate(-2160.324 -841.116)" fill="#c4c4c4"/><path d="M1209.923,1606.854H915.657a9.847,9.847,0,0,1,0-19.694h294.266a9.847,9.847,0,0,1,0,19.694Z" transform="translate(-746.79 -1309.272)" fill="#b8b8b8"/><path d="M3040.372,1506.18a15.177,15.177,0,0,1,14.591,11H3025.78a15.18,15.18,0,0,1,14.592-11Z" transform="translate(-2494.587 -1242.379)" fill="#fff"/><path d="M2503.622,1449.64a28.873,28.873,0,0,1,27.757,20.925H2475.86a28.874,28.874,0,0,1,27.762-20.926Z" transform="translate(-2041.209 -1195.761)" fill="#fff"/><path d="M2752.639,1475.274c-3.3-11.411-16.356-19.924-31.969-19.924s-28.675,8.518-31.97,19.924Z" transform="translate(-2216.684 -1200.469)" fill="#fff"/><path d="M2645.5,1520.71a24.442,24.442,0,0,1,23.5,17.712l-47,0a24.443,24.443,0,0,1,23.5-17.714Z" transform="translate(-2161.693 -1254.488)" fill="#d4d4d4"/><path d="M2345.857,1480.09a34.281,34.281,0,0,1,32.954,24.842l-65.911,0A34.284,34.284,0,0,1,2345.857,1480.09Z" transform="translate(-1906.857 -1220.999)" fill="#d4d4d4"/><path d="M2836.344,1552a16.869,16.869,0,0,1,16.216,12.223h-32.43A16.867,16.867,0,0,1,2836.344,1552Z" transform="translate(-2325.041 -1280.285)" fill="#d4d4d4"/><path d="M1117.325,437.63a19.76,19.76,0,0,1,18.995,14.318l-37.99,0A19.761,19.761,0,0,1,1117.325,437.63Z" transform="translate(-905.512 -360.983)" fill="#f6d2a6"/><path d="M547.712,399a29.11,29.11,0,0,1,27.983,21.1l-55.964,0A29.109,29.109,0,0,1,547.712,399Z" transform="translate(-428.488 -329.122)" fill="#f6d2a6"/><path d="M782.888,397.4c-4.291-14.847-21.293-25.937-41.619-25.937S703.941,382.55,699.65,397.4Z" transform="translate(-576.823 -306.408)" fill="#f6d2a6"/><path d="M930.541,485.265a17.863,17.863,0,0,1,17.173,12.942l-34.344,0a17.863,17.863,0,0,1,17.171-12.945Z" transform="translate(-753.023 -400.27)" fill="#8589a6"/><path d="M1069.99,508.14a12.326,12.326,0,0,1,11.85,8.934h-23.7A12.327,12.327,0,0,1,1069.99,508.14Z" transform="translate(-872.378 -419.14)" fill="#8589a6"/><path d="M770.042,493.547c-2.31-7.976-11.439-13.937-22.371-13.937s-20.064,5.962-22.371,13.937Z" transform="translate(-597.97 -395.61)" fill="#8589a6"/><path d="M641.19,758.08a4.629,4.629,0,0,1,4.45,3.355h-8.9a4.627,4.627,0,0,1,4.45-3.355Z" transform="translate(-524.957 -625.298)" fill="#fff"/><path d="M507.735,749a6.82,6.82,0,0,1,6.557,4.944H501.18A6.819,6.819,0,0,1,507.735,749Z" transform="translate(-413.195 -617.81)" fill="#fff"/><path d="M562.832,748.648c-1.006-3.479-4.989-6.078-9.75-6.078s-8.746,2.6-9.752,6.078Z" transform="translate(-447.945 -612.508)" fill="#fff"/><path d="M1272.449,626.43a4.631,4.631,0,0,1,4.45,3.357H1268a4.631,4.631,0,0,1,4.45-3.357Z" transform="translate(-1045.396 -516.708)" fill="#454a5f"/><path d="M1138.987,617.39a6.819,6.819,0,0,1,6.555,4.943H1132.43A6.82,6.82,0,0,1,1138.987,617.39Z" transform="translate(-933.626 -509.252)" fill="#454a5f"/><path d="M1194.082,617.008c-1.006-3.479-4.989-6.078-9.75-6.078s-8.746,2.6-9.752,6.078Z" transform="translate(-968.376 -503.925)" fill="#454a5f"/><path d="M1102.475,1498a26.634,26.634,0,0,1,25.6,19.307l-51.209,0A26.637,26.637,0,0,1,1102.475,1498Z" transform="translate(-887.819 -1235.765)" fill="#999dbd"/><path d="M1310.43,1532.09a18.38,18.38,0,0,1,17.669,13.324l-35.339,0a18.381,18.381,0,0,1,17.67-13.321Z" transform="translate(-1065.809 -1263.87)" fill="#999dbd"/><path d="M863.138,1510.369c-3.439-11.9-17.068-20.789-33.356-20.789s-29.925,8.883-33.363,20.789Z" transform="translate(-656.604 -1228.823)" fill="#999dbd"/><path d="M729.914,1559.11a19.781,19.781,0,0,1,19.016,14.335H710.9A19.78,19.78,0,0,1,729.914,1559.11Z" transform="translate(-586.098 -1286.146)" fill="#8a8a8a"/><path d="M884.348,1584.42a13.65,13.65,0,0,1,13.123,9.893H871.22A13.653,13.653,0,0,1,884.348,1584.42Z" transform="translate(-718.272 -1307.013)" fill="#8a8a8a"/><path d="M2328.822,545.23a5.868,5.868,0,0,1,5.64,4.251H2323.18A5.869,5.869,0,0,1,2328.822,545.23Z" transform="translate(-1915.333 -449.731)" fill="#454a5f"/><path d="M2374.642,552.73a4.048,4.048,0,0,1,3.892,2.935h-7.784A4.049,4.049,0,0,1,2374.642,552.73Z" transform="translate(-1954.552 -455.916)" fill="#454a5f"/><path d="M2276.1,547.94c-.757-2.621-3.76-4.58-7.349-4.58s-6.592,1.959-7.349,4.58Z" transform="translate(-1864.399 -448.189)" fill="#454a5f"/><path d="M1339.749,1675.22a10.754,10.754,0,0,1,10.338,7.793H1329.41A10.754,10.754,0,0,1,1339.749,1675.22Z" transform="translate(-1096.025 -1381.873)" fill="#fff"/><path d="M1423.713,1689a7.422,7.422,0,0,1,7.134,5.378H1416.58A7.419,7.419,0,0,1,1423.713,1689Z" transform="translate(-1167.891 -1393.234)" fill="#fff"/><path d="M1243.117,1680.193c-1.389-4.8-6.891-8.393-13.469-8.393s-12.08,3.588-13.469,8.393Z" transform="translate(-1002.673 -1379.053)" fill="#fff"/><path d="M1637.533,1581.79a8.953,8.953,0,0,1,8.6,6.482h-17.2a8.953,8.953,0,0,1,8.6-6.482Z" transform="translate(-1342.97 -1304.845)" fill="#454a5f"/><path d="M1557.153,1585.93c-1.155-4-5.732-6.98-11.2-6.98s-10.045,2.984-11.2,6.98Z" transform="translate(-1265.316 -1302.503)" fill="#454a5f"/><path d="M1636.487,1486.53a1.2,1.2,0,0,0-.613,2.091,34.551,34.551,0,0,0-1.12,4.038,18.671,18.671,0,0,0-1.822-4.064,1.2,1.2,0,1,0-.75.423,1.1,1.1,0,0,0,.218-.054,19.754,19.754,0,0,1,2.08,5.091,49.755,49.755,0,0,0-.741,8.009,49.1,49.1,0,0,0,.351,6.775l.641-.091a48.86,48.86,0,0,1-.337-6.687c.016-1.166.074-2.514.205-3.971a12.754,12.754,0,0,1,3.922-2.157,1.2,1.2,0,1,0-.147-.634,14.019,14.019,0,0,0-3.687,1.9,38.547,38.547,0,0,1,1.78-8.281,1.179,1.179,0,0,0,.377,0,1.2,1.2,0,1,0-.351-2.375Z" transform="translate(-1344.508 -1226.303)" fill="#454a5f"/><path d="M1566.289,1499.48a1.2,1.2,0,0,1,1.387,1.68,34.7,34.7,0,0,1,2.616,3.265,18.658,18.658,0,0,1,.074-4.454,1.2,1.2,0,1,1,.857.095,1.4,1.4,0,0,1-.221.037,19.816,19.816,0,0,0,.09,5.493,51.989,51.989,0,0,1,6.183,13.433l-.625.176a49.331,49.331,0,0,0-2.323-6.28c-.474-1.066-1.053-2.282-1.755-3.571a12.778,12.778,0,0,0-4.454-.439,1.2,1.2,0,1,1-.116-.641,13.94,13.94,0,0,1,4.136.293,38.524,38.524,0,0,0-4.894-6.912,1.233,1.233,0,0,1-.351.151,1.2,1.2,0,1,1-.611-2.321Z" transform="translate(-1290.537 -1235.521)" fill="#454a5f"/><path d="M1371.68,548.614a75.194,75.194,0,1,1,75.194,75.192A75.194,75.194,0,0,1,1371.68,548.614Z" transform="translate(-1130.874 -390.653)" fill="#9e9cb5"/><path d="M1460.329,548.152,1388,527.249a75.458,75.458,0,0,1,72.329-54.389c41.3,0,75.292,33.988,75.292,75.292s-33.988,75.291-75.292,75.291a75.3,75.3,0,0,1-20.635-2.882Z" transform="translate(-1144.329 -390.191)" fill="#8987a8"/><path d="M1782.53,887.329a3.067,3.067,0,1,1,3.066,3.065,3.067,3.067,0,0,1-3.066-3.065Z" transform="translate(-1469.597 -729.38)" fill="#454a5f"/><path d="M1715.79,614.681a1.641,1.641,0,1,1,1.64,1.641A1.641,1.641,0,0,1,1715.79,614.681Z" transform="translate(-1414.574 -505.663)" fill="#454a5f"/><path d="M1295.983,862.377H1270.2a2.919,2.919,0,0,1,0-5.837h25.787a2.919,2.919,0,0,1,0,5.837Z" transform="translate(-1044.858 -706.515)" fill="#9e9cb5"/><path d="M1138.957,862.373h-11.611a2.92,2.92,0,0,1,0-5.837h11.611a2.92,2.92,0,1,1,0,5.837Z" transform="translate(-927.086 -706.511)" fill="#9e9cb5"/><path d="M1354.154,1018.933h-11.609a2.92,2.92,0,1,1,0-5.837h11.609a2.92,2.92,0,1,1,0,5.837Z" transform="translate(-1104.387 -835.649)" fill="#9e9cb5"/><path d="M1253.375,940.7h-25.787a2.918,2.918,0,0,1-2.918-2.918h0a2.918,2.918,0,0,1,2.918-2.918h25.787a2.918,2.918,0,0,1,2.918,2.918h0A2.918,2.918,0,0,1,1253.375,940.7Z" transform="translate(-1009.672 -771.117)" fill="#9e9cb5"/><path d="M1339.82,897.709h-16.9a3.962,3.962,0,1,1,0-7.924h16.9a3.962,3.962,0,1,1,0,7.924Z" transform="translate(-1087.409 -733.94)" fill="#e6e6e6"/><path d="M1314.978,975.955h-16.9a3.962,3.962,0,0,1,0-7.925h16.9a3.962,3.962,0,1,1,0,7.925Z" transform="translate(-1066.93 -798.48)" fill="#e6e6e6"/><path d="M2737.157,2600.034l-13.21-49.294-1.187.318,13.21,49.294" transform="translate(-2420.564 -2442.178)" fill="#454a5f"/><path d="M2562.73,3142.425l6.107,13.777,8.576-17.162-14.684,3.385Z" transform="translate(-2288.628 -2927.414)" fill="#8987a8"/><path d="M1602.345,1226.81l-4.635,9.338a74.776,74.776,0,0,0,18.1,6.861l2.618-10.087a64.4,64.4,0,0,1-16.086-6.111Z" transform="translate(-1317.223 -1011.948)" fill="#8987a8"/><path d="M1442.662,576.863a64.561,64.561,0,1,1,44.331,79.729l-.24.844a65.387,65.387,0,1,0-44.942-80.813l.843.241Z" transform="translate(-1188.692 -436.604)" fill="#454a5f"/><path d="M1894.609,597.649h0a19.38,19.38,0,0,1-19.38-19.38h0a19.38,19.38,0,1,1,38.759,0h0A19.38,19.38,0,0,1,1894.609,597.649Z" transform="translate(-1546.023 -461.025)" fill="#454a5f"/><path d="M1901.583,553.889l12.816,12.816a1.4,1.4,0,0,0,1.986,0l30.115-30.131a1.4,1.4,0,1,0-1.98-1.986l-29.142,29.13L1903.561,551.9a1.4,1.4,0,0,0-1.985,1.986Z" transform="translate(-1567.425 -440.588)" fill="#f4c892"/><path d="M2032.276,1173.795c-1.387-5.13.683-7.182,2.423-8a2.736,2.736,0,0,1,.325-.234,2.809,2.809,0,0,1,3.911,1.041l21.614,38.787a1.3,1.3,0,0,1-1.1,1.931,4.5,4.5,0,0,1-4.378-1.5c-5.63-6.689-20.986-25.354-22.791-32.023Z" transform="translate(-1675.124 -961.137)" fill="#fff"/><path d="M2163.491,1390.656c.411-1.689,1.1-2.642,2.509-2.965a2.809,2.809,0,0,1,3.392,2.208l8.883,43.441c.134.688-.753,1.511-1.436,1.668a1.3,1.3,0,0,1-1.545-.934l-.493-1.854C2165.592,1403.169,2162.478,1396.665,2163.491,1390.656Z" transform="translate(-1783.527 -1144.761)" fill="#fff"/><path d="M1743.57,1356.344c1.34,1.106,1.9,2.138,1.58,3.552a2.809,2.809,0,0,1-3.467,2.087l-42.967-10.965c-.676-.176-1.029-1.339-.878-2.021a1.3,1.3,0,0,1,1.515-.983l1.884.365c30.157,4.389,37.369,4.431,42.332,7.965Z" transform="translate(-1399.744 -1111.901)" fill="#fff"/><path d="M1951.585,1167.477c3.234-4.213,6.12-3.815,7.826-2.928a2.523,2.523,0,0,1,.381.118,2.809,2.809,0,0,1,1.548,3.739l-17.712,40.718a1.3,1.3,0,0,1-2.2.295,4.5,4.5,0,0,1-1.464-4.389c1.9-8.532,7.417-32.065,11.624-37.548Z" transform="translate(-1599.303 -960.167)" fill="#fff"/><path d="M1654,1338.309a5.106,5.106,0,0,1,1.283-2.309,7.247,7.247,0,0,1,1.229-1.134.621.621,0,0,0,.1-.911c-.809-.988-2.124-2.423-2.605-1.989-.714.644-10.07,10.734-9.612,11.236,1.213,1.336,6.847-2.588,9.608-4.9Z" transform="translate(-1355.698 -1098.614)" fill="#3b3e54"/><path d="M2229.809,1639.848a5.078,5.078,0,0,1-2.361,1.175,7.469,7.469,0,0,1-1.671.251.6.6,0,0,0-.586.686c.156,1.25.5,3.141,1.15,3.053.968-.132,14.517-3.206,14.4-3.862-.311-1.756-7.3-1.661-10.928-1.294Z" transform="translate(-1834.54 -1352.538)" fill="#3b3e54"/><path d="M1794.418,1190.82s20.091,33.029,20.715,35.366,7.777,37.37,7.777,37.37l-5.128,1.766s-11.06-29.446-10.433-37.251c0,0-18.493-23.921-19.606-26.684,0,0-12.656,29.811-13.342,30.656a4.435,4.435,0,0,1-4.975,1.311c-2.726-.78-36.256-9.849-36.256-9.849l1.756-5.091s27.211,2.423,33.78,5.281c0,0,6.847-26.493,10.748-32.873Z" transform="translate(-1428.902 -982.512)" fill="#3b3e54"/><path d="M2291.918,1088.072a3.054,3.054,0,0,0,2.317,1.422c2.442.223,7.063.488,8.147-.563,1.49-1.445-6.185-3.32-10.753-1.32l.288.462Z" transform="translate(-1889.322 -896.391)" fill="#fff"/><path d="M2058.821,962.666c-2.066-2.614.379-4.085.428-4.154.585-.811,2.533-.7,3.46.081l19.8,18.649c.351.269-.088.853-.351,1.21a.8.8,0,0,1-.323.265,3.282,3.282,0,0,1-3.144.079c-4.895-2.468-17.19-12.729-19.875-16.13Z" transform="translate(-1696.701 -790.185)" fill="#f4c68e"/><path d="M2189.475,1059.028c-5.674-.221-17.907-2.547-21.191-4.008-2.728-1.211-1.952-2.849-1.943-2.927a2.44,2.44,0,0,1,2.633-1.613l21.093,6.539-.6,2.008" transform="translate(-1785.938 -866.46)" fill="#f4c68e"/><path d="M3274.366,2966.7H3239.32v-25.4h35.046v25.4" transform="translate(-2846.439 -2764.317)" fill="#b8b8b8"/><path d="M3274.366,2947.855H3239.32V2941.3h35.046v6.555" transform="translate(-2846.439 -2764.292)" fill="#a8a8a8"/><path d="M3271.9,2943.334h-36.38v-5.674h36.38v5.674" transform="translate(-2843.306 -2761.289)" fill="#b8b8b8"/><path d="M3272.738,2985.011h-5.128v-6.371h5.128v6.371" transform="translate(-2869.762 -2795.092)" fill="#9998ad"/><path d="M3272.738,2971.5h-5.128v-1.52h5.128v1.52" transform="translate(-2869.762 -2787.942)" fill="#9492a8"/><path d="M3272.738,2943.334h-5.128v-5.674h5.128v5.674" transform="translate(-2869.762 -2761.289)" fill="#9998ad"/><path d="M3383.1,2985.011h-5.128v-6.371h5.128v6.371" transform="translate(-2960.748 -2795.092)" fill="#9998ad"/><path d="M3383.1,2971.5h-5.128v-1.52h5.128v1.52" transform="translate(-2960.748 -2787.942)" fill="#9492a8"/><path d="M3383.1,2943.334h-5.128v-5.674h5.128v5.674" transform="translate(-2960.748 -2761.289)" fill="#9998ad"/><path d="M3386.634,3048.014h-8.664v-4.224h8.664v4.224Z" transform="translate(-2960.748 -2848.828)" fill="#fff"/><path d="M2384.8,1124.2a.457.457,0,0,0,.1,0,.8.8,0,0,0,.565-.295.926.926,0,0,0,.249-.558.333.333,0,0,0-.091-.242h0a.165.165,0,0,0-.1-.037.238.238,0,0,0-.158.07.352.352,0,0,0-.1.146.614.614,0,0,0-.032.191.824.824,0,0,0,.692.76.9.9,0,0,0,.137.01,1.319,1.319,0,0,0,.983-.527c.176-.219.325-.479.567-.539a.357.357,0,0,1,.095-.012.372.372,0,0,1,.434.406,1.234,1.234,0,0,1-.1.435.662.662,0,0,1-.1.176.139.139,0,0,1-.091.062.079.079,0,0,1-.053-.026l-.031.032.031-.032a.112.112,0,0,1-.026-.084,1,1,0,0,1,.19-.467.942.942,0,0,1,.375-.351.665.665,0,0,1,.228-.039.737.737,0,0,1,.606.314c.06.086.1.193.176.29a.592.592,0,0,0,.492.232.818.818,0,0,0,.469-.151.589.589,0,0,0,.249-.413.044.044,0,0,0-.041-.047.041.041,0,0,0-.047.039.5.5,0,0,1-.214.351.73.73,0,0,1-.416.133.507.507,0,0,1-.421-.195c-.062-.084-.1-.19-.176-.288a.825.825,0,0,0-.679-.351.761.761,0,0,0-.258.044,1,1,0,0,0-.418.386,1.077,1.077,0,0,0-.206.516.2.2,0,0,0,.051.146h0a.176.176,0,0,0,.114.051.223.223,0,0,0,.158-.091,1.229,1.229,0,0,0,.225-.667.443.443,0,0,0-.01-.1.541.541,0,0,0-.518-.4.527.527,0,0,0-.116.014c-.292.077-.442.362-.613.571a1.243,1.243,0,0,1-.916.492.985.985,0,0,1-.123,0,.739.739,0,0,1-.618-.674.505.505,0,0,1,.026-.162.256.256,0,0,1,.074-.111.163.163,0,0,1,.1-.047.072.072,0,0,1,.046.018l.028-.035-.031.032a.241.241,0,0,1,.067.176.829.829,0,0,1-.228.5.7.7,0,0,1-.5.267.387.387,0,0,1-.079,0,.043.043,0,0,0-.033.006.042.042,0,0,0-.018.029.042.042,0,0,0,.033.051Z" transform="translate(-1966.097 -926.356)" fill="#383e56"/><path d="M2005.988,975.883c.026-.639,1.459-16.592,1.043-18.514-1.241-5.741-4.658-8.683-9.9-6.283-.284.13-4.438,1.98-4.707,8.349-.2,4.773-3.639,27-3.836,28.328-.054.372-1.053,5.534-1.229,6.181-.068.27-.149.56-.216.844a13.1,13.1,0,0,0,6.036,1.4c4.468-.2,8.481-2.379,12.966-2.235h.028c.116-.72-.246-16.6-.186-18.082Z" transform="translate(-1638.286 -783.862)" fill="#f6d2a6"/><path d="M2026.19,840.863c-.116-.477-.546-.848-.729-1.29a9.785,9.785,0,0,0-.4-1.427c-.251-.409-.781-.634-1.094-1s-.456-.92-.825-1.229-.936-.362-1.35-.615-.715-.732-1.162-.918a10.866,10.866,0,0,0-1.473-.176,8.813,8.813,0,0,0-1.391-.514,9.731,9.731,0,0,0-1.452.3,9.341,9.341,0,0,0-1.482-.056c-.479.119-.85.546-1.29.729a9.65,9.65,0,0,0-1.427.4c-.409.253-.634.779-1,1.094s-.918.455-1.229.823-.362.936-.614,1.35-.732.715-.918,1.162a10.861,10.861,0,0,0-.176,1.473,8.806,8.806,0,0,0-.513,1.39,9.727,9.727,0,0,0,.3,1.452,9.534,9.534,0,0,0-.058,1.482c.118.479.546.85.73,1.29a10.055,10.055,0,0,0,.4,1.427c.251.409.779.635,1.094,1s.457.918.825,1.229.936.362,1.35.614.713.734,1.162.918a11.176,11.176,0,0,0,1.473.176,8.8,8.8,0,0,0,1.39.513,9.722,9.722,0,0,0,1.452-.3,9.556,9.556,0,0,0,1.482.058c.479-.118.848-.546,1.29-.73a10.01,10.01,0,0,0,1.427-.4c.409-.251.634-.779,1-1.094s.92-.456,1.229-.825.362-.936.615-1.348.732-.714.918-1.164a10.856,10.856,0,0,0,.176-1.473,8.729,8.729,0,0,0,.513-1.39,9.745,9.745,0,0,0-.3-1.452,9.347,9.347,0,0,0,.056-1.482Z" transform="translate(-1655.206 -687.683)" fill="#2d334a"/><path d="M2102.573,911.207a5.2,5.2,0,0,0-.878-3.725c-1.25-1.592-1.485.546-1.485.546l2.354,3.179Z" transform="translate(-1731.506 -748.047)" fill="#2d334a"/><path d="M2038.53,920c.133.176,2.219,3.511,2.844,3.45.857-.079.051-2.819.051-2.819Z" transform="translate(-1680.655 -758.857)" fill="#2d334a"/><path d="M2058.4,860.409s.511-1.977-.435-3.132c-.9-1.1-2.328-2.17-6.876-.321a1.457,1.457,0,0,0-.878,1.641l.4,1.945,7.791-.133Z" transform="translate(-1690.26 -706.03)" fill="#2d334a"/><path d="M2046.945,871.832c.981,2.73,1.994,4.916,4.013,5.756a5.5,5.5,0,0,0,4.376,0,3.58,3.58,0,0,0,2.481-3.239c.109-1.613-.563-3.625-1.385-5.913-1.536-4.287-4.443-5.706-7.063-4.766S2045.407,867.538,2046.945,871.832Z" transform="translate(-1687.056 -712.178)" fill="#fff"/><path d="M2045.76,908.94l4.756-.5a75.927,75.927,0,0,1,.392,9.194c-.175.721-1.354,1.053-2.646.757-1.161-.272-2.007-.971-2.043-1.633h0a62.849,62.849,0,0,0-.453-7.816Z" transform="translate(-1686.615 -749.33)" fill="#fff"/><path d="M2028.3,873.421a2.282,2.282,0,0,0,2-1.127,15.464,15.464,0,0,0,1.6-6.19c.049-2.458-.764-2.944-.764-2.944s-4.417,1.29-5.065,2.984c-.969,2.537,2.219,7.273,2.219,7.273Z" transform="translate(-1670.238 -711.981)" fill="#2d334a"/><path d="M2048.565,896.51l2.24,6.255a1.745,1.745,0,0,0,1.543,1.155l.8.047a.785.785,0,0,0,.825-.892l-.186-1.341a.679.679,0,0,1,.4-.716l2.751-1.229a.683.683,0,0,1,.83.221l.787,1.083a2.172,2.172,0,0,1-.744,3.2l-1.624.857a2.417,2.417,0,0,1-1.123.279h-.144l-.622-.037h0l-2.028-.121a3.091,3.091,0,0,1-2.732-2.045l-2.238-6.255,1.266-.453Z" transform="translate(-1687.885 -739.488)" fill="#2d334a"/><path d="M2038.723,907.343c.328.93,1.671,1.794,2.345,1.555s.576-1.053.247-1.98-1.183-1.608-1.856-1.371A1.271,1.271,0,0,0,2038.723,907.343Z" transform="translate(-1680.716 -746.897)" fill="#fff"/><path d="M2053.784,862.749l2.769-.967a4.087,4.087,0,0,1,2.858.06l1.241.493-2.2-2.138-2.521-.056-2.753,1.2.6,1.4Z" transform="translate(-1692.733 -709.481)" fill="#2d334a"/><path d="M2216.3,1120.36a3.062,3.062,0,0,1,2.316-1.424c2.442-.223,7.063-.488,8.147.562,1.492,1.447-6.183,3.323-10.751,1.324Z" transform="translate(-1826.977 -922.78)" fill="#fff"/><path d="M2041.36,980.075c-1.645-2.9-3.929-1.189-4.011-1.167-.969.235-1.608,2.079-1.229,3.235l9.819,25.364c.118.423.823.241,1.25.137a.815.815,0,0,0,.367-.2,3.28,3.28,0,0,0,1.257-2.883c-.441-5.465-5.316-20.716-7.454-24.486Z" transform="translate(-1678.576 -807.052)" fill="#f4c68e"/><path d="M2114.494,1119.353c-5.642-.623-18.082-.135-21.551.822-2.877.793-2.352,2.528-2.354,2.607a2.44,2.44,0,0,0,2.363,1.986l21.75-3.16Z" transform="translate(-1723.544 -923.066)" fill="#f4c68e"/><path d="M1542.28,892.923a2.933,2.933,0,0,1,5.867.009,2.932,2.932,0,1,1-5.864,0Z" transform="translate(-1271.524 -734.115)" fill="#fff"/><path d="M2400.78,938.822a2.932,2.932,0,1,1,5.864,0,2.932,2.932,0,1,1-5.864,0Z" transform="translate(-1979.31 -771.967)" fill="#fff"/><path d="M1399.88,520.232a2.932,2.932,0,0,1,5.864,0,2.932,2.932,0,0,1-5.864,0Z" transform="translate(-1154.123 -426.694)" fill="#fff"/><path d="M1626.8,744.267a3.772,3.772,0,1,1,6.787-1.543,5.255,5.255,0,0,0,3.72,1.543,5.253,5.253,0,1,1-10.507,0Z" transform="translate(-1341.206 -609.567)" fill="#fff"/><path d="M2188.449,1222.674a5.254,5.254,0,0,1,10.509,0,5.254,5.254,0,1,1-10.509,0Z" transform="translate(-1804.255 -1004.194)" fill="#fff"/><path d="M1200.25,1330.034a5.254,5.254,0,0,1,10.509,0,5.254,5.254,0,0,1-10.509,0Z" transform="translate(-989.539 -1092.75)" fill="#fff"/></g></g></svg>