<svg xmlns="http://www.w3.org/2000/svg" xmlns:xlink="http://www.w3.org/1999/xlink" width="637" height="509.534" viewBox="0 0 637 509.534"><defs><clipPath id="a"><rect width="637" height="509.534" fill="none"/></clipPath></defs><g transform="translate(-0.12 -0.2)"><g transform="translate(0.12 0.2)"><path d="M390.45,471.92c-2-.61-12.09-3.55-12.27-3.05.9-2.59,1.79-5.19,2.69-7.78a26.91,26.91,0,0,1,6.35,1.79c2,.8,3.93,1.73,6,2.45a68.631,68.631,0,0,0-2.54,6.66l-.23-.07Z" transform="translate(-139.422 -169.779)" fill="#f3aaa1"/><path d="M336.09,462.88c-4.66-1.23-9.16-3.35-11.79-7.65-3.32-5.42-5.4-11.71-8.28-17.38-3.29-6.46-6.79-12.82-9.53-19.55A110.865,110.865,0,0,1,302,405.17c-1.08-4.08-.39-6.18,2.6-9.3a23.22,23.22,0,0,1,15.48-7.24c8.42-.39,10.26,7.26,13.26,13.33,3.19,6.46,4.54,13.6,5.08,20.74.57,7.4,1.95,14.78,3,22.12.33,2.27,2,2.63,3.85,2.8,2.89.27,39.69,9.89,39.69,9.89L381.91,471s-20.66-3.05-22.83-3.46q-10.32-2-20.63-4.12c-.79-.16-1.57-.34-2.36-.55" transform="translate(-119.464 -157.353)" fill="#ce7b13"/><path d="M334.37,371a73.776,73.776,0,0,0-5.25-8.21,20.74,20.74,0,0,1-3.77-11.31,8.48,8.48,0,0,1,1.39-5.51c3.66-4.69,8.14,1.77,10,4.81,2.44,3.95,4.73,8,6.8,12.14s3.58,8.51,5.42,12.75c1.94,4.48,4.83,7.75,7.64,11.61a88.259,88.259,0,0,1,8.05,13.91c1.75,3.68,3.42,7.57,5.35,11.14a13,13,0,0,1-2.53,1.68,16.239,16.239,0,0,1-3.81,1c.11-2.68-2.84-5.48-2.94-5.61-5.15-6.34-9.16-10.43-13.68-17.22-3.28-4.93-6.28-10-9.26-15.15-1.16-2-2.28-4-3.43-6.06" transform="translate(-123.661 -137.197)" fill="#f3aaa1"/><path d="M310.27,322.05c-.59,2.59-1.56,4.18.87,6a16.46,16.46,0,0,0,7.55,3c5.34.82,11.66-.08,16.06-3.42,6.47-4.91,6.2-14.48,1.74-20.64a17.746,17.746,0,0,0-1.74-2c-4.49-4.51-12.34-8.28-16.67-1.46a59.47,59.47,0,0,0-7.81,18.52" transform="translate(-115.921 -113.394)" fill="#f3aaa1"/><path d="M325.4,517.57c-.06-2.05-.58-12.59-1.12-12.59h8.24a27,27,0,0,1,.37,6.59c-.09,2.17-.35,4.29-.36,6.48a65.149,65.149,0,0,0-7.13-.23v-.25" transform="translate(-118.794 -186.44)" fill="#f3aaa1"/><path d="M318.1,476.12c-.72-5.48-1.48-10.95-2.52-16.37a101.9,101.9,0,0,0-4.52-16.56,217.511,217.511,0,0,1-8.61-26.94,110.711,110.711,0,0,1-2.39-13.67c-.44-4.19.57-6.16,4-8.78a23.25,23.25,0,0,1,16.41-4.8c10.32,1.12,10.28,12.86,11.19,20.61a240.176,240.176,0,0,1,1.57,26.81c0,4.48-.06,8.95-.24,13.43-.23,5.46,1,10.31,1.75,15.71a82.787,82.787,0,0,1,.52,12.4c-.1,11.11-.32,33.35-.32,33.35l-12.51.24c-.66-8.8-1.87-17.55-3.09-26.28-.43-3.06-.83-6.12-1.24-9.18" transform="translate(-112.927 -166.82)" fill="#fcc049"/><path d="M307.3,522.33c-.38,0,.31-3.25.36-3.51a6.52,6.52,0,0,1,3.7-4.75,13.449,13.449,0,0,1,5.52-.83c5.17,0,10.23,1.07,15.31,1.94a1.85,1.85,0,0,1,1.67,1.34,18.12,18.12,0,0,1,.37,5.81c0,.21-21.55.07-26.93,0" transform="translate(-114.67 -188.558)" fill="#31316b"/><path d="M315.22,339.29a.81.81,0,0,0,.07.41.86.86,0,0,0,.41.29c3.4,1.39,7.15,1.59,10.82,1.64q0-6.45-.37-12.91a.6.6,0,0,0-.11-.37.55.55,0,0,0-.43-.14c-1.88-.09-3.76-.16-5.63-.21-1.59,0-3.15-.22-4.74-.22a50.5,50.5,0,0,1,0,5.9c-.08,2-.06,3.74-.06,5.61Z" transform="translate(-115.774 -121.182)" fill="#f3aaa1"/><path d="M262,267.67l-9.63-.06c-1.35,0-2.73-.07-4.13-.07h-.79a24,24,0,0,0-4.64.4l-.71.15-.07.72c-.37,3.37-.21,6.6-.35,9.81h0v.1a1.59,1.59,0,0,0,.07.46,1.22,1.22,0,0,0,.53.66l.16.1.35.06h1.8c4,0,7.91.15,11.91.15,1.34,0,2.68,0,4-.06h.2a1.871,1.871,0,0,1,.49.05h.07l.06-.06h-.07l.06-.06h-.07a2.819,2.819,0,0,1,0,.45v18.77h2q0-9.39-.05-18.78a4.669,4.669,0,0,0,0-.7,2.08,2.08,0,0,0-.35-.91,2.12,2.12,0,0,0-1.13-.78,4.168,4.168,0,0,0-1.05-.13h-.27c-1.32.05-2.64.06-4,.06-4,0-7.91-.15-11.91-.15h-1.65v1l.16-1h-.17l-.16,1,.5-.86-.4.69.76-.25a.8.8,0,0,0-.36-.44l-.4.69.76-.25-.47.16h.5a.33.33,0,0,0,0-.16l-.47.16h.5c.14-3.33,0-6.51.34-9.68l-1-.11.21,1a22.366,22.366,0,0,1,4.25-.35h.76c1.35,0,2.72.06,4.11.07l9.63.06v-2Z" transform="translate(-89.72 -101.228)" fill="#31316b"/><path d="M300.19,405.22q9.1.67,18.24.85c1.3,0,16.95,0,16.95-.15,0-4.67-.25-9.3-.25-14,0-8,.45-16,.66-23.93.18-7.2,1-15.32-2.31-21.92s-11.64-9.9-18.21-8.17-10.24,8.3-11.83,14.69c-3.19,12.84-3.18,27.72-3.22,40.89v11.74" transform="translate(-113.069 -134.081)" fill="#81ccf1"/><path d="M283.33,332.36c-1.78-1.16-2.79-2.85-3.84-5.28-3.81-8.87-8.83-17.15-12.82-25.87-1.22-2.67-4.09-2.32-4.45.61-.54,4.3,1.41,8.51,2.69,12.52,2,6.34,3.72,12.8,5.52,19.22a16,16,0,0,0,1.47,3.92c2.57,4.36,9.58,5.24,13.94,6.85,6.49,2.39,13.08,4.43,19.65,6.59,2.59.85,5.54,2.12,8.3,1.4,3.27-.86,5.25-4.89,2.88-7.68-3-3.5-9-5.15-13.25-6.33q-8.55-2.37-17.12-4.68a10.33,10.33,0,0,1-3-1.27" transform="translate(-100.806 -116.514)" fill="#f3aaa1"/><path d="M247,263.83a2.79,2.79,0,0,0-.75.21c-1.32.57-1,1.6-1,2.74.09,1.7,0,3.44,0,5.15a1.81,1.81,0,0,0,2.19,2.23c9.64.17,19.3.33,28.89-.62a2.88,2.88,0,0,0,2.17-.89,2.69,2.69,0,0,0,.37-1.31,26.32,26.32,0,0,0,0-5.25c-.21-2.22-1.85-2.49-3.71-2.45-3,.06-6,0-9,0l-17.93.07a9.072,9.072,0,0,0-1.28.08Z" transform="translate(-92.174 -97.098)" fill="#fcc049"/><path d="M259.66,287.62c.24,4.3.21,8.71.21,13a1.12,1.12,0,0,0,.17.72,1.06,1.06,0,0,0,.59.31,8.07,8.07,0,0,0,3,.16,1.2,1.2,0,0,0,.74-.3,1.37,1.37,0,0,0,.25-.91c.07-4.51.53-9.07.2-13.53a32.244,32.244,0,0,0-5.19.33v.2Z" transform="translate(-94.805 -106.275)" fill="#fcc049"/><path d="M343.11,304.67a21.89,21.89,0,0,0-12-8.58,14.66,14.66,0,0,0-7.92-.51,8,8,0,0,0-5.76,5.09c-.31,1.05-.21,2.42.77,2.91a7,7,0,0,0,1.59.31,3.27,3.27,0,0,1,2.22,2.63c.35,1.81-.6,3.43-.16,5.17a8.3,8.3,0,0,0,1.33,3c.65.85,1.46,1,2.22,1.69a2.09,2.09,0,0,1,2.64-.92,3.15,3.15,0,0,1,1.77,2.4c.75,4.12-3.52,4.61-5.76,6.94a6.16,6.16,0,0,0-1,7.17,9.17,9.17,0,0,0,2.64,14.44,8.06,8.06,0,0,0-.88,8.88,12.47,12.47,0,0,0,7.18,5.83,19.83,19.83,0,0,0,13.8-.59,12.92,12.92,0,0,0,5.75-4.15,10.21,10.21,0,0,0-.3-11.65,1.7,1.7,0,0,1-.41-.84,1.829,1.829,0,0,1,.16-.68,16.19,16.19,0,0,0-5-18c1.83-6.86,1.1-14.61-2.91-20.54" transform="translate(-119.515 -117.046)" fill="#31316b"/><path d="M257.14,293.19l-.08.14a3.16,3.16,0,0,0-.27,1.62c0,1.3.1,2.61.22,3.91a4.871,4.871,0,0,0,.35,1.65c.89,1.86,3.59,1.89,4.73,3.6.08.11.16.24.28.28a.57.57,0,0,0,.34,0c1.34-.33,2.67-.69,4-1.07a1,1,0,0,0,.68-.4,1.1,1.1,0,0,0,0-.76,54.3,54.3,0,0,1-1.09-6.43,3.29,3.29,0,0,0-1-2.32c-.82-.65-1.87-.47-2.83-.65a19.559,19.559,0,0,0-3.05-.48,2.68,2.68,0,0,0-2.3.93Z" transform="translate(-94.272 -107.833)" fill="#f3aaa1"/><g clip-path="url(#a)"><path d="M367.487,419.4c.14.159.28.319.427.471a4.722,4.722,0,0,0,2.822,1.752,1.414,1.414,0,0,0,1.363-.637,1.484,1.484,0,0,0,.134-.637,5.434,5.434,0,0,0-.637-2.357,22.663,22.663,0,0,0-2.274-3.822c-.637-.873-1.408-2.274-2.415-2.733a3.223,3.223,0,0,0-1.44-.178,5.563,5.563,0,0,0-1.217.127.93.93,0,0,0-.325.14.822.822,0,0,0-.261.446,13.97,13.97,0,0,0-.076,4.46,6.517,6.517,0,0,0,.892,3.255.561.561,0,0,0,.331.274c.312.064.5-.338.548-.637a24.733,24.733,0,0,0,.032-3.5,4.651,4.651,0,0,1,.535,1.083,9.607,9.607,0,0,0,1.561,2.485Z" transform="translate(-131.979 -149.377)" fill="#f3aaa1"/><path d="M595.368,351.423c-10.034-19.749-28.114-35.676-33-57.273-7.581-33.574,19.348-69.174,7.753-101.588a46.245,46.245,0,0,0-30.726-28.5c-9.4-2.587-19.17-2.071-28.987-1.554a139.177,139.177,0,0,1-19.418.127c-31.1-2.695-56.063-25.451-81.648-43.321-15.691-10.932-35.039-20.686-53.272-14.806-18.947,6.122-29.21,26.757-46.392,36.842-22.826,13.379-50.329,9.1-77.207,4.842-15.328-2.427-30.478-4.855-44.487-4.02-15.162.9-31.733,5.95-39.244,19.151-13.844,24.355,3.784,50.75-16.194,74.111-13.952,16.316-41.576,29.5-42.786,53.514-.924,18.411,15.245,32.555,29.579,44.143s29.739,27.241,26.534,45.392c-1.574,8.919-7.454,16.322-11.614,24.343-18.411,35.517-.178,81.546,31.548,105.888s73.168,31.656,113.056,34.956a742.432,742.432,0,0,0,103.78,1.274c44.086-2.548,88.617-9.671,129.741-26.273a237.271,237.271,0,0,0,57.165-32.319c7.938-6.173,18.431-13.633,24.132-22.03s6.734-21.807,8.486-32.045c4.6-26.9,5.9-55.859-6.8-80.909" transform="translate(-32.638 -37.415)" fill="#def0f3"/></g><path d="M92.07,453l-.33-.07a24.035,24.035,0,0,0-24.16,11.08C63,471.47,63,482.1,65.86,490.21c1.1,3.13,2.73,6.2,2.69,9.51-.06,4.61-3.38,8.56-7.11,11.26s-8,4.6-11.55,7.57c-5.66,4.77-8.71,15.56-4.63,22.17,7.7,12.5,22.59,18.68,29.32,32.36,3.74,7.61,6.29,17.19,14.19,20.26,7.55,2.93,15.76-1.9,22.07-7s13.22-10.94,21.3-10.34c5.23.4,9.79,3.49,14.3,6.17,5.76,3.41,12.13,6.35,18.82,6.15s13.65-4.38,15.11-10.91c1.75-7.83-4.52-16.48-.89-23.64,5.36-10.59,22.4-12.38,12-28-3-4.48-8.72-5.46-10.39-11.46-2.45-8.8,6.41-17.67,4.4-26.58-1.88-8.32-12-11.94-16.14-19.4-4.61-8.31-1.48-20.62-9-26.4-5-3.87-12.45-2.44-17.91.82s-9.87,8.06-15.39,11.19a30.52,30.52,0,0,1-22.51,2.95c-4.22-1.1-8.19-3.11-12.47-3.95Z" transform="translate(-0.12 -197.889)" fill="#05ae99"/><path d="M156.59,490.97l-37.4,26.47,2.31,3.27,37.41-26.48" transform="translate(-0.12 -185.191)" fill="#008f6c"/><path d="M141.58,488.73l-3.28,15.85,3.91.81,3.29-15.85" transform="translate(-0.12 -181.271)" fill="#008f6c"/><path d="M155.86,511.24,130.6,509.9l-.22,3.99,25.26,1.34" transform="translate(-0.12 -186.423)" fill="#008f6c"/><path d="M170.73,534.29l-53.6,22.5,1.54,3.69,53.6-22.5" transform="translate(-0.12 -200.596)" fill="#008f6c"/><path d="M142.78,529.58l-5.66,19.63,3.85,1.1,5.65-19.62" transform="translate(-0.12 -197.437)" fill="#008f6c"/><path d="M164.28,553.86l-12.57-10.42-2.55,3.08,12.56,10.41" transform="translate(-0.12 -200.737)" fill="#008f6c"/><path d="M120.27,534.76l-38.6-27.75-2.34,3.25,38.61,27.75" transform="translate(-0.12 -191.55)" fill="#008f6c"/><path d="M89.06,488.89l8.81,34.12,3.87-1-8.8-34.12" transform="translate(-0.12 -185.323)" fill="#008f6c"/><path d="M105.7,524.98l-28.74,4.18.58,3.96,28.74-4.18" transform="translate(-0.12 -192.613)" fill="#008f6c"/><path d="M117.11,482.38V679.39h4V482.38" transform="translate(-0.12 -232.388)" fill="#008f6c"/><path d="M863.6,516.06c0-1.58-.44-9.7-.86-9.7h6.35a21.1,21.1,0,0,1,.29,5.08c-.08,1.66-.28,3.29-.29,5-1.82-.15-3.65-.21-5.48-.18v-.18Z" transform="translate(-363 -186.242)" fill="#f3aaa1"/><path d="M849.66,519.72c-.29,0,.24-2.5.28-2.7a5,5,0,0,1,2.85-3.66,10.261,10.261,0,0,1,4.25-.64,73.252,73.252,0,0,1,11.79,1.49,1.43,1.43,0,0,1,1.29,1,13.859,13.859,0,0,1,.28,4.48c0,.16-16.59,0-20.74,0Z" transform="translate(-363 -187.855)" fill="#12100b"/><path d="M859.7,482.07c-.08-.85-.17-1.7-.27-2.54-.22-2-.45-4-.59-6-.18-2.67-.19-5.36-.19-8,0-6,0-12.06.17-18.09.18-5.39,0-11.37,1.37-16.61.6-2.33,2.28-5.49,4.73-6.32a7.479,7.479,0,0,1,2.45-.23l7,.13a6.122,6.122,0,0,1,4,1c2.43,2.14-.25,9-.82,11.57-.81,3.75-.46,7.82-1.43,11.43-1.05,3.91-2.88,7.51-3.65,11.53-1.69,8.88-1.37,18-1.18,27,0,1.92-.63,23.42-.63,23.42l-9-.44s-.09-2.8-.12-3.81c-.06-1.79-.17-3.59-.27-5.38q-.54-9.3-1.5-18.55Z" transform="translate(-363 -172.668)" fill="#008f6c"/><path d="M888.06,515.09c0-1.56-.44-9.6-.85-9.6h6.28a20.692,20.692,0,0,1,.29,5c-.08,1.65-.28,3.26-.28,4.94a49.265,49.265,0,0,0-5.44-.18v-.19Z" transform="translate(-363 -185.889)" fill="#f3aaa1"/><path d="M883,483.37c-.38-5-.81-10.07-1.6-15.05a162.013,162.013,0,0,0-4.68-19.52,50.426,50.426,0,0,1-1.67-6.94c-.22-1.6-.28-3.21-.35-4.82l-.24-6.46a23.821,23.821,0,0,1,.57-7.91c1.39-4.55,4.8-6.12,9.3-5.63,7.87.86,7.85,9.81,8.53,15.73a181.215,181.215,0,0,1,1.2,20.44c0,3.42,0,6.83-.18,10.25-.17,4.16.75,7.86,1.34,12a64.927,64.927,0,0,1,.39,9.46c-.08,8.48-.25,25.44-.25,25.44l-9.54.18c-.4-5.43-1.42-10.81-1.94-16.24-.34-3.63-.6-7.27-.88-10.91Z" transform="translate(-363 -171.493)" fill="#05ae99"/><path d="M874.18,519.72c-.29,0,.23-2.5.28-2.7a5,5,0,0,1,2.85-3.66,10.209,10.209,0,0,1,4.25-.64,73.246,73.246,0,0,1,11.79,1.49,1.41,1.41,0,0,1,1.28,1,13.869,13.869,0,0,1,.29,4.48c0,.16-16.6,0-20.74,0Z" transform="translate(-363 -187.855)" fill="#12100b"/><path d="M874.81,379.26a.619.619,0,0,0,.12.29.65.65,0,0,0,.36.15,22.74,22.74,0,0,0,8.4-.63q-1.12-4.85-2.5-9.63a.47.47,0,0,0-.14-.26.42.42,0,0,0-.35,0c-1.43.25-2.85.52-4.27.81-1.19.24-2.4.38-3.59.65a43.858,43.858,0,0,1,1,4.43c.3,1.41.6,2.81.93,4.22Z" transform="translate(-363 -135.913)" fill="#f3aaa1"/><path d="M860.45,429.28q8.26.53,16.54.66c1.19,0,15.39,0,15.39-.12,0-5.28-.26-10.53-.16-15.81.1-5.69.4-11.38.72-17.06a46.5,46.5,0,0,0-.57-12.47,8.86,8.86,0,0,0-3.21-5.5c-2.06-1.41-4.8-1.31-7.18-1.41a34.223,34.223,0,0,0-9.26.62c-5.65,1.31-8.45,6.92-9.85,12.06-1.81,6.6-2.16,13.7-2.31,20.5,0,2.26-.06,4.52-.07,6.78v11.71Z" transform="translate(-363 -146.737)" fill="#db453d"/><path d="M853.37,424.19l21.6.81-3.33-38.9H846.31l7.06,38.09Z" transform="translate(-363 -147.412)" fill="#c7e8fa"/><path d="M848.57,411.28a18.6,18.6,0,0,0,.14,3,3,3,0,0,0,1.74,2.37,6.213,6.213,0,0,0,1.48.32,3.69,3.69,0,0,0,2.06-.19c1.75-.89,2.24-2.4,2-4.29a3.081,3.081,0,0,0-.63-1.82c-1.19-1.33-3-1.42-4.63-1.4h-.15l-.34-1.49A4.239,4.239,0,0,0,848.9,409a4.6,4.6,0,0,0-.33,1.92v.39Z" transform="translate(-363 -149.853)" fill="#f3aaa1"/><path d="M887.51,390.16c1,3.85,2.18,7.66,3.27,11.48.1.36.81,3.84.92,3.86l-1.1-.18a47.759,47.759,0,0,1-4.8-1c-2.17-.61-4.32-1.29-6.53-1.73a3.59,3.59,0,0,0-1.84,0,1.9,1.9,0,0,0-1.27,1.74,2.51,2.51,0,0,0,1,1.91,7.352,7.352,0,0,0,2,1l11.37,4.33a25.88,25.88,0,0,0,6.41,1.82c3.67.37,2.93-5.18,2.67-7.43A93.366,93.366,0,0,0,895.13,385a12.692,12.692,0,0,0-2.62-4.38c-1.13-1.16-3.2-2.14-4.73-1.16-2,1.28-1.75,4.24-1.32,6.24.31,1.49.66,3,1,4.42Z" transform="translate(-363 -143.867)" fill="#f3aaa1"/><path d="M869.08,400.57a5.74,5.74,0,0,1-1.26-.39,7.113,7.113,0,0,0-1.65-.66,1.37,1.37,0,0,0-1.51.68,2.051,2.051,0,0,0-.1.61,10.457,10.457,0,0,0,.12,2.85,3.51,3.51,0,0,0,1.54,2.31,3.851,3.851,0,0,0,.92.37,11,11,0,0,0,3.78.43c1.29-.07,2.41-.57,3.66-.75a13.269,13.269,0,0,1,3.1.48,24.482,24.482,0,0,1,.64-3.11l.44-.92a7.2,7.2,0,0,1-1.59-.9,17,17,0,0,0-2-1.94,10,10,0,0,0-2.43-1.09,11.1,11.1,0,0,1,.08,1.63,6,6,0,0,1-3.7.4Z" transform="translate(-363 -146.274)" fill="#f3aaa1"/><path d="M867.74,376.85a7.169,7.169,0,0,0,3.56.88,7.92,7.92,0,0,0,5.18-2.46,19.2,19.2,0,0,0,4.22-7.94c1-3.4,1.1-7.36-1.05-10.35a11.7,11.7,0,0,0-7.18-4.34,14.93,14.93,0,0,0-7.62.41l-.61.23a9.24,9.24,0,0,0-4.7,3.76c-1.27,2.21-.72,5.2-.13,7.55a22.447,22.447,0,0,0,3.37,7.15,14.051,14.051,0,0,0,5,5.11Z" transform="translate(-363 -132.188)" fill="#f3aaa1"/><path d="M876.2,347.79a18.179,18.179,0,0,0-2.74-.8,14.41,14.41,0,0,0-7,.39,16.23,16.23,0,0,0-8.69,5.72,9.57,9.57,0,0,0-1.13,7.79,2.55,2.55,0,0,0,1.1,1.64c.32.21,1.36.55,1.46,1a5.54,5.54,0,0,1,.38-3.63,30.913,30.913,0,0,1,1.72-2.66,3.76,3.76,0,0,0,.63-2.39,5.3,5.3,0,0,0,3.19,3.47c1.31.4,2.72.14,4.06.28a13.28,13.28,0,0,1,7.19,3.32.79.79,0,0,0,.47.22.58.58,0,0,0,.49-.41,3,3,0,0,0,.1-.67,1.5,1.5,0,0,1,.55-1c1.18-.86,1.84.8,2,1.66a7.549,7.549,0,0,1-.12,3.92,14.236,14.236,0,0,0-.64,2.23c-.06.43-.24,1.57.09,1.9s.74.15,1.09-.05a7,7,0,0,0,3-3.81,14.93,14.93,0,0,0-1.24-12.05c-1.36-2.49-3.28-5-6-6Z" transform="translate(-363 -129.725)" fill="#12100b"/><path d="M882.82,352.8c-4.33,2.85-12.77-1.36-12.15-6.72.49-4.2,6.07-6.46,9.73-5.51a6.93,6.93,0,0,1,3.08,11.7,4.258,4.258,0,0,1-.66.53Z" transform="translate(-363 -125.748)" fill="#12100b"/><path d="M149.429,660.49a13.2,13.2,0,0,0,6.88,3.51c4.722.33,8.761-4.6,12.811-9.52,3.954-4.8,7.908-9.6,12.5-9.54,7.191.09,13.065,12.22,20.256,11.94,7.693-.31,12.461-13.63,16.635-23.28,5.191-12,10.427-21.39,18.8-25.81a88.043,88.043,0,0,1,39.873-10.59h5.649a76.267,76.267,0,0,0,13.054-.55c6.778-1,13.607-.49,20.391.14L368,601.58c14.274,1.32,29.881,3.61,40.184,21.16,6.134,10.44,11.094,26.67,19.606,26.71,5.135,0,9.3-6.13,13.449-12.28,4.349-6.44,8.665-12.89,14.042-12.22,9.716,1.21,14.551,24.94,24.232,26.86,4.965,1,9.744-4,14.364-9.09,5.852-6.38,11.444-12.76,16.838-6.89,5.247,5.72,6.428,20.9,12.427,23.17s10.653-11,16.821-12.57c4.943-1.23,9.6,5.81,11.354,14.07,13.557,63-56.745,69.09-75.792,69.09s-36.473-4.38-49.809-11.61c-20.623,24.57-61.908,41.33-109.48,41.33-47.792,0-89.247-16.91-109.808-41.66-13.41,7.43-31.067,11.94-50.413,11.94-15.748,0-31.779-2.62-46.985-10.15-8.75-4.33-27.373-11.81-27.034-33.12.2-12.2,6.213-22.19,12.884-25.44a13.634,13.634,0,0,1,10.732-.72c7.1,2.48,14.912,10.5,20.9,3.28,2.322-2.81,3.8-7.52,6.213-10,5.276-5.27,10.84,2.22,16.68,7" transform="translate(-0.12 -290.466)" fill="#0c5093"/><path d="M223.37,618.69H769.56a10.94,10.94,0,0,0,10.94-10.94V561.29H212.43v46.46a10.94,10.94,0,0,0,10.94,10.94" transform="translate(-178.539 -219.577)" fill="#fff"/><path d="M437.04,668.91H553.63V618.69H437.04v50.22Z" transform="translate(-179.619 -239.703)" fill="#c7e8fa"/><path d="M212.43,562.23H780.5V240.37a10.11,10.11,0,0,0-10.11-10.11H222.54a10.1,10.1,0,0,0-10.11,10.11V562.23" transform="translate(-178.539 -142.941)" fill="#0c5093"/><path d="M221.24,562.66H771.68V250.34a10.11,10.11,0,0,0-10.11-10.11H231.36a10.12,10.12,0,0,0-10.12,10.11V562.66" transform="translate(-178.653 -146.151)" fill="#0c5093"/><path d="M233.95,541.73H759.42V254.14H233.95V541.73" transform="translate(-178.978 -144.106)" fill="#c7e8fa"/><path d="M252.5,541.73H740.83V269.14H252.5V541.73" transform="translate(-179.152 -148.27)" fill="#fff"/><path d="M483.63,587.42a12.83,12.83,0,1,0,12.83-12.83,12.83,12.83,0,0,0-12.83,12.83Z" transform="translate(-180.219 -215.569)" fill="#c7e8fa"/><path d="M387.17,685.72H605.62a16.82,16.82,0,0,0-16.81-16.81H404a16.81,16.81,0,0,0-16.81,16.81Z" transform="translate(-179.858 -290.466)" fill="#fff"/><path d="M504,314.64H717.17v-22.1H504v22.1Z" transform="translate(-232.541 -109.312)" fill="#c7e8fa"/><path d="M276.41,448.14H489.57v-22.1H276.41v22.1" transform="translate(-127.561 -159.139)" fill="#c7e8fa"/><path d="M276.41,521H489.57V459.59H276.41V521" transform="translate(-127.561 -180.789)" fill="#c7e8fa"/><path d="M489.57,416.14H276.41V292.54H489.57v123.6" transform="translate(-127.561 -125.69)" fill="#81ccf1"/><path d="M504,521H717.17V434H504v87" transform="translate(-232.541 -176.852)" fill="#c7e8fa"/><path d="M658.09,497.9H520.81a1,1,0,0,0-1,1v5.42a1,1,0,0,0,1,1H658.09a1,1,0,0,0,1-1V498.9A1,1,0,0,0,658.09,497.9Z" transform="translate(-219.252 -182.518)" fill="#fff"/><path d="M658.09,450.67H520.81a1,1,0,0,0-1,1v5.42a1,1,0,0,0,1,1H658.09a1,1,0,0,0,1-1v-5.42A1,1,0,0,0,658.09,450.67Z" transform="translate(-219.252 -165.217)" fill="#fff"/><path d="M689.55,474.39H520.81a1,1,0,0,0-1,1v5.41a1,1,0,0,0,1,1.05H689.55a1,1,0,0,0,1-1.05v-5.41a1,1,0,0,0-1-1" transform="translate(-227.567 -173.915)" fill="#fff"/><path d="M233.95,269.14H759.42v-15H233.95v15Z" transform="translate(-178.978 -94.122)" fill="#54b4db"/><path d="M746.17,261.3a3.315,3.315,0,1,1,0,.03Z" transform="translate(-272.695 -94.547)" fill="#fff"/><path d="M734.17,261.3a3.315,3.315,0,1,1,0,.03Z" transform="translate(-268.31 -94.547)" fill="#fff"/><path d="M722.17,261.3a3.315,3.315,0,1,1,0,.03Z" transform="translate(-263.926 -94.547)" fill="#fff"/><path d="M450.64,411.39l-68.49-84.65-19.97,17.75-35.67-40.15-45.74,40.15v66.9H450.64" transform="translate(-122.82 -127.636)" fill="#fff"/><path d="M440.75,324.64a17.5,17.5,0,1,0,17.5-17.5A17.5,17.5,0,0,0,440.75,324.64Z" transform="translate(-165.836 -116.694)" fill="#fff"/><path d="M407.86,371.42H358.12a2,2,0,0,1-2-2V339.26a2,2,0,0,1,2-2h49.74a2,2,0,0,1,2,2v30.16A2,2,0,0,1,407.86,371.42Z" transform="translate(-136.659 -127.985)" fill="#ec6335"/><path d="M395.37,352.54l-18.56-9a2,2,0,0,0-2.88,1.8v18a2,2,0,0,0,2.88,1.8l18.56-9a2,2,0,0,0,0-3.6Z" transform="translate(-138.917 -128.256)" fill="#fff"/><path d="M351.85,618.69h-4.13l-4.24-16.76h-45l4.34,16.76h-4.13L293,596.59l-5.72,22.1h-4.13l4.34-16.76H275.56l1-4h11.89l2.42-9.32-3.37-13h-5.16l1-4h3.09l-1.55-6,.78-3h2.58l2.32,9h4.67l2.32-9h4.13l-2.32,9h36.36l-2.27-9h4.13l14.2,56m-53.46-43.07-3.36,13,2.41,9.32h45l-5.65-22.31H298.39m-6.72,0,1.29,5,1.3-5h-2.59M238.2,618.69h-4.12l14.2-56h4.12l-2.27,9h29.14l-1,4H249.12L243.46,598h29l-1,4h-29l-4.25,16.76" transform="translate(-96.366 -219.723)" fill="#dfdfeb"/><path d="M337.65,562.66h-4.13l-3.38-13.35H305.21l-3.46,13.35h-4.13l3.46-13.35H289.19l1-4h11.89l.93-3.58h4.13l-.93,3.58H329.1l-.91-3.58h4.12l5.31,20.93m-49.34,0H285.7l1.29-5,1.29,5m-35.91,0h-4.12l5.3-20.93h4.13l-.91,3.58h22.88l-.93-3.58h4.14l.93,3.58h2.27l-1,4h-.2l.1.39-2.06,8-2.17-8.37H255.79l-3.39,13.35" transform="translate(-99.014 -202.02)" fill="#13498b"/><path d="M332.34,541.73h-4.12L323.47,523H312l-4.85,18.73H303L307.89,523H309v-2h18.08l5.25,20.73m-49.45,0h-4.14L273.9,523H278l4.85,18.73m-25.18,0h-4.13L258.33,523h4.12l-4.74,18.73M276.41,519H259.34l6.82-26.89,1.94.49,1.93-.5,6.38,24.61V519m-8.29-18.34L263.47,519h9.4l-4.75-18.34" transform="translate(-99.96 -190.533)" fill="#dfdfeb"/><path d="M327.09,521H309v-2h-.08l7-26.9,1.94.5,1.94-.49L327.09,521m-9.28-20.34L313.06,519h9.4l-4.65-18.34M280.46,519h-4v-2.29L277,519h3.46" transform="translate(-105.759 -185.415)" fill="#a9c8e4"/><path d="M205.35,685.12l48.66-192.03-3.88-.98L201.47,684.13" transform="translate(-77.247 -290.466)" fill="#008f6c"/><path d="M254.01,685.13,303.74,493.1l-3.87-1L250.14,684.12l3.87,1.01" transform="translate(-95.998 -290.466)" fill="#008f6c"/><path d="M244.88,523h49.57v-4H244.88v4" transform="translate(-93.583 -189.431)" fill="#008f6c"/><path d="M238.21,549.31h49.43v-4H238.21" transform="translate(-91.022 -199.028)" fill="#008f6c"/><path d="M231.54,575.62h49.28v-4H231.54" transform="translate(-88.462 -208.624)" fill="#008f6c"/><path d="M224.87,601.93h49.14v-4H224.87" transform="translate(-85.903 -218.221)" fill="#008f6c"/><path d="M218.2,628.25h48.99v-4H218.2" transform="translate(-83.344 -227.821)" fill="#008f6c"/><path d="M211.53,654.56h48.85v-4H211.53" transform="translate(-80.787 -290.466)" fill="#008f6c"/><path d="M352.41,684.13,303.75,492.11l-3.88.98,48.67,192.03" transform="translate(-114.94 -290.466)" fill="#05ae99"/><path d="M303.74,684.12,254.01,492.1l-3.87,1,49.73,192.03" transform="translate(-95.998 -290.466)" fill="#05ae99"/><path d="M309.01,519H259.43v4h49.58v-4" transform="translate(-99.14 -189.431)" fill="#05ae99"/><path d="M315.67,545.31H266.25v4h49.42" transform="translate(-101.727 -199.028)" fill="#05ae99"/><path d="M322.34,571.62H273.06v4h49.28" transform="translate(-104.312 -208.624)" fill="#05ae99"/><path d="M329.01,597.93H279.87v4h49.14" transform="translate(-106.895 -218.221)" fill="#05ae99"/><path d="M335.68,624.25H286.69v4h48.99" transform="translate(-109.481 -227.821)" fill="#05ae99"/><path d="M342.35,650.56H293.5v4h48.85" transform="translate(-112.064 -290.466)" fill="#05ae99"/><path d="M300.49,519H297l1.57-6.09a5.17,5.17,0,0,1,2.3,3.38c0,.2.57,2.7.27,2.7h-.69" transform="translate(-108.322 -187.702)" fill="#a9c8e4"/><path d="M233.59,492.81c-.2,0-.32,0-.32-.09,0-4.14.06-20.74.22-20.74h.46v20.83h-.36" transform="translate(-84.793 -175.999)" fill="#13498b"/><path d="M234,492.79V472h1a10.47,10.47,0,0,1,3,.36,1.39,1.39,0,0,1,1,1.17l.68-.28c.81-.32,1.62-.61,2.46-.86l-.75-3.28,11.16-2.89v12l-8.78,1.3-.25-1.08c-1.15.3-2.45.65-3.59,1a43.8,43.8,0,0,1,.47,6.06,10.39,10.39,0,0,1-.69,4.24,5,5,0,0,1-3.69,2.81c-.13,0-1.26.25-2,.32M249,446a1.48,1.48,0,0,1-1.69-1.55,6.39,6.39,0,0,1,.77-2.84,45.012,45.012,0,0,1,4.41-6.92v9.22c-.9.93-2,2-3.38,2.09H249" transform="translate(-86.605 -170.257)" fill="#a9c8e4"/><path d="M252.5,478.16v-12c8.2-2.1,18.13-4.6,19.41-4.72,1.46-.14,2.71-.41,3-2.16.54-3.71,1.18-7.43,1.68-11.15h25.28c-1.1,3.32-2.3,6.62-3.53,9.89q-.3.78-.57,1.56H276.41v14.2q-7.55,1.56-15.11,3c-.79.16-4.81.77-8.8,1.37M256.21,444c-.33,0-.52-.44-.59-.79a31.419,31.419,0,0,1,0-4.23,6.158,6.158,0,0,0-.64,1.31,11.329,11.329,0,0,1-1.89,3c-.16.19-.34.38-.52.57h0v-9.22l.37-.39h0c1.49-2.75,2.78-5.74,4.13-8.58A67.172,67.172,0,0,1,263.2,415c2.17-3,4.39-5.49,5.88-8.94,1.42-3.27,2.58-6.63,4.18-9.82.19-.39.39-.77.59-1.16a16.621,16.621,0,0,1-2.3-.73,10,10,0,0,1-4.43-3.2,7.88,7.88,0,0,1,.23-9,1.34,1.34,0,0,0,.32-.64,1.21,1.21,0,0,0-.13-.52,12.48,12.48,0,0,1,3.83-13.85c-1.41-5.28-.85-11.25,2.24-15.82a15.8,15.8,0,0,1,2.8-3.13v61.12c-1.88,3.2-3.79,6.38-5.85,9.47C267.08,424,264,427.16,260,432.05a8.77,8.77,0,0,0-2.15,3.4,25.288,25.288,0,0,1-.11,4.28,7.87,7.87,0,0,1-1.08,3.94.76.76,0,0,1-.4.33h-.08m50.61-18H279.6c0-2.49.15-5,.15-7.5v-2.4h26.9v7.68a7.061,7.061,0,0,1,.17,2.22" transform="translate(-96.979 -150.999)" fill="#dfdfeb"/><path d="M301.83,448.14H276.55c.27-2,.49-3.93.64-5.89a47.489,47.489,0,0,1,2.61-12.89h-.24v-3.28h27.22a3.443,3.443,0,0,1-.05.71c-.05.24-.07.54-.11.81s0,.81,0,1.22h-.16q-.58,4.29-1.58,8.49c-.87,3.67-1.93,7.28-3.1,10.86" transform="translate(-103.571 -159.152)" fill="#a9c8e4"/><path d="M292.9,519H280.45a13.78,13.78,0,0,1,.28-4.47,1.34,1.34,0,0,1,.94-.95c-.07-1-.15-1.9-.2-2.86v-.15H279.9s-.17-17.13-.24-25.7a63.48,63.48,0,0,1,.39-9.55c.12-.85.26-1.68.4-2.5-.48.15-1,.3-1.44.42s-1.21.3-1.81.43l-.79.16v-14.2h21.32a81.554,81.554,0,0,0-2.92,11.2c-.8,4.17-1.39,8.39-1.94,12.61-.32,2.36-.62,4.71-.95,7.07-.95,6.73-1.88,13.46-2.38,20.24h-2.05c-.05.65-.08,1.3-.12,1.91a44.814,44.814,0,0,1,6.44-.59h.91l-1.82,7" transform="translate(-102.577 -180.325)" fill="#a9c8e4"/><path d="M306.63,416.14h-26.9c-.05-4-.22-8-.36-12-.55,1-1.11,2-1.67,3l-1.29,2.2V348.2a17.159,17.159,0,0,1,4.36-2.7v65.89h25.81c0,1.6,0,3.18.05,4.75m44.8-83.75-1.62-1.83H350v-1.95c0-1.36,0-2.65-.13-4l-.85-.07v1.53a1.85,1.85,0,0,1-.33,1.33,1.72,1.72,0,0,1-1.26.39l-7.14-8h6.4a6.442,6.442,0,0,1,1,.05,1.941,1.941,0,0,1,.58.17c1,.44.79,1.23.74,2.11v.42a12.887,12.887,0,0,1,2,.25l.7.15.08.72a48.089,48.089,0,0,1,.21,4.9c0,.89,0,1.78.06,2.67a1.19,1.19,0,0,1-.55,1.13" transform="translate(-108.6 -132.073)" fill="#6baedb"/><path d="M306.58,411.39H280.77V345.5a20,20,0,0,1,2.09-.77,13.35,13.35,0,0,1,3.95-.66,8.672,8.672,0,0,1,2.15.26,6.13,6.13,0,0,1,4.44,3.92,1.93,1.93,0,0,1-.52,2.2h0a45.6,45.6,0,0,1,6,14.27c.45,2,1.2,3.22-.67,4.64A11.751,11.751,0,0,1,295,371v5.91a9.94,9.94,0,0,1,3.8,2,46.746,46.746,0,0,1,5.3-1.71c4.39-1.22,8.79-2.41,13.19-3.6a7.75,7.75,0,0,0,2.28-1,8.33,8.33,0,0,0,3-4.06c2.76-6.43,6.33-12.45,9.3-18.72a.91.91,0,0,1,0-.49,44.29,44.29,0,0,0,.84-5,2.53,2.53,0,0,1,.78-1.78,2.139,2.139,0,0,1,.32-.2,42.57,42.57,0,0,1,0-4.66h1.06v-5a2.25,2.25,0,0,1,.35-1.37,2.16,2.16,0,0,1,1.86-.79h.22c1,0,2,.05,3,.05,1.54,0,3.07,0,4.57-.06s3.18-.06,4.79-.06h.12l1.62,1.83h0a1.23,1.23,0,0,1-.62.16h-1.26c-1.54,0-3.08,0-4.58.06s-3.06.06-4.61.06c-1,0-2.07,0-3.1-.05h-.36v5.31a6.153,6.153,0,0,1,1,.1v.16q-.09,1.79-.12,3.6h.37a2,2,0,0,1,1.7.72l.06.11a2.38,2.38,0,0,1,.2,1.24c0,1-.07,2-.16,3a3.71,3.71,0,0,1-.28,1.27c-.68,1.43-2.76,1.45-3.64,2.77l-.07.09c-.17,2.67-1.3,5.28-2.1,7.79-1.55,4.89-2.86,9.86-4.25,14.81a12.12,12.12,0,0,1-1.13,3c-2,3.36-7.38,4-10.74,5.28-4.64,1.71-9.34,3.19-14,4.72q.27.82.48,1.65c1.8,7.24,2.28,15.34,2.42,23.14m32.09-83.46a134.9,134.9,0,0,1-13.64-.58,2.18,2.18,0,0,1-1.67-.68,2.08,2.08,0,0,1-.29-1,20.3,20.3,0,0,1,0-4.05c.15-1.61,1.28-1.88,2.62-1.88h14.56l7.14,8h-.1c-2.87.05-5.74.1-8.61.1" transform="translate(-109.716 -131.153)" fill="#dfdfeb"/><path d="M297,519h-4.1l1.82-7a8.92,8.92,0,0,1,3.34.63,3.547,3.547,0,0,1,.55.28L297,519" transform="translate(-106.987 -187.584)" fill="#007e6f"/><path d="M286.36,519.08c-3.21,0-5.68,0-5.9-.08h20c-3,0-9.36.08-14.13.08" transform="translate(-103.939 -188.504)" fill="#009893"/><path d="M225.12,480.16c1.51-.47,9.31-2.73,9.45-2.34l-2.07-6a20.55,20.55,0,0,0-4.89,1.38c-1.56.61-3,1.34-4.63,1.89a49.686,49.686,0,0,1,2,5.13l.18-.06Z" transform="translate(-81.95 -173.179)" fill="#f3aaa1"/><path d="M267,473.2c3.59-.94,7.06-2.58,9.08-5.89,2.56-4.18,4.16-9,6.38-13.39,2.53-5,5.23-9.88,7.34-15.06a85.488,85.488,0,0,0,3.44-10.12c.83-3.14.29-4.76-2-7.16A18,18,0,0,0,279.3,416c-6.49-.3-7.9,5.59-10.21,10.26a43.26,43.26,0,0,0-3.92,16c-.43,5.7-1.5,11.38-2.32,17-.25,1.75-1.5,2-3,2.16-2.22.2-30.57,7.61-30.57,7.61l2.38,10.4s15.91-2.35,17.58-2.67q8-1.52,15.89-3.16c.61-.13,1.21-.27,1.82-.43Z" transform="translate(-89.006 -164.1)" fill="#ce7b13"/><path d="M268.32,402.45a56.92,56.92,0,0,1,4-6.32,16,16,0,0,0,2.9-8.72,6.52,6.52,0,0,0-1.07-4.24c-2.81-3.61-6.27,1.37-7.71,3.7-1.88,3-3.65,6.16-5.25,9.36s-2.75,6.55-4.17,9.82c-1.49,3.45-3.72,6-5.88,8.94A67.168,67.168,0,0,0,245,425.7c-1.35,2.84-2.64,5.83-4.13,8.58a9.681,9.681,0,0,0,2,1.3,12.631,12.631,0,0,0,2.94.79c-.09-2.06,2.18-4.22,2.26-4.32,4-4.89,7.06-8,10.54-13.26,2.53-3.8,4.84-7.73,7.13-11.67.9-1.54,1.76-3.11,2.65-4.67Z" transform="translate(-90.605 -148.851)" fill="#f3aaa1"/><path d="M286.88,364.72c.45,2,1.2,3.22-.67,4.64a12.78,12.78,0,0,1-5.81,2.32c-4.12.63-9-.07-12.38-2.64-5-3.78-4.77-11.15-1.34-15.89a13.383,13.383,0,0,1,1.34-1.57c3.46-3.47,9.51-6.38,12.84-1.13a45.84,45.84,0,0,1,6,14.27Z" transform="translate(-98.232 -130.226)" fill="#f3aaa1"/><path d="M221.24,492.72c0,.29,2.51-.21,2.71-.25a5,5,0,0,0,3.69-2.81,10.559,10.559,0,0,0,.69-4.24A75.628,75.628,0,0,0,227,473.61a1.41,1.41,0,0,0-1-1.29,13.571,13.571,0,0,0-4.47-.34c-.17,0-.24,16.6-.23,20.74Z" transform="translate(-80.944 -175.991)" fill="#31316b"/><path d="M275.23,515.33c0-1.58.44-9.7.85-9.7h-6.34a21.1,21.1,0,0,0-.29,5.08c.08,1.66.28,3.3.28,5a52.9,52.9,0,0,1,5.49-.17v-.19Z" transform="translate(-98.507 -185.974)" fill="#f3aaa1"/><path d="M280.84,483.4c.56-4.22,1.15-8.44,2-12.61A77.45,77.45,0,0,1,286.27,458a165.793,165.793,0,0,0,6.63-20.75,83.422,83.422,0,0,0,1.84-10.53c.34-3.22-.44-4.74-3.08-6.76A17.93,17.93,0,0,0,279,416.31c-7.95.87-7.92,9.91-8.62,15.88a187.39,187.39,0,0,0-1.21,20.65c0,3.45.05,6.9.19,10.34.17,4.21-.76,7.95-1.35,12.1a64.832,64.832,0,0,0-.4,9.55c.08,8.57.25,25.7.25,25.7l9.63.18c.51-6.78,1.44-13.51,2.39-20.24.33-2.36.63-4.71.94-7.07Z" transform="translate(-99.905 -171.412)" fill="#fcc049"/><path d="M289.16,519c.3,0-.23-2.5-.27-2.7a5,5,0,0,0-2.85-3.66,10.6,10.6,0,0,0-4.25-.64A74.249,74.249,0,0,0,270,513.48a1.41,1.41,0,0,0-1.29,1,13.79,13.79,0,0,0-.29,4.47c0,.16,16.6,0,20.74,0Z" transform="translate(-99.546 -187.587)" fill="#31316b"/><path d="M283.07,378a.64.64,0,0,1-.06.31.58.58,0,0,1-.32.23,22.7,22.7,0,0,1-8.33,1.26c0-3.31.1-6.63.29-9.94a.43.43,0,0,1,.08-.29.48.48,0,0,1,.34-.11c1.44-.07,2.89-.12,4.33-.16,1.22,0,2.43-.16,3.65-.16a38.2,38.2,0,0,0,0,4.54c.06,1.54.05,2.88.05,4.32Z" transform="translate(-100.526 -135.908)" fill="#f3aaa1"/><path d="M324.09,324.61l7.42-.06c1.08,0,2.13-.05,3.16-.05h.58a17.372,17.372,0,0,1,3.23.27l.22-1-1,.11c.27,2.41.15,4.86.26,7.44l1-.05L338,331l-.08.24,1,.31-.17-1h-.13l.16,1v-1H337.5c-3.08,0-6.13.12-9.16.12-1,0-2,0-3.05-.05h-.22a3.263,3.263,0,0,0-.87.1,1.86,1.86,0,0,0-1,.69,1.76,1.76,0,0,0-.31.8,3.2,3.2,0,0,0,0,.57v14.46h2V332.51h-.02l-.24-.11.21.16v-.05l-.24-.11.21.16-.22-.16.15.23.08-.07-.23-.16.15.23-.08-.12.06.13h0l-.08-.12.06.13h0a.9.9,0,0,1,.32,0h.15c1,0,2.08.05,3.12.05,3.08,0,6.13-.12,9.16-.12h1.56l.6-.1.27-.82v-.35c-.1-2.46,0-4.95-.26-7.57l-.08-.72-.7-.15a19,19,0,0,0-3.62-.31h-.62c-1.09,0-2.14.05-3.18.05l-7.41.06v2Z" transform="translate(-119.283 -120.917)" fill="#31316b"/><path d="M294.65,428.78q-7,.53-14,.66c-1,0-13.07,0-13.07-.12,0-3.59.2-7.16.2-10.78,0-6.15-.35-12.29-.51-18.43-.14-5.55-.77-11.8,1.78-16.89a12.729,12.729,0,0,1,14-6.29c5,1.33,7.89,6.39,9.11,11.32,2.46,9.88,2.45,21.35,2.48,31.5v9Z" transform="translate(-99.758 -146.464)" fill="#ec6335"/><path d="M307.63,372.66a8.33,8.33,0,0,0,3-4.06c2.93-6.84,6.8-13.22,9.87-19.93.94-2.06,3.15-1.79,3.43.46.42,3.32-1.09,6.56-2.07,9.65-1.55,4.89-2.87,9.86-4.25,14.81a12.532,12.532,0,0,1-1.13,3c-2,3.36-7.38,4-10.74,5.28-5,1.84-10.08,3.42-15.14,5.07-2,.66-4.27,1.64-6.39,1.09-2.52-.66-4.05-3.77-2.22-5.92,2.29-2.69,6.92-4,10.21-4.88,4.39-1.22,8.79-2.41,13.19-3.6a7.75,7.75,0,0,0,2.28-1Z" transform="translate(-106.689 -132.953)" fill="#f3aaa1"/><path d="M335.6,319.87a2.411,2.411,0,0,1,.58.17c1,.44.79,1.23.74,2.11-.06,1.31,0,2.65,0,4a1.39,1.39,0,0,1-1.69,1.72,189.828,189.828,0,0,1-22.25-.48,2.22,2.22,0,0,1-1.68-.68,2.07,2.07,0,0,1-.28-1,21.072,21.072,0,0,1,0-4.05c.16-1.71,1.43-1.91,2.86-1.88h6.91l13.81.06a6.5,6.5,0,0,1,1,.05Z" transform="translate(-115.935 -117.387)" fill="#fcc049"/><path d="M325.86,338.2c-.19,3.31-.16,6.71-.16,10a.87.87,0,0,1-.13.55.77.77,0,0,1-.45.24,6.089,6.089,0,0,1-2.33.12.89.89,0,0,1-.57-.23,1,1,0,0,1-.19-.7c-.06-3.47-.41-7-.16-10.42a26.69,26.69,0,0,1,4,.25v.16Z" transform="translate(-117.338 -124.481)" fill="#fcc049"/><path d="M261.58,351.33a16.88,16.88,0,0,1,9.26-6.6,11.34,11.34,0,0,1,6.1-.4,6.13,6.13,0,0,1,4.44,3.92c.24.81.16,1.87-.6,2.24a4.892,4.892,0,0,1-1.22.24,2.52,2.52,0,0,0-1.71,2c-.27,1.39.47,2.64.13,4a6.59,6.59,0,0,1-1,2.29c-.5.66-1.12.8-1.71,1.3a1.61,1.61,0,0,0-2-.71,2.43,2.43,0,0,0-1.37,1.85c-.58,3.17,2.71,3.55,4.44,5.34a4.75,4.75,0,0,1,.76,5.53,7.07,7.07,0,0,1-2,11.12,6.22,6.22,0,0,1,.68,6.84,9.6,9.6,0,0,1-5.53,4.49,15.3,15.3,0,0,1-10.64-.45,10,10,0,0,1-4.43-3.2,7.9,7.9,0,0,1,.24-9,1.24,1.24,0,0,0,.31-.64,1.2,1.2,0,0,0-.12-.52,12.47,12.47,0,0,1,3.83-13.85c-1.41-5.28-.86-11.25,2.23-15.82Z" transform="translate(-94.834 -133.583)" fill="#31316b"/><path d="M327.8,342.49l.07.11a2.38,2.38,0,0,1,.2,1.24c0,1-.07,2-.16,3a3.71,3.71,0,0,1-.28,1.27c-.68,1.43-2.76,1.45-3.64,2.77a.52.52,0,0,1-.22.22h-.26c-1-.26-2.05-.53-3.08-.82a.62.62,0,0,1-.54-.89,44.487,44.487,0,0,0,.84-4.95,2.49,2.49,0,0,1,.78-1.79c.63-.51,1.43-.37,2.17-.51a15.534,15.534,0,0,1,2.35-.37,2.07,2.07,0,0,1,1.77.72Z" transform="translate(-117.116 -125.625)" fill="#f3aaa1"/><path d="M241,443.29l-.52.57c-.9.93-2,2.05-3.41,2.12a1.72,1.72,0,0,1-1.65-.79,1.78,1.78,0,0,1-.15-.76,6.39,6.39,0,0,1,.77-2.84,27.639,27.639,0,0,1,2.74-4.63c.77-1,1.7-2.74,2.92-3.3a3.79,3.79,0,0,1,1.74-.21,6.642,6.642,0,0,1,1.48.15,1.051,1.051,0,0,1,.39.17.92.92,0,0,1,.31.54,17.28,17.28,0,0,1,.1,5.42,7.9,7.9,0,0,1-1.08,3.94.8.8,0,0,1-.4.33c-.38.07-.6-.41-.67-.79a31.422,31.422,0,0,1,0-4.23,6.159,6.159,0,0,0-.64,1.31,11.59,11.59,0,0,1-1.89,3Z" transform="translate(-86.377 -159.937)" fill="#f3aaa1"/><path d="M819.13,550.99H941.59V521.92H819.13v29.07Z" transform="translate(-363 -196.686)" fill="#ec6335"/><path d="M821.13,549H939.59V523.92H821.13Zm122.46,4H817.13V519.92H943.59Z" transform="translate(-363 -196.957)" fill="#ec6335"/><path d="M912.64,672.34l-66.62-40.07,2.07-3.43,66.61,40.07-2.06,3.43Z" transform="translate(-363 -241.471)" fill="#ec6335"/><path d="M848.09,672.34l-2.07-3.43,66.62-40.07,2.06,3.43-66.61,40.07Z" transform="translate(-363 -241.471)" fill="#ec6335"/><path d="M912.64,632.56l-66.62-40.07,2.07-3.43,66.61,40.07-2.06,3.43Z" transform="translate(-363 -226.203)" fill="#ec6335"/><path d="M848.09,632.56l-2.07-3.43,66.62-40.07,2.06,3.43-66.61,40.07Z" transform="translate(-363 -226.203)" fill="#ec6335"/><path d="M912.64,592.64l-66.62-40.06,2.07-3.43,66.61,40.07-2.06,3.42Z" transform="translate(-363 -210.883)" fill="#ec6335"/><path d="M848.09,592.64l-2.07-3.42,66.62-40.07,2.06,3.43-66.61,40.06Z" transform="translate(-363 -210.883)" fill="#ec6335"/><path d="M821.13,519.92H939.59V494.65H821.13Zm122.46,4H817.13V490.65H943.59Z" transform="translate(-363 -185.921)" fill="#ec6335"/><path d="M819.13,684.14H941.59V670.63H819.13v13.51Z" transform="translate(-363 -290.466)" fill="#ec6335"/><path d="M821.13,682.14H939.59v-9.52H821.13Zm122.46,4H817.13V668.62H943.59Z" transform="translate(-363 -290.466)" fill="#ec6335"/><path d="M844.1,521.92h-4V492.65h4v29.27Z" transform="translate(-363 -185.711)" fill="#ec6335"/><path d="M920.62,521.92h-4V492.65h4v29.27Z" transform="translate(-363 -185.711)" fill="#ec6335"/><path d="M614.21,282c-2.72-2.32-3.87-5.88-.57-8.93,2.36-2.18,5.9,1.35,3.53,3.54-.82.76.92,2.42,2.82,2.75" transform="translate(-223.922 -100.184)" fill="#008f6c"/><path d="M620.15,279.3l102.67,37.22,1.09-4.65L619.98,274.98,511.11,324.37l.98,4.28,102.12-46.64" transform="translate(-235.71 -107.097)" fill="#05ae99"/><g clip-path="url(#a)"><line y1="1.726" x2="3.784" transform="translate(391.222 177.808)" fill="#05ae99"/><path d="M0,684.63H637.076v73.5H0v-73.5" transform="translate(-0.076 -248.596)" fill="#fff"/></g><path d="M643.7,745.15c-.05-1.58-.45-9.7-.86-9.7h6.34a20.161,20.161,0,0,1,.29,5.08c-.07,1.67-.27,3.3-.28,5a50.279,50.279,0,0,0-5.49-.18v-.19" transform="translate(-234.947 -290.466)" fill="#f3aaa1"/><path d="M628.39,713.06c-1.58-3.26-3.11-6.56-4.43-9.94l-.06-.17c-4.68-12.06-7.6-24.71-10.26-37.34-.76-3.61-1.47-6.4-.29-10a12.11,12.11,0,0,1,4.91-6.64,17.91,17.91,0,0,1,12.91-2.56C639,648,638.2,657,638.38,663a187.55,187.55,0,0,1-.6,20.67c-.28,3.44-.65,6.87-1.09,10.3a9.64,9.64,0,0,0,0,4.21,15.58,15.58,0,0,0,1.83,3.87,94,94,0,0,1,8,17.19c2.07,5.79,4.18,12,5,18.09,0,.25.28,3,.23,3l-10-.11a.8.8,0,0,1-.46-.1.75.75,0,0,1-.28-.39c-2.8-6.27-5.78-12.44-8.79-18.61-1.3-2.68-2.64-5.35-3.94-8Z" transform="translate(-231.48 -290.466)" fill="#ec6335"/><path d="M629.76,748.81c-.29,0,.23-2.5.28-2.7a5,5,0,0,1,2.85-3.66,10.547,10.547,0,0,1,4.25-.64,74.425,74.425,0,0,1,11.79,1.5,1.41,1.41,0,0,1,1.28,1,13.529,13.529,0,0,1,.29,4.47c0,.17-16.6.06-20.74,0" transform="translate(-233.477 -290.466)" fill="#31316b"/><path d="M595.34,744.14c.28-1.56,1.5-9.6,1.1-9.68l6.22,1.27a20.789,20.789,0,0,1-.73,5c-.41,1.62-.94,3.18-1.28,4.83a51.178,51.178,0,0,0-5.34-1.27v-.18" transform="translate(-217.728 -290.466)" fill="#f3aaa1"/><path d="M597,711.34a233.56,233.56,0,0,1,3.46-23.86,80.691,80.691,0,0,1,3.71-11.83c1.82-5.08,3.68-10.17,5.73-15.19,2.28-5.59,4.51-12,11-13.73a18,18,0,0,1,13.1,1.42c5.61,3.07,4.81,10,2.76,15.09a52.709,52.709,0,0,1-11.61,16.85c-2.94,3-6.42,5.64-9.57,8.4-2.86,2.51-2.26,5.72-2.31,9.08-.1,6.49-1.86,12.89-3.36,19.17q-1.41,5.91-2.83,11.81l-1.41,5.91c-.37,1.54-1.27,5.14-1.27,5.14l-10.85-1.66s1-5,1-5.36q.51-3.52,1-7.07c.6-4.62,1.12-9.35,1.51-13.92v-.25Z" transform="translate(-225.581 -290.466)" fill="#db453d"/><path d="M572.72,602.79h44.91v36.08H572.72V602.79Z" transform="translate(-217.703 -229.226)" fill="#ce7b13"/><path d="M580.59,602.79h37.04v36.08H580.59V602.79Z" transform="translate(-218.89 -229.226)" fill="#fcc049"/><path d="M582.42,748.64c-.3,0,.19-2.51.23-2.71a5,5,0,0,1,2.8-3.7,10.35,10.35,0,0,1,4.24-.71,74.526,74.526,0,0,1,11.81,1.32,1.41,1.41,0,0,1,1.3,1,13.841,13.841,0,0,1,.36,4.47c0,.16-16.6.31-20.74.32" transform="translate(-215.923 -290.466)" fill="#31316b"/><path d="M627.55,600c.06,2-.35,3.41,1.82,4.32a12.719,12.719,0,0,0,6.2.79c4.14-.42,8.69-2.31,11.32-5.65,3.88-4.9,1.83-12-2.68-15.72a12.1,12.1,0,0,0-1.68-1.18c-4.22-2.5-10.8-3.8-12.72,2.12A45.766,45.766,0,0,0,627.55,600Z" transform="translate(-232.805 -217.513)" fill="#f3aaa1"/><path d="M632.24,609.16a.7.7,0,0,0,.06.32.619.619,0,0,0,.32.22A22.712,22.712,0,0,0,641,611q0-5-.29-10a.39.39,0,0,0-.08-.28.4.4,0,0,0-.33-.11c-1.45-.07-2.9-.13-4.34-.16-1.22,0-2.43-.17-3.65-.17a38.2,38.2,0,0,1,0,4.54c-.06,1.54,0,2.88,0,4.32Z" transform="translate(-231.559 -220.946)" fill="#f3aaa1"/><path d="M610.87,656.64c4.77,1.37,27.74,2.08,27.77,1.94.75-3.52.54-3.54,1.29-7.08,1.28-6,2.91-11.94,4.36-17.92,1.3-5.39,3.25-11.37,1.67-16.91a10.68,10.68,0,0,0-6.61-7.44,13.16,13.16,0,0,0-10.86,1,25.577,25.577,0,0,0-5.14,4.45c-4.09,4.23-5.76,9.34-7.39,14.91s-2.88,11.4-4.12,17.16a47.671,47.671,0,0,0-1,9.87Z" transform="translate(-229.974 -235.718)" fill="#81ccf1"/><path d="M595.27,642.77l4.6.42a62.5,62.5,0,0,0,10.14.37c2.2-.16,3.72,0,5.65-1.29s3.44-2.82,5.19-4.19a92.492,92.492,0,0,0,15.49-14.69,5.929,5.929,0,0,0,1.5-2.64,5.22,5.22,0,0,0-1.11-3.76,3.12,3.12,0,0,0-1.3-1.06,2.77,2.77,0,0,0-2.5.65,73.391,73.391,0,0,0-11.14,9.69c-1.48,1.51-2.9,3-4.31,4.54l-2.13,2.33a11.44,11.44,0,0,1-3.72,2.34,4.731,4.731,0,0,1-1.59.25l-23.22.91c-.48,0,.81,3.3,1,3.55a3.88,3.88,0,0,0,2.48,2c1.66.23,3.33.41,5,.58Z" transform="translate(-224.487 -231.672)" fill="#f3aaa1"/><path d="M648.3,577.25a12.015,12.015,0,0,0-1.47.35,2.558,2.558,0,0,0-5-1.08,2.83,2.83,0,0,0-2.81-1.79,2.35,2.35,0,0,0-2,2.5c0-.35-1.16-.74-1.44-.83a4,4,0,0,0-1.83-.12,2,2,0,0,0-1.72,2.41,3.58,3.58,0,0,0-3,1.44,2.88,2.88,0,0,0,.36,3.11,6.58,6.58,0,0,0,5,2.21,2.81,2.81,0,0,1,1.32.25,1.78,1.78,0,0,1,.76,1.58,6.159,6.159,0,0,1-.42,1.78,20,20,0,0,0-1,6,2.241,2.241,0,0,0,.18,1.06.8.8,0,0,0,.9.43,3.87,3.87,0,0,1,4-3.37c2.83.21,2,3.4.55,4.81a4.369,4.369,0,0,0-1.61,2.58,5.785,5.785,0,0,1,.06.91c-.05.25-.23.27-.42.5a2.47,2.47,0,0,0-.48,1.41,1.23,1.23,0,0,0,.43,1.07,1.42,1.42,0,0,0,.89.17,3.74,3.74,0,0,0,1.47-.32,1.83,1.83,0,0,0,1-1.09,2.49,2.49,0,0,0,4.33-1,2.91,2.91,0,0,0,2.38.94,2.48,2.48,0,0,0,2-1.49,4.511,4.511,0,0,0,.08-2.31,2.9,2.9,0,0,0,3.36-3.66,5.16,5.16,0,0,0-.92-1.67,4.429,4.429,0,0,0,1.64-.78,4.49,4.49,0,0,0,1.59-1.68,2.94,2.94,0,0,0,0-2.29,3.529,3.529,0,0,0-1.56-1.7,1.83,1.83,0,0,0,1.19-1,3,3,0,0,0,.18-1.2,5.167,5.167,0,0,0-.15-1.41,3,3,0,0,0-2.81-2.11c.38-1.5-.69-3.14-1.9-4a4.05,4.05,0,0,0-3.08-.55Z" transform="translate(-234.826 -216.79)" fill="#12100b"/><path d="M622.72,623.65l7.59,8.35a92.05,92.05,0,0,0,7.38-6.52,16,16,0,0,0,3.89-6A5.62,5.62,0,0,0,640.2,614a6.34,6.34,0,0,0-5.76-1.93c-3.34.66-5.36,4.09-7.35,6.53-.31.38-4.43,4.93-4.37,5Z" transform="translate(-230.472 -227.929)" fill="#54b4db"/><path d="M578.8,638.33c-1,.21-1.89.43-2.85.63,0,0,1,1.6,1.13,1.75a11.876,11.876,0,0,0,1.48,1.61,7.82,7.82,0,0,0,3.63,2.17,9.09,9.09,0,0,0,4.75-.8c1.5-.62,2.91-1.44,4.42-2.06-.52-1.54-1.6-2.62-2.32-4a10.278,10.278,0,0,0-2.52-2.82c-1-.92-1.88-2-2.95-2.91a2.38,2.38,0,0,0-1.79-.69.68.68,0,0,0-.5.29.769.769,0,0,0-.08.34,5.211,5.211,0,0,0,1,2.53,14.514,14.514,0,0,0,1.94,2.35s-2.3,1-2.54,1l-2.78.62Z" transform="translate(-212.373 -233.089)" fill="#f3aaa1"/><path d="M584.61,595.97h37.04l-4.02,6.82H580.59l4.02-6.82Z" transform="translate(-219.808 -218.279)" fill="#ce7b13"/><path d="M576.57,595.97h-7.88l4.03,6.82h7.87l-4.02-6.82Z" transform="translate(-208.953 -218.279)" fill="#ce7b13"/><path d="M401.47,629.66c-2.07,3.22-5.15,7.52-3.53,11.22,1.08,2.46,3.08,4.43,4.86,6.4a42,42,0,0,0,8.52,7.2c1.22.78,7.53,4.29,7.33.4a2.9,2.9,0,0,0-.7-1.48q-5.67-7.62-12-14.73c1.16-2.08,2.75-3.62,4.1-5.5a60.13,60.13,0,0,1,4.66-5.88,16,16,0,0,0,3.82-8.35,6.51,6.51,0,0,0-.62-4.34c-2.41-3.89-6.37.69-8.06,2.86A120.988,120.988,0,0,0,402,628.79l-.54.87Z" transform="translate(-147.454 -235.453)" fill="#f3aaa1"/><path d="M406.16,745.61c0-1.58.45-9.7.86-9.7h-6.34a21,21,0,0,0-.29,5.07c.08,1.67.28,3.3.28,5,1.82-.15,3.66-.21,5.49-.18v-.18" transform="translate(-146.348 -290.466)" fill="#f3aaa1"/><path d="M421.48,713.52c1.58-3.27,3.1-6.56,4.42-9.94l.07-.18c4.67-12.06,7.59-24.7,10.25-37.33.77-3.62,1.47-6.41.3-10a12.12,12.12,0,0,0-4.92-6.64,17.9,17.9,0,0,0-12.91-2.55c-7.84,1.55-7,10.55-7.2,16.57a187.623,187.623,0,0,0,.59,20.67q.44,5.16,1.09,10.29a9.84,9.84,0,0,1,0,4.22,16,16,0,0,1-1.84,3.87,94.7,94.7,0,0,0-8,17.19c-2.07,5.78-4.18,12-5,18.09,0,.24-.28,3-.23,3l10-.11a.85.85,0,0,0,.47-.09.88.88,0,0,0,.28-.4c2.8-6.26,5.78-12.44,8.78-18.61,1.3-2.68,2.65-5.34,4-8Z" transform="translate(-150.424 -290.466)" fill="#54b4db"/><path d="M420.1,749.27c.3,0-.23-2.5-.27-2.7a5,5,0,0,0-2.85-3.66,10.26,10.26,0,0,0-4.25-.64,73.107,73.107,0,0,0-11.79,1.49,1.41,1.41,0,0,0-1.29,1,13.87,13.87,0,0,0-.29,4.48c0,.16,16.6.05,20.74,0" transform="translate(-148.082 -290.466)" fill="#31316b"/><path d="M438.05,745.61c.05-1.58.45-9.7.86-9.7h-6.34a20.552,20.552,0,0,0-.29,5.07c.07,1.67.28,3.3.28,5,1.82-.15,3.66-.21,5.49-.18v-.18" transform="translate(-157.999 -290.466)" fill="#f3aaa1"/><path d="M445.94,712c1.6-6.49,4.25-13.22,4-19.95-.24-5.66-2.33-10.73-4.21-16S442,665.94,440,660.91c-2.28-5.59-4.51-12-11-13.73a17.9,17.9,0,0,0-13.08,1.43c-5.61,3.06-4.81,10-2.77,15.08a52.6,52.6,0,0,0,11.61,16.85c3.69,3.75,10.28,7.19,11.15,12.84.51,3.26-1,7.24-1.61,10.45-1.33,6.86-2.74,13.82-2.92,20.82,0,1.36-1.1,15.13-.33,15.15l8.53.23c1.41,0,5.55-24.62,6.19-27.32.05-.23.11-.45.17-.68Z" transform="translate(-155.417 -290.466)" fill="#81ccf1"/><path d="M411.67,632.31c.07.06,4.39-5.63,4.77-6.15a14.87,14.87,0,0,0,3-6.28,11.311,11.311,0,0,0,0-4.06,4.93,4.93,0,0,0-8.15-3.18,13.749,13.749,0,0,0-3.31,3.8c-1.08,1.64-2.09,3.34-3,5.07a37.736,37.736,0,0,0-2.42,5c3.46,1.17,6.35,3.53,9.17,5.85Z" transform="translate(-148.711 -227.99)" fill="#008f6c"/><path d="M452,749.27c.3,0-.23-2.5-.28-2.7a5,5,0,0,0-2.84-3.66,10.26,10.26,0,0,0-4.25-.64,73.107,73.107,0,0,0-11.79,1.49,1.41,1.41,0,0,0-1.29,1,13.87,13.87,0,0,0-.29,4.48c0,.16,16.6.05,20.74,0" transform="translate(-159.906 -290.466)" fill="#31316b"/><path d="M429.89,598.11c.12,2,.64,3.38-1.44,4.46a12.69,12.69,0,0,1-6.12,1.32c-4.16-.08-8.84-1.58-11.75-4.68-4.28-4.57-2.83-11.8,1.35-15.9a13.314,13.314,0,0,1,1.58-1.32c4-2.84,10.44-4.69,12.85,1a45.55,45.55,0,0,1,3.53,15.07Z" transform="translate(-151.484 -217.037)" fill="#f3aaa1"/><path d="M426.33,608.28a.63.63,0,0,1-.05.31.55.55,0,0,1-.32.22,22.531,22.531,0,0,1-8.33,1.27q0-4.98.29-9.94a.43.43,0,0,1,.08-.29.47.47,0,0,1,.33-.11c1.45-.07,2.89-.12,4.34-.16,1.22,0,2.42-.16,3.65-.17a38.373,38.373,0,0,0,0,4.55c.06,1.55,0,2.88,0,4.32Z" transform="translate(-152.977 -220.612)" fill="#f3aaa1"/><path d="M439.53,659.06q-7.42.53-14.87.66c-1.07,0-13.83,0-13.83-.12,0-3.6.2-7.16.2-10.78,0-6.15-.36-12.29-.53-18.44-.15-5.54-.82-11.8,1.88-16.88s9.49-7.63,14.85-6.29,8.35,6.39,9.64,11.32c2.61,9.88,2.6,21.35,2.63,31.49v9Z" transform="translate(-153.471 -235.952)" fill="#05ae99"/><path d="M447.11,596.67q1.89,2.57,3.75,5.14a2.82,2.82,0,0,0,.95,1c.83.44,2.58-.86,3.37-1.22a.88.88,0,0,0,.36-.24c.31-.43-.64-2-.83-2.43-.42-.92-.87-1.83-1.31-2.74a36.7,36.7,0,0,1-2.26-5.46c-.26-.88-.5-1.76-1.54-1.83a6.55,6.55,0,0,0-4.91,2.25c-1.13,1.55.68,3.22,1.55,4.39l.87,1.18Z" transform="translate(-163.172 -217.659)" fill="#ce7b13"/><path d="M452.9,617.34a48.383,48.383,0,0,0-.58-4.88c-.41-2.21-.89-4.41-1.13-6.65a3.68,3.68,0,0,1,.13-1.84,1.9,1.9,0,0,1,1.85-1.1,2.51,2.51,0,0,1,1.81,1.21,7.32,7.32,0,0,1,.81,2.08l3.27,11.72a25.841,25.841,0,0,1,1.22,6.55c0,3.68-5.43,2.44-7.64,2A92.772,92.772,0,0,1,432.29,620a5.89,5.89,0,0,1-2.52-1.72,5.27,5.27,0,0,1-.64-3.86,3,3,0,0,1,.7-1.52,2.75,2.75,0,0,1,2.53-.52,73.419,73.419,0,0,1,14.26,3.82c2.09.75,4.22,1.72,6.36,2.27,0-.37-.05-.75-.08-1.12Z" transform="translate(-160.799 -225.724)" fill="#f3aaa1"/><path d="M407.23,580.69a13.82,13.82,0,0,1,7-3.87c3-.58,5.82.81,8.78.36a3.84,3.84,0,0,0,2.94-2c.13-.27.23-.58.5-.71a.72.72,0,0,1,.41,0c3.14.41,2.84,6,.92,7.49a12.3,12.3,0,0,1-5.89,2.28,2.869,2.869,0,0,0-1.3.36,1.76,1.76,0,0,0-.62,1.64,6.12,6.12,0,0,0,.57,1.74,19.579,19.579,0,0,1,1.54,5.87,2.27,2.27,0,0,1-.09,1.07.82.82,0,0,1-.86.51,3.87,3.87,0,0,0-4.25-3c-2.8.45-1.68,3.55-.15,4.84a11.061,11.061,0,0,1,1.19,1c1.14,1.15,1.17,4.12,1.5,5.65-.08-.33-6.72-1.23-7.47-1.48-5.05-1.7-7.8-6-8.69-11.07-.67-3.81,1.12-7.74,4-10.59Z" transform="translate(-150.299 -216.581)" fill="#ce7b13"/><path d="M451.16,591a16.269,16.269,0,0,1,10.8,0c.88.35,2,.73,2.64,0a2,2,0,0,0,.37-.89,17.41,17.41,0,0,0-6.25-17.22c-1.24-1-3-1.72-4.28-.79a4.12,4.12,0,0,0-1.06,1.44,53.613,53.613,0,0,1-4.26,7.14,27.3,27.3,0,0,1-6.11,6c-1.77,1.28-5.22,2.36-5.71,4.82a3,3,0,0,0,.5,2.06,4,4,0,0,0,1.07,1.25c1.92,1.41,4.28-.52,6.06-1.19,2.11-.79,4.07-1.93,6.23-2.63Z" transform="translate(-163.356 -213.918)" fill="#fcc049"/><path d="M454.79,578.85v.13a28.22,28.22,0,0,0,3.71,7.4c1.28,1.85,3.33,4.86,5.79,5,1.67.11,2.16-1.57,2.22-3a22.21,22.21,0,0,0-5.4-15.41c-1.48-1.64-3.61-2.91-5.83-2.06-2.82,1.08-1.23,5.81-.54,7.89Z" transform="translate(-166.867 -212.739)" fill="#ce7b13"/><path d="M453.3,594.29l.12.05a2.51,2.51,0,0,1,.89.91c.56.83,1.1,1.68,1.6,2.55a3.85,3.85,0,0,1,.51,1.2c.26,1.56-1.85,3.54-1.09,5.76,0,.1-2.55-.21-3.55.15a2.2,2.2,0,0,1-.61.05,1.89,1.89,0,0,1-.35-.47,45.939,45.939,0,0,0-2.17-4.53,2.51,2.51,0,0,1-.4-1.91c.23-.77,1-1.13,1.49-1.66a14.106,14.106,0,0,1,1.71-1.66,2.05,2.05,0,0,1,1.85-.44Z" transform="translate(-164.091 -218.72)" fill="#f3aaa1"/><path d="M444.64,614.25l-3.16,10.83a91.15,91.15,0,0,1-9.49-2.62,16.05,16.05,0,0,1-6.11-3.65,5.61,5.61,0,0,1-1.16-5.53,6.33,6.33,0,0,1,4.33-4.25c3.29-.87,6.61,1.32,9.47,2.64C438.96,611.87,444.66,614.17,444.64,614.25Z" transform="translate(-157.29 -225.667)" fill="#008f6c"/><path d="M702.25,562.26c-5.2,0-12.31,0-14.82-.08-.3,0,.23-2.5.27-2.7a5,5,0,0,1,2.85-3.66,10,10,0,0,1,4-.64h.26a44.7,44.7,0,0,1,6.44.59c0-.61-.07-1.26-.11-1.91h-2c-.31-4.07-.76-8.12-1.29-12.17h11c-.06,6.39-.12,12-.12,12h-1.57v.14c0,1-.13,1.92-.19,2.87a1.34,1.34,0,0,1,.93.94,13.871,13.871,0,0,1,.29,4.48c0,.06-2.56.08-5.92.08m-21.83,0c-5.2,0-12.31,0-14.83-.08-.29,0,.23-2.5.28-2.7a5,5,0,0,1,2.85-3.66,10,10,0,0,1,4-.64H673a44.677,44.677,0,0,1,6.43.59c0-.91-.11-1.91-.18-2.87h-1.22c-.65,0-1.89-5.29-3.09-11.21h11.55c.27,4.51.6,11,.07,11h-1.19v1.15c0,1-.12,1.92-.19,2.87a1.32,1.32,0,0,1,.93.94,13.59,13.59,0,0,1,.29,4.48c0,.06-2.56.08-5.91.08" transform="translate(-252.549 -201.9)" fill="#13498b"/><path d="M708.83,541.73h-11c-.34-2.7-.72-5.39-1.1-8.07-.33-2.36-.63-4.72-.94-7.08-.25-1.86-.5-3.72-.78-5.58h13.86c.17,2.33.15,4.68.13,7,0,3.67-.09,8.91-.13,13.71m-22.37,0H674.91c-1.4-6.89-2.75-14.66-3.1-16.11a2.8,2.8,0,0,0-.16-.68c-.32-1.3-.69-2.62-1.06-3.94H684.1a101.778,101.778,0,0,1,2.1,16.56c0,.43.13,2.09.26,4.17M709.11,434h-29c.09-.43.19-.86.29-1.29-3.21-1.13-7.32-3-7.32-3s.32-.85.77-2.07c-1.94-.65-3.87-1.31-5.8-2-3.35-1.24-8.75-1.91-10.73-5.27a12.369,12.369,0,0,1-1.14-3l-1.42-5.14-148.26,8.7-5.1-86.85,212.8-12.5,3,51.79a2.45,2.45,0,0,1,1.53-.55,2.56,2.56,0,0,1,.39,0,2.43,2.43,0,0,1,1.81,1.59,5.146,5.146,0,0,1,.17,1.3,21,21,0,0,1-.24,5c-.41,1.93-1.89,3.41-2.8,5.1a16.3,16.3,0,0,1,.76,2.84q1.86,9.1,3,18.34c.32,2.58.58,5.08-.39,7.56a27.4,27.4,0,0,1-4.17,6.38c-.22.28-.43.55-.62.82-.6.81-1.22,1.62-1.84,2.42l.54.41s-3.77,6.06-4.13,6.6a22.9,22.9,0,0,1-2.16,2.77m4.13-25.22h-.39a12.22,12.22,0,0,1-7.21,6.46c-.52.17-3.8.64-5.84,1,.07,1.72.11,3.42.13,5.14a13.5,13.5,0,0,1,2.27,1.46l.74-.88c1.21-1.34,3.81-4,3.81-4l.69.53c.54-.6,1.07-1.22,1.6-1.83,1.8-2.09,4.31-3.38,4.24-6.45v-1.51M677,419.17c.32,0,6,1.49,6.44,1.59,1.18.25,2.48.43,3.76.72a10.27,10.27,0,0,1,3.12-1.36c.3-.08.61-.13.91-.18v-3.31a7.261,7.261,0,0,1-1.65.23h0q-.87,0-1.74-.06a1.47,1.47,0,0,1-1.56-1.88,43.357,43.357,0,0,1,0-4.56l-23.51,1.38.28.63a8.34,8.34,0,0,0,3,4.07,8.09,8.09,0,0,0,2.29,1l8.41,2.3c.12-.34.2-.54.2-.54h0" transform="translate(-233.579 -161.135)" fill="#dfdfeb"/><path d="M708.83,521H695c-.34-2.35-.72-4.69-1.17-7a77.185,77.185,0,0,0-3.48-12.76c-.54-1.41-1.06-2.82-1.57-4.24-3.2,2.61-6.48,5.44-7.08,9.31-.5,3.26,1,7.24,1.61,10.45.27,1.42.55,2.83.82,4.26H670.59c-1.49-5.26-3.14-10.64-2.91-16,.23-5.66,2.33-10.72,4.2-16,.85-2.38,1.71-4.76,2.6-7.13h15.07a1,1,0,0,0,1-1.05v-5.41a1,1,0,0,0-1-1H677.38l.23-.57c.25-.6.49-1.21.75-1.83h-.3v-9c0-9.28,0-19.66,2-28.93h29a13.087,13.087,0,0,1-1.86,1.63c.07,2.58-.1,5.2-.17,7.66-.17,6.15-.53,12.29-.53,18.44,0,3.62.21,7.19.2,10.78a3.932,3.932,0,0,1-.85.06c.09,1,.18,1.93.29,2.81A187.407,187.407,0,0,1,707.4,496c0,3.45,0,6.9-.19,10.34-.17,4.21.76,8,1.35,12.1.12.84.21,1.68.27,2.53" transform="translate(-252.85 -176.873)" fill="#a9c8e4"/><path d="M689.55,481.89H674.48c.93-2.51,1.89-5,2.9-7.5h12.17a1,1,0,0,1,1,1v5.41a1,1,0,0,1-1,1.05" transform="translate(-248.859 -173.924)" fill="#dfdfeb"/><path d="M516.21,411.22l212.8-12.51-5.1-86.84-212.8,12.5,5.1,86.85Z" transform="translate(-237.246 -129.356)" fill="#fcc049"/><path d="M678.17,378.56l-137,8.06a1,1,0,0,0-1,1.1l.32,5.41a1,1,0,0,0,1.1,1l137.05-8.05a1,1,0,0,0,1-1.1l-.31-5.41a1.06,1.06,0,0,0-1.11-1Z" transform="translate(-227.888 -140.243)" fill="#fff"/><path d="M675.4,331.41l-137,8a1.05,1.05,0,0,0-1,1.1l.32,5.41a1,1,0,0,0,1.1,1l137.05-8.05a1,1,0,0,0,1-1.1l-.31-5.41a1.06,1.06,0,0,0-1.11-1Z" transform="translate(-226.72 -122.771)" fill="#fff"/><path d="M708.19,353.24l-168.45,9.9a1,1,0,0,0-1,1.1l.31,5.41a1.05,1.05,0,0,0,1.1,1l168.45-9.9a1,1,0,0,0,1-1.1l-.32-5.41a1,1,0,0,0-1.1-1Z" transform="translate(-235.886 -131.177)" fill="#fff"/><path d="M713.6,558.52c-.05-1.58-.45-9.7-.86-9.7h6.35a20.55,20.55,0,0,1,.28,5.07c-.07,1.67-.27,3.3-.28,5a53.76,53.76,0,0,0-5.49-.18v-.18Z" transform="translate(-260.486 -201.846)" fill="#f3aaa1"/><path d="M708,526.58c-.56-4.21-1.14-8.43-2-12.6a77.18,77.18,0,0,0-3.48-12.76,167.467,167.467,0,0,1-6.63-20.75,85.263,85.263,0,0,1-1.84-10.53c-.34-3.23.44-4.74,3.08-6.76a17.93,17.93,0,0,1,12.64-3.68c8,.87,7.92,9.91,8.62,15.88A184.989,184.989,0,0,1,719.63,496q0,5.18-.19,10.34c-.17,4.21.76,8,1.36,12.1a63.432,63.432,0,0,1,.39,9.55l-.24,25.7-9.64.18c-.51-6.78-1.43-13.52-2.38-20.24-.33-2.36-.64-4.72-.95-7.08Z" transform="translate(-258.992 -189.179)" fill="#31316b"/><path d="M699.66,562.18c-.29,0,.23-2.5.28-2.7a5,5,0,0,1,2.85-3.66,10.261,10.261,0,0,1,4.25-.64,74.385,74.385,0,0,1,11.79,1.49,1.41,1.41,0,0,1,1.28,1,13.591,13.591,0,0,1,.29,4.48c0,.16-16.6.05-20.74,0Z" transform="translate(-259.386 -203.405)" fill="#12100b"/><path d="M691.77,558.52c0-1.58-.45-9.7-.86-9.7h6.34a21,21,0,0,1,.29,5.07c-.08,1.67-.28,3.3-.28,5-1.82-.15-3.66-.21-5.49-.18v-.18Z" transform="translate(-252.508 -201.846)" fill="#f3aaa1"/><path d="M683.88,524.94c-1.6-6.48-4.25-13.22-4-20,.24-5.66,2.33-10.72,4.21-16,1.82-5.09,3.67-10.17,5.72-15.2,2.29-5.59,4.51-12,11-13.73a17.9,17.9,0,0,1,13.08,1.43c5.61,3.06,4.81,10,2.76,15.08a52.571,52.571,0,0,1-11.6,16.85c-3.69,3.75-10.28,7.19-11.15,12.84-.51,3.26,1,7.24,1.61,10.45,1.33,6.86,2.74,13.82,2.92,20.82,0,1.36,1.1,15.13.33,15.15l-8.53.23c-1.41-.05-5.55-24.62-6.19-27.32-.06-.23-.11-.45-.17-.68Z" transform="translate(-256.648 -188.902)" fill="#31316b"/><path d="M729.55,421a26.783,26.783,0,0,0,4.17-6.38c1-2.48.71-5,.39-7.56q-1.15-9.23-3-18.34a10.559,10.559,0,0,0-1.75-4.62,1.28,1.28,0,0,0-2.21-.31c-1.9,1.94-2,5-2,7.67,0,6.32.23,12.56.37,18.85.07,3.07-2.43,4.36-4.23,6.45a57.807,57.807,0,0,1-5.15,5.46,16,16,0,0,0-4.51,8,6.53,6.53,0,0,0,.24,4.38c2.08,4.08,6.41-.15,8.28-2.17a120.35,120.35,0,0,0,8.79-10.61c.2-.27.4-.54.62-.82Z" transform="translate(-264.337 -149.103)" fill="#f3aaa1"/><path d="M727.64,424.63s-3.78,6.06-4.14,6.6a14.781,14.781,0,0,1-4.88,4.94,11.271,11.271,0,0,1-3.81,1.39A4.92,4.92,0,0,1,709,431a13.942,13.942,0,0,1,2.42-4.42q1.77-2.37,3.73-4.58c1.21-1.34,3.81-4,3.81-4l8.66,6.59Z" transform="translate(-262.242 -155.662)" fill="#008f6c"/><path d="M677.83,562.18c-.3,0,.23-2.5.27-2.7a5,5,0,0,1,2.85-3.66,10.261,10.261,0,0,1,4.25-.64,74.252,74.252,0,0,1,11.8,1.49,1.41,1.41,0,0,1,1.29,1,13.872,13.872,0,0,1,.29,4.48c0,.16-16.6.05-20.74,0Z" transform="translate(-251.296 -203.405)" fill="#12100b"/><path d="M699.92,411c-.11,2.05-.64,3.38,1.45,4.46a12.68,12.68,0,0,0,6.11,1.32c4.17-.07,8.85-1.58,11.76-4.68,4.28-4.57,2.83-11.8-1.35-15.9a13.326,13.326,0,0,0-1.58-1.32c-4-2.84-10.45-4.69-12.85,1.05A45.81,45.81,0,0,0,699.92,411Z" transform="translate(-259.767 -146.975)" fill="#f3aaa1"/><path d="M703.48,421.19a.64.64,0,0,0,.06.31.58.58,0,0,0,.32.23,22.73,22.73,0,0,0,8.33,1.26q0-4.98-.29-9.94a.43.43,0,0,0-.08-.29.47.47,0,0,0-.33-.11c-1.45-.07-2.89-.12-4.34-.16-1.22,0-2.43-.16-3.65-.17a38.373,38.373,0,0,1,0,4.55c-.06,1.55,0,2.88,0,4.32Z" transform="translate(-257.628 -151.793)" fill="#f3aaa1"/><path d="M690.29,472q7.43.52,14.87.66c1.07,0,13.83,0,13.83-.12,0-3.59-.21-7.16-.21-10.78,0-6.15.37-12.29.54-18.44.15-5.54.82-11.8-1.88-16.88s-9.49-7.62-14.85-6.29-8.35,6.39-9.65,11.32c-2.6,9.88-2.59,21.35-2.62,31.49v9Z" transform="translate(-258.137 -163.26)" fill="#05ae99"/><path d="M706.72,395.34c1.22.51,2.85,1.59,3.12,3a4.471,4.471,0,0,1-.51,2.45c-.33.84-.73,1.65-1,2.5a11.726,11.726,0,0,1-.95,2.49,2.3,2.3,0,0,1-.8.84c-.89.51-2.34.27-3.31.13-.3-.05-3.63-.9-3.53-1.12-1.28,2.88-1.22,6.14-1.13,9.28a1.461,1.461,0,0,0,1.53,1.88q.87.06,1.74.06a7.28,7.28,0,0,0,4.85-1.91,6,6,0,0,0,1.2-3.71,11.08,11.08,0,0,1,.69-2.89c.73-1.86,2.17-3.4,4.32-3.06,2.8.45,1.67,3.55.15,4.84a11.058,11.058,0,0,0-1.19,1c-1.14,1.15-1.17,4.12-1.5,5.65.08-.33,6.72-1.23,7.47-1.48,5-1.7,7.8-6,8.69-11.07.67-3.81-1.12-7.74-4-10.59a14.52,14.52,0,0,0-7.67-4.07,21,21,0,0,0-9.43.39,3.54,3.54,0,0,0-2.24,1.51,2.52,2.52,0,0,0,0,2.05c.08.19.63,1.38.76,1.37a6.53,6.53,0,0,1,2.76.49Z" transform="translate(-260.942 -146.433)" fill="#12100b"/><path d="M678.36,416.44a8.36,8.36,0,0,1-3-4.07c-2.93-6.84-6.8-13.21-9.87-19.93-.94-2.05-3.15-1.79-3.43.47-.42,3.32,1.08,6.56,2.07,9.64,1.55,4.89,2.87,9.87,4.25,14.81a12.756,12.756,0,0,0,1.13,3c2,3.36,7.38,4,10.74,5.27,5,1.85,10.08,3.42,15.14,5.08,2,.65,4.27,1.64,6.39,1.08,2.52-.66,4-3.77,2.22-5.92-2.29-2.69-6.93-4-10.21-4.87-4.39-1.22-8.79-2.41-13.19-3.61a8,8,0,0,1-2.28-1Z" transform="translate(-251.068 -149.694)" fill="#f3aaa1"/><path d="M655.49,390.58c1.78,2.09,5,2.42,6.51,4.71a.581.581,0,0,0,.22.22h.26c1-.26,2-.53,3.07-.82a.82.82,0,0,0,.53-.31.851.851,0,0,0,0-.59,32.15,32.15,0,0,1-.94-5.56c0-1.57.13-4.23-1.22-5.36-.14-.12-.35-.23-.52-.13l-.18.19c-.64,1.12.16,2.66-.17,3.89l-.14.23a.41.41,0,0,1-.29,0c-2.09-.42-4.18-2.36-5.74-3.72a4.668,4.668,0,0,0-1.24-.88,2.43,2.43,0,0,0-2.38.34,2.4,2.4,0,0,0-.84,2.25,4.472,4.472,0,0,0,.47,1.23,20.6,20.6,0,0,0,2.58,4.31Z" transform="translate(-240.143 -141.198)" fill="#f3aaa1"/><path d="M733.13,380.76c-.57,2.68-3.23,4.49-3.49,7.23a.48.48,0,0,1-.09.29l-.24.12c-1,.25-2.06.5-3.1.73a.8.8,0,0,1-.61,0,.89.89,0,0,1-.3-.51,32.005,32.005,0,0,0-1.8-5.35c-.71-1.4-2.13-3.66-1.47-5.29.07-.18.21-.37.4-.37l.24.09c1.1.68,1.12,2.42,2,3.34a.35.35,0,0,0,.24.14.37.37,0,0,0,.25-.12c1.65-1.36,2.57-4.05,3.29-6a5,5,0,0,1,.69-1.36,2.35,2.35,0,0,1,4.06.76,4.736,4.736,0,0,1,.17,1.3,20.539,20.539,0,0,1-.24,5Z" transform="translate(-265.122 -138.261)" fill="#f3aaa1"/><g clip-path="url(#a)"><path d="M687.83,419.169l-2.51,6.734a59.5,59.5,0,0,0,5.836,2.274,10.193,10.193,0,0,0,4.511.465,3.581,3.581,0,0,0,2.7-2.383,4.033,4.033,0,0,0-.593-3.822c-1.351-1.7-3.88-1.841-5.842-2.255-.306-.064-4.09-1.064-4.1-1.013Z" transform="translate(-248.795 -152.253)" fill="#008f6c"/><path d="M621.758,167.863V0H619.21V167.863" transform="translate(-224.802 -0.127)" fill="#008f6c"/></g><path d="M620,279.37a2.9,2.9,0,0,0,3.49-2.33c.8-2.71-2.25-4.26-3.15-6.47-1.69-4.18-1.33-6.12-1.06-10.56.2-3.2,1.47-4.95,2.9-.46l1,3.94c-.33,6.16,4.89,6.05,5.33,11.69a8.53,8.53,0,0,1-5.67,9c-2.83.94-6.32-.14-8.66-2.13" transform="translate(-226.229 -96.68)" fill="#008f6c"/><path d="M619.75,754.89a281.427,281.427,0,0,1-56.25-5.75s7.41-1.7,19.16-3.25h0c0,.2-.53,2.71-.23,2.71,4.14,0,20.73-.16,20.74-.32a14.24,14.24,0,0,0-.33-4.39c5.34-.34,11-.54,16.92-.54,3.94,0,7.79.09,11.5.25a5.56,5.56,0,0,0-1.21,2.47c0,.2-.57,2.7-.28,2.7,2.52,0,9.62.09,14.81.09,3.36,0,5.93,0,5.93-.09a17.7,17.7,0,0,0-.1-3.69,248.3,248.3,0,0,1,25.6,4,281.435,281.435,0,0,1-56.25,5.75" transform="translate(-230.508 -290.466)" fill="#dfdfeb"/><path d="M644.57,748.9c-5.19,0-12.29,0-14.81-.09-.29,0,.23-2.5.28-2.7a5.56,5.56,0,0,1,1.21-2.47c6.94.3,13.4.85,19.15,1.48a17.7,17.7,0,0,1,.1,3.69c0,.07-2.57.09-5.93.09" transform="translate(-233.473 -290.466)" fill="#31316b"/><path d="M582.42,748.64c-.3,0,.19-2.51.23-2.71h0c5.79-.76,12.64-1.49,20.17-2a14.239,14.239,0,0,1,.33,4.39c0,.16-16.6.31-20.74.32" transform="translate(-215.92 -290.466)" fill="#31316b"/><path d="M424.44,754.89a281.562,281.562,0,0,1-56.25-5.75,262.265,262.265,0,0,1,31.57-4.62,1.688,1.688,0,0,0-.11.27,13.87,13.87,0,0,0-.29,4.48c0,.06,2.56.08,5.91.08,5.2,0,12.32-.05,14.83-.08.3,0-.23-2.5-.27-2.7a5.28,5.28,0,0,0-1.88-3.1c2.13-.06,4.29-.08,6.49-.08q4.08,0,8,.12v.33a1.35,1.35,0,0,0-.93.95,13.871,13.871,0,0,0-.29,4.48c0,.06,2.56.08,5.91.08,5.2,0,12.31-.05,14.83-.08.3,0-.23-2.5-.28-2.7a5.72,5.72,0,0,0-.76-1.88,258.572,258.572,0,0,1,29.74,4.45,281.426,281.426,0,0,1-56.25,5.75" transform="translate(-150.631 -290.466)" fill="#dfdfeb"/><path d="M405.27,749.35c-3.35,0-5.9,0-5.91-.08a13.869,13.869,0,0,1,.29-4.48,1.689,1.689,0,0,1,.11-.27c5.6-.5,11.73-.89,18.19-1a5.28,5.28,0,0,1,1.88,3.1c0,.2.57,2.7.27,2.7-2.51,0-9.63.08-14.83.08" transform="translate(-148.081 -290.466)" fill="#31316b"/><path d="M432.47,743.84v-.33h1.52l-1.14.2-.36.08" transform="translate(-157.269 -290.466)" fill="#d29297"/><path d="M437.16,749.35c-3.35,0-5.91,0-5.91-.08a13.87,13.87,0,0,1,.29-4.48,1.35,1.35,0,0,1,.93-.95l.36-.08,1.14-.2c6,.22,11.76.63,17,1.13a5.719,5.719,0,0,1,.76,1.88c.05.2.58,2.7.28,2.7-2.52,0-9.63.08-14.83.08" transform="translate(-159.906 -290.466)" fill="#31316b"/><path d="M930,132.33c.38-2.3-2.66-6.93-6-6.85-1.32,0-2.61.37-3.92.31-3.51-.18-5.33-2.91-6.68-5.17s-4-4.84-7.47-4.27c-4.92.83-7.4,7.32-13,2.45-3.66-3.2-3.94-7.66-8.08-10.76a13.58,13.58,0,0,0-11.3-2.21c-5,1.54-6.83,6.48-12.14,7.34-5.87,1-10.1-3.52-12-6.75-2.27-3.91-3.12-8.14-5.07-12.12-1.8-3.68-5.43-8.62-11.93-8.51-5.5.09-7.92,3.57-10.62,6.33-3.51,3.6-10.8,16.5-19,14.94-3.19-.6-4.78-3.14-7.66-4.27-4.63-1.83-10.53.68-13.31,3.83s-3.9,7-7.05,9.95a7.25,7.25,0,0,1-3.08,1.85c-4.4,1.2-8.5-2.5-13.21-2.78a11,11,0,0,0-8.13,3.2c-1.87,1.87-2.89,4.07-4.32,6.11a4.609,4.609,0,0,1-1.57,1.53c-2.07,1.11-5,.17-7.51-.26-6.25-1.08-13.36,1.79-15.12,6.11Z" transform="translate(-363 -0.2)" fill="#def0f3"/><path d="M126.58,118c-.25-1.51,1.74-4.54,3.92-4.49.86,0,1.71.24,2.57.2,2.3-.11,3.49-1.91,4.38-3.39s2.65-3.17,4.89-2.8c3.23.55,4.86,4.8,8.53,1.61,2.4-2.1,2.58-5,5.3-7a8.84,8.84,0,0,1,7.4-1.45c3.27,1,4.48,4.24,8,4.8,3.85.63,6.62-2.3,7.85-4.42,1.5-2.56,2.05-5.33,3.33-7.94,1.18-2.42,3.56-5.65,7.82-5.58,3.61.06,5.2,2.34,7,4.15,2.3,2.35,7.08,10.81,12.44,9.79,2.09-.39,3.14-2.06,5-2.8,3-1.19,6.9.45,8.73,2.52s2.55,4.56,4.62,6.51a4.71,4.71,0,0,0,2,1.22c2.88.79,5.57-1.64,8.66-1.82a7.13,7.13,0,0,1,5.33,2.1,25.53,25.53,0,0,1,2.83,4,3,3,0,0,0,1,1c1.36.73,3.26.12,4.92-.17,4.1-.7,8.76,1.18,9.92,4Z" transform="translate(-0.12 -0.2)" fill="#def0f3"/><path d="M509.86,185h4.45a8,8,0,0,0,8-8v-6.56H501.86V177A8,8,0,0,0,509.86,185Z" transform="translate(-186.015 -63.13)" fill="#094b83"/><path d="M511.49,190.22h1.19a5.58,5.58,0,0,0,5.58-5.58v-1.43H505.91v1.43A5.58,5.58,0,0,0,511.49,190.22Z" transform="translate(-185.979 -67.206)" fill="#094b83"/><path d="M487.11,134.65a25,25,0,1,1,42.33,18.1,19.16,19.16,0,0,0-5.75,13.72v3.11a3.5,3.5,0,0,1-3.5,3.5H504a3.49,3.49,0,0,1-3.5-3.5v-3.11a19.13,19.13,0,0,0-5.76-13.72,25.23,25.23,0,0,1-7.61-18.1Z" transform="translate(-186.164 -0.2)" fill="#fcc049"/><path d="M515.7,173.1c.08-7,.24-14,.75-21,.26-3.53.6-7.06,1.08-10.56a15.262,15.262,0,0,1,1-3.93,7.82,7.82,0,0,1,4.05-4.34,5.17,5.17,0,0,1,2.08-.55,1.81,1.81,0,0,1,1.22.39.94.94,0,0,1,.34.77,2.23,2.23,0,0,1-.29,1,2.7,2.7,0,0,1-.69.85,23.16,23.16,0,0,1-13.19,4.46v2a25.16,25.16,0,0,0,14.4-4.89,4.66,4.66,0,0,0,1.23-1.48,4.33,4.33,0,0,0,.52-1.95,3,3,0,0,0-1-2.3,3.87,3.87,0,0,0-2.51-.86,7,7,0,0,0-2.94.74,9.85,9.85,0,0,0-5,5.37,17.441,17.441,0,0,0-1.16,4.44c-.48,3.55-.84,7.12-1.1,10.68-.51,7.06-.67,14.12-.75,21.16h2Z" transform="translate(-188.962 -50.216)" fill="#fff"/><path d="M510.47,173.07c-.08-7-.24-14.1-.76-21.16-.26-3.56-.61-7.13-1.09-10.68a17.86,17.86,0,0,0-1.16-4.44,10.43,10.43,0,0,0-2.74-3.88,10.152,10.152,0,0,0-2.3-1.49,7,7,0,0,0-2.94-.74,3.86,3.86,0,0,0-2.5.86,2.94,2.94,0,0,0-1.05,2.3,4.32,4.32,0,0,0,.51,1.95,4.69,4.69,0,0,0,1.24,1.48,25.1,25.1,0,0,0,14.39,4.89v-2a23.13,23.13,0,0,1-13.18-4.46,2.729,2.729,0,0,1-.7-.85,2.21,2.21,0,0,1-.28-1,.94.94,0,0,1,.34-.77,1.76,1.76,0,0,1,1.21-.39,5.21,5.21,0,0,1,2.09.55,7.9,7.9,0,0,1,4.05,4.34,16.108,16.108,0,0,1,1,3.93c.47,3.5.82,7,1.08,10.56.51,7,.66,14,.75,21h2Z" transform="translate(-183.013 -50.204)" fill="#fff"/><path d="M513.08,98.51V83a1,1,0,1,0-2,0V98.51a1,1,0,0,0,2,0Z" transform="translate(-185.931 -0.2)" fill="#fcc049"/><path d="M538.19,109.74l11-11a1,1,0,0,0-1.41-1.41l-11,11a1,1,0,0,0,1.42,1.42Z" transform="translate(-197.333 -0.2)" fill="#fcc049"/><path d="M548,135.43h15.55a1,1,0,0,0,0-2H548a1,1,0,0,0,0,2Z" transform="translate(-202.142 -0.2)" fill="#fcc049"/><path d="M536.77,160.53l11,11a1,1,0,0,0,1.41-1.41l-11-11a1,1,0,1,0-1.42,1.41Z" transform="translate(-197.328 -58.716)" fill="#fcc049"/><path d="M486,159.12q-5.5,5.49-11,11a1,1,0,1,0,1.42,1.41l11-11a1,1,0,0,0-1.41-1.41Z" transform="translate(-174.62 -58.736)" fill="#fcc049"/><path d="M476.16,133.43H460.61a1,1,0,0,0,0,2h15.55a1,1,0,0,0,0-2Z" transform="translate(-169.859 -0.2)" fill="#fcc049"/><path d="M487.39,108.32l-11-11A1,1,0,0,0,475,98.74l11,11a1,1,0,0,0,1.41-1.42Z" transform="translate(-174.641 -0.2)" fill="#fcc049"/><path d="M380.64,274.34c-.53-1.49-3.1-9.2-2.71-9.35L372,267.3a19.931,19.931,0,0,0,1.57,4.83c.67,1.53,1.45,3,2.07,4.55a51.082,51.082,0,0,1,5-2.16l-.07-.18Z" transform="translate(-136.26 -97.724)" fill="#f3aaa1"/><path d="M372,232.81a90.219,90.219,0,0,0-4.54-12.34,4.91,4.91,0,0,0-1.41-2.05,5.1,5.1,0,0,0-1.86-.73l-15.73-3.93a93.49,93.49,0,0,0-15.7-3c-3.32-.24-13-1.27-14.26,2.76a5.47,5.47,0,0,0,.74,4.11c2.5,4.56,7.58,7,12.48,8.76a87.84,87.84,0,0,0,25.62,4.91c4.62,12.88,8.11,26.15,12.1,39.27l10.29-2.79s-3-15.81-3.36-17.46c-1.38-5.93-2.67-11.79-4.37-17.53Z" transform="translate(-123.173 -82.711)" fill="#008f6c"/><path d="M391.19,281.28c.28.06.34-2.49.34-2.69a5,5,0,0,0-1.94-4.22,10.59,10.59,0,0,0-4-1.59,74.494,74.494,0,0,0-11.82-1.22,1.42,1.42,0,0,0-1.49.71,13.861,13.861,0,0,0-1.3,4.3c0,.15,16.15,3.82,20.2,4.71Z" transform="translate(-137.539 -99.889)" fill="#0c5093"/><path d="M341.33,156.53c-1.09,1.73-1.43,3.12-3.75,2.8a12.59,12.59,0,0,1-5.75-2.47c-3.36-2.46-6.31-6.4-6.89-10.61-.85-6.2,4.51-11.26,10.29-12.19a14.182,14.182,0,0,1,2.06-.16c4.9,0,11.23,2.21,9.87,8.28a45.8,45.8,0,0,1-5.83,14.35Z" transform="translate(-120.685 -0.2)" fill="#f3aaa1"/><path d="M349.58,273.63c.47-1.52,3-9.23,3.43-9.12l-6.12-1.7a20.6,20.6,0,0,0-1.63,4.82c-.38,1.62-.62,3.25-1.07,4.88a51.867,51.867,0,0,1,5.34,1.29l.05-.17Z" transform="translate(-126.102 -96.835)" fill="#f3aaa1"/><path d="M353.37,233.12a63.823,63.823,0,0,0-2.94,9.09c-2.22,8.27-6.64,24.82-6.64,24.82l9.23,2.76c2.31-6.39,5-12.64,7.72-18.87.95-2.17,1.88-4.37,2.81-6.56,1.67-3.91,3.36-7.81,5.25-11.62,2.39-4.8,3.81-8.87,3.44-14.35-.22-3.44-1.49-6-5-6.69a90.473,90.473,0,0,0-11.36-1.45c-2.51-.17-5-.23-7.55-.3l-17.86-.47-9.15-.23c-2-.05-4.57-.75-6.47-.38-.86,3.23-1.45,7.18-.4,10.43,2.84,8.8,10.84,13,19.78,12.71a43.49,43.49,0,0,0,15.29-3.88,18.48,18.48,0,0,1,5.74-1.78c.38,2.2-1,4.82-1.9,6.77Z" transform="translate(-121.059 -82.145)" fill="#05ae99"/><path d="M357.35,286.54c.24.16,1.23-2.19,1.3-2.38a5,5,0,0,0-.26-4.63,10.38,10.38,0,0,0-3.14-2.94,72.683,72.683,0,0,0-10.55-5.47,1.41,1.41,0,0,0-1.64.12,13.589,13.589,0,0,0-2.78,3.52c-.09.13,13.63,9.47,17.07,11.78Z" transform="translate(-125.94 -100.407)" fill="#0c5093"/><path d="M335,163.25a.62.62,0,0,1-.12.3.64.64,0,0,1-.36.14,22.73,22.73,0,0,1-8.4-.62q1.11-4.86,2.5-9.63a.5.5,0,0,1,.14-.27.47.47,0,0,1,.35,0c1.43.26,2.85.53,4.26.82,1.2.24,2.4.38,3.6.65a44.316,44.316,0,0,0-1,4.42c-.3,1.41-.6,2.82-.93,4.22Z" transform="translate(-119.731 -56.457)" fill="#f3aaa1"/><path d="M341.66,209.78c-4.68-.15-27.28.17-27.26,0,.76-7.14.2-14.55.31-21.76a52.8,52.8,0,0,1,2.8-17.64c1.83-5,4.91-10.27,10.91-10.17a10.36,10.36,0,0,1,3.16.57c5.06,1.72,7.62,6.83,9,11.62,1.83,6.22,1.87,12.79,1.72,19.22-.08,3.4.19,6.81.08,10.21-.09,2.64-.48,5.29-.76,7.93Z" transform="translate(-117.466 -62.112)" fill="#0c5093"/><path d="M332.35,150.51a4.66,4.66,0,0,1-1.72,3.55c-4.51,3.65-6.88-9.3-7.19-11.74-.46-3.58.09-7.62,2.83-10.21,4.6-4.37,12.62-3.82,17.86-1.06a11.35,11.35,0,0,1,4.59,4,6.14,6.14,0,0,1,.36,5.91c-.4.74-1.2,1.43-2,1.17a5.921,5.921,0,0,1-1-.7,2.47,2.47,0,0,0-2.63.23c-1.18.79-1.54,2.19-2.73,2.9a6.29,6.29,0,0,1-2.35.89,8.28,8.28,0,0,1-2.12-.29,1.61,1.61,0,0,0-.94-1.93,2.44,2.44,0,0,0-2.28.34c-2.64,1.83-.59,4.43-.64,6.91Z" transform="translate(-120.585 -0.2)" fill="#ce7b13"/><path d="M325.71,186.32c-.44,1.31-.88,2.63-1.41,3.94q-1.71,4.2-3.4,8.42c-.42,1-1,2.19-2,2.55a2.58,2.58,0,0,1-1.94-.19,4.84,4.84,0,0,1-2.4-3.15c-.81-3.06.36-6.19,1.26-9.08a119.643,119.643,0,0,1,6.05-15.33,29.075,29.075,0,0,1,2-3.85,7.24,7.24,0,0,1,3.19-2.84,4.15,4.15,0,0,1,4.1.45c1.31,1.06,1.1,2.69.61,4.12a99.185,99.185,0,0,1-4,9.79,48.587,48.587,0,0,0-2,5.17Z" transform="translate(-116.213 -63.286)" fill="#f3aaa1"/><path d="M326.52,195c6.77.64,13.44,2.36,20.05,4.07a3.74,3.74,0,0,1,1.51.63c1.06.88.94,3.1-.44,3.63a3.41,3.41,0,0,1-1.1.16,75,75,0,0,1-9.83,0c-3.42-.33-6.84-.69-10.24-1.13-1.37-.18-2.75-.38-4.12-.58-1.73-.27-3.62-.27-5.18-1.19a1.29,1.29,0,0,1-.42-.35,1.26,1.26,0,0,1-.16-.46,4.23,4.23,0,0,1,0-2.26c.78-2.36,3.24-2.84,5.41-2.81,1.52,0,3,.11,4.53.25Z" transform="translate(-118.757 -71.59)" fill="#f3aaa1"/><path d="M316.69,144.5a14.52,14.52,0,0,1,5.54-5.54c2.93-1.81,7.33-5.08,5.63-9.15a5.4,5.4,0,0,0-2.88-2.7c-4.59-2-11.66-1.71-15.71,1.4-3.19,2.44-4.37,6.47-4.14,10.35a38.1,38.1,0,0,0,1.39,6.81,14.75,14.75,0,0,1,.37,6.88c-.37,1.58-1.44,3.21-3.05,3.38a7.29,7.29,0,0,0,5.33-.42,11.08,11.08,0,0,0,4.57-4.88c1.08-2,1.84-4.15,2.95-6.13Z" transform="translate(-113.104 -0.2)" fill="#ce7b13"/><path d="M374.61,212.65l-28.13-2.71.32-3.32,28.13,2.71-.32,3.32Z" transform="translate(-129.504 -75.684)" fill="#0c5093"/><path d="M371.69,211.35l10.93-26.07,3.07,1.29-10.92,26.07-3.08-1.29Z" transform="translate(-136.886 -69.749)" fill="#0c5093"/><path d="M357.78,199.76a8.069,8.069,0,0,0-1.46-.43l-3.55-.74a7.11,7.11,0,0,0-3.6-.12,6.811,6.811,0,0,0-1.58.83L345,200.93a2.62,2.62,0,0,0,.92,2.23,8.08,8.08,0,0,0,2.16,1.27,11.71,11.71,0,0,0,1.67.64c2.7.73,5.5-.61,7.89-2.06.2.93.39,1.86.58,2.79.13.61.78,2,1.6,1.14a1.54,1.54,0,0,0,.21-1.28l-.39-2.89a5.611,5.611,0,0,0-.44-1.77,2.64,2.64,0,0,0-1.46-1.24Z" transform="translate(-127.2 -72.904)" fill="#f3aaa1"/></g></g></svg>